<?xml version="1.0" encoding="UTF-8" standalone="no"?><svg xmlns="http://www.w3.org/2000/svg" xmlns:xlink="http://www.w3.org/1999/xlink" clip-rule="evenodd" stroke-miterlimit="10" viewBox="0 0 585 479"><desc>SVG generated by Keynote</desc><defs></defs><g transform="matrix(1.00, 0.00, -0.00, -1.00, 0.0, 479.0)"><path d="M 0.1 0.5 L 576.1 0.5 L 576.1 471.5 L 0.1 471.5 Z M 0.0 0.0 " fill="none" stroke="#961817" stroke-width="5.00" transform="matrix(1.00, 0.00, 0.00, -1.00, 4.4, 475.0)"></path><g><clipPath id="clip0x7f88a794fd30"><path d="M 3.8 3.1 L 581.4 3.1 L 581.4 475.6 L 3.8 475.6 Z M 3.8 3.1 "></path></clipPath><g clip-path="url(#clip0x7f88a794fd30)"><text xml:space="preserve" font-family="Menlo-Regular,Menlo" font-size="30.0" fill="#FFFFFF" transform="matrix(1.00, 0.00, -0.00, -1.00, 30.5, 438.9)">P</text><text xml:space="preserve" font-family="Menlo-Regular,Menlo" font-size="30.0" fill="#FFFFFF" transform="matrix(1.00, 0.00, -0.00, -1.00, 48.6, 438.9)">e</text><text xml:space="preserve" font-family="Menlo-Regular,Menlo" font-size="30.0" fill="#FFFFFF" transform="matrix(1.00, 0.00, -0.00, -1.00, 66.6, 438.9)">r</text><text xml:space="preserve" font-family="Menlo-Regular,Menlo" font-size="30.0" fill="#FFFFFF" transform="matrix(1.00, 0.00, -0.00, -1.00, 84.7, 438.9)">s</text><text xml:space="preserve" font-family="Menlo-Regular,Menlo" font-size="30.0" fill="#FFFFFF" transform="matrix(1.00, 0.00, -0.00, -1.00, 102.8, 438.9)">o</text><text xml:space="preserve" font-family="Menlo-Regular,Menlo" font-size="30.0" fill="#FFFFFF" transform="matrix(1.00, 0.00, -0.00, -1.00, 120.8, 438.9)">n</text><text xml:space="preserve" font-family="Menlo-Regular,Menlo" font-size="30.0" fill="#FFFFFF" transform="matrix(1.00, 0.00, -0.00, -1.00, 138.9, 438.9)"> </text><text xml:space="preserve" font-family="Menlo-Regular,Menlo" font-size="30.0" fill="#FFFFFF" transform="matrix(1.00, 0.00, -0.00, -1.00, 30.5, 403.9)">{</text><text xml:space="preserve" font-family="Menlo-Regular,Menlo" font-size="30.0" fill="#FFFFFF" transform="matrix(1.00, 0.00, -0.00, -1.00, 48.6, 403.9)"> </text><text xml:space="preserve" font-family="Menlo-Regular,Menlo" font-size="30.0" fill="#FF4647" transform="matrix(1.00, 0.00, -0.00, -1.00, 66.5, 368.9)">"</text><text xml:space="preserve" font-family="Menlo-Regular,Menlo" font-size="30.0" fill="#FF4647" transform="matrix(1.00, 0.00, -0.00, -1.00, 84.6, 368.9)">f</text><text xml:space="preserve" font-family="Menlo-Regular,Menlo" font-size="30.0" fill="#FF4647" transform="matrix(1.00, 0.00, -0.00, -1.00, 102.6, 368.9)">i</text><text xml:space="preserve" font-family="Menlo-Regular,Menlo" font-size="30.0" fill="#FF4647" transform="matrix(1.00, 0.00, -0.00, -1.00, 120.7, 368.9)">r</text><text xml:space="preserve" font-family="Menlo-Regular,Menlo" font-size="30.0" fill="#FF4647" transform="matrix(1.00, 0.00, -0.00, -1.00, 138.8, 368.9)">s</text><text xml:space="preserve" font-family="Menlo-Regular,Menlo" font-size="30.0" fill="#FF4647" transform="matrix(1.00, 0.00, -0.00, -1.00, 156.8, 368.9)">t</text><text xml:space="preserve" font-family="Menlo-Regular,Menlo" font-size="30.0" fill="#FF4647" transform="matrix(1.00, 0.00, -0.00, -1.00, 174.9, 368.9)">n</text><text xml:space="preserve" font-family="Menlo-Regular,Menlo" font-size="30.0" fill="#FF4647" transform="matrix(1.00, 0.00, -0.00, -1.00, 193.0, 368.9)">a</text><text xml:space="preserve" font-family="Menlo-Regular,Menlo" font-size="30.0" fill="#FF4647" transform="matrix(1.00, 0.00, -0.00, -1.00, 211.0, 368.9)">m</text><text xml:space="preserve" font-family="Menlo-Regular,Menlo" font-size="30.0" fill="#FF4647" transform="matrix(1.00, 0.00, -0.00, -1.00, 229.1, 368.9)">e</text><text xml:space="preserve" font-family="Menlo-Regular,Menlo" font-size="30.0" fill="#FF4647" transform="matrix(1.00, 0.00, -0.00, -1.00, 247.1, 368.9)">"</text><text xml:space="preserve" font-family="Menlo-Regular,Menlo" font-size="30.0" fill="#FFFFFF" transform="matrix(1.00, 0.00, -0.00, -1.00, 265.2, 368.9)">:</text><text xml:space="preserve" font-family="Menlo-Regular,Menlo" font-size="30.0" fill="#FFFFFF" transform="matrix(1.00, 0.00, -0.00, -1.00, 283.2, 368.9)"> </text><text xml:space="preserve" font-family="Menlo-Regular,Menlo" font-size="30.0" fill="#FF4647" transform="matrix(1.00, 0.00, -0.00, -1.00, 301.3, 368.9)">"</text><text xml:space="preserve" font-family="Menlo-Regular,Menlo" font-size="30.0" fill="#FF4647" transform="matrix(1.00, 0.00, -0.00, -1.00, 319.4, 368.9)">j</text><text xml:space="preserve" font-family="Menlo-Regular,Menlo" font-size="30.0" fill="#FF4647" transform="matrix(1.00, 0.00, -0.00, -1.00, 337.4, 368.9)">o</text><text xml:space="preserve" font-family="Menlo-Regular,Menlo" font-size="30.0" fill="#FF4647" transform="matrix(1.00, 0.00, -0.00, -1.00, 355.5, 368.9)">h</text><text xml:space="preserve" font-family="Menlo-Regular,Menlo" font-size="30.0" fill="#FF4647" transform="matrix(1.00, 0.00, -0.00, -1.00, 373.6, 368.9)">n</text><text xml:space="preserve" font-family="Menlo-Regular,Menlo" font-size="30.0" fill="#FF4647" transform="matrix(1.00, 0.00, -0.00, -1.00, 391.6, 368.9)">"</text><text xml:space="preserve" font-family="Menlo-Regular,Menlo" font-size="30.0" fill="#FFFFFF" transform="matrix(1.00, 0.00, -0.00, -1.00, 409.7, 368.9)">,</text><text xml:space="preserve" font-family="Menlo-Regular,Menlo" font-size="30.0" fill="#FFFFFF" transform="matrix(1.00, 0.00, -0.00, -1.00, 427.7, 368.9)"> </text><text xml:space="preserve" font-family="Menlo-Regular,Menlo" font-size="30.0" fill="#FFFFFF" transform="matrix(1.00, 0.00, -0.00, -1.00, 30.5, 333.9)"> </text><text xml:space="preserve" font-family="Menlo-Regular,Menlo" font-size="30.0" fill="#FFFFFF" transform="matrix(1.00, 0.00, -0.00, -1.00, 48.6, 333.9)"> </text><text xml:space="preserve" font-family="Menlo-Regular,Menlo" font-size="30.0" fill="#FF4647" transform="matrix(1.00, 0.00, -0.00, -1.00, 66.6, 333.9)">"</text><text xml:space="preserve" font-family="Menlo-Regular,Menlo" font-size="30.0" fill="#FF4647" transform="matrix(1.00, 0.00, -0.00, -1.00, 84.7, 333.9)">l</text><text xml:space="preserve" font-family="Menlo-Regular,Menlo" font-size="30.0" fill="#FF4647" transform="matrix(1.00, 0.00, -0.00, -1.00, 102.8, 333.9)">a</text><text xml:space="preserve" font-family="Menlo-Regular,Menlo" font-size="30.0" fill="#FF4647" transform="matrix(1.00, 0.00, -0.00, -1.00, 120.8, 333.9)">s</text><text xml:space="preserve" font-family="Menlo-Regular,Menlo" font-size="30.0" fill="#FF4647" transform="matrix(1.00, 0.00, -0.00, -1.00, 138.9, 333.9)">t</text><text xml:space="preserve" font-family="Menlo-Regular,Menlo" font-size="30.0" fill="#FF4647" transform="matrix(1.00, 0.00, -0.00, -1.00, 156.9, 333.9)">n</text><text xml:space="preserve" font-family="Menlo-Regular,Menlo" font-size="30.0" fill="#FF4647" transform="matrix(1.00, 0.00, -0.00, -1.00, 175.0, 333.9)">a</text><text xml:space="preserve" font-family="Menlo-Regular,Menlo" font-size="30.0" fill="#FF4647" transform="matrix(1.00, 0.00, -0.00, -1.00, 193.1, 333.9)">m</text><text xml:space="preserve" font-family="Menlo-Regular,Menlo" font-size="30.0" fill="#FF4647" transform="matrix(1.00, 0.00, -0.00, -1.00, 211.1, 333.9)">e</text><text xml:space="preserve" font-family="Menlo-Regular,Menlo" font-size="30.0" fill="#FF4647" transform="matrix(1.00, 0.00, -0.00, -1.00, 229.2, 333.9)">"</text><text xml:space="preserve" font-family="Menlo-Regular,Menlo" font-size="30.0" fill="#FFFFFF" transform="matrix(1.00, 0.00, -0.00, -1.00, 247.2, 333.9)">:</text><text xml:space="preserve" font-family="Menlo-Regular,Menlo" font-size="30.0" fill="#FFFFFF" transform="matrix(1.00, 0.00, -0.00, -1.00, 265.3, 333.9)"> </text><text xml:space="preserve" font-family="Menlo-Regular,Menlo" font-size="30.0" fill="#FF4647" transform="matrix(1.00, 0.00, -0.00, -1.00, 283.4, 333.9)">"</text><text xml:space="preserve" font-family="Menlo-Regular,Menlo" font-size="30.0" fill="#FF4647" transform="matrix(1.00, 0.00, -0.00, -1.00, 301.4, 333.9)">d</text><text xml:space="preserve" font-family="Menlo-Regular,Menlo" font-size="30.0" fill="#FF4647" transform="matrix(1.00, 0.00, -0.00, -1.00, 319.5, 333.9)">o</text><text xml:space="preserve" font-family="Menlo-Regular,Menlo" font-size="30.0" fill="#FF4647" transform="matrix(1.00, 0.00, -0.00, -1.00, 337.6, 333.9)">e</text><text xml:space="preserve" font-family="Menlo-Regular,Menlo" font-size="30.0" fill="#FF4647" transform="matrix(1.00, 0.00, -0.00, -1.00, 355.6, 333.9)">"</text><text xml:space="preserve" font-family="Menlo-Regular,Menlo" font-size="30.0" fill="#FFFFFF" transform="matrix(1.00, 0.00, -0.00, -1.00, 373.7, 333.9)">,</text><text xml:space="preserve" font-family="Menlo-Regular,Menlo" font-size="30.0" fill="#FFFFFF" transform="matrix(1.00, 0.00, -0.00, -1.00, 391.7, 333.9)"> </text><text xml:space="preserve" font-family="Menlo-Regular,Menlo" font-size="30.0" fill="#FFFFFF" transform="matrix(1.00, 0.00, -0.00, -1.00, 30.5, 298.9)"> </text><text xml:space="preserve" font-family="Menlo-Regular,Menlo" font-size="30.0" fill="#FFFFFF" transform="matrix(1.00, 0.00, -0.00, -1.00, 48.6, 298.9)"> </text><text xml:space="preserve" font-family="Menlo-Regular,Menlo" font-size="30.0" fill="#FF4647" transform="matrix(1.00, 0.00, -0.00, -1.00, 66.6, 298.9)">"</text><text xml:space="preserve" font-family="Menlo-Regular,Menlo" font-size="30.0" fill="#FF4647" transform="matrix(1.00, 0.00, -0.00, -1.00, 84.7, 298.9)">a</text><text xml:space="preserve" font-family="Menlo-Regular,Menlo" font-size="30.0" fill="#FF4647" transform="matrix(1.00, 0.00, -0.00, -1.00, 102.8, 298.9)">d</text><text xml:space="preserve" font-family="Menlo-Regular,Menlo" font-size="30.0" fill="#FF4647" transform="matrix(1.00, 0.00, -0.00, -1.00, 120.8, 298.9)">d</text><text xml:space="preserve" font-family="Menlo-Regular,Menlo" font-size="30.0" fill="#FF4647" transform="matrix(1.00, 0.00, -0.00, -1.00, 138.9, 298.9)">r</text><text xml:space="preserve" font-family="Menlo-Regular,Menlo" font-size="30.0" fill="#FF4647" transform="matrix(1.00, 0.00, -0.00, -1.00, 156.9, 298.9)">e</text><text xml:space="preserve" font-family="Menlo-Regular,Menlo" font-size="30.0" fill="#FF4647" transform="matrix(1.00, 0.00, -0.00, -1.00, 175.0, 298.9)">s</text><text xml:space="preserve" font-family="Menlo-Regular,Menlo" font-size="30.0" fill="#FF4647" transform="matrix(1.00, 0.00, -0.00, -1.00, 193.1, 298.9)">s</text><text xml:space="preserve" font-family="Menlo-Regular,Menlo" font-size="30.0" fill="#FF4647" transform="matrix(1.00, 0.00, -0.00, -1.00, 211.1, 298.9)">"</text><text xml:space="preserve" font-family="Menlo-Regular,Menlo" font-size="30.0" fill="#FFFFFF" transform="matrix(1.00, 0.00, -0.00, -1.00, 229.2, 298.9)">:</text><text xml:space="preserve" font-family="Menlo-Regular,Menlo" font-size="30.0" fill="#FFFFFF" transform="matrix(1.00, 0.00, -0.00, -1.00, 247.2, 298.9)"> </text><text xml:space="preserve" font-family="Menlo-Regular,Menlo" font-size="30.0" fill="#FFFFFF" transform="matrix(1.00, 0.00, -0.00, -1.00, 265.3, 298.9)">{</text><text xml:space="preserve" font-family="Menlo-Regular,Menlo" font-size="30.0" fill="#FFFFFF" transform="matrix(1.00, 0.00, -0.00, -1.00, 283.4, 298.9)"> </text><text xml:space="preserve" font-family="Menlo-Regular,Menlo" font-size="30.0" fill="#FFFFFF" transform="matrix(1.00, 0.00, -0.00, -1.00, 84.5, 263.9)"> </text><text xml:space="preserve" font-family="Menlo-Regular,Menlo" font-size="30.0" fill="#FFFFFF" transform="matrix(1.00, 0.00, -0.00, -1.00, 102.6, 263.9)"> </text><text xml:space="preserve" font-family="Menlo-Regular,Menlo" font-size="30.0" fill="#FF4647" transform="matrix(1.00, 0.00, -0.00, -1.00, 120.6, 263.9)">"</text><text xml:space="preserve" font-family="Menlo-Regular,Menlo" font-size="30.0" fill="#FF4647" transform="matrix(1.00, 0.00, -0.00, -1.00, 138.7, 263.9)">s</text><text xml:space="preserve" font-family="Menlo-Regular,Menlo" font-size="30.0" fill="#FF4647" transform="matrix(1.00, 0.00, -0.00, -1.00, 156.8, 263.9)">t</text><text xml:space="preserve" font-family="Menlo-Regular,Menlo" font-size="30.0" fill="#FF4647" transform="matrix(1.00, 0.00, -0.00, -1.00, 174.8, 263.9)">r</text><text xml:space="preserve" font-family="Menlo-Regular,Menlo" font-size="30.0" fill="#FF4647" transform="matrix(1.00, 0.00, -0.00, -1.00, 192.9, 263.9)">e</text><text xml:space="preserve" font-family="Menlo-Regular,Menlo" font-size="30.0" fill="#FF4647" transform="matrix(1.00, 0.00, -0.00, -1.00, 210.9, 263.9)">e</text><text xml:space="preserve" font-family="Menlo-Regular,Menlo" font-size="30.0" fill="#FF4647" transform="matrix(1.00, 0.00, -0.00, -1.00, 229.0, 263.9)">t</text><text xml:space="preserve" font-family="Menlo-Regular,Menlo" font-size="30.0" fill="#FF4647" transform="matrix(1.00, 0.00, -0.00, -1.00, 247.1, 263.9)">"</text><text xml:space="preserve" font-family="Menlo-Regular,Menlo" font-size="30.0" fill="#FFFFFF" transform="matrix(1.00, 0.00, -0.00, -1.00, 265.1, 263.9)">:</text><text xml:space="preserve" font-family="Menlo-Regular,Menlo" font-size="30.0" fill="#FFFFFF" transform="matrix(1.00, 0.00, -0.00, -1.00, 283.2, 263.9)"> </text><text xml:space="preserve" font-family="Menlo-Regular,Menlo" font-size="30.0" fill="#FF4647" transform="matrix(1.00, 0.00, -0.00, -1.00, 301.2, 263.9)">"</text><text xml:space="preserve" font-family="Menlo-Regular,Menlo" font-size="30.0" fill="#FF4647" transform="matrix(1.00, 0.00, -0.00, -1.00, 319.3, 263.9)">B</text><text xml:space="preserve" font-family="Menlo-Regular,Menlo" font-size="30.0" fill="#FF4647" transform="matrix(1.00, 0.00, -0.00, -1.00, 337.4, 263.9)">u</text><text xml:space="preserve" font-family="Menlo-Regular,Menlo" font-size="30.0" fill="#FF4647" transform="matrix(1.00, 0.00, -0.00, -1.00, 355.4, 263.9)">c</text><text xml:space="preserve" font-family="Menlo-Regular,Menlo" font-size="30.0" fill="#FF4647" transform="matrix(1.00, 0.00, -0.00, -1.00, 373.5, 263.9)">h</text><text xml:space="preserve" font-family="Menlo-Regular,Menlo" font-size="30.0" fill="#FF4647" transform="matrix(1.00, 0.00, -0.00, -1.00, 391.6, 263.9)"> </text><text xml:space="preserve" font-family="Menlo-Regular,Menlo" font-size="30.0" fill="#FF4647" transform="matrix(1.00, 0.00, -0.00, -1.00, 409.6, 263.9)">S</text><text xml:space="preserve" font-family="Menlo-Regular,Menlo" font-size="30.0" fill="#FF4647" transform="matrix(1.00, 0.00, -0.00, -1.00, 427.7, 263.9)">t</text><text xml:space="preserve" font-family="Menlo-Regular,Menlo" font-size="30.0" fill="#FF4647" transform="matrix(1.00, 0.00, -0.00, -1.00, 445.8, 263.9)">r</text><text xml:space="preserve" font-family="Menlo-Regular,Menlo" font-size="30.0" fill="#FF4647" transform="matrix(1.00, 0.00, -0.00, -1.00, 463.8, 263.9)">e</text><text xml:space="preserve" font-family="Menlo-Regular,Menlo" font-size="30.0" fill="#FF4647" transform="matrix(1.00, 0.00, -0.00, -1.00, 481.9, 263.9)">e</text><text xml:space="preserve" font-family="Menlo-Regular,Menlo" font-size="30.0" fill="#FF4647" transform="matrix(1.00, 0.00, -0.00, -1.00, 499.9, 263.9)">t</text><text xml:space="preserve" font-family="Menlo-Regular,Menlo" font-size="30.0" fill="#FF4647" transform="matrix(1.00, 0.00, -0.00, -1.00, 518.0, 263.9)">"</text><text xml:space="preserve" font-family="Menlo-Regular,Menlo" font-size="30.0" fill="#FFFFFF" transform="matrix(1.00, 0.00, -0.00, -1.00, 536.0, 263.9)">,</text><text xml:space="preserve" font-family="Menlo-Regular,Menlo" font-size="30.0" fill="#FFFFFF" transform="matrix(1.00, 0.00, -0.00, -1.00, 554.1, 263.9)"> </text><text xml:space="preserve" font-family="Menlo-Regular,Menlo" font-size="30.0" fill="#FFFFFF" transform="matrix(1.00, 0.00, -0.00, -1.00, 12.5, 228.9)"> </text><text xml:space="preserve" font-family="Menlo-Regular,Menlo" font-size="30.0" fill="#FFFFFF" transform="matrix(1.00, 0.00, -0.00, -1.00, 30.6, 228.9)"> </text><text xml:space="preserve" font-family="Menlo-Regular,Menlo" font-size="30.0" fill="#FFFFFF" transform="matrix(1.00, 0.00, -0.00, -1.00, 48.6, 228.9)"> </text><text xml:space="preserve" font-family="Menlo-Regular,Menlo" font-size="30.0" fill="#FFFFFF" transform="matrix(1.00, 0.00, -0.00, -1.00, 66.7, 228.9)"> </text><text xml:space="preserve" font-family="Menlo-Regular,Menlo" font-size="30.0" fill="#FFFFFF" transform="matrix(1.00, 0.00, -0.00, -1.00, 84.8, 228.9)"> </text><text xml:space="preserve" font-family="Menlo-Regular,Menlo" font-size="30.0" fill="#FFFFFF" transform="matrix(1.00, 0.00, -0.00, -1.00, 102.8, 228.9)"> </text><text xml:space="preserve" font-family="Menlo-Regular,Menlo" font-size="30.0" fill="#FF4647" transform="matrix(1.00, 0.00, -0.00, -1.00, 120.9, 228.9)">"</text><text xml:space="preserve" font-family="Menlo-Regular,Menlo" font-size="30.0" fill="#FF4647" transform="matrix(1.00, 0.00, -0.00, -1.00, 138.9, 228.9)">p</text><text xml:space="preserve" font-family="Menlo-Regular,Menlo" font-size="30.0" fill="#FF4647" transform="matrix(1.00, 0.00, -0.00, -1.00, 157.0, 228.9)">o</text><text xml:space="preserve" font-family="Menlo-Regular,Menlo" font-size="30.0" fill="#FF4647" transform="matrix(1.00, 0.00, -0.00, -1.00, 175.1, 228.9)">B</text><text xml:space="preserve" font-family="Menlo-Regular,Menlo" font-size="30.0" fill="#FF4647" transform="matrix(1.00, 0.00, -0.00, -1.00, 193.1, 228.9)">o</text><text xml:space="preserve" font-family="Menlo-Regular,Menlo" font-size="30.0" fill="#FF4647" transform="matrix(1.00, 0.00, -0.00, -1.00, 211.2, 228.9)">x</text><text xml:space="preserve" font-family="Menlo-Regular,Menlo" font-size="30.0" fill="#FF4647" transform="matrix(1.00, 0.00, -0.00, -1.00, 229.3, 228.9)">"</text><text xml:space="preserve" font-family="Menlo-Regular,Menlo" font-size="30.0" fill="#FFFFFF" transform="matrix(1.00, 0.00, -0.00, -1.00, 247.3, 228.9)">:</text><text xml:space="preserve" font-family="Menlo-Regular,Menlo" font-size="30.0" fill="#FFFFFF" transform="matrix(1.00, 0.00, -0.00, -1.00, 265.4, 228.9)"> </text><text xml:space="preserve" font-family="Menlo-Regular,Menlo" font-size="30.0" fill="#8B87FF" transform="matrix(1.00, 0.00, -0.00, -1.00, 283.4, 228.9)">1</text><text xml:space="preserve" font-family="Menlo-Regular,Menlo" font-size="30.0" fill="#8B87FF" transform="matrix(1.00, 0.00, -0.00, -1.00, 301.5, 228.9)">2</text><text xml:space="preserve" font-family="Menlo-Regular,Menlo" font-size="30.0" fill="#8B87FF" transform="matrix(1.00, 0.00, -0.00, -1.00, 319.6, 228.9)">3</text><text xml:space="preserve" font-family="Menlo-Regular,Menlo" font-size="30.0" fill="#FFFFFF" transform="matrix(1.00, 0.00, -0.00, -1.00, 337.6, 228.9)">,</text><text xml:space="preserve" font-family="Menlo-Regular,Menlo" font-size="30.0" fill="#FFFFFF" transform="matrix(1.00, 0.00, -0.00, -1.00, 355.7, 228.9)"> </text><text xml:space="preserve" font-family="Menlo-Regular,Menlo" font-size="30.0" fill="#FFFFFF" transform="matrix(1.00, 0.00, -0.00, -1.00, 12.5, 193.9)"> </text><text xml:space="preserve" font-family="Menlo-Regular,Menlo" font-size="30.0" fill="#FFFFFF" transform="matrix(1.00, 0.00, -0.00, -1.00, 30.6, 193.9)"> </text><text xml:space="preserve" font-family="Menlo-Regular,Menlo" font-size="30.0" fill="#FFFFFF" transform="matrix(1.00, 0.00, -0.00, -1.00, 48.6, 193.9)"> </text><text xml:space="preserve" font-family="Menlo-Regular,Menlo" font-size="30.0" fill="#FFFFFF" transform="matrix(1.00, 0.00, -0.00, -1.00, 66.7, 193.9)"> </text><text xml:space="preserve" font-family="Menlo-Regular,Menlo" font-size="30.0" fill="#FFFFFF" transform="matrix(1.00, 0.00, -0.00, -1.00, 84.8, 193.9)"> </text><text xml:space="preserve" font-family="Menlo-Regular,Menlo" font-size="30.0" fill="#FFFFFF" transform="matrix(1.00, 0.00, -0.00, -1.00, 102.8, 193.9)"> </text><text xml:space="preserve" font-family="Menlo-Regular,Menlo" font-size="30.0" fill="#FF4647" transform="matrix(1.00, 0.00, -0.00, -1.00, 120.9, 193.9)">"</text><text xml:space="preserve" font-family="Menlo-Regular,Menlo" font-size="30.0" fill="#FF4647" transform="matrix(1.00, 0.00, -0.00, -1.00, 138.9, 193.9)">c</text><text xml:space="preserve" font-family="Menlo-Regular,Menlo" font-size="30.0" fill="#FF4647" transform="matrix(1.00, 0.00, -0.00, -1.00, 157.0, 193.9)">i</text><text xml:space="preserve" font-family="Menlo-Regular,Menlo" font-size="30.0" fill="#FF4647" transform="matrix(1.00, 0.00, -0.00, -1.00, 175.1, 193.9)">t</text><text xml:space="preserve" font-family="Menlo-Regular,Menlo" font-size="30.0" fill="#FF4647" transform="matrix(1.00, 0.00, -0.00, -1.00, 193.1, 193.9)">y</text><text xml:space="preserve" font-family="Menlo-Regular,Menlo" font-size="30.0" fill="#FF4647" transform="matrix(1.00, 0.00, -0.00, -1.00, 211.2, 193.9)">"</text><text xml:space="preserve" font-family="Menlo-Regular,Menlo" font-size="30.0" fill="#FFFFFF" transform="matrix(1.00, 0.00, -0.00, -1.00, 229.2, 193.9)">:</text><text xml:space="preserve" font-family="Menlo-Regular,Menlo" font-size="30.0" fill="#FFFFFF" transform="matrix(1.00, 0.00, -0.00, -1.00, 247.3, 193.9)"> </text><text xml:space="preserve" font-family="Menlo-Regular,Menlo" font-size="30.0" fill="#FF4647" transform="matrix(1.00, 0.00, -0.00, -1.00, 265.4, 193.9)">"</text><text xml:space="preserve" font-family="Menlo-Regular,Menlo" font-size="30.0" fill="#FF4647" transform="matrix(1.00, 0.00, -0.00, -1.00, 283.4, 193.9)">G</text><text xml:space="preserve" font-family="Menlo-Regular,Menlo" font-size="30.0" fill="#FF4647" transform="matrix(1.00, 0.00, -0.00, -1.00, 301.5, 193.9)">l</text><text xml:space="preserve" font-family="Menlo-Regular,Menlo" font-size="30.0" fill="#FF4647" transform="matrix(1.00, 0.00, -0.00, -1.00, 319.6, 193.9)">a</text><text xml:space="preserve" font-family="Menlo-Regular,Menlo" font-size="30.0" fill="#FF4647" transform="matrix(1.00, 0.00, -0.00, -1.00, 337.6, 193.9)">s</text><text xml:space="preserve" font-family="Menlo-Regular,Menlo" font-size="30.0" fill="#FF4647" transform="matrix(1.00, 0.00, -0.00, -1.00, 355.7, 193.9)">g</text><text xml:space="preserve" font-family="Menlo-Regular,Menlo" font-size="30.0" fill="#FF4647" transform="matrix(1.00, 0.00, -0.00, -1.00, 373.7, 193.9)">o</text><text xml:space="preserve" font-family="Menlo-Regular,Menlo" font-size="30.0" fill="#FF4647" transform="matrix(1.00, 0.00, -0.00, -1.00, 391.8, 193.9)">w</text><text xml:space="preserve" font-family="Menlo-Regular,Menlo" font-size="30.0" fill="#FF4647" transform="matrix(1.00, 0.00, -0.00, -1.00, 409.9, 193.9)">"</text><text xml:space="preserve" font-family="Menlo-Regular,Menlo" font-size="30.0" fill="#FFFFFF" transform="matrix(1.00, 0.00, -0.00, -1.00, 427.9, 193.9)">,</text><text xml:space="preserve" font-family="Menlo-Regular,Menlo" font-size="30.0" fill="#FFFFFF" transform="matrix(1.00, 0.00, -0.00, -1.00, 446.0, 193.9)"> </text><text xml:space="preserve" font-family="Menlo-Regular,Menlo" font-size="30.0" fill="#FFFFFF" transform="matrix(1.00, 0.00, -0.00, -1.00, 12.5, 158.9)"> </text><text xml:space="preserve" font-family="Menlo-Regular,Menlo" font-size="30.0" fill="#FFFFFF" transform="matrix(1.00, 0.00, -0.00, -1.00, 30.6, 158.9)"> </text><text xml:space="preserve" font-family="Menlo-Regular,Menlo" font-size="30.0" fill="#FFFFFF" transform="matrix(1.00, 0.00, -0.00, -1.00, 48.6, 158.9)"> </text><text xml:space="preserve" font-family="Menlo-Regular,Menlo" font-size="30.0" fill="#FFFFFF" transform="matrix(1.00, 0.00, -0.00, -1.00, 66.7, 158.9)"> </text><text xml:space="preserve" font-family="Menlo-Regular,Menlo" font-size="30.0" fill="#FFFFFF" transform="matrix(1.00, 0.00, -0.00, -1.00, 84.8, 158.9)"> </text><text xml:space="preserve" font-family="Menlo-Regular,Menlo" font-size="30.0" fill="#FFFFFF" transform="matrix(1.00, 0.00, -0.00, -1.00, 102.8, 158.9)"> </text><text xml:space="preserve" font-family="Menlo-Regular,Menlo" font-size="30.0" fill="#FF4647" transform="matrix(1.00, 0.00, -0.00, -1.00, 120.9, 158.9)">"</text><text xml:space="preserve" font-family="Menlo-Regular,Menlo" font-size="30.0" fill="#FF4647" transform="matrix(1.00, 0.00, -0.00, -1.00, 138.9, 158.9)">c</text><text xml:space="preserve" font-family="Menlo-Regular,Menlo" font-size="30.0" fill="#FF4647" transform="matrix(1.00, 0.00, -0.00, -1.00, 157.0, 158.9)">o</text><text xml:space="preserve" font-family="Menlo-Regular,Menlo" font-size="30.0" fill="#FF4647" transform="matrix(1.00, 0.00, -0.00, -1.00, 175.1, 158.9)">u</text><text xml:space="preserve" font-family="Menlo-Regular,Menlo" font-size="30.0" fill="#FF4647" transform="matrix(1.00, 0.00, -0.00, -1.00, 193.1, 158.9)">n</text><text xml:space="preserve" font-family="Menlo-Regular,Menlo" font-size="30.0" fill="#FF4647" transform="matrix(1.00, 0.00, -0.00, -1.00, 211.2, 158.9)">t</text><text xml:space="preserve" font-family="Menlo-Regular,Menlo" font-size="30.0" fill="#FF4647" transform="matrix(1.00, 0.00, -0.00, -1.00, 229.3, 158.9)">r</text><text xml:space="preserve" font-family="Menlo-Regular,Menlo" font-size="30.0" fill="#FF4647" transform="matrix(1.00, 0.00, -0.00, -1.00, 247.3, 158.9)">y</text><text xml:space="preserve" font-family="Menlo-Regular,Menlo" font-size="30.0" fill="#FF4647" transform="matrix(1.00, 0.00, -0.00, -1.00, 265.4, 158.9)">"</text><text xml:space="preserve" font-family="Menlo-Regular,Menlo" font-size="30.0" fill="#FFFFFF" transform="matrix(1.00, 0.00, -0.00, -1.00, 283.4, 158.9)">:</text><text xml:space="preserve" font-family="Menlo-Regular,Menlo" font-size="30.0" fill="#FFFFFF" transform="matrix(1.00, 0.00, -0.00, -1.00, 301.5, 158.9)"> </text><text xml:space="preserve" font-family="Menlo-Regular,Menlo" font-size="30.0" fill="#FF4647" transform="matrix(1.00, 0.00, -0.00, -1.00, 319.5, 158.9)">"</text><text xml:space="preserve" font-family="Menlo-Regular,Menlo" font-size="30.0" fill="#FF4647" transform="matrix(1.00, 0.00, -0.00, -1.00, 337.6, 158.9)">U</text><text xml:space="preserve" font-family="Menlo-Regular,Menlo" font-size="30.0" fill="#FF4647" transform="matrix(1.00, 0.00, -0.00, -1.00, 355.7, 158.9)">K</text><text xml:space="preserve" font-family="Menlo-Regular,Menlo" font-size="30.0" fill="#FF4647" transform="matrix(1.00, 0.00, -0.00, -1.00, 373.7, 158.9)">"</text><text xml:space="preserve" font-family="Menlo-Regular,Menlo" font-size="30.0" fill="#FFFFFF" transform="matrix(1.00, 0.00, -0.00, -1.00, 391.8, 158.9)"> </text><text xml:space="preserve" font-family="Menlo-Regular,Menlo" font-size="30.0" fill="#FFFFFF" transform="matrix(1.00, 0.00, -0.00, -1.00, 12.5, 123.9)"> </text><text xml:space="preserve" font-family="Menlo-Regular,Menlo" font-size="30.0" fill="#FFFFFF" transform="matrix(1.00, 0.00, -0.00, -1.00, 30.6, 123.9)"> </text><text xml:space="preserve" font-family="Menlo-Regular,Menlo" font-size="30.0" fill="#FFFFFF" transform="matrix(1.00, 0.00, -0.00, -1.00, 48.6, 123.9)"> </text><text xml:space="preserve" font-family="Menlo-Regular,Menlo" font-size="30.0" fill="#FFFFFF" transform="matrix(1.00, 0.00, -0.00, -1.00, 66.7, 123.9)"> </text><text xml:space="preserve" font-family="Menlo-Regular,Menlo" font-size="30.0" fill="#FFFFFF" transform="matrix(1.00, 0.00, -0.00, -1.00, 84.8, 123.9)"> </text><text xml:space="preserve" font-family="Menlo-Regular,Menlo" font-size="30.0" fill="#FFFFFF" transform="matrix(1.00, 0.00, -0.00, -1.00, 102.8, 123.9)"> </text><text xml:space="preserve" font-family="Menlo-Regular,Menlo" font-size="30.0" fill="#FFFFFF" transform="matrix(1.00, 0.00, -0.00, -1.00, 120.9, 123.9)">}</text><text xml:space="preserve" font-family="Menlo-Regular,Menlo" font-size="30.0" fill="#FFFFFF" transform="matrix(1.00, 0.00, -0.00, -1.00, 139.0, 123.9)"> </text><text xml:space="preserve" font-family="Menlo-Regular,Menlo" font-size="30.0" fill="#FFFFFF" transform="matrix(1.00, 0.00, -0.00, -1.00, 157.0, 123.9)"> </text><text xml:space="preserve" font-family="Menlo-Regular,Menlo" font-size="30.0" fill="#FFFFFF" transform="matrix(1.00, 0.00, -0.00, -1.00, 175.1, 123.9)"> </text><text xml:space="preserve" font-family="Menlo-Regular,Menlo" font-size="30.0" fill="#FFFFFF" transform="matrix(1.00, 0.00, -0.00, -1.00, 12.5, 88.9)"> </text><text xml:space="preserve" font-family="Menlo-Regular,Menlo" font-size="30.0" fill="#FFFFFF" transform="matrix(1.00, 0.00, -0.00, -1.00, 30.6, 88.9)">}</text><text xml:space="preserve" font-family="Menlo-Regular,Menlo" font-size="30.0" fill="#FFFFFF" transform="matrix(1.00, 0.00, -0.00, -1.00, 48.6, 88.9)"> </text></g></g></g></svg>