<?xml version="1.0" encoding="UTF-8" standalone="no"?><svg xmlns="http://www.w3.org/2000/svg" xmlns:xlink="http://www.w3.org/1999/xlink" clip-rule="evenodd" stroke-miterlimit="10" viewBox="0 0 557 85"><desc>SVG generated by Keynote</desc><defs></defs><g transform="matrix(1.00, 0.00, -0.00, -1.00, 0.0, 85.0)"><text xml:space="preserve" font-family="Courier,Courier" font-size="94.0" fill="#000000" transform="matrix(1.00, 0.00, -0.00, -1.00, 1.2, 20.0)">W</text><text xml:space="preserve" font-family="Courier,Courier" font-size="94.0" fill="#000000" transform="matrix(1.00, 0.00, -0.00, -1.00, 57.6, 20.0)">h</text><text xml:space="preserve" font-family="Courier,Courier" font-size="94.0" fill="#000000" transform="matrix(1.00, 0.00, -0.00, -1.00, 114.0, 20.0)">y</text><text xml:space="preserve" font-family="Courier,Courier" font-size="94.0" fill="#000000" transform="matrix(1.00, 0.00, -0.00, -1.00, 170.5, 20.0)"> </text><text xml:space="preserve" font-family="Courier,Courier" font-size="94.0" fill="#000000" transform="matrix(1.00, 0.00, -0.00, -1.00, 226.9, 20.0)">S</text><text xml:space="preserve" font-family="Courier,Courier" font-size="94.0" fill="#000000" transform="matrix(1.00, 0.00, -0.00, -1.00, 283.3, 20.0)">w</text><text xml:space="preserve" font-family="Courier,Courier" font-size="94.0" fill="#000000" transform="matrix(1.00, 0.00, -0.00, -1.00, 339.7, 20.0)">i</text><text xml:space="preserve" font-family="Courier,Courier" font-size="94.0" fill="#000000" transform="matrix(1.00, 0.00, -0.00, -1.00, 396.1, 20.0)">f</text><text xml:space="preserve" font-family="Courier,Courier" font-size="94.0" fill="#000000" transform="matrix(1.00, 0.00, -0.00, -1.00, 452.6, 20.0)">t</text><text xml:space="preserve" font-family="Courier,Courier" font-size="94.0" fill="#000000" transform="matrix(1.00, 0.00, -0.00, -1.00, 509.0, 20.0)">?</text></g></svg>