<?xml version="1.0" encoding="UTF-8" standalone="no"?><svg xmlns="http://www.w3.org/2000/svg" xmlns:xlink="http://www.w3.org/1999/xlink" clip-rule="evenodd" stroke-miterlimit="10" viewBox="0 0 935 417"><desc>SVG generated by Keynote</desc><defs></defs><g transform="matrix(1.00, 0.00, -0.00, -1.00, 0.0, 417.0)"><text xml:space="preserve" font-family="Helvetica,Helvetica" font-size="56.0" fill="#000000" transform="matrix(1.00, 0.00, -0.00, -1.00, 1.0, 349.8)">A</text><text xml:space="preserve" font-family="Helvetica,Helvetica" font-size="56.0" fill="#000000" transform="matrix(1.00, 0.00, -0.00, -1.00, 38.4, 349.8)">p</text><text xml:space="preserve" font-family="Helvetica,Helvetica" font-size="56.0" fill="#000000" transform="matrix(1.00, 0.00, -0.00, -1.00, 69.5, 349.8)">p</text><text xml:space="preserve" font-family="Helvetica,Helvetica" font-size="56.0" fill="#000000" transform="matrix(1.00, 0.00, -0.00, -1.00, 100.7, 349.8)">l</text><text xml:space="preserve" font-family="Helvetica,Helvetica" font-size="56.0" fill="#000000" transform="matrix(1.00, 0.00, -0.00, -1.00, 113.1, 349.8)">e</text><text xml:space="preserve" font-family="Helvetica,Helvetica" font-size="56.0" fill="#000000" transform="matrix(1.00, 0.00, -0.00, -1.00, 144.3, 349.8)"> </text><text xml:space="preserve" font-family="Helvetica,Helvetica" font-size="56.0" fill="#000000" transform="matrix(1.00, 0.00, -0.00, -1.00, 159.8, 349.8)">g</text><text xml:space="preserve" font-family="Helvetica,Helvetica" font-size="56.0" fill="#000000" transform="matrix(1.00, 0.00, -0.00, -1.00, 191.0, 349.8)">o</text><text xml:space="preserve" font-family="Helvetica,Helvetica" font-size="56.0" fill="#000000" transform="matrix(1.00, 0.00, -0.00, -1.00, 222.1, 349.8)">a</text><text xml:space="preserve" font-family="Helvetica,Helvetica" font-size="56.0" fill="#000000" transform="matrix(1.00, 0.00, -0.00, -1.00, 253.3, 349.8)">l</text><text xml:space="preserve" font-family="Helvetica,Helvetica" font-size="56.0" fill="#000000" transform="matrix(1.00, 0.00, -0.00, -1.00, 265.7, 349.8)">s</text><text xml:space="preserve" font-family="Helvetica,Helvetica" font-size="56.0" fill="#000000" transform="matrix(1.00, 0.00, -0.00, -1.00, 293.7, 349.8)"> </text><text xml:space="preserve" font-family="Helvetica,Helvetica" font-size="56.0" fill="#000000" transform="matrix(1.00, 0.00, -0.00, -1.00, 309.3, 349.8)">w</text><text xml:space="preserve" font-family="Helvetica,Helvetica" font-size="56.0" fill="#000000" transform="matrix(1.00, 0.00, -0.00, -1.00, 349.7, 349.8)">i</text><text xml:space="preserve" font-family="Helvetica,Helvetica" font-size="56.0" fill="#000000" transform="matrix(1.00, 0.00, -0.00, -1.00, 362.2, 349.8)">t</text><text xml:space="preserve" font-family="Helvetica,Helvetica" font-size="56.0" fill="#000000" transform="matrix(1.00, 0.00, -0.00, -1.00, 377.7, 349.8)">h</text><text xml:space="preserve" font-family="Helvetica,Helvetica" font-size="56.0" fill="#000000" transform="matrix(1.00, 0.00, -0.00, -1.00, 408.9, 349.8)"> </text><text xml:space="preserve" font-family="Helvetica,Helvetica" font-size="56.0" fill="#000000" transform="matrix(1.00, 0.00, -0.00, -1.00, 424.4, 349.8)">S</text><text xml:space="preserve" font-family="Helvetica,Helvetica" font-size="56.0" fill="#000000" transform="matrix(1.00, 0.00, -0.00, -1.00, 461.8, 349.8)">w</text><text xml:space="preserve" font-family="Helvetica,Helvetica" font-size="56.0" fill="#000000" transform="matrix(1.00, 0.00, -0.00, -1.00, 502.3, 349.8)">i</text><text xml:space="preserve" font-family="Helvetica,Helvetica" font-size="56.0" fill="#000000" transform="matrix(1.00, 0.00, -0.00, -1.00, 514.7, 349.8)">f</text><text xml:space="preserve" font-family="Helvetica,Helvetica" font-size="56.0" fill="#000000" transform="matrix(1.00, 0.00, -0.00, -1.00, 530.3, 349.8)">t</text><text xml:space="preserve" font-family="Helvetica,Helvetica" font-size="56.0" fill="#000000" transform="matrix(1.00, 0.00, -0.00, -1.00, 545.8, 349.8)">:</text><text xml:space="preserve" font-family="Helvetica,Helvetica" font-size="56.0" fill="#000000" transform="matrix(1.00, 0.00, -0.00, -1.00, 1.0, 215.8)">•</text><text xml:space="preserve" font-family="Helvetica,Helvetica" font-size="56.0" fill="#000000" transform="matrix(1.00, 0.00, -0.00, -1.00, 20.6, 215.8)"> </text><text xml:space="preserve" font-family="Helvetica,Helvetica" font-size="56.0" fill="#000000" transform="matrix(1.00, 0.00, -0.00, -1.00, 36.2, 215.8)">m</text><text xml:space="preserve" font-family="Helvetica,Helvetica" font-size="56.0" fill="#000000" transform="matrix(1.00, 0.00, -0.00, -1.00, 82.8, 215.8)">o</text><text xml:space="preserve" font-family="Helvetica,Helvetica" font-size="56.0" fill="#000000" transform="matrix(1.00, 0.00, -0.00, -1.00, 114.0, 215.8)">d</text><text xml:space="preserve" font-family="Helvetica,Helvetica" font-size="56.0" fill="#000000" transform="matrix(1.00, 0.00, -0.00, -1.00, 145.1, 215.8)">e</text><text xml:space="preserve" font-family="Helvetica,Helvetica" font-size="56.0" fill="#000000" transform="matrix(1.00, 0.00, -0.00, -1.00, 176.3, 215.8)">r</text><text xml:space="preserve" font-family="Helvetica,Helvetica" font-size="56.0" fill="#000000" transform="matrix(1.00, 0.00, -0.00, -1.00, 194.9, 215.8)">n</text><text xml:space="preserve" font-family="Helvetica,Helvetica" font-size="56.0" fill="#000000" transform="matrix(1.00, 0.00, -0.00, -1.00, 1.0, 148.8)">•</text><text xml:space="preserve" font-family="Helvetica,Helvetica" font-size="56.0" fill="#000000" transform="matrix(1.00, 0.00, -0.00, -1.00, 20.6, 148.8)"> </text><text xml:space="preserve" font-family="Helvetica,Helvetica" font-size="56.0" fill="#000000" transform="matrix(1.00, 0.00, -0.00, -1.00, 36.2, 148.8)">e</text><text xml:space="preserve" font-family="Helvetica,Helvetica" font-size="56.0" fill="#000000" transform="matrix(1.00, 0.00, -0.00, -1.00, 67.3, 148.8)">a</text><text xml:space="preserve" font-family="Helvetica,Helvetica" font-size="56.0" fill="#000000" transform="matrix(1.00, 0.00, -0.00, -1.00, 98.5, 148.8)">s</text><text xml:space="preserve" font-family="Helvetica,Helvetica" font-size="56.0" fill="#000000" transform="matrix(1.00, 0.00, -0.00, -1.00, 126.5, 148.8)">y</text><text xml:space="preserve" font-family="Helvetica,Helvetica" font-size="56.0" fill="#000000" transform="matrix(1.00, 0.00, -0.00, -1.00, 154.5, 148.8)">-</text><text xml:space="preserve" font-family="Helvetica,Helvetica" font-size="56.0" fill="#000000" transform="matrix(1.00, 0.00, -0.00, -1.00, 173.1, 148.8)">t</text><text xml:space="preserve" font-family="Helvetica,Helvetica" font-size="56.0" fill="#000000" transform="matrix(1.00, 0.00, -0.00, -1.00, 188.7, 148.8)">o</text><text xml:space="preserve" font-family="Helvetica,Helvetica" font-size="56.0" fill="#000000" transform="matrix(1.00, 0.00, -0.00, -1.00, 219.8, 148.8)">-</text><text xml:space="preserve" font-family="Helvetica,Helvetica" font-size="56.0" fill="#000000" transform="matrix(1.00, 0.00, -0.00, -1.00, 238.5, 148.8)">r</text><text xml:space="preserve" font-family="Helvetica,Helvetica" font-size="56.0" fill="#000000" transform="matrix(1.00, 0.00, -0.00, -1.00, 257.1, 148.8)">e</text><text xml:space="preserve" font-family="Helvetica,Helvetica" font-size="56.0" fill="#000000" transform="matrix(1.00, 0.00, -0.00, -1.00, 288.3, 148.8)">a</text><text xml:space="preserve" font-family="Helvetica,Helvetica" font-size="56.0" fill="#000000" transform="matrix(1.00, 0.00, -0.00, -1.00, 319.4, 148.8)">d</text><text xml:space="preserve" font-family="Helvetica,Helvetica" font-size="56.0" fill="#000000" transform="matrix(1.00, 0.00, -0.00, -1.00, 350.6, 148.8)"> </text><text xml:space="preserve" font-family="Helvetica,Helvetica" font-size="56.0" fill="#000000" transform="matrix(1.00, 0.00, -0.00, -1.00, 366.1, 148.8)">c</text><text xml:space="preserve" font-family="Helvetica,Helvetica" font-size="56.0" fill="#000000" transform="matrix(1.00, 0.00, -0.00, -1.00, 394.1, 148.8)">o</text><text xml:space="preserve" font-family="Helvetica,Helvetica" font-size="56.0" fill="#000000" transform="matrix(1.00, 0.00, -0.00, -1.00, 425.3, 148.8)">d</text><text xml:space="preserve" font-family="Helvetica,Helvetica" font-size="56.0" fill="#000000" transform="matrix(1.00, 0.00, -0.00, -1.00, 456.4, 148.8)">e</text><text xml:space="preserve" font-family="Helvetica,Helvetica" font-size="56.0" fill="#000000" transform="matrix(1.00, 0.00, -0.00, -1.00, 1.0, 81.8)">•</text><text xml:space="preserve" font-family="Helvetica,Helvetica" font-size="56.0" fill="#000000" transform="matrix(1.00, 0.00, -0.00, -1.00, 20.6, 81.8)"> </text><text xml:space="preserve" font-family="Helvetica,Helvetica" font-size="56.0" fill="#000000" transform="matrix(1.00, 0.00, -0.00, -1.00, 36.2, 81.8)">s</text><text xml:space="preserve" font-family="Helvetica,Helvetica" font-size="56.0" fill="#000000" transform="matrix(1.00, 0.00, -0.00, -1.00, 64.2, 81.8)">a</text><text xml:space="preserve" font-family="Helvetica,Helvetica" font-size="56.0" fill="#000000" transform="matrix(1.00, 0.00, -0.00, -1.00, 95.3, 81.8)">f</text><text xml:space="preserve" font-family="Helvetica,Helvetica" font-size="56.0" fill="#000000" transform="matrix(1.00, 0.00, -0.00, -1.00, 110.9, 81.8)">e</text><text xml:space="preserve" font-family="Helvetica,Helvetica" font-size="56.0" fill="#000000" transform="matrix(1.00, 0.00, -0.00, -1.00, 142.0, 81.8)">r</text><text xml:space="preserve" font-family="Helvetica,Helvetica" font-size="56.0" fill="#000000" transform="matrix(1.00, 0.00, -0.00, -1.00, 160.7, 81.8)"> </text><text xml:space="preserve" font-family="Helvetica,Helvetica" font-size="56.0" fill="#000000" transform="matrix(1.00, 0.00, -0.00, -1.00, 176.2, 81.8)">c</text><text xml:space="preserve" font-family="Helvetica,Helvetica" font-size="56.0" fill="#000000" transform="matrix(1.00, 0.00, -0.00, -1.00, 204.2, 81.8)">o</text><text xml:space="preserve" font-family="Helvetica,Helvetica" font-size="56.0" fill="#000000" transform="matrix(1.00, 0.00, -0.00, -1.00, 235.4, 81.8)">d</text><text xml:space="preserve" font-family="Helvetica,Helvetica" font-size="56.0" fill="#000000" transform="matrix(1.00, 0.00, -0.00, -1.00, 266.5, 81.8)">e</text><text xml:space="preserve" font-family="Helvetica,Helvetica" font-size="56.0" fill="#000000" transform="matrix(1.00, 0.00, -0.00, -1.00, 1.0, 14.8)">•</text><text xml:space="preserve" font-family="Helvetica,Helvetica" font-size="56.0" fill="#000000" transform="matrix(1.00, 0.00, -0.00, -1.00, 20.6, 14.8)"> </text><text xml:space="preserve" font-family="Helvetica,Helvetica" font-size="56.0" fill="#000000" transform="matrix(1.00, 0.00, -0.00, -1.00, 36.2, 14.8)">c</text><text xml:space="preserve" font-family="Helvetica,Helvetica" font-size="56.0" fill="#000000" transform="matrix(1.00, 0.00, -0.00, -1.00, 64.2, 14.8)">o</text><text xml:space="preserve" font-family="Helvetica,Helvetica" font-size="56.0" fill="#000000" transform="matrix(1.00, 0.00, -0.00, -1.00, 95.3, 14.8)">m</text><text xml:space="preserve" font-family="Helvetica,Helvetica" font-size="56.0" fill="#000000" transform="matrix(1.00, 0.00, -0.00, -1.00, 142.0, 14.8)">p</text><text xml:space="preserve" font-family="Helvetica,Helvetica" font-size="56.0" fill="#000000" transform="matrix(1.00, 0.00, -0.00, -1.00, 173.1, 14.8)">a</text><text xml:space="preserve" font-family="Helvetica,Helvetica" font-size="56.0" fill="#000000" transform="matrix(1.00, 0.00, -0.00, -1.00, 204.3, 14.8)">t</text><text xml:space="preserve" font-family="Helvetica,Helvetica" font-size="56.0" fill="#000000" transform="matrix(1.00, 0.00, -0.00, -1.00, 219.8, 14.8)">i</text><text xml:space="preserve" font-family="Helvetica,Helvetica" font-size="56.0" fill="#000000" transform="matrix(1.00, 0.00, -0.00, -1.00, 232.3, 14.8)">b</text><text xml:space="preserve" font-family="Helvetica,Helvetica" font-size="56.0" fill="#000000" transform="matrix(1.00, 0.00, -0.00, -1.00, 263.4, 14.8)">l</text><text xml:space="preserve" font-family="Helvetica,Helvetica" font-size="56.0" fill="#000000" transform="matrix(1.00, 0.00, -0.00, -1.00, 275.9, 14.8)">e</text><text xml:space="preserve" font-family="Helvetica,Helvetica" font-size="56.0" fill="#000000" transform="matrix(1.00, 0.00, -0.00, -1.00, 307.0, 14.8)"> </text><text xml:space="preserve" font-family="Helvetica,Helvetica" font-size="56.0" fill="#000000" transform="matrix(1.00, 0.00, -0.00, -1.00, 322.6, 14.8)">w</text><text xml:space="preserve" font-family="Helvetica,Helvetica" font-size="56.0" fill="#000000" transform="matrix(1.00, 0.00, -0.00, -1.00, 363.0, 14.8)">i</text><text xml:space="preserve" font-family="Helvetica,Helvetica" font-size="56.0" fill="#000000" transform="matrix(1.00, 0.00, -0.00, -1.00, 375.5, 14.8)">t</text><text xml:space="preserve" font-family="Helvetica,Helvetica" font-size="56.0" fill="#000000" transform="matrix(1.00, 0.00, -0.00, -1.00, 391.0, 14.8)">h</text><text xml:space="preserve" font-family="Helvetica,Helvetica" font-size="56.0" fill="#000000" transform="matrix(1.00, 0.00, -0.00, -1.00, 422.2, 14.8)"> </text><text xml:space="preserve" font-family="Helvetica,Helvetica" font-size="56.0" fill="#000000" transform="matrix(1.00, 0.00, -0.00, -1.00, 437.7, 14.8)">e</text><text xml:space="preserve" font-family="Helvetica,Helvetica" font-size="56.0" fill="#000000" transform="matrix(1.00, 0.00, -0.00, -1.00, 468.9, 14.8)">x</text><text xml:space="preserve" font-family="Helvetica,Helvetica" font-size="56.0" fill="#000000" transform="matrix(1.00, 0.00, -0.00, -1.00, 496.9, 14.8)">i</text><text xml:space="preserve" font-family="Helvetica,Helvetica" font-size="56.0" fill="#000000" transform="matrix(1.00, 0.00, -0.00, -1.00, 509.4, 14.8)">s</text><text xml:space="preserve" font-family="Helvetica,Helvetica" font-size="56.0" fill="#000000" transform="matrix(1.00, 0.00, -0.00, -1.00, 537.4, 14.8)">t</text><text xml:space="preserve" font-family="Helvetica,Helvetica" font-size="56.0" fill="#000000" transform="matrix(1.00, 0.00, -0.00, -1.00, 552.9, 14.8)">i</text><text xml:space="preserve" font-family="Helvetica,Helvetica" font-size="56.0" fill="#000000" transform="matrix(1.00, 0.00, -0.00, -1.00, 565.4, 14.8)">n</text><text xml:space="preserve" font-family="Helvetica,Helvetica" font-size="56.0" fill="#000000" transform="matrix(1.00, 0.00, -0.00, -1.00, 596.5, 14.8)">g</text><text xml:space="preserve" font-family="Helvetica,Helvetica" font-size="56.0" fill="#000000" transform="matrix(1.00, 0.00, -0.00, -1.00, 627.7, 14.8)"> </text><text xml:space="preserve" font-family="Helvetica,Helvetica" font-size="56.0" fill="#000000" transform="matrix(1.00, 0.00, -0.00, -1.00, 643.2, 14.8)">O</text><text xml:space="preserve" font-family="Helvetica,Helvetica" font-size="56.0" fill="#000000" transform="matrix(1.00, 0.00, -0.00, -1.00, 686.8, 14.8)">b</text><text xml:space="preserve" font-family="Helvetica,Helvetica" font-size="56.0" fill="#000000" transform="matrix(1.00, 0.00, -0.00, -1.00, 717.9, 14.8)">j</text><text xml:space="preserve" font-family="Helvetica,Helvetica" font-size="56.0" fill="#000000" transform="matrix(1.00, 0.00, -0.00, -1.00, 730.4, 14.8)">e</text><text xml:space="preserve" font-family="Helvetica,Helvetica" font-size="56.0" fill="#000000" transform="matrix(1.00, 0.00, -0.00, -1.00, 761.5, 14.8)">c</text><text xml:space="preserve" font-family="Helvetica,Helvetica" font-size="56.0" fill="#000000" transform="matrix(1.00, 0.00, -0.00, -1.00, 789.5, 14.8)">t</text><text xml:space="preserve" font-family="Helvetica,Helvetica" font-size="56.0" fill="#000000" transform="matrix(1.00, 0.00, -0.00, -1.00, 805.1, 14.8)">i</text><text xml:space="preserve" font-family="Helvetica,Helvetica" font-size="56.0" fill="#000000" transform="matrix(1.00, 0.00, -0.00, -1.00, 817.5, 14.8)">v</text><text xml:space="preserve" font-family="Helvetica,Helvetica" font-size="56.0" fill="#000000" transform="matrix(1.00, 0.00, -0.00, -1.00, 845.5, 14.8)">e</text><text xml:space="preserve" font-family="Helvetica,Helvetica" font-size="56.0" fill="#000000" transform="matrix(1.00, 0.00, -0.00, -1.00, 876.7, 14.8)">-</text><text xml:space="preserve" font-family="Helvetica,Helvetica" font-size="56.0" fill="#000000" transform="matrix(1.00, 0.00, -0.00, -1.00, 895.3, 14.8)">C</text></g></svg>