<?xml version="1.0" encoding="UTF-8" standalone="no"?><svg xmlns="http://www.w3.org/2000/svg" xmlns:xlink="http://www.w3.org/1999/xlink" clip-rule="evenodd" stroke-miterlimit="10" viewBox="0 0 1920 1080"><desc>SVG generated by Keynote</desc><defs></defs><g transform="matrix(1.00, 0.00, -0.00, -1.00, 0.0, 1080.0)"><path d="M 0.0 1080.0 L 1920.0 1080.0 L 1920.0 0.0 L 0.0 0.0 Z M 0.0 1080.0 " fill="#000000"></path><text xml:space="preserve" font-family="BradleyHandITCTT-Bold,Bradley Hand" font-weight="bold" font-size="37.0" fill="#FEFFFF" transform="matrix(1.00, 0.00, -0.00, -1.00, 1697.6, 54.7)">s</text><text xml:space="preserve" font-family="BradleyHandITCTT-Bold,Bradley Hand" font-weight="bold" font-size="37.0" fill="#FEFFFF" transform="matrix(1.00, 0.00, -0.00, -1.00, 1714.4, 54.7)">w</text><text xml:space="preserve" font-family="BradleyHandITCTT-Bold,Bradley Hand" font-weight="bold" font-size="37.0" fill="#FEFFFF" transform="matrix(1.00, 0.00, -0.00, -1.00, 1739.4, 54.7)">i</text><text xml:space="preserve" font-family="BradleyHandITCTT-Bold,Bradley Hand" font-weight="bold" font-size="37.0" fill="#FEFFFF" transform="matrix(1.00, 0.00, -0.00, -1.00, 1751.6, 54.7)">f</text><text xml:space="preserve" font-family="BradleyHandITCTT-Bold,Bradley Hand" font-weight="bold" font-size="37.0" fill="#FEFFFF" transform="matrix(1.00, 0.00, -0.00, -1.00, 1766.8, 54.7)">t</text><text xml:space="preserve" font-family="BradleyHandITCTT-Bold,Bradley Hand" font-weight="bold" font-size="37.0" fill="#FEFFFF" transform="matrix(1.00, 0.00, -0.00, -1.00, 1779.8, 54.7)"> </text><text xml:space="preserve" font-family="BradleyHandITCTT-Bold,Bradley Hand" font-weight="bold" font-size="37.0" fill="#FEFFFF" transform="matrix(1.00, 0.00, -0.00, -1.00, 1789.3, 54.7)"> </text><text xml:space="preserve" font-family="BradleyHandITCTT-Bold,Bradley Hand" font-weight="bold" font-size="37.0" fill="#FEFFFF" transform="matrix(1.00, 0.00, -0.00, -1.00, 1798.7, 54.7)"> </text><g><clipPath id="clip0x7f88bdb7b3d0"><path d="M 1696.6 46.4 L 1779.8 46.4 L 1779.8 50.7 L 1696.6 50.7 Z M 1696.6 46.4 "></path></clipPath><g clip-path="url(#clip0x7f88bdb7b3d0)"><path d="M 170.1 58.0 L 252.4 58.0 " fill="none" stroke="#FEFFFF" stroke-width="2.26" transform="matrix(1.00, 0.00, 0.00, -1.00, 1527.4, 106.5)"></path></g></g><image xlink:href="../../EE8D7FD7-F828-4463-8A34-9043A96BD708/assets/D93F090722A5269D0B30C3E05CCA40BA.png" width="225.00" height="225.00" transform="matrix(0.48, 0.00, -0.00, -0.48, 1793.0, 116.0)"></image><image xlink:href="../../EE8D7FD7-F828-4463-8A34-9043A96BD708/assets/809A20498EB30952A0F745D08A283A09.png" width="1024.00" height="497.00" transform="matrix(1.52, 0.00, -0.00, -1.52, 107.0, 935.0)"></image><text xml:space="preserve" font-family="Courier,Courier" font-size="94.0" fill="#FEFFFF" transform="matrix(1.00, 0.00, -0.00, -1.00, 253.8, 989.7)">I</text><text xml:space="preserve" font-family="Courier,Courier" font-size="94.0" fill="#FEFFFF" transform="matrix(1.00, 0.00, -0.00, -1.00, 310.2, 989.7)">n</text><text xml:space="preserve" font-family="Courier,Courier" font-size="94.0" fill="#FEFFFF" transform="matrix(1.00, 0.00, -0.00, -1.00, 366.6, 989.7)">s</text><text xml:space="preserve" font-family="Courier,Courier" font-size="94.0" fill="#FEFFFF" transform="matrix(1.00, 0.00, -0.00, -1.00, 423.1, 989.7)">i</text><text xml:space="preserve" font-family="Courier,Courier" font-size="94.0" fill="#FEFFFF" transform="matrix(1.00, 0.00, -0.00, -1.00, 479.5, 989.7)">d</text><text xml:space="preserve" font-family="Courier,Courier" font-size="94.0" fill="#FEFFFF" transform="matrix(1.00, 0.00, -0.00, -1.00, 535.9, 989.7)">e</text><text xml:space="preserve" font-family="Courier,Courier" font-size="94.0" fill="#FEFFFF" transform="matrix(1.00, 0.00, -0.00, -1.00, 592.3, 989.7)"> </text><text xml:space="preserve" font-family="Courier,Courier" font-size="94.0" fill="#FEFFFF" transform="matrix(1.00, 0.00, -0.00, -1.00, 648.7, 989.7)">P</text><text xml:space="preserve" font-family="Courier,Courier" font-size="94.0" fill="#FEFFFF" transform="matrix(1.00, 0.00, -0.00, -1.00, 705.1, 989.7)">l</text><text xml:space="preserve" font-family="Courier,Courier" font-size="94.0" fill="#FEFFFF" transform="matrix(1.00, 0.00, -0.00, -1.00, 761.5, 989.7)">a</text><text xml:space="preserve" font-family="Courier,Courier" font-size="94.0" fill="#FEFFFF" transform="matrix(1.00, 0.00, -0.00, -1.00, 817.9, 989.7)">y</text><text xml:space="preserve" font-family="Courier,Courier" font-size="94.0" fill="#FEFFFF" transform="matrix(1.00, 0.00, -0.00, -1.00, 874.3, 989.7)">g</text><text xml:space="preserve" font-family="Courier,Courier" font-size="94.0" fill="#FEFFFF" transform="matrix(1.00, 0.00, -0.00, -1.00, 930.8, 989.7)">r</text><text xml:space="preserve" font-family="Courier,Courier" font-size="94.0" fill="#FEFFFF" transform="matrix(1.00, 0.00, -0.00, -1.00, 987.2, 989.7)">o</text><text xml:space="preserve" font-family="Courier,Courier" font-size="94.0" fill="#FEFFFF" transform="matrix(1.00, 0.00, -0.00, -1.00, 1043.6, 989.7)">u</text><text xml:space="preserve" font-family="Courier,Courier" font-size="94.0" fill="#FEFFFF" transform="matrix(1.00, 0.00, -0.00, -1.00, 1100.0, 989.7)">n</text><text xml:space="preserve" font-family="Courier,Courier" font-size="94.0" fill="#FEFFFF" transform="matrix(1.00, 0.00, -0.00, -1.00, 1156.4, 989.7)">d</text><text xml:space="preserve" font-family="Courier,Courier" font-size="94.0" fill="#FEFFFF" transform="matrix(1.00, 0.00, -0.00, -1.00, 1212.8, 989.7)">s</text></g></svg>