<?xml version="1.0" encoding="UTF-8" standalone="no"?><svg xmlns="http://www.w3.org/2000/svg" xmlns:xlink="http://www.w3.org/1999/xlink" clip-rule="evenodd" stroke-miterlimit="10" viewBox="0 0 103 47"><desc>SVG generated by Keynote</desc><defs></defs><g transform="matrix(1.00, 0.00, -0.00, -1.00, 0.0, 47.0)"><text xml:space="preserve" font-family="BradleyHandITCTT-Bold,Bradley Hand" font-weight="bold" font-size="37.0" fill="#FEFFFF" transform="matrix(1.00, 0.00, -0.00, -1.00, 1.6, 15.7)">s</text><text xml:space="preserve" font-family="BradleyHandITCTT-Bold,Bradley Hand" font-weight="bold" font-size="37.0" fill="#FEFFFF" transform="matrix(1.00, 0.00, -0.00, -1.00, 18.4, 15.7)">w</text><text xml:space="preserve" font-family="BradleyHandITCTT-Bold,Bradley Hand" font-weight="bold" font-size="37.0" fill="#FEFFFF" transform="matrix(1.00, 0.00, -0.00, -1.00, 43.4, 15.7)">i</text><text xml:space="preserve" font-family="BradleyHandITCTT-Bold,Bradley Hand" font-weight="bold" font-size="37.0" fill="#FEFFFF" transform="matrix(1.00, 0.00, -0.00, -1.00, 55.6, 15.7)">f</text><text xml:space="preserve" font-family="BradleyHandITCTT-Bold,Bradley Hand" font-weight="bold" font-size="37.0" fill="#FEFFFF" transform="matrix(1.00, 0.00, -0.00, -1.00, 70.8, 15.7)">t</text><text xml:space="preserve" font-family="BradleyHandITCTT-Bold,Bradley Hand" font-weight="bold" font-size="37.0" fill="#FEFFFF" transform="matrix(1.00, 0.00, -0.00, -1.00, 83.8, 15.7)"> </text><text xml:space="preserve" font-family="BradleyHandITCTT-Bold,Bradley Hand" font-weight="bold" font-size="37.0" fill="#FEFFFF" transform="matrix(1.00, 0.00, -0.00, -1.00, 93.3, 15.7)"> </text><text xml:space="preserve" font-family="BradleyHandITCTT-Bold,Bradley Hand" font-weight="bold" font-size="37.0" fill="#FEFFFF" transform="matrix(1.00, 0.00, -0.00, -1.00, 102.7, 15.7)"> </text><g><clipPath id="clip0x7f88bdd36270"><path d="M 0.6 7.4 L 83.8 7.4 L 83.8 11.7 L 0.6 11.7 Z M 0.6 7.4 "></path></clipPath><g clip-path="url(#clip0x7f88bdd36270)"><path d="M 170.1 58.0 L 252.4 58.0 " fill="none" stroke="#FEFFFF" stroke-width="2.26" transform="matrix(1.00, 0.00, 0.00, -1.00, -168.6, 67.5)"></path></g></g></g></svg>