<?xml version="1.0" encoding="UTF-8" standalone="no"?><svg xmlns="http://www.w3.org/2000/svg" xmlns:xlink="http://www.w3.org/1999/xlink" clip-rule="evenodd" stroke-miterlimit="10" viewBox="0 0 550 155"><desc>SVG generated by Keynote</desc><defs></defs><g transform="matrix(1.00, 0.00, -0.00, -1.00, 0.0, 155.0)"><text xml:space="preserve" font-family="Menlo-Regular,Menlo" font-size="35.0" fill="#FFFFFF" transform="matrix(1.00, 0.00, -0.00, -1.00, 0.1, 125.0)">d</text><text xml:space="preserve" font-family="Menlo-Regular,Menlo" font-size="35.0" fill="#FFFFFF" transform="matrix(1.00, 0.00, -0.00, -1.00, 21.2, 125.0)">e</text><text xml:space="preserve" font-family="Menlo-Regular,Menlo" font-size="35.0" fill="#FFFFFF" transform="matrix(1.00, 0.00, -0.00, -1.00, 42.3, 125.0)">f</text><text xml:space="preserve" font-family="Menlo-Regular,Menlo" font-size="35.0" fill="#FFFFFF" transform="matrix(1.00, 0.00, -0.00, -1.00, 63.4, 125.0)"> </text><text xml:space="preserve" font-family="Menlo-Regular,Menlo" font-size="35.0" fill="#08FA95" transform="matrix(1.00, 0.00, -0.00, -1.00, 84.4, 125.0)">f</text><text xml:space="preserve" font-family="Menlo-Regular,Menlo" font-size="35.0" fill="#FFFFFF" transform="matrix(1.00, 0.00, -0.00, -1.00, 105.5, 125.0)">[</text><text xml:space="preserve" font-family="Menlo-Regular,Menlo" font-size="35.0" fill="#FFFFFF" transform="matrix(1.00, 0.00, -0.00, -1.00, 126.6, 125.0)">T</text><text xml:space="preserve" font-family="Menlo-Regular,Menlo" font-size="35.0" fill="#FFFFFF" transform="matrix(1.00, 0.00, -0.00, -1.00, 147.6, 125.0)">]</text><text xml:space="preserve" font-family="Menlo-Regular,Menlo" font-size="35.0" fill="#FFFFFF" transform="matrix(1.00, 0.00, -0.00, -1.00, 168.7, 125.0)">(</text><text xml:space="preserve" font-family="Menlo-Regular,Menlo" font-size="35.0" fill="#FFFFFF" transform="matrix(1.00, 0.00, -0.00, -1.00, 189.8, 125.0)">x</text><text xml:space="preserve" font-family="Menlo-Regular,Menlo" font-size="35.0" fill="#FFFFFF" transform="matrix(1.00, 0.00, -0.00, -1.00, 210.9, 125.0)">:</text><text xml:space="preserve" font-family="Menlo-Regular,Menlo" font-size="35.0" fill="#FFFFFF" transform="matrix(1.00, 0.00, -0.00, -1.00, 231.9, 125.0)"> </text><text xml:space="preserve" font-family="Menlo-Regular,Menlo" font-size="35.0" fill="#FFFFFF" transform="matrix(1.00, 0.00, -0.00, -1.00, 253.0, 125.0)">T</text><text xml:space="preserve" font-family="Menlo-Regular,Menlo" font-size="35.0" fill="#FFFFFF" transform="matrix(1.00, 0.00, -0.00, -1.00, 274.1, 125.0)">)</text><text xml:space="preserve" font-family="Menlo-Regular,Menlo" font-size="35.0" fill="#FFFFFF" transform="matrix(1.00, 0.00, -0.00, -1.00, 295.2, 125.0)">:</text><text xml:space="preserve" font-family="Menlo-Regular,Menlo" font-size="35.0" fill="#FFFFFF" transform="matrix(1.00, 0.00, -0.00, -1.00, 316.2, 125.0)"> </text><text xml:space="preserve" font-family="Menlo-Regular,Menlo" font-size="35.0" fill="#FFFFFF" transform="matrix(1.00, 0.00, -0.00, -1.00, 337.3, 125.0)">T</text><text xml:space="preserve" font-family="Menlo-Regular,Menlo" font-size="35.0" fill="#FFFFFF" transform="matrix(1.00, 0.00, -0.00, -1.00, 358.4, 125.0)"> </text><text xml:space="preserve" font-family="Menlo-Regular,Menlo" font-size="35.0" fill="#FFFFFF" transform="matrix(1.00, 0.00, -0.00, -1.00, 379.5, 125.0)">=</text><text xml:space="preserve" font-family="Menlo-Regular,Menlo" font-size="35.0" fill="#FFFFFF" transform="matrix(1.00, 0.00, -0.00, -1.00, 400.6, 125.0)"> </text><text xml:space="preserve" font-family="Menlo-Regular,Menlo" font-size="35.0" fill="#FFFFFF" transform="matrix(1.00, 0.00, -0.00, -1.00, 421.6, 125.0)">.</text><text xml:space="preserve" font-family="Menlo-Regular,Menlo" font-size="35.0" fill="#FFFFFF" transform="matrix(1.00, 0.00, -0.00, -1.00, 442.7, 125.0)">.</text><text xml:space="preserve" font-family="Menlo-Regular,Menlo" font-size="35.0" fill="#FFFFFF" transform="matrix(1.00, 0.00, -0.00, -1.00, 463.8, 125.0)">.</text><text xml:space="preserve" font-family="Menlo-Regular,Menlo" font-size="35.0" fill="#FFFFFF" transform="matrix(1.00, 0.00, -0.00, -1.00, 484.9, 125.0)"> </text><text xml:space="preserve" font-family="Menlo-Regular,Menlo" font-size="35.0" fill="#FFFFFF" transform="matrix(1.00, 0.00, -0.00, -1.00, 0.1, 85.0)">d</text><text xml:space="preserve" font-family="Menlo-Regular,Menlo" font-size="35.0" fill="#FFFFFF" transform="matrix(1.00, 0.00, -0.00, -1.00, 21.2, 85.0)">e</text><text xml:space="preserve" font-family="Menlo-Regular,Menlo" font-size="35.0" fill="#FFFFFF" transform="matrix(1.00, 0.00, -0.00, -1.00, 42.3, 85.0)">f</text><text xml:space="preserve" font-family="Menlo-Regular,Menlo" font-size="35.0" fill="#FFFFFF" transform="matrix(1.00, 0.00, -0.00, -1.00, 63.4, 85.0)"> </text><text xml:space="preserve" font-family="Menlo-Regular,Menlo" font-size="35.0" fill="#FFFFFF" transform="matrix(1.00, 0.00, -0.00, -1.00, 84.4, 85.0)">g</text><text xml:space="preserve" font-family="Menlo-Regular,Menlo" font-size="35.0" fill="#FFFFFF" transform="matrix(1.00, 0.00, -0.00, -1.00, 105.5, 85.0)">(</text><text xml:space="preserve" font-family="Menlo-Regular,Menlo" font-size="35.0" fill="#FFFFFF" transform="matrix(1.00, 0.00, -0.00, -1.00, 126.6, 85.0)">x</text><text xml:space="preserve" font-family="Menlo-Regular,Menlo" font-size="35.0" fill="#FFFFFF" transform="matrix(1.00, 0.00, -0.00, -1.00, 147.7, 85.0)">:</text><text xml:space="preserve" font-family="Menlo-Regular,Menlo" font-size="35.0" fill="#FFFFFF" transform="matrix(1.00, 0.00, -0.00, -1.00, 168.7, 85.0)"> </text><text xml:space="preserve" font-family="Menlo-Regular,Menlo" font-size="35.0" fill="#FFFFFF" transform="matrix(1.00, 0.00, -0.00, -1.00, 189.8, 85.0)">A</text><text xml:space="preserve" font-family="Menlo-Regular,Menlo" font-size="35.0" fill="#FFFFFF" transform="matrix(1.00, 0.00, -0.00, -1.00, 210.9, 85.0)">)</text><text xml:space="preserve" font-family="Menlo-Regular,Menlo" font-size="35.0" fill="#FFFFFF" transform="matrix(1.00, 0.00, -0.00, -1.00, 232.0, 85.0)"> </text><text xml:space="preserve" font-family="Menlo-Regular,Menlo" font-size="35.0" fill="#FFFFFF" transform="matrix(1.00, 0.00, -0.00, -1.00, 253.0, 85.0)">{</text><text xml:space="preserve" font-family="Menlo-Regular,Menlo" font-size="35.0" fill="#FFFFFF" transform="matrix(1.00, 0.00, -0.00, -1.00, 274.1, 85.0)">}</text><text xml:space="preserve" font-family="Menlo-Regular,Menlo" font-size="35.0" fill="#FFFFFF" transform="matrix(1.00, 0.00, -0.00, -1.00, 295.2, 85.0)"> </text><text xml:space="preserve" font-family="Menlo-Regular,Menlo" font-size="35.0" fill="#FFFFFF" transform="matrix(1.00, 0.00, -0.00, -1.00, 0.1, 45.0)">d</text><text xml:space="preserve" font-family="Menlo-Regular,Menlo" font-size="35.0" fill="#FFFFFF" transform="matrix(1.00, 0.00, -0.00, -1.00, 21.2, 45.0)">e</text><text xml:space="preserve" font-family="Menlo-Regular,Menlo" font-size="35.0" fill="#FFFFFF" transform="matrix(1.00, 0.00, -0.00, -1.00, 42.3, 45.0)">f</text><text xml:space="preserve" font-family="Menlo-Regular,Menlo" font-size="35.0" fill="#FFFFFF" transform="matrix(1.00, 0.00, -0.00, -1.00, 63.4, 45.0)"> </text><text xml:space="preserve" font-family="Menlo-Regular,Menlo" font-size="35.0" fill="#08FA95" transform="matrix(1.00, 0.00, -0.00, -1.00, 84.4, 45.0)">h</text><text xml:space="preserve" font-family="Menlo-Regular,Menlo" font-size="35.0" fill="#FFFFFF" transform="matrix(1.00, 0.00, -0.00, -1.00, 105.5, 45.0)">[</text><text xml:space="preserve" font-family="Menlo-Regular,Menlo" font-size="35.0" fill="#FFFFFF" transform="matrix(1.00, 0.00, -0.00, -1.00, 126.6, 45.0)">T</text><text xml:space="preserve" font-family="Menlo-Regular,Menlo" font-size="35.0" fill="#FFFFFF" transform="matrix(1.00, 0.00, -0.00, -1.00, 147.6, 45.0)"> </text><text xml:space="preserve" font-family="Menlo-Regular,Menlo" font-size="35.0" fill="#FFFFFF" transform="matrix(1.00, 0.00, -0.00, -1.00, 168.7, 45.0)">&lt;</text><text xml:space="preserve" font-family="Menlo-Regular,Menlo" font-size="35.0" fill="#FFFFFF" transform="matrix(1.00, 0.00, -0.00, -1.00, 189.8, 45.0)">:</text><text xml:space="preserve" font-family="Menlo-Regular,Menlo" font-size="35.0" fill="#FFFFFF" transform="matrix(1.00, 0.00, -0.00, -1.00, 210.9, 45.0)"> </text><text xml:space="preserve" font-family="Menlo-Regular,Menlo" font-size="35.0" fill="#FFFFFF" transform="matrix(1.00, 0.00, -0.00, -1.00, 231.9, 45.0)">A</text><text xml:space="preserve" font-family="Menlo-Regular,Menlo" font-size="35.0" fill="#FFFFFF" transform="matrix(1.00, 0.00, -0.00, -1.00, 253.0, 45.0)">]</text><text xml:space="preserve" font-family="Menlo-Regular,Menlo" font-size="35.0" fill="#FFFFFF" transform="matrix(1.00, 0.00, -0.00, -1.00, 274.1, 45.0)">(</text><text xml:space="preserve" font-family="Menlo-Regular,Menlo" font-size="35.0" fill="#FFFFFF" transform="matrix(1.00, 0.00, -0.00, -1.00, 295.2, 45.0)">x</text><text xml:space="preserve" font-family="Menlo-Regular,Menlo" font-size="35.0" fill="#FFFFFF" transform="matrix(1.00, 0.00, -0.00, -1.00, 316.2, 45.0)">:</text><text xml:space="preserve" font-family="Menlo-Regular,Menlo" font-size="35.0" fill="#FFFFFF" transform="matrix(1.00, 0.00, -0.00, -1.00, 337.3, 45.0)"> </text><text xml:space="preserve" font-family="Menlo-Regular,Menlo" font-size="35.0" fill="#FFFFFF" transform="matrix(1.00, 0.00, -0.00, -1.00, 358.4, 45.0)">T</text><text xml:space="preserve" font-family="Menlo-Regular,Menlo" font-size="35.0" fill="#FFFFFF" transform="matrix(1.00, 0.00, -0.00, -1.00, 379.5, 45.0)">)</text><text xml:space="preserve" font-family="Menlo-Regular,Menlo" font-size="35.0" fill="#FFFFFF" transform="matrix(1.00, 0.00, -0.00, -1.00, 400.6, 45.0)">:</text><text xml:space="preserve" font-family="Menlo-Regular,Menlo" font-size="35.0" fill="#FFFFFF" transform="matrix(1.00, 0.00, -0.00, -1.00, 421.6, 45.0)"> </text><text xml:space="preserve" font-family="Menlo-Regular,Menlo" font-size="35.0" fill="#FFFFFF" transform="matrix(1.00, 0.00, -0.00, -1.00, 442.7, 45.0)">T</text><text xml:space="preserve" font-family="Menlo-Regular,Menlo" font-size="35.0" fill="#FFFFFF" transform="matrix(1.00, 0.00, -0.00, -1.00, 463.8, 45.0)"> </text><text xml:space="preserve" font-family="Menlo-Regular,Menlo" font-size="35.0" fill="#FFFFFF" transform="matrix(1.00, 0.00, -0.00, -1.00, 484.9, 45.0)">.</text><text xml:space="preserve" font-family="Menlo-Regular,Menlo" font-size="35.0" fill="#FFFFFF" transform="matrix(1.00, 0.00, -0.00, -1.00, 505.9, 45.0)">.</text><text xml:space="preserve" font-family="Menlo-Regular,Menlo" font-size="35.0" fill="#FFFFFF" transform="matrix(1.00, 0.00, -0.00, -1.00, 527.0, 45.0)">.</text><text xml:space="preserve" font-family="Menlo-Regular,Menlo" font-size="35.0" fill="#FFFFFF" transform="matrix(1.00, 0.00, -0.00, -1.00, 548.1, 45.0)"> </text><text xml:space="preserve" font-family="Menlo-Regular,Menlo" font-size="35.0" fill="#FFFFFF" transform="matrix(1.00, 0.00, -0.00, -1.00, 0.1, 5.0)">d</text><text xml:space="preserve" font-family="Menlo-Regular,Menlo" font-size="35.0" fill="#FFFFFF" transform="matrix(1.00, 0.00, -0.00, -1.00, 21.2, 5.0)">e</text><text xml:space="preserve" font-family="Menlo-Regular,Menlo" font-size="35.0" fill="#FFFFFF" transform="matrix(1.00, 0.00, -0.00, -1.00, 42.3, 5.0)">f</text><text xml:space="preserve" font-family="Menlo-Regular,Menlo" font-size="35.0" fill="#FFFFFF" transform="matrix(1.00, 0.00, -0.00, -1.00, 63.4, 5.0)"> </text><text xml:space="preserve" font-family="Menlo-Regular,Menlo" font-size="35.0" fill="#FFFFFF" transform="matrix(1.00, 0.00, -0.00, -1.00, 84.4, 5.0)">k</text><text xml:space="preserve" font-family="Menlo-Regular,Menlo" font-size="35.0" fill="#FFFFFF" transform="matrix(1.00, 0.00, -0.00, -1.00, 105.5, 5.0)">(</text><text xml:space="preserve" font-family="Menlo-Regular,Menlo" font-size="35.0" fill="#FFFFFF" transform="matrix(1.00, 0.00, -0.00, -1.00, 126.6, 5.0)">x</text><text xml:space="preserve" font-family="Menlo-Regular,Menlo" font-size="35.0" fill="#FFFFFF" transform="matrix(1.00, 0.00, -0.00, -1.00, 147.7, 5.0)">:</text><text xml:space="preserve" font-family="Menlo-Regular,Menlo" font-size="35.0" fill="#FFFFFF" transform="matrix(1.00, 0.00, -0.00, -1.00, 168.7, 5.0)"> </text><text xml:space="preserve" font-family="Menlo-Regular,Menlo" font-size="35.0" fill="#FFFFFF" transform="matrix(1.00, 0.00, -0.00, -1.00, 189.8, 5.0)">I</text><text xml:space="preserve" font-family="Menlo-Regular,Menlo" font-size="35.0" fill="#FFFFFF" transform="matrix(1.00, 0.00, -0.00, -1.00, 210.9, 5.0)">n</text><text xml:space="preserve" font-family="Menlo-Regular,Menlo" font-size="35.0" fill="#FFFFFF" transform="matrix(1.00, 0.00, -0.00, -1.00, 232.0, 5.0)">t</text><text xml:space="preserve" font-family="Menlo-Regular,Menlo" font-size="35.0" fill="#FFFFFF" transform="matrix(1.00, 0.00, -0.00, -1.00, 253.0, 5.0)"> </text><text xml:space="preserve" font-family="Menlo-Regular,Menlo" font-size="35.0" fill="#FFFFFF" transform="matrix(1.00, 0.00, -0.00, -1.00, 274.1, 5.0)">=</text><text xml:space="preserve" font-family="Menlo-Regular,Menlo" font-size="35.0" fill="#8B87FF" transform="matrix(1.00, 0.00, -0.00, -1.00, 295.1, 5.0)">0</text><text xml:space="preserve" font-family="Menlo-Regular,Menlo" font-size="35.0" fill="#FFFFFF" transform="matrix(1.00, 0.00, -0.00, -1.00, 316.2, 5.0)">)</text></g></svg>