<?xml version="1.0" encoding="UTF-8" standalone="no"?><svg xmlns="http://www.w3.org/2000/svg" xmlns:xlink="http://www.w3.org/1999/xlink" clip-rule="evenodd" stroke-miterlimit="10" viewBox="0 0 1920 1080"><desc>SVG generated by Keynote</desc><defs></defs><g transform="matrix(1.00, 0.00, -0.00, -1.00, 0.0, 1080.0)"><path d="M 0.0 1080.0 L 1920.0 1080.0 L 1920.0 0.0 L 0.0 0.0 Z M 0.0 1080.0 " fill="#52575F"></path><text xml:space="preserve" font-family="Courier,Courier" font-size="94.0" fill="#FEFFFF" transform="matrix(1.00, 0.00, -0.00, -1.00, 36.5, 991.1)">w</text><text xml:space="preserve" font-family="Courier,Courier" font-size="94.0" fill="#FEFFFF" transform="matrix(1.00, 0.00, -0.00, -1.00, 92.9, 991.1)">h</text><text xml:space="preserve" font-family="Courier,Courier" font-size="94.0" fill="#FEFFFF" transform="matrix(1.00, 0.00, -0.00, -1.00, 149.3, 991.1)">e</text><text xml:space="preserve" font-family="Courier,Courier" font-size="94.0" fill="#FEFFFF" transform="matrix(1.00, 0.00, -0.00, -1.00, 205.7, 991.1)">n</text><text xml:space="preserve" font-family="Courier,Courier" font-size="94.0" fill="#FEFFFF" transform="matrix(1.00, 0.00, -0.00, -1.00, 262.2, 991.1)"> </text><text xml:space="preserve" font-family="Courier,Courier" font-size="94.0" fill="#FEFFFF" transform="matrix(1.00, 0.00, -0.00, -1.00, 318.6, 991.1)">t</text><text xml:space="preserve" font-family="Courier,Courier" font-size="94.0" fill="#FEFFFF" transform="matrix(1.00, 0.00, -0.00, -1.00, 375.0, 991.1)">o</text><text xml:space="preserve" font-family="Courier,Courier" font-size="94.0" fill="#FEFFFF" transform="matrix(1.00, 0.00, -0.00, -1.00, 431.4, 991.1)"> </text><text xml:space="preserve" font-family="Courier,Courier" font-size="94.0" fill="#FEFFFF" transform="matrix(1.00, 0.00, -0.00, -1.00, 487.8, 991.1)">u</text><text xml:space="preserve" font-family="Courier,Courier" font-size="94.0" fill="#FEFFFF" transform="matrix(1.00, 0.00, -0.00, -1.00, 544.3, 991.1)">s</text><text xml:space="preserve" font-family="Courier,Courier" font-size="94.0" fill="#FEFFFF" transform="matrix(1.00, 0.00, -0.00, -1.00, 600.7, 991.1)">e</text><text xml:space="preserve" font-family="Courier,Courier" font-size="94.0" fill="#FEFFFF" transform="matrix(1.00, 0.00, -0.00, -1.00, 657.1, 991.1)"> </text><text xml:space="preserve" font-family="Courier,Courier" font-size="94.0" fill="#FEFFFF" transform="matrix(1.00, 0.00, -0.00, -1.00, 713.5, 991.1)">t</text><text xml:space="preserve" font-family="Courier,Courier" font-size="94.0" fill="#FEFFFF" transform="matrix(1.00, 0.00, -0.00, -1.00, 769.9, 991.1)">h</text><text xml:space="preserve" font-family="Courier,Courier" font-size="94.0" fill="#FEFFFF" transform="matrix(1.00, 0.00, -0.00, -1.00, 826.3, 991.1)">e</text><text xml:space="preserve" font-family="Courier,Courier" font-size="94.0" fill="#FEFFFF" transform="matrix(1.00, 0.00, -0.00, -1.00, 882.8, 991.1)">m</text><text xml:space="preserve" font-family="Courier,Courier" font-size="94.0" fill="#FEFFFF" transform="matrix(1.00, 0.00, -0.00, -1.00, 939.2, 991.1)"> </text><text xml:space="preserve" font-family="Courier,Courier" font-size="94.0" fill="#FEFFFF" transform="matrix(1.00, 0.00, -0.00, -1.00, 995.6, 991.1)">i</text><text xml:space="preserve" font-family="Courier,Courier" font-size="94.0" fill="#FEFFFF" transform="matrix(1.00, 0.00, -0.00, -1.00, 1052.0, 991.1)">n</text><text xml:space="preserve" font-family="Courier,Courier" font-size="94.0" fill="#FEFFFF" transform="matrix(1.00, 0.00, -0.00, -1.00, 1108.4, 991.1)"> </text><text xml:space="preserve" font-family="Courier,Courier" font-size="94.0" fill="#FEFFFF" transform="matrix(1.00, 0.00, -0.00, -1.00, 1164.9, 991.1)">r</text><text xml:space="preserve" font-family="Courier,Courier" font-size="94.0" fill="#FEFFFF" transform="matrix(1.00, 0.00, -0.00, -1.00, 1221.3, 991.1)">e</text><text xml:space="preserve" font-family="Courier,Courier" font-size="94.0" fill="#FEFFFF" transform="matrix(1.00, 0.00, -0.00, -1.00, 1277.7, 991.1)">a</text><text xml:space="preserve" font-family="Courier,Courier" font-size="94.0" fill="#FEFFFF" transform="matrix(1.00, 0.00, -0.00, -1.00, 1334.1, 991.1)">l</text><text xml:space="preserve" font-family="Courier,Courier" font-size="94.0" fill="#FEFFFF" transform="matrix(1.00, 0.00, -0.00, -1.00, 1390.5, 991.1)"> </text><text xml:space="preserve" font-family="Courier,Courier" font-size="94.0" fill="#FEFFFF" transform="matrix(1.00, 0.00, -0.00, -1.00, 1447.0, 991.1)">l</text><text xml:space="preserve" font-family="Courier,Courier" font-size="94.0" fill="#FEFFFF" transform="matrix(1.00, 0.00, -0.00, -1.00, 1503.4, 991.1)">i</text><text xml:space="preserve" font-family="Courier,Courier" font-size="94.0" fill="#FEFFFF" transform="matrix(1.00, 0.00, -0.00, -1.00, 1559.8, 991.1)">f</text><text xml:space="preserve" font-family="Courier,Courier" font-size="94.0" fill="#FEFFFF" transform="matrix(1.00, 0.00, -0.00, -1.00, 1616.2, 991.1)">e</text><text xml:space="preserve" font-family="Courier,Courier" font-size="94.0" fill="#FEFFFF" transform="matrix(1.00, 0.00, -0.00, -1.00, 1672.6, 991.1)">?</text><path d="M 0.1 0.5 L 576.1 0.5 L 576.1 471.5 L 0.1 471.5 Z M 0.0 0.0 " fill="none" stroke="#961817" stroke-width="5.00" transform="matrix(1.00, 0.00, 0.00, -1.00, 23.4, 889.0)"></path><g><clipPath id="clip0x7f88a6d9f2d0"><path d="M 22.8 417.1 L 600.4 417.1 L 600.4 889.6 L 22.8 889.6 Z M 22.8 417.1 "></path></clipPath><g clip-path="url(#clip0x7f88a6d9f2d0)"><text xml:space="preserve" font-family="Menlo-Regular,Menlo" font-size="30.0" fill="#FFFFFF" transform="matrix(1.00, 0.00, -0.00, -1.00, 49.5, 852.9)">P</text><text xml:space="preserve" font-family="Menlo-Regular,Menlo" font-size="30.0" fill="#FFFFFF" transform="matrix(1.00, 0.00, -0.00, -1.00, 67.6, 852.9)">e</text><text xml:space="preserve" font-family="Menlo-Regular,Menlo" font-size="30.0" fill="#FFFFFF" transform="matrix(1.00, 0.00, -0.00, -1.00, 85.6, 852.9)">r</text><text xml:space="preserve" font-family="Menlo-Regular,Menlo" font-size="30.0" fill="#FFFFFF" transform="matrix(1.00, 0.00, -0.00, -1.00, 103.7, 852.9)">s</text><text xml:space="preserve" font-family="Menlo-Regular,Menlo" font-size="30.0" fill="#FFFFFF" transform="matrix(1.00, 0.00, -0.00, -1.00, 121.8, 852.9)">o</text><text xml:space="preserve" font-family="Menlo-Regular,Menlo" font-size="30.0" fill="#FFFFFF" transform="matrix(1.00, 0.00, -0.00, -1.00, 139.8, 852.9)">n</text><text xml:space="preserve" font-family="Menlo-Regular,Menlo" font-size="30.0" fill="#FFFFFF" transform="matrix(1.00, 0.00, -0.00, -1.00, 157.9, 852.9)"> </text><text xml:space="preserve" font-family="Menlo-Regular,Menlo" font-size="30.0" fill="#FFFFFF" transform="matrix(1.00, 0.00, -0.00, -1.00, 49.5, 817.9)">{</text><text xml:space="preserve" font-family="Menlo-Regular,Menlo" font-size="30.0" fill="#FFFFFF" transform="matrix(1.00, 0.00, -0.00, -1.00, 67.6, 817.9)"> </text><text xml:space="preserve" font-family="Menlo-Regular,Menlo" font-size="30.0" fill="#FF4647" transform="matrix(1.00, 0.00, -0.00, -1.00, 85.5, 782.9)">"</text><text xml:space="preserve" font-family="Menlo-Regular,Menlo" font-size="30.0" fill="#FF4647" transform="matrix(1.00, 0.00, -0.00, -1.00, 103.6, 782.9)">f</text><text xml:space="preserve" font-family="Menlo-Regular,Menlo" font-size="30.0" fill="#FF4647" transform="matrix(1.00, 0.00, -0.00, -1.00, 121.6, 782.9)">i</text><text xml:space="preserve" font-family="Menlo-Regular,Menlo" font-size="30.0" fill="#FF4647" transform="matrix(1.00, 0.00, -0.00, -1.00, 139.7, 782.9)">r</text><text xml:space="preserve" font-family="Menlo-Regular,Menlo" font-size="30.0" fill="#FF4647" transform="matrix(1.00, 0.00, -0.00, -1.00, 157.8, 782.9)">s</text><text xml:space="preserve" font-family="Menlo-Regular,Menlo" font-size="30.0" fill="#FF4647" transform="matrix(1.00, 0.00, -0.00, -1.00, 175.8, 782.9)">t</text><text xml:space="preserve" font-family="Menlo-Regular,Menlo" font-size="30.0" fill="#FF4647" transform="matrix(1.00, 0.00, -0.00, -1.00, 193.9, 782.9)">n</text><text xml:space="preserve" font-family="Menlo-Regular,Menlo" font-size="30.0" fill="#FF4647" transform="matrix(1.00, 0.00, -0.00, -1.00, 212.0, 782.9)">a</text><text xml:space="preserve" font-family="Menlo-Regular,Menlo" font-size="30.0" fill="#FF4647" transform="matrix(1.00, 0.00, -0.00, -1.00, 230.0, 782.9)">m</text><text xml:space="preserve" font-family="Menlo-Regular,Menlo" font-size="30.0" fill="#FF4647" transform="matrix(1.00, 0.00, -0.00, -1.00, 248.1, 782.9)">e</text><text xml:space="preserve" font-family="Menlo-Regular,Menlo" font-size="30.0" fill="#FF4647" transform="matrix(1.00, 0.00, -0.00, -1.00, 266.1, 782.9)">"</text><text xml:space="preserve" font-family="Menlo-Regular,Menlo" font-size="30.0" fill="#FFFFFF" transform="matrix(1.00, 0.00, -0.00, -1.00, 284.2, 782.9)">:</text><text xml:space="preserve" font-family="Menlo-Regular,Menlo" font-size="30.0" fill="#FFFFFF" transform="matrix(1.00, 0.00, -0.00, -1.00, 302.2, 782.9)"> </text><text xml:space="preserve" font-family="Menlo-Regular,Menlo" font-size="30.0" fill="#FF4647" transform="matrix(1.00, 0.00, -0.00, -1.00, 320.3, 782.9)">"</text><text xml:space="preserve" font-family="Menlo-Regular,Menlo" font-size="30.0" fill="#FF4647" transform="matrix(1.00, 0.00, -0.00, -1.00, 338.4, 782.9)">j</text><text xml:space="preserve" font-family="Menlo-Regular,Menlo" font-size="30.0" fill="#FF4647" transform="matrix(1.00, 0.00, -0.00, -1.00, 356.4, 782.9)">o</text><text xml:space="preserve" font-family="Menlo-Regular,Menlo" font-size="30.0" fill="#FF4647" transform="matrix(1.00, 0.00, -0.00, -1.00, 374.5, 782.9)">h</text><text xml:space="preserve" font-family="Menlo-Regular,Menlo" font-size="30.0" fill="#FF4647" transform="matrix(1.00, 0.00, -0.00, -1.00, 392.6, 782.9)">n</text><text xml:space="preserve" font-family="Menlo-Regular,Menlo" font-size="30.0" fill="#FF4647" transform="matrix(1.00, 0.00, -0.00, -1.00, 410.6, 782.9)">"</text><text xml:space="preserve" font-family="Menlo-Regular,Menlo" font-size="30.0" fill="#FFFFFF" transform="matrix(1.00, 0.00, -0.00, -1.00, 428.7, 782.9)">,</text><text xml:space="preserve" font-family="Menlo-Regular,Menlo" font-size="30.0" fill="#FFFFFF" transform="matrix(1.00, 0.00, -0.00, -1.00, 446.7, 782.9)"> </text><text xml:space="preserve" font-family="Menlo-Regular,Menlo" font-size="30.0" fill="#FFFFFF" transform="matrix(1.00, 0.00, -0.00, -1.00, 49.5, 747.9)"> </text><text xml:space="preserve" font-family="Menlo-Regular,Menlo" font-size="30.0" fill="#FFFFFF" transform="matrix(1.00, 0.00, -0.00, -1.00, 67.6, 747.9)"> </text><text xml:space="preserve" font-family="Menlo-Regular,Menlo" font-size="30.0" fill="#FF4647" transform="matrix(1.00, 0.00, -0.00, -1.00, 85.6, 747.9)">"</text><text xml:space="preserve" font-family="Menlo-Regular,Menlo" font-size="30.0" fill="#FF4647" transform="matrix(1.00, 0.00, -0.00, -1.00, 103.7, 747.9)">l</text><text xml:space="preserve" font-family="Menlo-Regular,Menlo" font-size="30.0" fill="#FF4647" transform="matrix(1.00, 0.00, -0.00, -1.00, 121.8, 747.9)">a</text><text xml:space="preserve" font-family="Menlo-Regular,Menlo" font-size="30.0" fill="#FF4647" transform="matrix(1.00, 0.00, -0.00, -1.00, 139.8, 747.9)">s</text><text xml:space="preserve" font-family="Menlo-Regular,Menlo" font-size="30.0" fill="#FF4647" transform="matrix(1.00, 0.00, -0.00, -1.00, 157.9, 747.9)">t</text><text xml:space="preserve" font-family="Menlo-Regular,Menlo" font-size="30.0" fill="#FF4647" transform="matrix(1.00, 0.00, -0.00, -1.00, 175.9, 747.9)">n</text><text xml:space="preserve" font-family="Menlo-Regular,Menlo" font-size="30.0" fill="#FF4647" transform="matrix(1.00, 0.00, -0.00, -1.00, 194.0, 747.9)">a</text><text xml:space="preserve" font-family="Menlo-Regular,Menlo" font-size="30.0" fill="#FF4647" transform="matrix(1.00, 0.00, -0.00, -1.00, 212.1, 747.9)">m</text><text xml:space="preserve" font-family="Menlo-Regular,Menlo" font-size="30.0" fill="#FF4647" transform="matrix(1.00, 0.00, -0.00, -1.00, 230.1, 747.9)">e</text><text xml:space="preserve" font-family="Menlo-Regular,Menlo" font-size="30.0" fill="#FF4647" transform="matrix(1.00, 0.00, -0.00, -1.00, 248.2, 747.9)">"</text><text xml:space="preserve" font-family="Menlo-Regular,Menlo" font-size="30.0" fill="#FFFFFF" transform="matrix(1.00, 0.00, -0.00, -1.00, 266.2, 747.9)">:</text><text xml:space="preserve" font-family="Menlo-Regular,Menlo" font-size="30.0" fill="#FFFFFF" transform="matrix(1.00, 0.00, -0.00, -1.00, 284.3, 747.9)"> </text><text xml:space="preserve" font-family="Menlo-Regular,Menlo" font-size="30.0" fill="#FF4647" transform="matrix(1.00, 0.00, -0.00, -1.00, 302.4, 747.9)">"</text><text xml:space="preserve" font-family="Menlo-Regular,Menlo" font-size="30.0" fill="#FF4647" transform="matrix(1.00, 0.00, -0.00, -1.00, 320.4, 747.9)">d</text><text xml:space="preserve" font-family="Menlo-Regular,Menlo" font-size="30.0" fill="#FF4647" transform="matrix(1.00, 0.00, -0.00, -1.00, 338.5, 747.9)">o</text><text xml:space="preserve" font-family="Menlo-Regular,Menlo" font-size="30.0" fill="#FF4647" transform="matrix(1.00, 0.00, -0.00, -1.00, 356.6, 747.9)">e</text><text xml:space="preserve" font-family="Menlo-Regular,Menlo" font-size="30.0" fill="#FF4647" transform="matrix(1.00, 0.00, -0.00, -1.00, 374.6, 747.9)">"</text><text xml:space="preserve" font-family="Menlo-Regular,Menlo" font-size="30.0" fill="#FFFFFF" transform="matrix(1.00, 0.00, -0.00, -1.00, 392.7, 747.9)">,</text><text xml:space="preserve" font-family="Menlo-Regular,Menlo" font-size="30.0" fill="#FFFFFF" transform="matrix(1.00, 0.00, -0.00, -1.00, 410.7, 747.9)"> </text><text xml:space="preserve" font-family="Menlo-Regular,Menlo" font-size="30.0" fill="#FFFFFF" transform="matrix(1.00, 0.00, -0.00, -1.00, 49.5, 712.9)"> </text><text xml:space="preserve" font-family="Menlo-Regular,Menlo" font-size="30.0" fill="#FFFFFF" transform="matrix(1.00, 0.00, -0.00, -1.00, 67.6, 712.9)"> </text><text xml:space="preserve" font-family="Menlo-Regular,Menlo" font-size="30.0" fill="#FF4647" transform="matrix(1.00, 0.00, -0.00, -1.00, 85.6, 712.9)">"</text><text xml:space="preserve" font-family="Menlo-Regular,Menlo" font-size="30.0" fill="#FF4647" transform="matrix(1.00, 0.00, -0.00, -1.00, 103.7, 712.9)">a</text><text xml:space="preserve" font-family="Menlo-Regular,Menlo" font-size="30.0" fill="#FF4647" transform="matrix(1.00, 0.00, -0.00, -1.00, 121.8, 712.9)">d</text><text xml:space="preserve" font-family="Menlo-Regular,Menlo" font-size="30.0" fill="#FF4647" transform="matrix(1.00, 0.00, -0.00, -1.00, 139.8, 712.9)">d</text><text xml:space="preserve" font-family="Menlo-Regular,Menlo" font-size="30.0" fill="#FF4647" transform="matrix(1.00, 0.00, -0.00, -1.00, 157.9, 712.9)">r</text><text xml:space="preserve" font-family="Menlo-Regular,Menlo" font-size="30.0" fill="#FF4647" transform="matrix(1.00, 0.00, -0.00, -1.00, 175.9, 712.9)">e</text><text xml:space="preserve" font-family="Menlo-Regular,Menlo" font-size="30.0" fill="#FF4647" transform="matrix(1.00, 0.00, -0.00, -1.00, 194.0, 712.9)">s</text><text xml:space="preserve" font-family="Menlo-Regular,Menlo" font-size="30.0" fill="#FF4647" transform="matrix(1.00, 0.00, -0.00, -1.00, 212.1, 712.9)">s</text><text xml:space="preserve" font-family="Menlo-Regular,Menlo" font-size="30.0" fill="#FF4647" transform="matrix(1.00, 0.00, -0.00, -1.00, 230.1, 712.9)">"</text><text xml:space="preserve" font-family="Menlo-Regular,Menlo" font-size="30.0" fill="#FFFFFF" transform="matrix(1.00, 0.00, -0.00, -1.00, 248.2, 712.9)">:</text><text xml:space="preserve" font-family="Menlo-Regular,Menlo" font-size="30.0" fill="#FFFFFF" transform="matrix(1.00, 0.00, -0.00, -1.00, 266.2, 712.9)"> </text><text xml:space="preserve" font-family="Menlo-Regular,Menlo" font-size="30.0" fill="#FFFFFF" transform="matrix(1.00, 0.00, -0.00, -1.00, 284.3, 712.9)">{</text><text xml:space="preserve" font-family="Menlo-Regular,Menlo" font-size="30.0" fill="#FFFFFF" transform="matrix(1.00, 0.00, -0.00, -1.00, 302.4, 712.9)"> </text><text xml:space="preserve" font-family="Menlo-Regular,Menlo" font-size="30.0" fill="#FFFFFF" transform="matrix(1.00, 0.00, -0.00, -1.00, 103.5, 677.9)"> </text><text xml:space="preserve" font-family="Menlo-Regular,Menlo" font-size="30.0" fill="#FFFFFF" transform="matrix(1.00, 0.00, -0.00, -1.00, 121.6, 677.9)"> </text><text xml:space="preserve" font-family="Menlo-Regular,Menlo" font-size="30.0" fill="#FF4647" transform="matrix(1.00, 0.00, -0.00, -1.00, 139.6, 677.9)">"</text><text xml:space="preserve" font-family="Menlo-Regular,Menlo" font-size="30.0" fill="#FF4647" transform="matrix(1.00, 0.00, -0.00, -1.00, 157.7, 677.9)">s</text><text xml:space="preserve" font-family="Menlo-Regular,Menlo" font-size="30.0" fill="#FF4647" transform="matrix(1.00, 0.00, -0.00, -1.00, 175.8, 677.9)">t</text><text xml:space="preserve" font-family="Menlo-Regular,Menlo" font-size="30.0" fill="#FF4647" transform="matrix(1.00, 0.00, -0.00, -1.00, 193.8, 677.9)">r</text><text xml:space="preserve" font-family="Menlo-Regular,Menlo" font-size="30.0" fill="#FF4647" transform="matrix(1.00, 0.00, -0.00, -1.00, 211.9, 677.9)">e</text><text xml:space="preserve" font-family="Menlo-Regular,Menlo" font-size="30.0" fill="#FF4647" transform="matrix(1.00, 0.00, -0.00, -1.00, 229.9, 677.9)">e</text><text xml:space="preserve" font-family="Menlo-Regular,Menlo" font-size="30.0" fill="#FF4647" transform="matrix(1.00, 0.00, -0.00, -1.00, 248.0, 677.9)">t</text><text xml:space="preserve" font-family="Menlo-Regular,Menlo" font-size="30.0" fill="#FF4647" transform="matrix(1.00, 0.00, -0.00, -1.00, 266.1, 677.9)">"</text><text xml:space="preserve" font-family="Menlo-Regular,Menlo" font-size="30.0" fill="#FFFFFF" transform="matrix(1.00, 0.00, -0.00, -1.00, 284.1, 677.9)">:</text><text xml:space="preserve" font-family="Menlo-Regular,Menlo" font-size="30.0" fill="#FFFFFF" transform="matrix(1.00, 0.00, -0.00, -1.00, 302.2, 677.9)"> </text><text xml:space="preserve" font-family="Menlo-Regular,Menlo" font-size="30.0" fill="#FF4647" transform="matrix(1.00, 0.00, -0.00, -1.00, 320.2, 677.9)">"</text><text xml:space="preserve" font-family="Menlo-Regular,Menlo" font-size="30.0" fill="#FF4647" transform="matrix(1.00, 0.00, -0.00, -1.00, 338.3, 677.9)">B</text><text xml:space="preserve" font-family="Menlo-Regular,Menlo" font-size="30.0" fill="#FF4647" transform="matrix(1.00, 0.00, -0.00, -1.00, 356.4, 677.9)">u</text><text xml:space="preserve" font-family="Menlo-Regular,Menlo" font-size="30.0" fill="#FF4647" transform="matrix(1.00, 0.00, -0.00, -1.00, 374.4, 677.9)">c</text><text xml:space="preserve" font-family="Menlo-Regular,Menlo" font-size="30.0" fill="#FF4647" transform="matrix(1.00, 0.00, -0.00, -1.00, 392.5, 677.9)">h</text><text xml:space="preserve" font-family="Menlo-Regular,Menlo" font-size="30.0" fill="#FF4647" transform="matrix(1.00, 0.00, -0.00, -1.00, 410.6, 677.9)"> </text><text xml:space="preserve" font-family="Menlo-Regular,Menlo" font-size="30.0" fill="#FF4647" transform="matrix(1.00, 0.00, -0.00, -1.00, 428.6, 677.9)">S</text><text xml:space="preserve" font-family="Menlo-Regular,Menlo" font-size="30.0" fill="#FF4647" transform="matrix(1.00, 0.00, -0.00, -1.00, 446.7, 677.9)">t</text><text xml:space="preserve" font-family="Menlo-Regular,Menlo" font-size="30.0" fill="#FF4647" transform="matrix(1.00, 0.00, -0.00, -1.00, 464.8, 677.9)">r</text><text xml:space="preserve" font-family="Menlo-Regular,Menlo" font-size="30.0" fill="#FF4647" transform="matrix(1.00, 0.00, -0.00, -1.00, 482.8, 677.9)">e</text><text xml:space="preserve" font-family="Menlo-Regular,Menlo" font-size="30.0" fill="#FF4647" transform="matrix(1.00, 0.00, -0.00, -1.00, 500.9, 677.9)">e</text><text xml:space="preserve" font-family="Menlo-Regular,Menlo" font-size="30.0" fill="#FF4647" transform="matrix(1.00, 0.00, -0.00, -1.00, 518.9, 677.9)">t</text><text xml:space="preserve" font-family="Menlo-Regular,Menlo" font-size="30.0" fill="#FF4647" transform="matrix(1.00, 0.00, -0.00, -1.00, 537.0, 677.9)">"</text><text xml:space="preserve" font-family="Menlo-Regular,Menlo" font-size="30.0" fill="#FFFFFF" transform="matrix(1.00, 0.00, -0.00, -1.00, 555.0, 677.9)">,</text><text xml:space="preserve" font-family="Menlo-Regular,Menlo" font-size="30.0" fill="#FFFFFF" transform="matrix(1.00, 0.00, -0.00, -1.00, 573.1, 677.9)"> </text><text xml:space="preserve" font-family="Menlo-Regular,Menlo" font-size="30.0" fill="#FFFFFF" transform="matrix(1.00, 0.00, -0.00, -1.00, 31.5, 642.9)"> </text><text xml:space="preserve" font-family="Menlo-Regular,Menlo" font-size="30.0" fill="#FFFFFF" transform="matrix(1.00, 0.00, -0.00, -1.00, 49.6, 642.9)"> </text><text xml:space="preserve" font-family="Menlo-Regular,Menlo" font-size="30.0" fill="#FFFFFF" transform="matrix(1.00, 0.00, -0.00, -1.00, 67.6, 642.9)"> </text><text xml:space="preserve" font-family="Menlo-Regular,Menlo" font-size="30.0" fill="#FFFFFF" transform="matrix(1.00, 0.00, -0.00, -1.00, 85.7, 642.9)"> </text><text xml:space="preserve" font-family="Menlo-Regular,Menlo" font-size="30.0" fill="#FFFFFF" transform="matrix(1.00, 0.00, -0.00, -1.00, 103.8, 642.9)"> </text><text xml:space="preserve" font-family="Menlo-Regular,Menlo" font-size="30.0" fill="#FFFFFF" transform="matrix(1.00, 0.00, -0.00, -1.00, 121.8, 642.9)"> </text><text xml:space="preserve" font-family="Menlo-Regular,Menlo" font-size="30.0" fill="#FF4647" transform="matrix(1.00, 0.00, -0.00, -1.00, 139.9, 642.9)">"</text><text xml:space="preserve" font-family="Menlo-Regular,Menlo" font-size="30.0" fill="#FF4647" transform="matrix(1.00, 0.00, -0.00, -1.00, 157.9, 642.9)">p</text><text xml:space="preserve" font-family="Menlo-Regular,Menlo" font-size="30.0" fill="#FF4647" transform="matrix(1.00, 0.00, -0.00, -1.00, 176.0, 642.9)">o</text><text xml:space="preserve" font-family="Menlo-Regular,Menlo" font-size="30.0" fill="#FF4647" transform="matrix(1.00, 0.00, -0.00, -1.00, 194.1, 642.9)">B</text><text xml:space="preserve" font-family="Menlo-Regular,Menlo" font-size="30.0" fill="#FF4647" transform="matrix(1.00, 0.00, -0.00, -1.00, 212.1, 642.9)">o</text><text xml:space="preserve" font-family="Menlo-Regular,Menlo" font-size="30.0" fill="#FF4647" transform="matrix(1.00, 0.00, -0.00, -1.00, 230.2, 642.9)">x</text><text xml:space="preserve" font-family="Menlo-Regular,Menlo" font-size="30.0" fill="#FF4647" transform="matrix(1.00, 0.00, -0.00, -1.00, 248.3, 642.9)">"</text><text xml:space="preserve" font-family="Menlo-Regular,Menlo" font-size="30.0" fill="#FFFFFF" transform="matrix(1.00, 0.00, -0.00, -1.00, 266.3, 642.9)">:</text><text xml:space="preserve" font-family="Menlo-Regular,Menlo" font-size="30.0" fill="#FFFFFF" transform="matrix(1.00, 0.00, -0.00, -1.00, 284.4, 642.9)"> </text><text xml:space="preserve" font-family="Menlo-Regular,Menlo" font-size="30.0" fill="#8B87FF" transform="matrix(1.00, 0.00, -0.00, -1.00, 302.4, 642.9)">1</text><text xml:space="preserve" font-family="Menlo-Regular,Menlo" font-size="30.0" fill="#8B87FF" transform="matrix(1.00, 0.00, -0.00, -1.00, 320.5, 642.9)">2</text><text xml:space="preserve" font-family="Menlo-Regular,Menlo" font-size="30.0" fill="#8B87FF" transform="matrix(1.00, 0.00, -0.00, -1.00, 338.6, 642.9)">3</text><text xml:space="preserve" font-family="Menlo-Regular,Menlo" font-size="30.0" fill="#FFFFFF" transform="matrix(1.00, 0.00, -0.00, -1.00, 356.6, 642.9)">,</text><text xml:space="preserve" font-family="Menlo-Regular,Menlo" font-size="30.0" fill="#FFFFFF" transform="matrix(1.00, 0.00, -0.00, -1.00, 374.7, 642.9)"> </text><text xml:space="preserve" font-family="Menlo-Regular,Menlo" font-size="30.0" fill="#FFFFFF" transform="matrix(1.00, 0.00, -0.00, -1.00, 31.5, 607.9)"> </text><text xml:space="preserve" font-family="Menlo-Regular,Menlo" font-size="30.0" fill="#FFFFFF" transform="matrix(1.00, 0.00, -0.00, -1.00, 49.6, 607.9)"> </text><text xml:space="preserve" font-family="Menlo-Regular,Menlo" font-size="30.0" fill="#FFFFFF" transform="matrix(1.00, 0.00, -0.00, -1.00, 67.6, 607.9)"> </text><text xml:space="preserve" font-family="Menlo-Regular,Menlo" font-size="30.0" fill="#FFFFFF" transform="matrix(1.00, 0.00, -0.00, -1.00, 85.7, 607.9)"> </text><text xml:space="preserve" font-family="Menlo-Regular,Menlo" font-size="30.0" fill="#FFFFFF" transform="matrix(1.00, 0.00, -0.00, -1.00, 103.8, 607.9)"> </text><text xml:space="preserve" font-family="Menlo-Regular,Menlo" font-size="30.0" fill="#FFFFFF" transform="matrix(1.00, 0.00, -0.00, -1.00, 121.8, 607.9)"> </text><text xml:space="preserve" font-family="Menlo-Regular,Menlo" font-size="30.0" fill="#FF4647" transform="matrix(1.00, 0.00, -0.00, -1.00, 139.9, 607.9)">"</text><text xml:space="preserve" font-family="Menlo-Regular,Menlo" font-size="30.0" fill="#FF4647" transform="matrix(1.00, 0.00, -0.00, -1.00, 157.9, 607.9)">c</text><text xml:space="preserve" font-family="Menlo-Regular,Menlo" font-size="30.0" fill="#FF4647" transform="matrix(1.00, 0.00, -0.00, -1.00, 176.0, 607.9)">i</text><text xml:space="preserve" font-family="Menlo-Regular,Menlo" font-size="30.0" fill="#FF4647" transform="matrix(1.00, 0.00, -0.00, -1.00, 194.1, 607.9)">t</text><text xml:space="preserve" font-family="Menlo-Regular,Menlo" font-size="30.0" fill="#FF4647" transform="matrix(1.00, 0.00, -0.00, -1.00, 212.1, 607.9)">y</text><text xml:space="preserve" font-family="Menlo-Regular,Menlo" font-size="30.0" fill="#FF4647" transform="matrix(1.00, 0.00, -0.00, -1.00, 230.2, 607.9)">"</text><text xml:space="preserve" font-family="Menlo-Regular,Menlo" font-size="30.0" fill="#FFFFFF" transform="matrix(1.00, 0.00, -0.00, -1.00, 248.2, 607.9)">:</text><text xml:space="preserve" font-family="Menlo-Regular,Menlo" font-size="30.0" fill="#FFFFFF" transform="matrix(1.00, 0.00, -0.00, -1.00, 266.3, 607.9)"> </text><text xml:space="preserve" font-family="Menlo-Regular,Menlo" font-size="30.0" fill="#FF4647" transform="matrix(1.00, 0.00, -0.00, -1.00, 284.4, 607.9)">"</text><text xml:space="preserve" font-family="Menlo-Regular,Menlo" font-size="30.0" fill="#FF4647" transform="matrix(1.00, 0.00, -0.00, -1.00, 302.4, 607.9)">G</text><text xml:space="preserve" font-family="Menlo-Regular,Menlo" font-size="30.0" fill="#FF4647" transform="matrix(1.00, 0.00, -0.00, -1.00, 320.5, 607.9)">l</text><text xml:space="preserve" font-family="Menlo-Regular,Menlo" font-size="30.0" fill="#FF4647" transform="matrix(1.00, 0.00, -0.00, -1.00, 338.6, 607.9)">a</text><text xml:space="preserve" font-family="Menlo-Regular,Menlo" font-size="30.0" fill="#FF4647" transform="matrix(1.00, 0.00, -0.00, -1.00, 356.6, 607.9)">s</text><text xml:space="preserve" font-family="Menlo-Regular,Menlo" font-size="30.0" fill="#FF4647" transform="matrix(1.00, 0.00, -0.00, -1.00, 374.7, 607.9)">g</text><text xml:space="preserve" font-family="Menlo-Regular,Menlo" font-size="30.0" fill="#FF4647" transform="matrix(1.00, 0.00, -0.00, -1.00, 392.7, 607.9)">o</text><text xml:space="preserve" font-family="Menlo-Regular,Menlo" font-size="30.0" fill="#FF4647" transform="matrix(1.00, 0.00, -0.00, -1.00, 410.8, 607.9)">w</text><text xml:space="preserve" font-family="Menlo-Regular,Menlo" font-size="30.0" fill="#FF4647" transform="matrix(1.00, 0.00, -0.00, -1.00, 428.9, 607.9)">"</text><text xml:space="preserve" font-family="Menlo-Regular,Menlo" font-size="30.0" fill="#FFFFFF" transform="matrix(1.00, 0.00, -0.00, -1.00, 446.9, 607.9)">,</text><text xml:space="preserve" font-family="Menlo-Regular,Menlo" font-size="30.0" fill="#FFFFFF" transform="matrix(1.00, 0.00, -0.00, -1.00, 465.0, 607.9)"> </text><text xml:space="preserve" font-family="Menlo-Regular,Menlo" font-size="30.0" fill="#FFFFFF" transform="matrix(1.00, 0.00, -0.00, -1.00, 31.5, 572.9)"> </text><text xml:space="preserve" font-family="Menlo-Regular,Menlo" font-size="30.0" fill="#FFFFFF" transform="matrix(1.00, 0.00, -0.00, -1.00, 49.6, 572.9)"> </text><text xml:space="preserve" font-family="Menlo-Regular,Menlo" font-size="30.0" fill="#FFFFFF" transform="matrix(1.00, 0.00, -0.00, -1.00, 67.6, 572.9)"> </text><text xml:space="preserve" font-family="Menlo-Regular,Menlo" font-size="30.0" fill="#FFFFFF" transform="matrix(1.00, 0.00, -0.00, -1.00, 85.7, 572.9)"> </text><text xml:space="preserve" font-family="Menlo-Regular,Menlo" font-size="30.0" fill="#FFFFFF" transform="matrix(1.00, 0.00, -0.00, -1.00, 103.8, 572.9)"> </text><text xml:space="preserve" font-family="Menlo-Regular,Menlo" font-size="30.0" fill="#FFFFFF" transform="matrix(1.00, 0.00, -0.00, -1.00, 121.8, 572.9)"> </text><text xml:space="preserve" font-family="Menlo-Regular,Menlo" font-size="30.0" fill="#FF4647" transform="matrix(1.00, 0.00, -0.00, -1.00, 139.9, 572.9)">"</text><text xml:space="preserve" font-family="Menlo-Regular,Menlo" font-size="30.0" fill="#FF4647" transform="matrix(1.00, 0.00, -0.00, -1.00, 157.9, 572.9)">c</text><text xml:space="preserve" font-family="Menlo-Regular,Menlo" font-size="30.0" fill="#FF4647" transform="matrix(1.00, 0.00, -0.00, -1.00, 176.0, 572.9)">o</text><text xml:space="preserve" font-family="Menlo-Regular,Menlo" font-size="30.0" fill="#FF4647" transform="matrix(1.00, 0.00, -0.00, -1.00, 194.1, 572.9)">u</text><text xml:space="preserve" font-family="Menlo-Regular,Menlo" font-size="30.0" fill="#FF4647" transform="matrix(1.00, 0.00, -0.00, -1.00, 212.1, 572.9)">n</text><text xml:space="preserve" font-family="Menlo-Regular,Menlo" font-size="30.0" fill="#FF4647" transform="matrix(1.00, 0.00, -0.00, -1.00, 230.2, 572.9)">t</text><text xml:space="preserve" font-family="Menlo-Regular,Menlo" font-size="30.0" fill="#FF4647" transform="matrix(1.00, 0.00, -0.00, -1.00, 248.3, 572.9)">r</text><text xml:space="preserve" font-family="Menlo-Regular,Menlo" font-size="30.0" fill="#FF4647" transform="matrix(1.00, 0.00, -0.00, -1.00, 266.3, 572.9)">y</text><text xml:space="preserve" font-family="Menlo-Regular,Menlo" font-size="30.0" fill="#FF4647" transform="matrix(1.00, 0.00, -0.00, -1.00, 284.4, 572.9)">"</text><text xml:space="preserve" font-family="Menlo-Regular,Menlo" font-size="30.0" fill="#FFFFFF" transform="matrix(1.00, 0.00, -0.00, -1.00, 302.4, 572.9)">:</text><text xml:space="preserve" font-family="Menlo-Regular,Menlo" font-size="30.0" fill="#FFFFFF" transform="matrix(1.00, 0.00, -0.00, -1.00, 320.5, 572.9)"> </text><text xml:space="preserve" font-family="Menlo-Regular,Menlo" font-size="30.0" fill="#FF4647" transform="matrix(1.00, 0.00, -0.00, -1.00, 338.5, 572.9)">"</text><text xml:space="preserve" font-family="Menlo-Regular,Menlo" font-size="30.0" fill="#FF4647" transform="matrix(1.00, 0.00, -0.00, -1.00, 356.6, 572.9)">U</text><text xml:space="preserve" font-family="Menlo-Regular,Menlo" font-size="30.0" fill="#FF4647" transform="matrix(1.00, 0.00, -0.00, -1.00, 374.7, 572.9)">K</text><text xml:space="preserve" font-family="Menlo-Regular,Menlo" font-size="30.0" fill="#FF4647" transform="matrix(1.00, 0.00, -0.00, -1.00, 392.7, 572.9)">"</text><text xml:space="preserve" font-family="Menlo-Regular,Menlo" font-size="30.0" fill="#FFFFFF" transform="matrix(1.00, 0.00, -0.00, -1.00, 410.8, 572.9)"> </text><text xml:space="preserve" font-family="Menlo-Regular,Menlo" font-size="30.0" fill="#FFFFFF" transform="matrix(1.00, 0.00, -0.00, -1.00, 31.5, 537.9)"> </text><text xml:space="preserve" font-family="Menlo-Regular,Menlo" font-size="30.0" fill="#FFFFFF" transform="matrix(1.00, 0.00, -0.00, -1.00, 49.6, 537.9)"> </text><text xml:space="preserve" font-family="Menlo-Regular,Menlo" font-size="30.0" fill="#FFFFFF" transform="matrix(1.00, 0.00, -0.00, -1.00, 67.6, 537.9)"> </text><text xml:space="preserve" font-family="Menlo-Regular,Menlo" font-size="30.0" fill="#FFFFFF" transform="matrix(1.00, 0.00, -0.00, -1.00, 85.7, 537.9)"> </text><text xml:space="preserve" font-family="Menlo-Regular,Menlo" font-size="30.0" fill="#FFFFFF" transform="matrix(1.00, 0.00, -0.00, -1.00, 103.8, 537.9)"> </text><text xml:space="preserve" font-family="Menlo-Regular,Menlo" font-size="30.0" fill="#FFFFFF" transform="matrix(1.00, 0.00, -0.00, -1.00, 121.8, 537.9)"> </text><text xml:space="preserve" font-family="Menlo-Regular,Menlo" font-size="30.0" fill="#FFFFFF" transform="matrix(1.00, 0.00, -0.00, -1.00, 139.9, 537.9)">}</text><text xml:space="preserve" font-family="Menlo-Regular,Menlo" font-size="30.0" fill="#FFFFFF" transform="matrix(1.00, 0.00, -0.00, -1.00, 158.0, 537.9)"> </text><text xml:space="preserve" font-family="Menlo-Regular,Menlo" font-size="30.0" fill="#FFFFFF" transform="matrix(1.00, 0.00, -0.00, -1.00, 176.0, 537.9)"> </text><text xml:space="preserve" font-family="Menlo-Regular,Menlo" font-size="30.0" fill="#FFFFFF" transform="matrix(1.00, 0.00, -0.00, -1.00, 194.1, 537.9)"> </text><text xml:space="preserve" font-family="Menlo-Regular,Menlo" font-size="30.0" fill="#FFFFFF" transform="matrix(1.00, 0.00, -0.00, -1.00, 31.5, 502.9)"> </text><text xml:space="preserve" font-family="Menlo-Regular,Menlo" font-size="30.0" fill="#FFFFFF" transform="matrix(1.00, 0.00, -0.00, -1.00, 49.6, 502.9)">}</text><text xml:space="preserve" font-family="Menlo-Regular,Menlo" font-size="30.0" fill="#FFFFFF" transform="matrix(1.00, 0.00, -0.00, -1.00, 67.6, 502.9)"> </text></g></g><image xlink:href="../../EE8D7FD7-F828-4463-8A34-9043A96BD708/assets/D93F090722A5269D0B30C3E05CCA40BA.png" width="225.00" height="225.00" transform="matrix(0.31, 0.00, -0.00, -0.31, 1498.0, 91.0)"></image><text xml:space="preserve" font-family="BradleyHandITCTT-Bold,Bradley Hand" font-weight="bold" font-size="37.0" fill="#FEFFFF" transform="matrix(1.00, 0.00, -0.00, -1.00, 1583.5, 48.2)">a</text><text xml:space="preserve" font-family="BradleyHandITCTT-Bold,Bradley Hand" font-weight="bold" font-size="37.0" fill="#FEFFFF" transform="matrix(1.00, 0.00, -0.00, -1.00, 1602.6, 48.2)">e</text><text xml:space="preserve" font-family="BradleyHandITCTT-Bold,Bradley Hand" font-weight="bold" font-size="37.0" fill="#FEFFFF" transform="matrix(1.00, 0.00, -0.00, -1.00, 1616.5, 48.2)">r</text><text xml:space="preserve" font-family="BradleyHandITCTT-Bold,Bradley Hand" font-weight="bold" font-size="37.0" fill="#FEFFFF" transform="matrix(1.00, 0.00, -0.00, -1.00, 1631.0, 48.2)">o</text><text xml:space="preserve" font-family="BradleyHandITCTT-Bold,Bradley Hand" font-weight="bold" font-size="37.0" fill="#FEFFFF" transform="matrix(1.00, 0.00, -0.00, -1.00, 1646.8, 48.2)">g</text><text xml:space="preserve" font-family="BradleyHandITCTT-Bold,Bradley Hand" font-weight="bold" font-size="37.0" fill="#FEFFFF" transform="matrix(1.00, 0.00, -0.00, -1.00, 1669.0, 48.2)">e</text><text xml:space="preserve" font-family="BradleyHandITCTT-Bold,Bradley Hand" font-weight="bold" font-size="37.0" fill="#FEFFFF" transform="matrix(1.00, 0.00, -0.00, -1.00, 1683.0, 48.2)">a</text><text xml:space="preserve" font-family="BradleyHandITCTT-Bold,Bradley Hand" font-weight="bold" font-size="37.0" fill="#FEFFFF" transform="matrix(1.00, 0.00, -0.00, -1.00, 1702.0, 48.2)">r</text><text xml:space="preserve" font-family="BradleyHandITCTT-Bold,Bradley Hand" font-weight="bold" font-size="37.0" fill="#FEFFFF" transform="matrix(1.00, 0.00, -0.00, -1.00, 1716.5, 48.2)">-</text><text xml:space="preserve" font-family="BradleyHandITCTT-Bold,Bradley Hand" font-weight="bold" font-size="37.0" fill="#FEFFFF" transform="matrix(1.00, 0.00, -0.00, -1.00, 1729.7, 48.2)">i</text><text xml:space="preserve" font-family="BradleyHandITCTT-Bold,Bradley Hand" font-weight="bold" font-size="37.0" fill="#FEFFFF" transform="matrix(1.00, 0.00, -0.00, -1.00, 1741.9, 48.2)">o</text><text xml:space="preserve" font-family="BradleyHandITCTT-Bold,Bradley Hand" font-weight="bold" font-size="37.0" fill="#FEFFFF" transform="matrix(1.00, 0.00, -0.00, -1.00, 1757.7, 48.2)">s</text><text xml:space="preserve" font-family="BradleyHandITCTT-Bold,Bradley Hand" font-weight="bold" font-size="37.0" fill="#FEFFFF" transform="matrix(1.00, 0.00, -0.00, -1.00, 1774.5, 48.2)">-</text><text xml:space="preserve" font-family="BradleyHandITCTT-Bold,Bradley Hand" font-weight="bold" font-size="37.0" fill="#FEFFFF" transform="matrix(1.00, 0.00, -0.00, -1.00, 1787.7, 48.2)">j</text><text xml:space="preserve" font-family="BradleyHandITCTT-Bold,Bradley Hand" font-weight="bold" font-size="37.0" fill="#FEFFFF" transform="matrix(1.00, 0.00, -0.00, -1.00, 1797.8, 48.2)">s</text><text xml:space="preserve" font-family="BradleyHandITCTT-Bold,Bradley Hand" font-weight="bold" font-size="37.0" fill="#FEFFFF" transform="matrix(1.00, 0.00, -0.00, -1.00, 1814.6, 48.2)">o</text><text xml:space="preserve" font-family="BradleyHandITCTT-Bold,Bradley Hand" font-weight="bold" font-size="37.0" fill="#FEFFFF" transform="matrix(1.00, 0.00, -0.00, -1.00, 1830.4, 48.2)">n</text><text xml:space="preserve" font-family="BradleyHandITCTT-Bold,Bradley Hand" font-weight="bold" font-size="37.0" fill="#FEFFFF" transform="matrix(1.00, 0.00, -0.00, -1.00, 1855.2, 48.2)">s</text><text xml:space="preserve" font-family="BradleyHandITCTT-Bold,Bradley Hand" font-weight="bold" font-size="37.0" fill="#FEFFFF" transform="matrix(1.00, 0.00, -0.00, -1.00, 1872.0, 48.2)">z</text><text xml:space="preserve" font-family="BradleyHandITCTT-Bold,Bradley Hand" font-weight="bold" font-size="37.0" fill="#FEFFFF" transform="matrix(1.00, 0.00, -0.00, -1.00, 1892.5, 48.2)"> </text><text xml:space="preserve" font-family="BradleyHandITCTT-Bold,Bradley Hand" font-weight="bold" font-size="37.0" fill="#FEFFFF" transform="matrix(1.00, 0.00, -0.00, -1.00, 1902.0, 48.2)"> </text><text xml:space="preserve" font-family="BradleyHandITCTT-Bold,Bradley Hand" font-weight="bold" font-size="37.0" fill="#FEFFFF" transform="matrix(1.00, 0.00, -0.00, -1.00, 1911.4, 48.2)"> </text><g><clipPath id="clip0x7f88a6b5f970"><path d="M 1582.5 39.9 L 1892.5 39.9 L 1892.5 44.2 L 1582.5 44.2 Z M 1582.5 39.9 "></path></clipPath><g clip-path="url(#clip0x7f88a6b5f970)"><path d="M 17.0 43.0 L 326.0 43.0 " fill="none" stroke="#FEFFFF" stroke-width="2.26" transform="matrix(1.00, 0.00, 0.00, -1.00, 1566.6, 85.0)"></path></g></g></g></svg>