<?xml version="1.0" encoding="UTF-8" standalone="no"?><svg xmlns="http://www.w3.org/2000/svg" xmlns:xlink="http://www.w3.org/1999/xlink" clip-rule="evenodd" stroke-miterlimit="10" viewBox="0 0 761 474"><desc>SVG generated by Keynote</desc><defs></defs><g transform="matrix(1.00, 0.00, -0.00, -1.00, 0.0, 474.0)"><text xml:space="preserve" font-family="Menlo-Regular,Menlo" font-size="35.0" fill="#DD38A5" transform="matrix(1.00, 0.00, -0.00, -1.00, 0.3, 444.7)">v</text><text xml:space="preserve" font-family="Menlo-Regular,Menlo" font-size="35.0" fill="#DD38A5" transform="matrix(1.00, 0.00, -0.00, -1.00, 21.4, 444.7)">a</text><text xml:space="preserve" font-family="Menlo-Regular,Menlo" font-size="35.0" fill="#DD38A5" transform="matrix(1.00, 0.00, -0.00, -1.00, 42.5, 444.7)">r</text><text xml:space="preserve" font-family="Menlo-Regular,Menlo" font-size="35.0" fill="#FFFFFF" transform="matrix(1.00, 0.00, -0.00, -1.00, 63.5, 444.7)"> </text><text xml:space="preserve" font-family="Menlo-Regular,Menlo" font-size="35.0" fill="#FFFFFF" transform="matrix(1.00, 0.00, -0.00, -1.00, 84.6, 444.7)">a</text><text xml:space="preserve" font-family="Menlo-Regular,Menlo" font-size="35.0" fill="#FFFFFF" transform="matrix(1.00, 0.00, -0.00, -1.00, 105.7, 444.7)"> </text><text xml:space="preserve" font-family="Menlo-Regular,Menlo" font-size="35.0" fill="#FFFFFF" transform="matrix(1.00, 0.00, -0.00, -1.00, 126.8, 444.7)">=</text><text xml:space="preserve" font-family="Menlo-Regular,Menlo" font-size="35.0" fill="#FFFFFF" transform="matrix(1.00, 0.00, -0.00, -1.00, 147.8, 444.7)"> </text><text xml:space="preserve" font-family="Menlo-Regular,Menlo" font-size="35.0" fill="#FF4647" transform="matrix(1.00, 0.00, -0.00, -1.00, 168.9, 444.7)">"</text><text xml:space="preserve" font-family="Menlo-Regular,Menlo" font-size="35.0" fill="#FF4647" transform="matrix(1.00, 0.00, -0.00, -1.00, 190.0, 444.7)">s</text><text xml:space="preserve" font-family="Menlo-Regular,Menlo" font-size="35.0" fill="#FF4647" transform="matrix(1.00, 0.00, -0.00, -1.00, 211.1, 444.7)">o</text><text xml:space="preserve" font-family="Menlo-Regular,Menlo" font-size="35.0" fill="#FF4647" transform="matrix(1.00, 0.00, -0.00, -1.00, 232.1, 444.7)">m</text><text xml:space="preserve" font-family="Menlo-Regular,Menlo" font-size="35.0" fill="#FF4647" transform="matrix(1.00, 0.00, -0.00, -1.00, 253.2, 444.7)">e</text><text xml:space="preserve" font-family="Menlo-Regular,Menlo" font-size="35.0" fill="#FF4647" transform="matrix(1.00, 0.00, -0.00, -1.00, 274.3, 444.7)"> </text><text xml:space="preserve" font-family="Menlo-Regular,Menlo" font-size="35.0" fill="#FF4647" transform="matrix(1.00, 0.00, -0.00, -1.00, 295.4, 444.7)">t</text><text xml:space="preserve" font-family="Menlo-Regular,Menlo" font-size="35.0" fill="#FF4647" transform="matrix(1.00, 0.00, -0.00, -1.00, 316.4, 444.7)">e</text><text xml:space="preserve" font-family="Menlo-Regular,Menlo" font-size="35.0" fill="#FF4647" transform="matrix(1.00, 0.00, -0.00, -1.00, 337.5, 444.7)">x</text><text xml:space="preserve" font-family="Menlo-Regular,Menlo" font-size="35.0" fill="#FF4647" transform="matrix(1.00, 0.00, -0.00, -1.00, 358.6, 444.7)">t</text><text xml:space="preserve" font-family="Menlo-Regular,Menlo" font-size="35.0" fill="#FF4647" transform="matrix(1.00, 0.00, -0.00, -1.00, 379.7, 444.7)">"</text><text xml:space="preserve" font-family="Menlo-Regular,Menlo" font-size="35.0" fill="#FFFFFF" transform="matrix(1.00, 0.00, -0.00, -1.00, 400.7, 444.7)"> </text><text xml:space="preserve" font-family="Menlo-Regular,Menlo" font-size="35.0" fill="#DD38A5" transform="matrix(1.00, 0.00, -0.00, -1.00, 0.3, 404.7)">v</text><text xml:space="preserve" font-family="Menlo-Regular,Menlo" font-size="35.0" fill="#DD38A5" transform="matrix(1.00, 0.00, -0.00, -1.00, 21.4, 404.7)">a</text><text xml:space="preserve" font-family="Menlo-Regular,Menlo" font-size="35.0" fill="#DD38A5" transform="matrix(1.00, 0.00, -0.00, -1.00, 42.5, 404.7)">r</text><text xml:space="preserve" font-family="Menlo-Regular,Menlo" font-size="35.0" fill="#FFFFFF" transform="matrix(1.00, 0.00, -0.00, -1.00, 63.5, 404.7)"> </text><text xml:space="preserve" font-family="Menlo-Regular,Menlo" font-size="35.0" fill="#FFFFFF" transform="matrix(1.00, 0.00, -0.00, -1.00, 84.6, 404.7)">b</text><text xml:space="preserve" font-family="Menlo-Regular,Menlo" font-size="35.0" fill="#FFFFFF" transform="matrix(1.00, 0.00, -0.00, -1.00, 105.7, 404.7)"> </text><text xml:space="preserve" font-family="Menlo-Regular,Menlo" font-size="35.0" fill="#FFFFFF" transform="matrix(1.00, 0.00, -0.00, -1.00, 126.8, 404.7)">=</text><text xml:space="preserve" font-family="Menlo-Regular,Menlo" font-size="35.0" fill="#FFFFFF" transform="matrix(1.00, 0.00, -0.00, -1.00, 147.8, 404.7)"> </text><text xml:space="preserve" font-family="Menlo-Regular,Menlo" font-size="35.0" fill="#FF4647" transform="matrix(1.00, 0.00, -0.00, -1.00, 168.9, 404.7)">"</text><text xml:space="preserve" font-family="Menlo-Regular,Menlo" font-size="35.0" fill="#FF4647" transform="matrix(1.00, 0.00, -0.00, -1.00, 190.0, 404.7)">s</text><text xml:space="preserve" font-family="Menlo-Regular,Menlo" font-size="35.0" fill="#FF4647" transform="matrix(1.00, 0.00, -0.00, -1.00, 211.1, 404.7)">o</text><text xml:space="preserve" font-family="Menlo-Regular,Menlo" font-size="35.0" fill="#FF4647" transform="matrix(1.00, 0.00, -0.00, -1.00, 232.1, 404.7)">m</text><text xml:space="preserve" font-family="Menlo-Regular,Menlo" font-size="35.0" fill="#FF4647" transform="matrix(1.00, 0.00, -0.00, -1.00, 253.2, 404.7)">e</text><text xml:space="preserve" font-family="Menlo-Regular,Menlo" font-size="35.0" fill="#FF4647" transform="matrix(1.00, 0.00, -0.00, -1.00, 274.3, 404.7)"> </text><text xml:space="preserve" font-family="Menlo-Regular,Menlo" font-size="35.0" fill="#FF4647" transform="matrix(1.00, 0.00, -0.00, -1.00, 295.4, 404.7)">t</text><text xml:space="preserve" font-family="Menlo-Regular,Menlo" font-size="35.0" fill="#FF4647" transform="matrix(1.00, 0.00, -0.00, -1.00, 316.4, 404.7)">e</text><text xml:space="preserve" font-family="Menlo-Regular,Menlo" font-size="35.0" fill="#FF4647" transform="matrix(1.00, 0.00, -0.00, -1.00, 337.5, 404.7)">x</text><text xml:space="preserve" font-family="Menlo-Regular,Menlo" font-size="35.0" fill="#FF4647" transform="matrix(1.00, 0.00, -0.00, -1.00, 358.6, 404.7)">t</text><text xml:space="preserve" font-family="Menlo-Regular,Menlo" font-size="35.0" fill="#FF4647" transform="matrix(1.00, 0.00, -0.00, -1.00, 379.7, 404.7)">"</text><text xml:space="preserve" font-family="Menlo-Regular,Menlo" font-size="35.0" fill="#FFFFFF" transform="matrix(1.00, 0.00, -0.00, -1.00, 400.7, 404.7)"> </text><text xml:space="preserve" font-family="Menlo-Regular,Menlo" font-size="35.0" fill="#DD38A5" transform="matrix(1.00, 0.00, -0.00, -1.00, 0.3, 364.7)">i</text><text xml:space="preserve" font-family="Menlo-Regular,Menlo" font-size="35.0" fill="#DD38A5" transform="matrix(1.00, 0.00, -0.00, -1.00, 21.4, 364.7)">f</text><text xml:space="preserve" font-family="Menlo-Regular,Menlo" font-size="35.0" fill="#FFFFFF" transform="matrix(1.00, 0.00, -0.00, -1.00, 42.5, 364.7)"> </text><text xml:space="preserve" font-family="Menlo-Regular,Menlo" font-size="35.0" fill="#08FA95" transform="matrix(1.00, 0.00, -0.00, -1.00, 63.5, 364.7)">a</text><text xml:space="preserve" font-family="Menlo-Regular,Menlo" font-size="35.0" fill="#FFFFFF" transform="matrix(1.00, 0.00, -0.00, -1.00, 84.6, 364.7)"> </text><text xml:space="preserve" font-family="Menlo-Regular,Menlo" font-size="35.0" fill="#FFFFFF" transform="matrix(1.00, 0.00, -0.00, -1.00, 105.7, 364.7)">=</text><text xml:space="preserve" font-family="Menlo-Regular,Menlo" font-size="35.0" fill="#FFFFFF" transform="matrix(1.00, 0.00, -0.00, -1.00, 126.8, 364.7)">=</text><text xml:space="preserve" font-family="Menlo-Regular,Menlo" font-size="35.0" fill="#FFFFFF" transform="matrix(1.00, 0.00, -0.00, -1.00, 147.8, 364.7)"> </text><text xml:space="preserve" font-family="Menlo-Regular,Menlo" font-size="35.0" fill="#08FA95" transform="matrix(1.00, 0.00, -0.00, -1.00, 168.9, 364.7)">b</text><text xml:space="preserve" font-family="Menlo-Regular,Menlo" font-size="35.0" fill="#FFFFFF" transform="matrix(1.00, 0.00, -0.00, -1.00, 190.0, 364.7)"> </text><text xml:space="preserve" font-family="Menlo-Regular,Menlo" font-size="35.0" fill="#FFFFFF" transform="matrix(1.00, 0.00, -0.00, -1.00, 211.0, 364.7)">{</text><text xml:space="preserve" font-family="Menlo-Regular,Menlo" font-size="35.0" fill="#FFFFFF" transform="matrix(1.00, 0.00, -0.00, -1.00, 232.1, 364.7)"> </text><text xml:space="preserve" font-family="Menlo-Regular,Menlo" font-size="35.0" fill="#FFFFFF" transform="matrix(1.00, 0.00, -0.00, -1.00, 0.3, 324.7)"> </text><text xml:space="preserve" font-family="Menlo-Regular,Menlo" font-size="35.0" fill="#FFFFFF" transform="matrix(1.00, 0.00, -0.00, -1.00, 21.4, 324.7)"> </text><text xml:space="preserve" font-family="Menlo-Regular,Menlo" font-size="35.0" fill="#FFFFFF" transform="matrix(1.00, 0.00, -0.00, -1.00, 42.5, 324.7)"> </text><text xml:space="preserve" font-family="Menlo-Regular,Menlo" font-size="35.0" fill="#FFFFFF" transform="matrix(1.00, 0.00, -0.00, -1.00, 63.6, 324.7)"> </text><text xml:space="preserve" font-family="Menlo-Regular,Menlo" font-size="35.0" fill="#00B1FF" transform="matrix(1.00, 0.00, -0.00, -1.00, 84.6, 324.7)">p</text><text xml:space="preserve" font-family="Menlo-Regular,Menlo" font-size="35.0" fill="#00B1FF" transform="matrix(1.00, 0.00, -0.00, -1.00, 105.7, 324.7)">r</text><text xml:space="preserve" font-family="Menlo-Regular,Menlo" font-size="35.0" fill="#00B1FF" transform="matrix(1.00, 0.00, -0.00, -1.00, 126.8, 324.7)">i</text><text xml:space="preserve" font-family="Menlo-Regular,Menlo" font-size="35.0" fill="#00B1FF" transform="matrix(1.00, 0.00, -0.00, -1.00, 147.8, 324.7)">n</text><text xml:space="preserve" font-family="Menlo-Regular,Menlo" font-size="35.0" fill="#00B1FF" transform="matrix(1.00, 0.00, -0.00, -1.00, 168.9, 324.7)">t</text><text xml:space="preserve" font-family="Menlo-Regular,Menlo" font-size="35.0" fill="#00B1FF" transform="matrix(1.00, 0.00, -0.00, -1.00, 190.0, 324.7)">l</text><text xml:space="preserve" font-family="Menlo-Regular,Menlo" font-size="35.0" fill="#00B1FF" transform="matrix(1.00, 0.00, -0.00, -1.00, 211.1, 324.7)">n</text><text xml:space="preserve" font-family="Menlo-Regular,Menlo" font-size="35.0" fill="#FFFFFF" transform="matrix(1.00, 0.00, -0.00, -1.00, 232.1, 324.7)">(</text><text xml:space="preserve" font-family="Menlo-Regular,Menlo" font-size="35.0" fill="#FF4647" transform="matrix(1.00, 0.00, -0.00, -1.00, 253.2, 324.7)">"</text><text xml:space="preserve" font-family="Menlo-Regular,Menlo" font-size="35.0" fill="#FF4647" transform="matrix(1.00, 0.00, -0.00, -1.00, 274.3, 324.7)">T</text><text xml:space="preserve" font-family="Menlo-Regular,Menlo" font-size="35.0" fill="#FF4647" transform="matrix(1.00, 0.00, -0.00, -1.00, 295.3, 324.7)">h</text><text xml:space="preserve" font-family="Menlo-Regular,Menlo" font-size="35.0" fill="#FF4647" transform="matrix(1.00, 0.00, -0.00, -1.00, 316.4, 324.7)">e</text><text xml:space="preserve" font-family="Menlo-Regular,Menlo" font-size="35.0" fill="#FF4647" transform="matrix(1.00, 0.00, -0.00, -1.00, 337.5, 324.7)"> </text><text xml:space="preserve" font-family="Menlo-Regular,Menlo" font-size="35.0" fill="#FF4647" transform="matrix(1.00, 0.00, -0.00, -1.00, 358.6, 324.7)">s</text><text xml:space="preserve" font-family="Menlo-Regular,Menlo" font-size="35.0" fill="#FF4647" transform="matrix(1.00, 0.00, -0.00, -1.00, 379.6, 324.7)">t</text><text xml:space="preserve" font-family="Menlo-Regular,Menlo" font-size="35.0" fill="#FF4647" transform="matrix(1.00, 0.00, -0.00, -1.00, 400.7, 324.7)">r</text><text xml:space="preserve" font-family="Menlo-Regular,Menlo" font-size="35.0" fill="#FF4647" transform="matrix(1.00, 0.00, -0.00, -1.00, 421.8, 324.7)">i</text><text xml:space="preserve" font-family="Menlo-Regular,Menlo" font-size="35.0" fill="#FF4647" transform="matrix(1.00, 0.00, -0.00, -1.00, 442.9, 324.7)">n</text><text xml:space="preserve" font-family="Menlo-Regular,Menlo" font-size="35.0" fill="#FF4647" transform="matrix(1.00, 0.00, -0.00, -1.00, 463.9, 324.7)">g</text><text xml:space="preserve" font-family="Menlo-Regular,Menlo" font-size="35.0" fill="#FF4647" transform="matrix(1.00, 0.00, -0.00, -1.00, 485.0, 324.7)">s</text><text xml:space="preserve" font-family="Menlo-Regular,Menlo" font-size="35.0" fill="#FF4647" transform="matrix(1.00, 0.00, -0.00, -1.00, 506.1, 324.7)"> </text><text xml:space="preserve" font-family="Menlo-Regular,Menlo" font-size="35.0" fill="#FF4647" transform="matrix(1.00, 0.00, -0.00, -1.00, 527.2, 324.7)">a</text><text xml:space="preserve" font-family="Menlo-Regular,Menlo" font-size="35.0" fill="#FF4647" transform="matrix(1.00, 0.00, -0.00, -1.00, 548.2, 324.7)">r</text><text xml:space="preserve" font-family="Menlo-Regular,Menlo" font-size="35.0" fill="#FF4647" transform="matrix(1.00, 0.00, -0.00, -1.00, 569.3, 324.7)">e</text><text xml:space="preserve" font-family="Menlo-Regular,Menlo" font-size="35.0" fill="#FF4647" transform="matrix(1.00, 0.00, -0.00, -1.00, 590.4, 324.7)"> </text><text xml:space="preserve" font-family="Menlo-Regular,Menlo" font-size="35.0" fill="#FF4647" transform="matrix(1.00, 0.00, -0.00, -1.00, 611.5, 324.7)">e</text><text xml:space="preserve" font-family="Menlo-Regular,Menlo" font-size="35.0" fill="#FF4647" transform="matrix(1.00, 0.00, -0.00, -1.00, 632.5, 324.7)">q</text><text xml:space="preserve" font-family="Menlo-Regular,Menlo" font-size="35.0" fill="#FF4647" transform="matrix(1.00, 0.00, -0.00, -1.00, 653.6, 324.7)">u</text><text xml:space="preserve" font-family="Menlo-Regular,Menlo" font-size="35.0" fill="#FF4647" transform="matrix(1.00, 0.00, -0.00, -1.00, 674.7, 324.7)">a</text><text xml:space="preserve" font-family="Menlo-Regular,Menlo" font-size="35.0" fill="#FF4647" transform="matrix(1.00, 0.00, -0.00, -1.00, 695.8, 324.7)">l</text><text xml:space="preserve" font-family="Menlo-Regular,Menlo" font-size="35.0" fill="#FF4647" transform="matrix(1.00, 0.00, -0.00, -1.00, 716.8, 324.7)">"</text><text xml:space="preserve" font-family="Menlo-Regular,Menlo" font-size="35.0" fill="#FFFFFF" transform="matrix(1.00, 0.00, -0.00, -1.00, 737.8, 324.7)">)</text><text xml:space="preserve" font-family="Menlo-Regular,Menlo" font-size="35.0" fill="#FFFFFF" transform="matrix(1.00, 0.00, -0.00, -1.00, 758.9, 324.7)"> </text><text xml:space="preserve" font-family="Menlo-Regular,Menlo" font-size="35.0" fill="#FFFFFF" transform="matrix(1.00, 0.00, -0.00, -1.00, 0.3, 284.7)">}</text><text xml:space="preserve" font-family="Menlo-Regular,Menlo" font-size="35.0" fill="#FFFFFF" transform="matrix(1.00, 0.00, -0.00, -1.00, 21.4, 284.7)"> </text><text xml:space="preserve" font-family="Menlo-Regular,Menlo" font-size="35.0" fill="#DD38A5" transform="matrix(1.00, 0.00, -0.00, -1.00, 0.3, 244.7)">i</text><text xml:space="preserve" font-family="Menlo-Regular,Menlo" font-size="35.0" fill="#DD38A5" transform="matrix(1.00, 0.00, -0.00, -1.00, 21.4, 244.7)">f</text><text xml:space="preserve" font-family="Menlo-Regular,Menlo" font-size="35.0" fill="#FFFFFF" transform="matrix(1.00, 0.00, -0.00, -1.00, 42.5, 244.7)"> </text><text xml:space="preserve" font-family="Menlo-Regular,Menlo" font-size="35.0" fill="#08FA95" transform="matrix(1.00, 0.00, -0.00, -1.00, 63.5, 244.7)">a</text><text xml:space="preserve" font-family="Menlo-Regular,Menlo" font-size="35.0" fill="#FFFFFF" transform="matrix(1.00, 0.00, -0.00, -1.00, 84.6, 244.7)">.</text><text xml:space="preserve" font-family="Menlo-Regular,Menlo" font-size="35.0" fill="#00B1FF" transform="matrix(1.00, 0.00, -0.00, -1.00, 105.7, 244.7)">h</text><text xml:space="preserve" font-family="Menlo-Regular,Menlo" font-size="35.0" fill="#00B1FF" transform="matrix(1.00, 0.00, -0.00, -1.00, 126.8, 244.7)">a</text><text xml:space="preserve" font-family="Menlo-Regular,Menlo" font-size="35.0" fill="#00B1FF" transform="matrix(1.00, 0.00, -0.00, -1.00, 147.8, 244.7)">s</text><text xml:space="preserve" font-family="Menlo-Regular,Menlo" font-size="35.0" fill="#00B1FF" transform="matrix(1.00, 0.00, -0.00, -1.00, 168.9, 244.7)">P</text><text xml:space="preserve" font-family="Menlo-Regular,Menlo" font-size="35.0" fill="#00B1FF" transform="matrix(1.00, 0.00, -0.00, -1.00, 190.0, 244.7)">r</text><text xml:space="preserve" font-family="Menlo-Regular,Menlo" font-size="35.0" fill="#00B1FF" transform="matrix(1.00, 0.00, -0.00, -1.00, 211.1, 244.7)">e</text><text xml:space="preserve" font-family="Menlo-Regular,Menlo" font-size="35.0" fill="#00B1FF" transform="matrix(1.00, 0.00, -0.00, -1.00, 232.1, 244.7)">f</text><text xml:space="preserve" font-family="Menlo-Regular,Menlo" font-size="35.0" fill="#00B1FF" transform="matrix(1.00, 0.00, -0.00, -1.00, 253.2, 244.7)">i</text><text xml:space="preserve" font-family="Menlo-Regular,Menlo" font-size="35.0" fill="#00B1FF" transform="matrix(1.00, 0.00, -0.00, -1.00, 274.3, 244.7)">x</text><text xml:space="preserve" font-family="Menlo-Regular,Menlo" font-size="35.0" fill="#FFFFFF" transform="matrix(1.00, 0.00, -0.00, -1.00, 295.3, 244.7)">(</text><text xml:space="preserve" font-family="Menlo-Regular,Menlo" font-size="35.0" fill="#FF4647" transform="matrix(1.00, 0.00, -0.00, -1.00, 316.4, 244.7)">"</text><text xml:space="preserve" font-family="Menlo-Regular,Menlo" font-size="35.0" fill="#FF4647" transform="matrix(1.00, 0.00, -0.00, -1.00, 337.5, 244.7)">s</text><text xml:space="preserve" font-family="Menlo-Regular,Menlo" font-size="35.0" fill="#FF4647" transform="matrix(1.00, 0.00, -0.00, -1.00, 358.6, 244.7)">o</text><text xml:space="preserve" font-family="Menlo-Regular,Menlo" font-size="35.0" fill="#FF4647" transform="matrix(1.00, 0.00, -0.00, -1.00, 379.6, 244.7)">m</text><text xml:space="preserve" font-family="Menlo-Regular,Menlo" font-size="35.0" fill="#FF4647" transform="matrix(1.00, 0.00, -0.00, -1.00, 400.7, 244.7)">e</text><text xml:space="preserve" font-family="Menlo-Regular,Menlo" font-size="35.0" fill="#FF4647" transform="matrix(1.00, 0.00, -0.00, -1.00, 421.8, 244.7)">"</text><text xml:space="preserve" font-family="Menlo-Regular,Menlo" font-size="35.0" fill="#FFFFFF" transform="matrix(1.00, 0.00, -0.00, -1.00, 442.8, 244.7)">)</text><text xml:space="preserve" font-family="Menlo-Regular,Menlo" font-size="35.0" fill="#FFFFFF" transform="matrix(1.00, 0.00, -0.00, -1.00, 463.9, 244.7)"> </text><text xml:space="preserve" font-family="Menlo-Regular,Menlo" font-size="35.0" fill="#FFFFFF" transform="matrix(1.00, 0.00, -0.00, -1.00, 485.0, 244.7)">{</text><text xml:space="preserve" font-family="Menlo-Regular,Menlo" font-size="35.0" fill="#FFFFFF" transform="matrix(1.00, 0.00, -0.00, -1.00, 506.1, 244.7)"> </text><text xml:space="preserve" font-family="Menlo-Regular,Menlo" font-size="35.0" fill="#FFFFFF" transform="matrix(1.00, 0.00, -0.00, -1.00, 0.3, 204.7)"> </text><text xml:space="preserve" font-family="Menlo-Regular,Menlo" font-size="35.0" fill="#FFFFFF" transform="matrix(1.00, 0.00, -0.00, -1.00, 21.4, 204.7)"> </text><text xml:space="preserve" font-family="Menlo-Regular,Menlo" font-size="35.0" fill="#FFFFFF" transform="matrix(1.00, 0.00, -0.00, -1.00, 42.5, 204.7)"> </text><text xml:space="preserve" font-family="Menlo-Regular,Menlo" font-size="35.0" fill="#FFFFFF" transform="matrix(1.00, 0.00, -0.00, -1.00, 63.6, 204.7)"> </text><text xml:space="preserve" font-family="Menlo-Regular,Menlo" font-size="35.0" fill="#00B1FF" transform="matrix(1.00, 0.00, -0.00, -1.00, 84.6, 204.7)">p</text><text xml:space="preserve" font-family="Menlo-Regular,Menlo" font-size="35.0" fill="#00B1FF" transform="matrix(1.00, 0.00, -0.00, -1.00, 105.7, 204.7)">r</text><text xml:space="preserve" font-family="Menlo-Regular,Menlo" font-size="35.0" fill="#00B1FF" transform="matrix(1.00, 0.00, -0.00, -1.00, 126.8, 204.7)">i</text><text xml:space="preserve" font-family="Menlo-Regular,Menlo" font-size="35.0" fill="#00B1FF" transform="matrix(1.00, 0.00, -0.00, -1.00, 147.8, 204.7)">n</text><text xml:space="preserve" font-family="Menlo-Regular,Menlo" font-size="35.0" fill="#00B1FF" transform="matrix(1.00, 0.00, -0.00, -1.00, 168.9, 204.7)">t</text><text xml:space="preserve" font-family="Menlo-Regular,Menlo" font-size="35.0" fill="#00B1FF" transform="matrix(1.00, 0.00, -0.00, -1.00, 190.0, 204.7)">l</text><text xml:space="preserve" font-family="Menlo-Regular,Menlo" font-size="35.0" fill="#00B1FF" transform="matrix(1.00, 0.00, -0.00, -1.00, 211.1, 204.7)">n</text><text xml:space="preserve" font-family="Menlo-Regular,Menlo" font-size="35.0" fill="#FFFFFF" transform="matrix(1.00, 0.00, -0.00, -1.00, 232.1, 204.7)">(</text><text xml:space="preserve" font-family="Menlo-Regular,Menlo" font-size="35.0" fill="#FF4647" transform="matrix(1.00, 0.00, -0.00, -1.00, 253.2, 204.7)">"</text><text xml:space="preserve" font-family="Menlo-Regular,Menlo" font-size="35.0" fill="#FF4647" transform="matrix(1.00, 0.00, -0.00, -1.00, 274.3, 204.7)">S</text><text xml:space="preserve" font-family="Menlo-Regular,Menlo" font-size="35.0" fill="#FF4647" transform="matrix(1.00, 0.00, -0.00, -1.00, 295.3, 204.7)">t</text><text xml:space="preserve" font-family="Menlo-Regular,Menlo" font-size="35.0" fill="#FF4647" transform="matrix(1.00, 0.00, -0.00, -1.00, 316.4, 204.7)">a</text><text xml:space="preserve" font-family="Menlo-Regular,Menlo" font-size="35.0" fill="#FF4647" transform="matrix(1.00, 0.00, -0.00, -1.00, 337.5, 204.7)">r</text><text xml:space="preserve" font-family="Menlo-Regular,Menlo" font-size="35.0" fill="#FF4647" transform="matrix(1.00, 0.00, -0.00, -1.00, 358.6, 204.7)">t</text><text xml:space="preserve" font-family="Menlo-Regular,Menlo" font-size="35.0" fill="#FF4647" transform="matrix(1.00, 0.00, -0.00, -1.00, 379.6, 204.7)">s</text><text xml:space="preserve" font-family="Menlo-Regular,Menlo" font-size="35.0" fill="#FF4647" transform="matrix(1.00, 0.00, -0.00, -1.00, 400.7, 204.7)"> </text><text xml:space="preserve" font-family="Menlo-Regular,Menlo" font-size="35.0" fill="#FF4647" transform="matrix(1.00, 0.00, -0.00, -1.00, 421.8, 204.7)">w</text><text xml:space="preserve" font-family="Menlo-Regular,Menlo" font-size="35.0" fill="#FF4647" transform="matrix(1.00, 0.00, -0.00, -1.00, 442.9, 204.7)">i</text><text xml:space="preserve" font-family="Menlo-Regular,Menlo" font-size="35.0" fill="#FF4647" transform="matrix(1.00, 0.00, -0.00, -1.00, 463.9, 204.7)">t</text><text xml:space="preserve" font-family="Menlo-Regular,Menlo" font-size="35.0" fill="#FF4647" transform="matrix(1.00, 0.00, -0.00, -1.00, 485.0, 204.7)">h</text><text xml:space="preserve" font-family="Menlo-Regular,Menlo" font-size="35.0" fill="#FF4647" transform="matrix(1.00, 0.00, -0.00, -1.00, 506.1, 204.7)"> </text><text xml:space="preserve" font-family="Menlo-Regular,Menlo" font-size="35.0" fill="#FF4647" transform="matrix(1.00, 0.00, -0.00, -1.00, 527.2, 204.7)">s</text><text xml:space="preserve" font-family="Menlo-Regular,Menlo" font-size="35.0" fill="#FF4647" transform="matrix(1.00, 0.00, -0.00, -1.00, 548.2, 204.7)">o</text><text xml:space="preserve" font-family="Menlo-Regular,Menlo" font-size="35.0" fill="#FF4647" transform="matrix(1.00, 0.00, -0.00, -1.00, 569.3, 204.7)">m</text><text xml:space="preserve" font-family="Menlo-Regular,Menlo" font-size="35.0" fill="#FF4647" transform="matrix(1.00, 0.00, -0.00, -1.00, 590.4, 204.7)">e</text><text xml:space="preserve" font-family="Menlo-Regular,Menlo" font-size="35.0" fill="#FF4647" transform="matrix(1.00, 0.00, -0.00, -1.00, 611.5, 204.7)">"</text><text xml:space="preserve" font-family="Menlo-Regular,Menlo" font-size="35.0" fill="#FFFFFF" transform="matrix(1.00, 0.00, -0.00, -1.00, 632.5, 204.7)">)</text><text xml:space="preserve" font-family="Menlo-Regular,Menlo" font-size="35.0" fill="#FFFFFF" transform="matrix(1.00, 0.00, -0.00, -1.00, 653.6, 204.7)"> </text><text xml:space="preserve" font-family="Menlo-Regular,Menlo" font-size="35.0" fill="#FFFFFF" transform="matrix(1.00, 0.00, -0.00, -1.00, 0.3, 164.7)">}</text><text xml:space="preserve" font-family="Menlo-Regular,Menlo" font-size="35.0" fill="#FFFFFF" transform="matrix(1.00, 0.00, -0.00, -1.00, 21.4, 164.7)"> </text><text xml:space="preserve" font-family="Menlo-Regular,Menlo" font-size="35.0" fill="#DD38A5" transform="matrix(1.00, 0.00, -0.00, -1.00, 0.3, 84.7)">i</text><text xml:space="preserve" font-family="Menlo-Regular,Menlo" font-size="35.0" fill="#DD38A5" transform="matrix(1.00, 0.00, -0.00, -1.00, 21.4, 84.7)">f</text><text xml:space="preserve" font-family="Menlo-Regular,Menlo" font-size="35.0" fill="#FFFFFF" transform="matrix(1.00, 0.00, -0.00, -1.00, 42.5, 84.7)"> </text><text xml:space="preserve" font-family="Menlo-Regular,Menlo" font-size="35.0" fill="#08FA95" transform="matrix(1.00, 0.00, -0.00, -1.00, 63.5, 84.7)">a</text><text xml:space="preserve" font-family="Menlo-Regular,Menlo" font-size="35.0" fill="#FFFFFF" transform="matrix(1.00, 0.00, -0.00, -1.00, 84.6, 84.7)">.</text><text xml:space="preserve" font-family="Menlo-Regular,Menlo" font-size="35.0" fill="#00B1FF" transform="matrix(1.00, 0.00, -0.00, -1.00, 105.7, 84.7)">h</text><text xml:space="preserve" font-family="Menlo-Regular,Menlo" font-size="35.0" fill="#00B1FF" transform="matrix(1.00, 0.00, -0.00, -1.00, 126.8, 84.7)">a</text><text xml:space="preserve" font-family="Menlo-Regular,Menlo" font-size="35.0" fill="#00B1FF" transform="matrix(1.00, 0.00, -0.00, -1.00, 147.8, 84.7)">s</text><text xml:space="preserve" font-family="Menlo-Regular,Menlo" font-size="35.0" fill="#00B1FF" transform="matrix(1.00, 0.00, -0.00, -1.00, 168.9, 84.7)">S</text><text xml:space="preserve" font-family="Menlo-Regular,Menlo" font-size="35.0" fill="#00B1FF" transform="matrix(1.00, 0.00, -0.00, -1.00, 190.0, 84.7)">u</text><text xml:space="preserve" font-family="Menlo-Regular,Menlo" font-size="35.0" fill="#00B1FF" transform="matrix(1.00, 0.00, -0.00, -1.00, 211.1, 84.7)">f</text><text xml:space="preserve" font-family="Menlo-Regular,Menlo" font-size="35.0" fill="#00B1FF" transform="matrix(1.00, 0.00, -0.00, -1.00, 232.1, 84.7)">f</text><text xml:space="preserve" font-family="Menlo-Regular,Menlo" font-size="35.0" fill="#00B1FF" transform="matrix(1.00, 0.00, -0.00, -1.00, 253.2, 84.7)">i</text><text xml:space="preserve" font-family="Menlo-Regular,Menlo" font-size="35.0" fill="#00B1FF" transform="matrix(1.00, 0.00, -0.00, -1.00, 274.3, 84.7)">x</text><text xml:space="preserve" font-family="Menlo-Regular,Menlo" font-size="35.0" fill="#FFFFFF" transform="matrix(1.00, 0.00, -0.00, -1.00, 295.3, 84.7)">(</text><text xml:space="preserve" font-family="Menlo-Regular,Menlo" font-size="35.0" fill="#FF4647" transform="matrix(1.00, 0.00, -0.00, -1.00, 316.4, 84.7)">"</text><text xml:space="preserve" font-family="Menlo-Regular,Menlo" font-size="35.0" fill="#FF4647" transform="matrix(1.00, 0.00, -0.00, -1.00, 337.5, 84.7)">s</text><text xml:space="preserve" font-family="Menlo-Regular,Menlo" font-size="35.0" fill="#FF4647" transform="matrix(1.00, 0.00, -0.00, -1.00, 358.6, 84.7)">o</text><text xml:space="preserve" font-family="Menlo-Regular,Menlo" font-size="35.0" fill="#FF4647" transform="matrix(1.00, 0.00, -0.00, -1.00, 379.6, 84.7)">m</text><text xml:space="preserve" font-family="Menlo-Regular,Menlo" font-size="35.0" fill="#FF4647" transform="matrix(1.00, 0.00, -0.00, -1.00, 400.7, 84.7)">e</text><text xml:space="preserve" font-family="Menlo-Regular,Menlo" font-size="35.0" fill="#FF4647" transform="matrix(1.00, 0.00, -0.00, -1.00, 421.8, 84.7)">"</text><text xml:space="preserve" font-family="Menlo-Regular,Menlo" font-size="35.0" fill="#FFFFFF" transform="matrix(1.00, 0.00, -0.00, -1.00, 442.8, 84.7)">)</text><text xml:space="preserve" font-family="Menlo-Regular,Menlo" font-size="35.0" fill="#FFFFFF" transform="matrix(1.00, 0.00, -0.00, -1.00, 463.9, 84.7)"> </text><text xml:space="preserve" font-family="Menlo-Regular,Menlo" font-size="35.0" fill="#FFFFFF" transform="matrix(1.00, 0.00, -0.00, -1.00, 485.0, 84.7)">{</text><text xml:space="preserve" font-family="Menlo-Regular,Menlo" font-size="35.0" fill="#FFFFFF" transform="matrix(1.00, 0.00, -0.00, -1.00, 506.1, 84.7)"> </text><text xml:space="preserve" font-family="Menlo-Regular,Menlo" font-size="35.0" fill="#FFFFFF" transform="matrix(1.00, 0.00, -0.00, -1.00, 0.3, 44.7)"> </text><text xml:space="preserve" font-family="Menlo-Regular,Menlo" font-size="35.0" fill="#FFFFFF" transform="matrix(1.00, 0.00, -0.00, -1.00, 21.4, 44.7)"> </text><text xml:space="preserve" font-family="Menlo-Regular,Menlo" font-size="35.0" fill="#FFFFFF" transform="matrix(1.00, 0.00, -0.00, -1.00, 42.5, 44.7)"> </text><text xml:space="preserve" font-family="Menlo-Regular,Menlo" font-size="35.0" fill="#FFFFFF" transform="matrix(1.00, 0.00, -0.00, -1.00, 63.6, 44.7)"> </text><text xml:space="preserve" font-family="Menlo-Regular,Menlo" font-size="35.0" fill="#00B1FF" transform="matrix(1.00, 0.00, -0.00, -1.00, 84.6, 44.7)">p</text><text xml:space="preserve" font-family="Menlo-Regular,Menlo" font-size="35.0" fill="#00B1FF" transform="matrix(1.00, 0.00, -0.00, -1.00, 105.7, 44.7)">r</text><text xml:space="preserve" font-family="Menlo-Regular,Menlo" font-size="35.0" fill="#00B1FF" transform="matrix(1.00, 0.00, -0.00, -1.00, 126.8, 44.7)">i</text><text xml:space="preserve" font-family="Menlo-Regular,Menlo" font-size="35.0" fill="#00B1FF" transform="matrix(1.00, 0.00, -0.00, -1.00, 147.8, 44.7)">n</text><text xml:space="preserve" font-family="Menlo-Regular,Menlo" font-size="35.0" fill="#00B1FF" transform="matrix(1.00, 0.00, -0.00, -1.00, 168.9, 44.7)">t</text><text xml:space="preserve" font-family="Menlo-Regular,Menlo" font-size="35.0" fill="#00B1FF" transform="matrix(1.00, 0.00, -0.00, -1.00, 190.0, 44.7)">l</text><text xml:space="preserve" font-family="Menlo-Regular,Menlo" font-size="35.0" fill="#00B1FF" transform="matrix(1.00, 0.00, -0.00, -1.00, 211.1, 44.7)">n</text><text xml:space="preserve" font-family="Menlo-Regular,Menlo" font-size="35.0" fill="#FFFFFF" transform="matrix(1.00, 0.00, -0.00, -1.00, 232.1, 44.7)">(</text><text xml:space="preserve" font-family="Menlo-Regular,Menlo" font-size="35.0" fill="#FF4647" transform="matrix(1.00, 0.00, -0.00, -1.00, 253.2, 44.7)">"</text><text xml:space="preserve" font-family="Menlo-Regular,Menlo" font-size="35.0" fill="#FF4647" transform="matrix(1.00, 0.00, -0.00, -1.00, 274.3, 44.7)">E</text><text xml:space="preserve" font-family="Menlo-Regular,Menlo" font-size="35.0" fill="#FF4647" transform="matrix(1.00, 0.00, -0.00, -1.00, 295.3, 44.7)">n</text><text xml:space="preserve" font-family="Menlo-Regular,Menlo" font-size="35.0" fill="#FF4647" transform="matrix(1.00, 0.00, -0.00, -1.00, 316.4, 44.7)">d</text><text xml:space="preserve" font-family="Menlo-Regular,Menlo" font-size="35.0" fill="#FF4647" transform="matrix(1.00, 0.00, -0.00, -1.00, 337.5, 44.7)">s</text><text xml:space="preserve" font-family="Menlo-Regular,Menlo" font-size="35.0" fill="#FF4647" transform="matrix(1.00, 0.00, -0.00, -1.00, 358.6, 44.7)">s</text><text xml:space="preserve" font-family="Menlo-Regular,Menlo" font-size="35.0" fill="#FF4647" transform="matrix(1.00, 0.00, -0.00, -1.00, 379.6, 44.7)"> </text><text xml:space="preserve" font-family="Menlo-Regular,Menlo" font-size="35.0" fill="#FF4647" transform="matrix(1.00, 0.00, -0.00, -1.00, 400.7, 44.7)">w</text><text xml:space="preserve" font-family="Menlo-Regular,Menlo" font-size="35.0" fill="#FF4647" transform="matrix(1.00, 0.00, -0.00, -1.00, 421.8, 44.7)">i</text><text xml:space="preserve" font-family="Menlo-Regular,Menlo" font-size="35.0" fill="#FF4647" transform="matrix(1.00, 0.00, -0.00, -1.00, 442.9, 44.7)">t</text><text xml:space="preserve" font-family="Menlo-Regular,Menlo" font-size="35.0" fill="#FF4647" transform="matrix(1.00, 0.00, -0.00, -1.00, 463.9, 44.7)">h</text><text xml:space="preserve" font-family="Menlo-Regular,Menlo" font-size="35.0" fill="#FF4647" transform="matrix(1.00, 0.00, -0.00, -1.00, 485.0, 44.7)"> </text><text xml:space="preserve" font-family="Menlo-Regular,Menlo" font-size="35.0" fill="#FF4647" transform="matrix(1.00, 0.00, -0.00, -1.00, 506.1, 44.7)">s</text><text xml:space="preserve" font-family="Menlo-Regular,Menlo" font-size="35.0" fill="#FF4647" transform="matrix(1.00, 0.00, -0.00, -1.00, 527.2, 44.7)">o</text><text xml:space="preserve" font-family="Menlo-Regular,Menlo" font-size="35.0" fill="#FF4647" transform="matrix(1.00, 0.00, -0.00, -1.00, 548.2, 44.7)">m</text><text xml:space="preserve" font-family="Menlo-Regular,Menlo" font-size="35.0" fill="#FF4647" transform="matrix(1.00, 0.00, -0.00, -1.00, 569.3, 44.7)">e</text><text xml:space="preserve" font-family="Menlo-Regular,Menlo" font-size="35.0" fill="#FF4647" transform="matrix(1.00, 0.00, -0.00, -1.00, 590.4, 44.7)">"</text><text xml:space="preserve" font-family="Menlo-Regular,Menlo" font-size="35.0" fill="#FFFFFF" transform="matrix(1.00, 0.00, -0.00, -1.00, 611.4, 44.7)">)</text><text xml:space="preserve" font-family="Menlo-Regular,Menlo" font-size="35.0" fill="#FFFFFF" transform="matrix(1.00, 0.00, -0.00, -1.00, 632.5, 44.7)"> </text><text xml:space="preserve" font-family="Menlo-Regular,Menlo" font-size="35.0" fill="#FFFFFF" transform="matrix(1.00, 0.00, -0.00, -1.00, 0.3, 4.7)">}</text></g></svg>