<?xml version="1.0" encoding="UTF-8" standalone="no"?><svg xmlns="http://www.w3.org/2000/svg" xmlns:xlink="http://www.w3.org/1999/xlink" clip-rule="evenodd" stroke-miterlimit="10" viewBox="0 0 695 438"><desc>SVG generated by Keynote</desc><defs></defs><g transform="matrix(1.00, 0.00, -0.00, -1.00, 0.0, 438.0)"><text xml:space="preserve" font-family="Menlo-Regular,Menlo" font-size="35.0" fill="#FFFFFF" transform="matrix(1.00, 0.00, -0.00, -1.00, 1.0, 408.7)">a</text><text xml:space="preserve" font-family="Menlo-Regular,Menlo" font-size="35.0" fill="#FFFFFF" transform="matrix(1.00, 0.00, -0.00, -1.00, 22.0, 408.7)"> </text><text xml:space="preserve" font-family="Menlo-Regular,Menlo" font-size="35.0" fill="#FFFFFF" transform="matrix(1.00, 0.00, -0.00, -1.00, 43.1, 408.7)">=</text><text xml:space="preserve" font-family="Menlo-Regular,Menlo" font-size="35.0" fill="#FFFFFF" transform="matrix(1.00, 0.00, -0.00, -1.00, 64.2, 408.7)"> </text><text xml:space="preserve" font-family="Menlo-Regular,Menlo" font-size="35.0" fill="#FF4647" transform="matrix(1.00, 0.00, -0.00, -1.00, 85.2, 408.7)">"</text><text xml:space="preserve" font-family="Menlo-Regular,Menlo" font-size="35.0" fill="#FF4647" transform="matrix(1.00, 0.00, -0.00, -1.00, 106.3, 408.7)">s</text><text xml:space="preserve" font-family="Menlo-Regular,Menlo" font-size="35.0" fill="#FF4647" transform="matrix(1.00, 0.00, -0.00, -1.00, 127.4, 408.7)">o</text><text xml:space="preserve" font-family="Menlo-Regular,Menlo" font-size="35.0" fill="#FF4647" transform="matrix(1.00, 0.00, -0.00, -1.00, 148.5, 408.7)">m</text><text xml:space="preserve" font-family="Menlo-Regular,Menlo" font-size="35.0" fill="#FF4647" transform="matrix(1.00, 0.00, -0.00, -1.00, 169.5, 408.7)">e</text><text xml:space="preserve" font-family="Menlo-Regular,Menlo" font-size="35.0" fill="#FF4647" transform="matrix(1.00, 0.00, -0.00, -1.00, 190.6, 408.7)"> </text><text xml:space="preserve" font-family="Menlo-Regular,Menlo" font-size="35.0" fill="#FF4647" transform="matrix(1.00, 0.00, -0.00, -1.00, 211.7, 408.7)">t</text><text xml:space="preserve" font-family="Menlo-Regular,Menlo" font-size="35.0" fill="#FF4647" transform="matrix(1.00, 0.00, -0.00, -1.00, 232.8, 408.7)">e</text><text xml:space="preserve" font-family="Menlo-Regular,Menlo" font-size="35.0" fill="#FF4647" transform="matrix(1.00, 0.00, -0.00, -1.00, 253.8, 408.7)">x</text><text xml:space="preserve" font-family="Menlo-Regular,Menlo" font-size="35.0" fill="#FF4647" transform="matrix(1.00, 0.00, -0.00, -1.00, 274.9, 408.7)">t</text><text xml:space="preserve" font-family="Menlo-Regular,Menlo" font-size="35.0" fill="#FF4647" transform="matrix(1.00, 0.00, -0.00, -1.00, 296.0, 408.7)">"</text><text xml:space="preserve" font-family="Menlo-Regular,Menlo" font-size="35.0" fill="#FFFFFF" transform="matrix(1.00, 0.00, -0.00, -1.00, 317.0, 408.7)"> </text><text xml:space="preserve" font-family="Menlo-Regular,Menlo" font-size="35.0" fill="#FFFFFF" transform="matrix(1.00, 0.00, -0.00, -1.00, 1.0, 368.7)">b</text><text xml:space="preserve" font-family="Menlo-Regular,Menlo" font-size="35.0" fill="#FFFFFF" transform="matrix(1.00, 0.00, -0.00, -1.00, 22.0, 368.7)"> </text><text xml:space="preserve" font-family="Menlo-Regular,Menlo" font-size="35.0" fill="#FFFFFF" transform="matrix(1.00, 0.00, -0.00, -1.00, 43.1, 368.7)">=</text><text xml:space="preserve" font-family="Menlo-Regular,Menlo" font-size="35.0" fill="#FFFFFF" transform="matrix(1.00, 0.00, -0.00, -1.00, 64.2, 368.7)"> </text><text xml:space="preserve" font-family="Menlo-Regular,Menlo" font-size="35.0" fill="#FF4647" transform="matrix(1.00, 0.00, -0.00, -1.00, 85.2, 368.7)">"</text><text xml:space="preserve" font-family="Menlo-Regular,Menlo" font-size="35.0" fill="#FF4647" transform="matrix(1.00, 0.00, -0.00, -1.00, 106.3, 368.7)">s</text><text xml:space="preserve" font-family="Menlo-Regular,Menlo" font-size="35.0" fill="#FF4647" transform="matrix(1.00, 0.00, -0.00, -1.00, 127.4, 368.7)">o</text><text xml:space="preserve" font-family="Menlo-Regular,Menlo" font-size="35.0" fill="#FF4647" transform="matrix(1.00, 0.00, -0.00, -1.00, 148.5, 368.7)">m</text><text xml:space="preserve" font-family="Menlo-Regular,Menlo" font-size="35.0" fill="#FF4647" transform="matrix(1.00, 0.00, -0.00, -1.00, 169.5, 368.7)">e</text><text xml:space="preserve" font-family="Menlo-Regular,Menlo" font-size="35.0" fill="#FF4647" transform="matrix(1.00, 0.00, -0.00, -1.00, 190.6, 368.7)"> </text><text xml:space="preserve" font-family="Menlo-Regular,Menlo" font-size="35.0" fill="#FF4647" transform="matrix(1.00, 0.00, -0.00, -1.00, 211.7, 368.7)">t</text><text xml:space="preserve" font-family="Menlo-Regular,Menlo" font-size="35.0" fill="#FF4647" transform="matrix(1.00, 0.00, -0.00, -1.00, 232.8, 368.7)">e</text><text xml:space="preserve" font-family="Menlo-Regular,Menlo" font-size="35.0" fill="#FF4647" transform="matrix(1.00, 0.00, -0.00, -1.00, 253.8, 368.7)">x</text><text xml:space="preserve" font-family="Menlo-Regular,Menlo" font-size="35.0" fill="#FF4647" transform="matrix(1.00, 0.00, -0.00, -1.00, 274.9, 368.7)">t</text><text xml:space="preserve" font-family="Menlo-Regular,Menlo" font-size="35.0" fill="#FF4647" transform="matrix(1.00, 0.00, -0.00, -1.00, 296.0, 368.7)">"</text><text xml:space="preserve" font-family="Menlo-Regular,Menlo" font-size="35.0" fill="#FFFFFF" transform="matrix(1.00, 0.00, -0.00, -1.00, 317.0, 368.7)"> </text><text xml:space="preserve" font-family="Menlo-Regular,Menlo" font-size="35.0" fill="#DD38A5" transform="matrix(1.00, 0.00, -0.00, -1.00, 1.0, 328.7)">i</text><text xml:space="preserve" font-family="Menlo-Regular,Menlo" font-size="35.0" fill="#DD38A5" transform="matrix(1.00, 0.00, -0.00, -1.00, 22.0, 328.7)">f</text><text xml:space="preserve" font-family="Menlo-Regular,Menlo" font-size="35.0" fill="#FFFFFF" transform="matrix(1.00, 0.00, -0.00, -1.00, 43.1, 328.7)"> </text><text xml:space="preserve" font-family="Menlo-Regular,Menlo" font-size="35.0" fill="#FFFFFF" transform="matrix(1.00, 0.00, -0.00, -1.00, 64.2, 328.7)">a</text><text xml:space="preserve" font-family="Menlo-Regular,Menlo" font-size="35.0" fill="#FFFFFF" transform="matrix(1.00, 0.00, -0.00, -1.00, 85.3, 328.7)"> </text><text xml:space="preserve" font-family="Menlo-Regular,Menlo" font-size="35.0" fill="#FFFFFF" transform="matrix(1.00, 0.00, -0.00, -1.00, 106.3, 328.7)">=</text><text xml:space="preserve" font-family="Menlo-Regular,Menlo" font-size="35.0" fill="#FFFFFF" transform="matrix(1.00, 0.00, -0.00, -1.00, 127.4, 328.7)">=</text><text xml:space="preserve" font-family="Menlo-Regular,Menlo" font-size="35.0" fill="#FFFFFF" transform="matrix(1.00, 0.00, -0.00, -1.00, 148.5, 328.7)"> </text><text xml:space="preserve" font-family="Menlo-Regular,Menlo" font-size="35.0" fill="#FFFFFF" transform="matrix(1.00, 0.00, -0.00, -1.00, 169.6, 328.7)">b</text><text xml:space="preserve" font-family="Menlo-Regular,Menlo" font-size="35.0" fill="#FFFFFF" transform="matrix(1.00, 0.00, -0.00, -1.00, 190.6, 328.7)">:</text><text xml:space="preserve" font-family="Menlo-Regular,Menlo" font-size="35.0" fill="#FFFFFF" transform="matrix(1.00, 0.00, -0.00, -1.00, 211.7, 328.7)"> </text><text xml:space="preserve" font-family="Menlo-Regular,Menlo" font-size="35.0" fill="#FF4647" transform="matrix(1.00, 0.00, -0.00, -1.00, 19.0, 288.7)"> </text><text xml:space="preserve" font-family="Menlo-Regular,Menlo" font-size="35.0" fill="#FF4647" transform="matrix(1.00, 0.00, -0.00, -1.00, 40.0, 288.7)"> </text><text xml:space="preserve" font-family="Menlo-Regular,Menlo" font-size="35.0" fill="#FFFFFF" transform="matrix(1.00, 0.00, -0.00, -1.00, 61.1, 288.7)">p</text><text xml:space="preserve" font-family="Menlo-Regular,Menlo" font-size="35.0" fill="#FFFFFF" transform="matrix(1.00, 0.00, -0.00, -1.00, 82.2, 288.7)">r</text><text xml:space="preserve" font-family="Menlo-Regular,Menlo" font-size="35.0" fill="#FFFFFF" transform="matrix(1.00, 0.00, -0.00, -1.00, 103.3, 288.7)">i</text><text xml:space="preserve" font-family="Menlo-Regular,Menlo" font-size="35.0" fill="#FFFFFF" transform="matrix(1.00, 0.00, -0.00, -1.00, 124.3, 288.7)">n</text><text xml:space="preserve" font-family="Menlo-Regular,Menlo" font-size="35.0" fill="#FFFFFF" transform="matrix(1.00, 0.00, -0.00, -1.00, 145.4, 288.7)">t</text><text xml:space="preserve" font-family="Menlo-Regular,Menlo" font-size="35.0" fill="#FFFFFF" transform="matrix(1.00, 0.00, -0.00, -1.00, 166.5, 288.7)">(</text><text xml:space="preserve" font-family="Menlo-Regular,Menlo" font-size="35.0" fill="#FF4647" transform="matrix(1.00, 0.00, -0.00, -1.00, 187.5, 288.7)">"</text><text xml:space="preserve" font-family="Menlo-Regular,Menlo" font-size="35.0" fill="#FF4647" transform="matrix(1.00, 0.00, -0.00, -1.00, 208.6, 288.7)">T</text><text xml:space="preserve" font-family="Menlo-Regular,Menlo" font-size="35.0" fill="#FF4647" transform="matrix(1.00, 0.00, -0.00, -1.00, 229.7, 288.7)">h</text><text xml:space="preserve" font-family="Menlo-Regular,Menlo" font-size="35.0" fill="#FF4647" transform="matrix(1.00, 0.00, -0.00, -1.00, 250.8, 288.7)">e</text><text xml:space="preserve" font-family="Menlo-Regular,Menlo" font-size="35.0" fill="#FF4647" transform="matrix(1.00, 0.00, -0.00, -1.00, 271.8, 288.7)"> </text><text xml:space="preserve" font-family="Menlo-Regular,Menlo" font-size="35.0" fill="#FF4647" transform="matrix(1.00, 0.00, -0.00, -1.00, 292.9, 288.7)">s</text><text xml:space="preserve" font-family="Menlo-Regular,Menlo" font-size="35.0" fill="#FF4647" transform="matrix(1.00, 0.00, -0.00, -1.00, 314.0, 288.7)">t</text><text xml:space="preserve" font-family="Menlo-Regular,Menlo" font-size="35.0" fill="#FF4647" transform="matrix(1.00, 0.00, -0.00, -1.00, 335.1, 288.7)">r</text><text xml:space="preserve" font-family="Menlo-Regular,Menlo" font-size="35.0" fill="#FF4647" transform="matrix(1.00, 0.00, -0.00, -1.00, 356.1, 288.7)">i</text><text xml:space="preserve" font-family="Menlo-Regular,Menlo" font-size="35.0" fill="#FF4647" transform="matrix(1.00, 0.00, -0.00, -1.00, 377.2, 288.7)">n</text><text xml:space="preserve" font-family="Menlo-Regular,Menlo" font-size="35.0" fill="#FF4647" transform="matrix(1.00, 0.00, -0.00, -1.00, 398.3, 288.7)">g</text><text xml:space="preserve" font-family="Menlo-Regular,Menlo" font-size="35.0" fill="#FF4647" transform="matrix(1.00, 0.00, -0.00, -1.00, 419.4, 288.7)">s</text><text xml:space="preserve" font-family="Menlo-Regular,Menlo" font-size="35.0" fill="#FF4647" transform="matrix(1.00, 0.00, -0.00, -1.00, 440.4, 288.7)"> </text><text xml:space="preserve" font-family="Menlo-Regular,Menlo" font-size="35.0" fill="#FF4647" transform="matrix(1.00, 0.00, -0.00, -1.00, 461.5, 288.7)">a</text><text xml:space="preserve" font-family="Menlo-Regular,Menlo" font-size="35.0" fill="#FF4647" transform="matrix(1.00, 0.00, -0.00, -1.00, 482.6, 288.7)">r</text><text xml:space="preserve" font-family="Menlo-Regular,Menlo" font-size="35.0" fill="#FF4647" transform="matrix(1.00, 0.00, -0.00, -1.00, 503.7, 288.7)">e</text><text xml:space="preserve" font-family="Menlo-Regular,Menlo" font-size="35.0" fill="#FF4647" transform="matrix(1.00, 0.00, -0.00, -1.00, 524.7, 288.7)"> </text><text xml:space="preserve" font-family="Menlo-Regular,Menlo" font-size="35.0" fill="#FF4647" transform="matrix(1.00, 0.00, -0.00, -1.00, 545.8, 288.7)">e</text><text xml:space="preserve" font-family="Menlo-Regular,Menlo" font-size="35.0" fill="#FF4647" transform="matrix(1.00, 0.00, -0.00, -1.00, 566.9, 288.7)">q</text><text xml:space="preserve" font-family="Menlo-Regular,Menlo" font-size="35.0" fill="#FF4647" transform="matrix(1.00, 0.00, -0.00, -1.00, 588.0, 288.7)">u</text><text xml:space="preserve" font-family="Menlo-Regular,Menlo" font-size="35.0" fill="#FF4647" transform="matrix(1.00, 0.00, -0.00, -1.00, 609.0, 288.7)">a</text><text xml:space="preserve" font-family="Menlo-Regular,Menlo" font-size="35.0" fill="#FF4647" transform="matrix(1.00, 0.00, -0.00, -1.00, 630.1, 288.7)">l</text><text xml:space="preserve" font-family="Menlo-Regular,Menlo" font-size="35.0" fill="#FF4647" transform="matrix(1.00, 0.00, -0.00, -1.00, 651.2, 288.7)">"</text><text xml:space="preserve" font-family="Menlo-Regular,Menlo" font-size="35.0" fill="#FFFFFF" transform="matrix(1.00, 0.00, -0.00, -1.00, 672.2, 288.7)">)</text><text xml:space="preserve" font-family="Menlo-Regular,Menlo" font-size="35.0" fill="#FFFFFF" transform="matrix(1.00, 0.00, -0.00, -1.00, 693.3, 288.7)"> </text><text xml:space="preserve" font-family="Menlo-Regular,Menlo" font-size="35.0" fill="#DD38A5" transform="matrix(1.00, 0.00, -0.00, -1.00, 1.0, 208.7)">i</text><text xml:space="preserve" font-family="Menlo-Regular,Menlo" font-size="35.0" fill="#DD38A5" transform="matrix(1.00, 0.00, -0.00, -1.00, 22.0, 208.7)">f</text><text xml:space="preserve" font-family="Menlo-Regular,Menlo" font-size="35.0" fill="#FFFFFF" transform="matrix(1.00, 0.00, -0.00, -1.00, 43.1, 208.7)"> </text><text xml:space="preserve" font-family="Menlo-Regular,Menlo" font-size="35.0" fill="#FFFFFF" transform="matrix(1.00, 0.00, -0.00, -1.00, 64.2, 208.7)">a</text><text xml:space="preserve" font-family="Menlo-Regular,Menlo" font-size="35.0" fill="#FFFFFF" transform="matrix(1.00, 0.00, -0.00, -1.00, 85.3, 208.7)">.</text><text xml:space="preserve" font-family="Menlo-Regular,Menlo" font-size="35.0" fill="#FFFFFF" transform="matrix(1.00, 0.00, -0.00, -1.00, 106.3, 208.7)">s</text><text xml:space="preserve" font-family="Menlo-Regular,Menlo" font-size="35.0" fill="#FFFFFF" transform="matrix(1.00, 0.00, -0.00, -1.00, 127.4, 208.7)">t</text><text xml:space="preserve" font-family="Menlo-Regular,Menlo" font-size="35.0" fill="#FFFFFF" transform="matrix(1.00, 0.00, -0.00, -1.00, 148.5, 208.7)">a</text><text xml:space="preserve" font-family="Menlo-Regular,Menlo" font-size="35.0" fill="#FFFFFF" transform="matrix(1.00, 0.00, -0.00, -1.00, 169.6, 208.7)">r</text><text xml:space="preserve" font-family="Menlo-Regular,Menlo" font-size="35.0" fill="#FFFFFF" transform="matrix(1.00, 0.00, -0.00, -1.00, 190.6, 208.7)">t</text><text xml:space="preserve" font-family="Menlo-Regular,Menlo" font-size="35.0" fill="#FFFFFF" transform="matrix(1.00, 0.00, -0.00, -1.00, 211.7, 208.7)">s</text><text xml:space="preserve" font-family="Menlo-Regular,Menlo" font-size="35.0" fill="#FFFFFF" transform="matrix(1.00, 0.00, -0.00, -1.00, 232.8, 208.7)">w</text><text xml:space="preserve" font-family="Menlo-Regular,Menlo" font-size="35.0" fill="#FFFFFF" transform="matrix(1.00, 0.00, -0.00, -1.00, 253.9, 208.7)">i</text><text xml:space="preserve" font-family="Menlo-Regular,Menlo" font-size="35.0" fill="#FFFFFF" transform="matrix(1.00, 0.00, -0.00, -1.00, 274.9, 208.7)">t</text><text xml:space="preserve" font-family="Menlo-Regular,Menlo" font-size="35.0" fill="#FFFFFF" transform="matrix(1.00, 0.00, -0.00, -1.00, 296.0, 208.7)">h</text><text xml:space="preserve" font-family="Menlo-Regular,Menlo" font-size="35.0" fill="#FFFFFF" transform="matrix(1.00, 0.00, -0.00, -1.00, 317.1, 208.7)">(</text><text xml:space="preserve" font-family="Menlo-Regular,Menlo" font-size="35.0" fill="#FF4647" transform="matrix(1.00, 0.00, -0.00, -1.00, 338.1, 208.7)">"</text><text xml:space="preserve" font-family="Menlo-Regular,Menlo" font-size="35.0" fill="#FF4647" transform="matrix(1.00, 0.00, -0.00, -1.00, 359.2, 208.7)">s</text><text xml:space="preserve" font-family="Menlo-Regular,Menlo" font-size="35.0" fill="#FF4647" transform="matrix(1.00, 0.00, -0.00, -1.00, 380.3, 208.7)">o</text><text xml:space="preserve" font-family="Menlo-Regular,Menlo" font-size="35.0" fill="#FF4647" transform="matrix(1.00, 0.00, -0.00, -1.00, 401.3, 208.7)">m</text><text xml:space="preserve" font-family="Menlo-Regular,Menlo" font-size="35.0" fill="#FF4647" transform="matrix(1.00, 0.00, -0.00, -1.00, 422.4, 208.7)">e</text><text xml:space="preserve" font-family="Menlo-Regular,Menlo" font-size="35.0" fill="#FF4647" transform="matrix(1.00, 0.00, -0.00, -1.00, 443.5, 208.7)">"</text><text xml:space="preserve" font-family="Menlo-Regular,Menlo" font-size="35.0" fill="#FFFFFF" transform="matrix(1.00, 0.00, -0.00, -1.00, 464.5, 208.7)">)</text><text xml:space="preserve" font-family="Menlo-Regular,Menlo" font-size="35.0" fill="#FFFFFF" transform="matrix(1.00, 0.00, -0.00, -1.00, 485.6, 208.7)">:</text><text xml:space="preserve" font-family="Menlo-Regular,Menlo" font-size="35.0" fill="#FFFFFF" transform="matrix(1.00, 0.00, -0.00, -1.00, 506.7, 208.7)"> </text><text xml:space="preserve" font-family="Menlo-Regular,Menlo" font-size="35.0" fill="#FF4647" transform="matrix(1.00, 0.00, -0.00, -1.00, 19.0, 168.7)"> </text><text xml:space="preserve" font-family="Menlo-Regular,Menlo" font-size="35.0" fill="#FF4647" transform="matrix(1.00, 0.00, -0.00, -1.00, 40.0, 168.7)"> </text><text xml:space="preserve" font-family="Menlo-Regular,Menlo" font-size="35.0" fill="#FFFFFF" transform="matrix(1.00, 0.00, -0.00, -1.00, 61.1, 168.7)">p</text><text xml:space="preserve" font-family="Menlo-Regular,Menlo" font-size="35.0" fill="#FFFFFF" transform="matrix(1.00, 0.00, -0.00, -1.00, 82.2, 168.7)">r</text><text xml:space="preserve" font-family="Menlo-Regular,Menlo" font-size="35.0" fill="#FFFFFF" transform="matrix(1.00, 0.00, -0.00, -1.00, 103.3, 168.7)">i</text><text xml:space="preserve" font-family="Menlo-Regular,Menlo" font-size="35.0" fill="#FFFFFF" transform="matrix(1.00, 0.00, -0.00, -1.00, 124.3, 168.7)">n</text><text xml:space="preserve" font-family="Menlo-Regular,Menlo" font-size="35.0" fill="#FFFFFF" transform="matrix(1.00, 0.00, -0.00, -1.00, 145.4, 168.7)">t</text><text xml:space="preserve" font-family="Menlo-Regular,Menlo" font-size="35.0" fill="#FFFFFF" transform="matrix(1.00, 0.00, -0.00, -1.00, 166.5, 168.7)">(</text><text xml:space="preserve" font-family="Menlo-Regular,Menlo" font-size="35.0" fill="#FF4647" transform="matrix(1.00, 0.00, -0.00, -1.00, 187.5, 168.7)">"</text><text xml:space="preserve" font-family="Menlo-Regular,Menlo" font-size="35.0" fill="#FF4647" transform="matrix(1.00, 0.00, -0.00, -1.00, 208.6, 168.7)">S</text><text xml:space="preserve" font-family="Menlo-Regular,Menlo" font-size="35.0" fill="#FF4647" transform="matrix(1.00, 0.00, -0.00, -1.00, 229.7, 168.7)">t</text><text xml:space="preserve" font-family="Menlo-Regular,Menlo" font-size="35.0" fill="#FF4647" transform="matrix(1.00, 0.00, -0.00, -1.00, 250.8, 168.7)">a</text><text xml:space="preserve" font-family="Menlo-Regular,Menlo" font-size="35.0" fill="#FF4647" transform="matrix(1.00, 0.00, -0.00, -1.00, 271.8, 168.7)">r</text><text xml:space="preserve" font-family="Menlo-Regular,Menlo" font-size="35.0" fill="#FF4647" transform="matrix(1.00, 0.00, -0.00, -1.00, 292.9, 168.7)">t</text><text xml:space="preserve" font-family="Menlo-Regular,Menlo" font-size="35.0" fill="#FF4647" transform="matrix(1.00, 0.00, -0.00, -1.00, 314.0, 168.7)">s</text><text xml:space="preserve" font-family="Menlo-Regular,Menlo" font-size="35.0" fill="#FF4647" transform="matrix(1.00, 0.00, -0.00, -1.00, 335.1, 168.7)"> </text><text xml:space="preserve" font-family="Menlo-Regular,Menlo" font-size="35.0" fill="#FF4647" transform="matrix(1.00, 0.00, -0.00, -1.00, 356.1, 168.7)">w</text><text xml:space="preserve" font-family="Menlo-Regular,Menlo" font-size="35.0" fill="#FF4647" transform="matrix(1.00, 0.00, -0.00, -1.00, 377.2, 168.7)">i</text><text xml:space="preserve" font-family="Menlo-Regular,Menlo" font-size="35.0" fill="#FF4647" transform="matrix(1.00, 0.00, -0.00, -1.00, 398.3, 168.7)">t</text><text xml:space="preserve" font-family="Menlo-Regular,Menlo" font-size="35.0" fill="#FF4647" transform="matrix(1.00, 0.00, -0.00, -1.00, 419.4, 168.7)">h</text><text xml:space="preserve" font-family="Menlo-Regular,Menlo" font-size="35.0" fill="#FF4647" transform="matrix(1.00, 0.00, -0.00, -1.00, 440.4, 168.7)"> </text><text xml:space="preserve" font-family="Menlo-Regular,Menlo" font-size="35.0" fill="#FF4647" transform="matrix(1.00, 0.00, -0.00, -1.00, 461.5, 168.7)">s</text><text xml:space="preserve" font-family="Menlo-Regular,Menlo" font-size="35.0" fill="#FF4647" transform="matrix(1.00, 0.00, -0.00, -1.00, 482.6, 168.7)">o</text><text xml:space="preserve" font-family="Menlo-Regular,Menlo" font-size="35.0" fill="#FF4647" transform="matrix(1.00, 0.00, -0.00, -1.00, 503.7, 168.7)">m</text><text xml:space="preserve" font-family="Menlo-Regular,Menlo" font-size="35.0" fill="#FF4647" transform="matrix(1.00, 0.00, -0.00, -1.00, 524.7, 168.7)">e</text><text xml:space="preserve" font-family="Menlo-Regular,Menlo" font-size="35.0" fill="#FF4647" transform="matrix(1.00, 0.00, -0.00, -1.00, 545.8, 168.7)">"</text><text xml:space="preserve" font-family="Menlo-Regular,Menlo" font-size="35.0" fill="#FFFFFF" transform="matrix(1.00, 0.00, -0.00, -1.00, 566.8, 168.7)">)</text><text xml:space="preserve" font-family="Menlo-Regular,Menlo" font-size="35.0" fill="#FFFFFF" transform="matrix(1.00, 0.00, -0.00, -1.00, 587.9, 168.7)"> </text><text xml:space="preserve" font-family="Menlo-Regular,Menlo" font-size="35.0" fill="#DD38A5" transform="matrix(1.00, 0.00, -0.00, -1.00, 1.0, 48.7)">i</text><text xml:space="preserve" font-family="Menlo-Regular,Menlo" font-size="35.0" fill="#DD38A5" transform="matrix(1.00, 0.00, -0.00, -1.00, 22.0, 48.7)">f</text><text xml:space="preserve" font-family="Menlo-Regular,Menlo" font-size="35.0" fill="#FFFFFF" transform="matrix(1.00, 0.00, -0.00, -1.00, 43.1, 48.7)"> </text><text xml:space="preserve" font-family="Menlo-Regular,Menlo" font-size="35.0" fill="#FFFFFF" transform="matrix(1.00, 0.00, -0.00, -1.00, 64.2, 48.7)">a</text><text xml:space="preserve" font-family="Menlo-Regular,Menlo" font-size="35.0" fill="#FFFFFF" transform="matrix(1.00, 0.00, -0.00, -1.00, 85.3, 48.7)">.</text><text xml:space="preserve" font-family="Menlo-Regular,Menlo" font-size="35.0" fill="#FFFFFF" transform="matrix(1.00, 0.00, -0.00, -1.00, 106.3, 48.7)">e</text><text xml:space="preserve" font-family="Menlo-Regular,Menlo" font-size="35.0" fill="#FFFFFF" transform="matrix(1.00, 0.00, -0.00, -1.00, 127.4, 48.7)">n</text><text xml:space="preserve" font-family="Menlo-Regular,Menlo" font-size="35.0" fill="#FFFFFF" transform="matrix(1.00, 0.00, -0.00, -1.00, 148.5, 48.7)">d</text><text xml:space="preserve" font-family="Menlo-Regular,Menlo" font-size="35.0" fill="#FFFFFF" transform="matrix(1.00, 0.00, -0.00, -1.00, 169.6, 48.7)">s</text><text xml:space="preserve" font-family="Menlo-Regular,Menlo" font-size="35.0" fill="#FFFFFF" transform="matrix(1.00, 0.00, -0.00, -1.00, 190.6, 48.7)">w</text><text xml:space="preserve" font-family="Menlo-Regular,Menlo" font-size="35.0" fill="#FFFFFF" transform="matrix(1.00, 0.00, -0.00, -1.00, 211.7, 48.7)">i</text><text xml:space="preserve" font-family="Menlo-Regular,Menlo" font-size="35.0" fill="#FFFFFF" transform="matrix(1.00, 0.00, -0.00, -1.00, 232.8, 48.7)">t</text><text xml:space="preserve" font-family="Menlo-Regular,Menlo" font-size="35.0" fill="#FFFFFF" transform="matrix(1.00, 0.00, -0.00, -1.00, 253.9, 48.7)">h</text><text xml:space="preserve" font-family="Menlo-Regular,Menlo" font-size="35.0" fill="#FFFFFF" transform="matrix(1.00, 0.00, -0.00, -1.00, 274.9, 48.7)">(</text><text xml:space="preserve" font-family="Menlo-Regular,Menlo" font-size="35.0" fill="#FF4647" transform="matrix(1.00, 0.00, -0.00, -1.00, 296.0, 48.7)">"</text><text xml:space="preserve" font-family="Menlo-Regular,Menlo" font-size="35.0" fill="#FF4647" transform="matrix(1.00, 0.00, -0.00, -1.00, 317.0, 48.7)">s</text><text xml:space="preserve" font-family="Menlo-Regular,Menlo" font-size="35.0" fill="#FF4647" transform="matrix(1.00, 0.00, -0.00, -1.00, 338.1, 48.7)">o</text><text xml:space="preserve" font-family="Menlo-Regular,Menlo" font-size="35.0" fill="#FF4647" transform="matrix(1.00, 0.00, -0.00, -1.00, 359.2, 48.7)">m</text><text xml:space="preserve" font-family="Menlo-Regular,Menlo" font-size="35.0" fill="#FF4647" transform="matrix(1.00, 0.00, -0.00, -1.00, 380.3, 48.7)">e</text><text xml:space="preserve" font-family="Menlo-Regular,Menlo" font-size="35.0" fill="#FF4647" transform="matrix(1.00, 0.00, -0.00, -1.00, 401.3, 48.7)">"</text><text xml:space="preserve" font-family="Menlo-Regular,Menlo" font-size="35.0" fill="#FFFFFF" transform="matrix(1.00, 0.00, -0.00, -1.00, 422.4, 48.7)">)</text><text xml:space="preserve" font-family="Menlo-Regular,Menlo" font-size="35.0" fill="#FFFFFF" transform="matrix(1.00, 0.00, -0.00, -1.00, 443.5, 48.7)">:</text><text xml:space="preserve" font-family="Menlo-Regular,Menlo" font-size="35.0" fill="#FFFFFF" transform="matrix(1.00, 0.00, -0.00, -1.00, 464.5, 48.7)"> </text><text xml:space="preserve" font-family="Menlo-Regular,Menlo" font-size="35.0" fill="#FF4647" transform="matrix(1.00, 0.00, -0.00, -1.00, 19.0, 8.7)"> </text><text xml:space="preserve" font-family="Menlo-Regular,Menlo" font-size="35.0" fill="#FF4647" transform="matrix(1.00, 0.00, -0.00, -1.00, 40.0, 8.7)"> </text><text xml:space="preserve" font-family="Menlo-Regular,Menlo" font-size="35.0" fill="#FFFFFF" transform="matrix(1.00, 0.00, -0.00, -1.00, 61.1, 8.7)">p</text><text xml:space="preserve" font-family="Menlo-Regular,Menlo" font-size="35.0" fill="#FFFFFF" transform="matrix(1.00, 0.00, -0.00, -1.00, 82.2, 8.7)">r</text><text xml:space="preserve" font-family="Menlo-Regular,Menlo" font-size="35.0" fill="#FFFFFF" transform="matrix(1.00, 0.00, -0.00, -1.00, 103.3, 8.7)">i</text><text xml:space="preserve" font-family="Menlo-Regular,Menlo" font-size="35.0" fill="#FFFFFF" transform="matrix(1.00, 0.00, -0.00, -1.00, 124.3, 8.7)">n</text><text xml:space="preserve" font-family="Menlo-Regular,Menlo" font-size="35.0" fill="#FFFFFF" transform="matrix(1.00, 0.00, -0.00, -1.00, 145.4, 8.7)">t</text><text xml:space="preserve" font-family="Menlo-Regular,Menlo" font-size="35.0" fill="#FFFFFF" transform="matrix(1.00, 0.00, -0.00, -1.00, 166.5, 8.7)">(</text><text xml:space="preserve" font-family="Menlo-Regular,Menlo" font-size="35.0" fill="#FF4647" transform="matrix(1.00, 0.00, -0.00, -1.00, 187.5, 8.7)">"</text><text xml:space="preserve" font-family="Menlo-Regular,Menlo" font-size="35.0" fill="#FF4647" transform="matrix(1.00, 0.00, -0.00, -1.00, 208.6, 8.7)">E</text><text xml:space="preserve" font-family="Menlo-Regular,Menlo" font-size="35.0" fill="#FF4647" transform="matrix(1.00, 0.00, -0.00, -1.00, 229.7, 8.7)">n</text><text xml:space="preserve" font-family="Menlo-Regular,Menlo" font-size="35.0" fill="#FF4647" transform="matrix(1.00, 0.00, -0.00, -1.00, 250.8, 8.7)">d</text><text xml:space="preserve" font-family="Menlo-Regular,Menlo" font-size="35.0" fill="#FF4647" transform="matrix(1.00, 0.00, -0.00, -1.00, 271.8, 8.7)">s</text><text xml:space="preserve" font-family="Menlo-Regular,Menlo" font-size="35.0" fill="#FF4647" transform="matrix(1.00, 0.00, -0.00, -1.00, 292.9, 8.7)"> </text><text xml:space="preserve" font-family="Menlo-Regular,Menlo" font-size="35.0" fill="#FF4647" transform="matrix(1.00, 0.00, -0.00, -1.00, 314.0, 8.7)">w</text><text xml:space="preserve" font-family="Menlo-Regular,Menlo" font-size="35.0" fill="#FF4647" transform="matrix(1.00, 0.00, -0.00, -1.00, 335.1, 8.7)">i</text><text xml:space="preserve" font-family="Menlo-Regular,Menlo" font-size="35.0" fill="#FF4647" transform="matrix(1.00, 0.00, -0.00, -1.00, 356.1, 8.7)">t</text><text xml:space="preserve" font-family="Menlo-Regular,Menlo" font-size="35.0" fill="#FF4647" transform="matrix(1.00, 0.00, -0.00, -1.00, 377.2, 8.7)">h</text><text xml:space="preserve" font-family="Menlo-Regular,Menlo" font-size="35.0" fill="#FF4647" transform="matrix(1.00, 0.00, -0.00, -1.00, 398.3, 8.7)"> </text><text xml:space="preserve" font-family="Menlo-Regular,Menlo" font-size="35.0" fill="#FF4647" transform="matrix(1.00, 0.00, -0.00, -1.00, 419.4, 8.7)">s</text><text xml:space="preserve" font-family="Menlo-Regular,Menlo" font-size="35.0" fill="#FF4647" transform="matrix(1.00, 0.00, -0.00, -1.00, 440.4, 8.7)">o</text><text xml:space="preserve" font-family="Menlo-Regular,Menlo" font-size="35.0" fill="#FF4647" transform="matrix(1.00, 0.00, -0.00, -1.00, 461.5, 8.7)">m</text><text xml:space="preserve" font-family="Menlo-Regular,Menlo" font-size="35.0" fill="#FF4647" transform="matrix(1.00, 0.00, -0.00, -1.00, 482.6, 8.7)">e</text><text xml:space="preserve" font-family="Menlo-Regular,Menlo" font-size="35.0" fill="#FF4647" transform="matrix(1.00, 0.00, -0.00, -1.00, 503.7, 8.7)">"</text><text xml:space="preserve" font-family="Menlo-Regular,Menlo" font-size="35.0" fill="#FFFFFF" transform="matrix(1.00, 0.00, -0.00, -1.00, 524.7, 8.7)">)</text></g></svg>