<?xml version="1.0" encoding="UTF-8" standalone="no"?><svg xmlns="http://www.w3.org/2000/svg" xmlns:xlink="http://www.w3.org/1999/xlink" clip-rule="evenodd" stroke-miterlimit="10" viewBox="0 0 1920 1080"><desc>SVG generated by Keynote</desc><defs></defs><g transform="matrix(1.00, 0.00, -0.00, -1.00, 0.0, 1080.0)"><path d="M 0.0 1080.0 L 1920.0 1080.0 L 1920.0 0.0 L 0.0 0.0 Z M 0.0 1080.0 " fill="#000000"></path><text xml:space="preserve" font-family="Courier,Courier" font-size="94.0" fill="#FEFFFF" transform="matrix(1.00, 0.00, -0.00, -1.00, 245.6, 1001.8)">w</text><text xml:space="preserve" font-family="Courier,Courier" font-size="94.0" fill="#FEFFFF" transform="matrix(1.00, 0.00, -0.00, -1.00, 302.0, 1001.8)">h</text><text xml:space="preserve" font-family="Courier,Courier" font-size="94.0" fill="#FEFFFF" transform="matrix(1.00, 0.00, -0.00, -1.00, 358.4, 1001.8)">e</text><text xml:space="preserve" font-family="Courier,Courier" font-size="94.0" fill="#FEFFFF" transform="matrix(1.00, 0.00, -0.00, -1.00, 414.8, 1001.8)">n</text><text xml:space="preserve" font-family="Courier,Courier" font-size="94.0" fill="#FEFFFF" transform="matrix(1.00, 0.00, -0.00, -1.00, 471.2, 1001.8)"> </text><text xml:space="preserve" font-family="Courier,Courier" font-size="94.0" fill="#FEFFFF" transform="matrix(1.00, 0.00, -0.00, -1.00, 527.7, 1001.8)">t</text><text xml:space="preserve" font-family="Courier,Courier" font-size="94.0" fill="#FEFFFF" transform="matrix(1.00, 0.00, -0.00, -1.00, 584.1, 1001.8)">o</text><text xml:space="preserve" font-family="Courier,Courier" font-size="94.0" fill="#FEFFFF" transform="matrix(1.00, 0.00, -0.00, -1.00, 640.5, 1001.8)"> </text><text xml:space="preserve" font-family="Courier,Courier" font-size="94.0" fill="#FEFFFF" transform="matrix(1.00, 0.00, -0.00, -1.00, 696.9, 1001.8)">u</text><text xml:space="preserve" font-family="Courier,Courier" font-size="94.0" fill="#FEFFFF" transform="matrix(1.00, 0.00, -0.00, -1.00, 753.3, 1001.8)">s</text><text xml:space="preserve" font-family="Courier,Courier" font-size="94.0" fill="#FEFFFF" transform="matrix(1.00, 0.00, -0.00, -1.00, 809.7, 1001.8)">e</text><text xml:space="preserve" font-family="Courier,Courier" font-size="94.0" fill="#FEFFFF" transform="matrix(1.00, 0.00, -0.00, -1.00, 866.2, 1001.8)"> </text><text xml:space="preserve" font-family="Courier,Courier" font-size="94.0" fill="#FEFFFF" transform="matrix(1.00, 0.00, -0.00, -1.00, 922.6, 1001.8)">s</text><text xml:space="preserve" font-family="Courier,Courier" font-size="94.0" fill="#FEFFFF" transform="matrix(1.00, 0.00, -0.00, -1.00, 979.0, 1001.8)">t</text><text xml:space="preserve" font-family="Courier,Courier" font-size="94.0" fill="#FEFFFF" transform="matrix(1.00, 0.00, -0.00, -1.00, 1035.4, 1001.8)">r</text><text xml:space="preserve" font-family="Courier,Courier" font-size="94.0" fill="#FEFFFF" transform="matrix(1.00, 0.00, -0.00, -1.00, 1091.8, 1001.8)">u</text><text xml:space="preserve" font-family="Courier,Courier" font-size="94.0" fill="#FEFFFF" transform="matrix(1.00, 0.00, -0.00, -1.00, 1148.3, 1001.8)">c</text><text xml:space="preserve" font-family="Courier,Courier" font-size="94.0" fill="#FEFFFF" transform="matrix(1.00, 0.00, -0.00, -1.00, 1204.7, 1001.8)">t</text><text xml:space="preserve" font-family="Courier,Courier" font-size="94.0" fill="#FEFFFF" transform="matrix(1.00, 0.00, -0.00, -1.00, 1261.1, 1001.8)">?</text><image xlink:href="E323F3F1F3138824365A5A3A5FC55BAE.png" width="959.00" height="671.00" transform="matrix(1.41, 0.00, -0.00, -1.41, 250.0, 945.0)"></image><g><clipPath id="clip0x7f88a4011350"><path d="M 1513.8 21.9 L 1582.7 21.9 L 1582.7 90.9 L 1513.8 90.9 Z M 1513.8 21.9 "></path></clipPath><g clip-path="url(#clip0x7f88a4011350)"><image xlink:href="../../EE8D7FD7-F828-4463-8A34-9043A96BD708/assets/D93F090722A5269D0B30C3E05CCA40BA.png" width="225.00" height="225.00" transform="matrix(0.31, 0.00, -0.00, -0.31, 1514.0, 91.0)"></image></g></g><g><clipPath id="clip0x7f88bf851650"><path d="M 1563.5 21.9 L 1918.3 21.9 L 1918.3 91.0 L 1563.5 91.0 Z M 1563.5 21.9 "></path></clipPath><g clip-path="url(#clip0x7f88bf851650)"><text xml:space="preserve" font-family="BradleyHandITCTT-Bold,Bradley Hand" font-weight="bold" font-size="37.0" fill="#FEFFFF" transform="matrix(1.00, 0.00, -0.00, -1.00, 1597.8, 48.2)">a</text><text xml:space="preserve" font-family="BradleyHandITCTT-Bold,Bradley Hand" font-weight="bold" font-size="37.0" fill="#FEFFFF" transform="matrix(1.00, 0.00, -0.00, -1.00, 1616.9, 48.2)">e</text><text xml:space="preserve" font-family="BradleyHandITCTT-Bold,Bradley Hand" font-weight="bold" font-size="37.0" fill="#FEFFFF" transform="matrix(1.00, 0.00, -0.00, -1.00, 1630.8, 48.2)">r</text><text xml:space="preserve" font-family="BradleyHandITCTT-Bold,Bradley Hand" font-weight="bold" font-size="37.0" fill="#FEFFFF" transform="matrix(1.00, 0.00, -0.00, -1.00, 1645.3, 48.2)">o</text><text xml:space="preserve" font-family="BradleyHandITCTT-Bold,Bradley Hand" font-weight="bold" font-size="37.0" fill="#FEFFFF" transform="matrix(1.00, 0.00, -0.00, -1.00, 1661.1, 48.2)">g</text><text xml:space="preserve" font-family="BradleyHandITCTT-Bold,Bradley Hand" font-weight="bold" font-size="37.0" fill="#FEFFFF" transform="matrix(1.00, 0.00, -0.00, -1.00, 1683.3, 48.2)">e</text><text xml:space="preserve" font-family="BradleyHandITCTT-Bold,Bradley Hand" font-weight="bold" font-size="37.0" fill="#FEFFFF" transform="matrix(1.00, 0.00, -0.00, -1.00, 1697.2, 48.2)">a</text><text xml:space="preserve" font-family="BradleyHandITCTT-Bold,Bradley Hand" font-weight="bold" font-size="37.0" fill="#FEFFFF" transform="matrix(1.00, 0.00, -0.00, -1.00, 1716.3, 48.2)">r</text><text xml:space="preserve" font-family="BradleyHandITCTT-Bold,Bradley Hand" font-weight="bold" font-size="37.0" fill="#FEFFFF" transform="matrix(1.00, 0.00, -0.00, -1.00, 1730.8, 48.2)">-</text><text xml:space="preserve" font-family="BradleyHandITCTT-Bold,Bradley Hand" font-weight="bold" font-size="37.0" fill="#FEFFFF" transform="matrix(1.00, 0.00, -0.00, -1.00, 1744.0, 48.2)">i</text><text xml:space="preserve" font-family="BradleyHandITCTT-Bold,Bradley Hand" font-weight="bold" font-size="37.0" fill="#FEFFFF" transform="matrix(1.00, 0.00, -0.00, -1.00, 1756.1, 48.2)">o</text><text xml:space="preserve" font-family="BradleyHandITCTT-Bold,Bradley Hand" font-weight="bold" font-size="37.0" fill="#FEFFFF" transform="matrix(1.00, 0.00, -0.00, -1.00, 1771.9, 48.2)">s</text><text xml:space="preserve" font-family="BradleyHandITCTT-Bold,Bradley Hand" font-weight="bold" font-size="37.0" fill="#FEFFFF" transform="matrix(1.00, 0.00, -0.00, -1.00, 1788.7, 48.2)">-</text><text xml:space="preserve" font-family="BradleyHandITCTT-Bold,Bradley Hand" font-weight="bold" font-size="37.0" fill="#FEFFFF" transform="matrix(1.00, 0.00, -0.00, -1.00, 1802.0, 48.2)">s</text><text xml:space="preserve" font-family="BradleyHandITCTT-Bold,Bradley Hand" font-weight="bold" font-size="37.0" fill="#FEFFFF" transform="matrix(1.00, 0.00, -0.00, -1.00, 1818.8, 48.2)">y</text><text xml:space="preserve" font-family="BradleyHandITCTT-Bold,Bradley Hand" font-weight="bold" font-size="37.0" fill="#FEFFFF" transform="matrix(1.00, 0.00, -0.00, -1.00, 1843.2, 48.2)">n</text><text xml:space="preserve" font-family="BradleyHandITCTT-Bold,Bradley Hand" font-weight="bold" font-size="37.0" fill="#FEFFFF" transform="matrix(1.00, 0.00, -0.00, -1.00, 1868.0, 48.2)">c</text><text xml:space="preserve" font-family="BradleyHandITCTT-Bold,Bradley Hand" font-weight="bold" font-size="37.0" fill="#FEFFFF" transform="matrix(1.00, 0.00, -0.00, -1.00, 1884.0, 48.2)"> </text><text xml:space="preserve" font-family="BradleyHandITCTT-Bold,Bradley Hand" font-weight="bold" font-size="37.0" fill="#FEFFFF" transform="matrix(1.00, 0.00, -0.00, -1.00, 1893.4, 48.2)"> </text><text xml:space="preserve" font-family="BradleyHandITCTT-Bold,Bradley Hand" font-weight="bold" font-size="37.0" fill="#FEFFFF" transform="matrix(1.00, 0.00, -0.00, -1.00, 1902.9, 48.2)"> </text><path d="M 28.4 43.0 L 314.5 43.0 " fill="none" stroke="#FEFFFF" stroke-width="2.26" transform="matrix(1.00, 0.00, 0.00, -1.00, 1569.4, 85.0)"></path></g></g></g></svg>