<?xml version="1.0" encoding="UTF-8" standalone="no"?><svg xmlns="http://www.w3.org/2000/svg" xmlns:xlink="http://www.w3.org/1999/xlink" clip-rule="evenodd" stroke-miterlimit="10" viewBox="0 0 1037 270"><desc>SVG generated by Keynote</desc><defs></defs><g transform="matrix(1.00, 0.00, -0.00, -1.00, 0.0, 270.0)"><path d="M -0.4 0.2 L 1028.6 0.2 L 1028.6 261.2 L -0.4 261.2 Z M 0.0 0.0 " fill="none" stroke="#961817" stroke-width="5.00" transform="matrix(1.00, 0.00, 0.00, -1.00, 3.9, 265.7)"></path><g><clipPath id="clip0x7f88a7c81f50"><path d="M 3.3 3.8 L 2033.8 3.8 L 2033.8 266.3 L 3.3 266.3 Z M 3.3 3.8 "></path></clipPath><g clip-path="url(#clip0x7f88a7c81f50)"><text xml:space="preserve" font-family="Menlo-Regular,Menlo" font-size="30.0" fill="#FFFFFF" transform="matrix(1.00, 0.00, -0.00, -1.00, 12.1, 229.6)"> </text><text xml:space="preserve" font-family="Menlo-Regular,Menlo" font-size="30.0" fill="#FFFFFF" transform="matrix(1.00, 0.00, -0.00, -1.00, 30.1, 229.6)"> </text><text xml:space="preserve" font-family="Menlo-Regular,Menlo" font-size="30.0" fill="#FFFFFF" transform="matrix(1.00, 0.00, -0.00, -1.00, 48.2, 229.6)"> </text><text xml:space="preserve" font-family="Menlo-Regular,Menlo" font-size="30.0" fill="#FFFFFF" transform="matrix(1.00, 0.00, -0.00, -1.00, 12.1, 194.6)"> </text><text xml:space="preserve" font-family="Menlo-Regular,Menlo" font-size="30.0" fill="#FFFFFF" transform="matrix(1.00, 0.00, -0.00, -1.00, 30.1, 194.6)"> </text><text xml:space="preserve" font-family="Menlo-Regular,Menlo" font-size="30.0" fill="#DD38A5" transform="matrix(1.00, 0.00, -0.00, -1.00, 48.2, 194.6)">p</text><text xml:space="preserve" font-family="Menlo-Regular,Menlo" font-size="30.0" fill="#DD38A5" transform="matrix(1.00, 0.00, -0.00, -1.00, 66.2, 194.6)">u</text><text xml:space="preserve" font-family="Menlo-Regular,Menlo" font-size="30.0" fill="#DD38A5" transform="matrix(1.00, 0.00, -0.00, -1.00, 84.3, 194.6)">b</text><text xml:space="preserve" font-family="Menlo-Regular,Menlo" font-size="30.0" fill="#DD38A5" transform="matrix(1.00, 0.00, -0.00, -1.00, 102.4, 194.6)">l</text><text xml:space="preserve" font-family="Menlo-Regular,Menlo" font-size="30.0" fill="#DD38A5" transform="matrix(1.00, 0.00, -0.00, -1.00, 120.4, 194.6)">i</text><text xml:space="preserve" font-family="Menlo-Regular,Menlo" font-size="30.0" fill="#DD38A5" transform="matrix(1.00, 0.00, -0.00, -1.00, 138.5, 194.6)">c</text><text xml:space="preserve" font-family="Menlo-Regular,Menlo" font-size="30.0" fill="#FFFFFF" transform="matrix(1.00, 0.00, -0.00, -1.00, 156.5, 194.6)"> </text><text xml:space="preserve" font-family="Menlo-Regular,Menlo" font-size="30.0" fill="#DD38A5" transform="matrix(1.00, 0.00, -0.00, -1.00, 174.6, 194.6)">f</text><text xml:space="preserve" font-family="Menlo-Regular,Menlo" font-size="30.0" fill="#DD38A5" transform="matrix(1.00, 0.00, -0.00, -1.00, 192.7, 194.6)">u</text><text xml:space="preserve" font-family="Menlo-Regular,Menlo" font-size="30.0" fill="#DD38A5" transform="matrix(1.00, 0.00, -0.00, -1.00, 210.7, 194.6)">n</text><text xml:space="preserve" font-family="Menlo-Regular,Menlo" font-size="30.0" fill="#DD38A5" transform="matrix(1.00, 0.00, -0.00, -1.00, 228.8, 194.6)">c</text><text xml:space="preserve" font-family="Menlo-Regular,Menlo" font-size="30.0" fill="#FFFFFF" transform="matrix(1.00, 0.00, -0.00, -1.00, 246.9, 194.6)"> </text><text xml:space="preserve" font-family="Menlo-Regular,Menlo" font-size="30.0" fill="#FFFFFF" transform="matrix(1.00, 0.00, -0.00, -1.00, 264.9, 194.6)">&lt;</text><text xml:space="preserve" font-family="Menlo-Regular,Menlo" font-size="30.0" fill="#FFFFFF" transform="matrix(1.00, 0.00, -0.00, -1.00, 283.0, 194.6)">=</text><text xml:space="preserve" font-family="Menlo-Regular,Menlo" font-size="30.0" fill="#FFFFFF" transform="matrix(1.00, 0.00, -0.00, -1.00, 301.0, 194.6)">(</text><text xml:space="preserve" font-family="Menlo-Regular,Menlo" font-size="30.0" fill="#DD38A5" transform="matrix(1.00, 0.00, -0.00, -1.00, 319.1, 194.6)">i</text><text xml:space="preserve" font-family="Menlo-Regular,Menlo" font-size="30.0" fill="#DD38A5" transform="matrix(1.00, 0.00, -0.00, -1.00, 337.2, 194.6)">n</text><text xml:space="preserve" font-family="Menlo-Regular,Menlo" font-size="30.0" fill="#DD38A5" transform="matrix(1.00, 0.00, -0.00, -1.00, 355.2, 194.6)">o</text><text xml:space="preserve" font-family="Menlo-Regular,Menlo" font-size="30.0" fill="#DD38A5" transform="matrix(1.00, 0.00, -0.00, -1.00, 373.3, 194.6)">u</text><text xml:space="preserve" font-family="Menlo-Regular,Menlo" font-size="30.0" fill="#DD38A5" transform="matrix(1.00, 0.00, -0.00, -1.00, 391.4, 194.6)">t</text><text xml:space="preserve" font-family="Menlo-Regular,Menlo" font-size="30.0" fill="#FFFFFF" transform="matrix(1.00, 0.00, -0.00, -1.00, 409.4, 194.6)"> </text><text xml:space="preserve" font-family="Menlo-Regular,Menlo" font-size="30.0" fill="#FFFFFF" transform="matrix(1.00, 0.00, -0.00, -1.00, 427.5, 194.6)">f</text><text xml:space="preserve" font-family="Menlo-Regular,Menlo" font-size="30.0" fill="#FFFFFF" transform="matrix(1.00, 0.00, -0.00, -1.00, 445.5, 194.6)">i</text><text xml:space="preserve" font-family="Menlo-Regular,Menlo" font-size="30.0" fill="#FFFFFF" transform="matrix(1.00, 0.00, -0.00, -1.00, 463.6, 194.6)">e</text><text xml:space="preserve" font-family="Menlo-Regular,Menlo" font-size="30.0" fill="#FFFFFF" transform="matrix(1.00, 0.00, -0.00, -1.00, 481.7, 194.6)">l</text><text xml:space="preserve" font-family="Menlo-Regular,Menlo" font-size="30.0" fill="#FFFFFF" transform="matrix(1.00, 0.00, -0.00, -1.00, 499.7, 194.6)">d</text><text xml:space="preserve" font-family="Menlo-Regular,Menlo" font-size="30.0" fill="#FFFFFF" transform="matrix(1.00, 0.00, -0.00, -1.00, 517.8, 194.6)">:</text><text xml:space="preserve" font-family="Menlo-Regular,Menlo" font-size="30.0" fill="#FFFFFF" transform="matrix(1.00, 0.00, -0.00, -1.00, 535.9, 194.6)"> </text><text xml:space="preserve" font-family="Menlo-Regular,Menlo" font-size="30.0" fill="#00B1FF" transform="matrix(1.00, 0.00, -0.00, -1.00, 553.9, 194.6)">S</text><text xml:space="preserve" font-family="Menlo-Regular,Menlo" font-size="30.0" fill="#00B1FF" transform="matrix(1.00, 0.00, -0.00, -1.00, 572.0, 194.6)">t</text><text xml:space="preserve" font-family="Menlo-Regular,Menlo" font-size="30.0" fill="#00B1FF" transform="matrix(1.00, 0.00, -0.00, -1.00, 590.0, 194.6)">r</text><text xml:space="preserve" font-family="Menlo-Regular,Menlo" font-size="30.0" fill="#00B1FF" transform="matrix(1.00, 0.00, -0.00, -1.00, 608.1, 194.6)">i</text><text xml:space="preserve" font-family="Menlo-Regular,Menlo" font-size="30.0" fill="#00B1FF" transform="matrix(1.00, 0.00, -0.00, -1.00, 626.2, 194.6)">n</text><text xml:space="preserve" font-family="Menlo-Regular,Menlo" font-size="30.0" fill="#00B1FF" transform="matrix(1.00, 0.00, -0.00, -1.00, 644.2, 194.6)">g</text><text xml:space="preserve" font-family="Menlo-Regular,Menlo" font-size="30.0" fill="#FFFFFF" transform="matrix(1.00, 0.00, -0.00, -1.00, 662.3, 194.6)">?</text><text xml:space="preserve" font-family="Menlo-Regular,Menlo" font-size="30.0" fill="#FFFFFF" transform="matrix(1.00, 0.00, -0.00, -1.00, 680.3, 194.6)">,</text><text xml:space="preserve" font-family="Menlo-Regular,Menlo" font-size="30.0" fill="#FFFFFF" transform="matrix(1.00, 0.00, -0.00, -1.00, 698.4, 194.6)"> </text><text xml:space="preserve" font-family="Menlo-Regular,Menlo" font-size="30.0" fill="#FFFFFF" transform="matrix(1.00, 0.00, -0.00, -1.00, 716.5, 194.6)">r</text><text xml:space="preserve" font-family="Menlo-Regular,Menlo" font-size="30.0" fill="#FFFFFF" transform="matrix(1.00, 0.00, -0.00, -1.00, 734.5, 194.6)">i</text><text xml:space="preserve" font-family="Menlo-Regular,Menlo" font-size="30.0" fill="#FFFFFF" transform="matrix(1.00, 0.00, -0.00, -1.00, 752.6, 194.6)">g</text><text xml:space="preserve" font-family="Menlo-Regular,Menlo" font-size="30.0" fill="#FFFFFF" transform="matrix(1.00, 0.00, -0.00, -1.00, 770.7, 194.6)">h</text><text xml:space="preserve" font-family="Menlo-Regular,Menlo" font-size="30.0" fill="#FFFFFF" transform="matrix(1.00, 0.00, -0.00, -1.00, 788.7, 194.6)">t</text><text xml:space="preserve" font-family="Menlo-Regular,Menlo" font-size="30.0" fill="#FFFFFF" transform="matrix(1.00, 0.00, -0.00, -1.00, 806.8, 194.6)">:</text><text xml:space="preserve" font-family="Menlo-Regular,Menlo" font-size="30.0" fill="#FFFFFF" transform="matrix(1.00, 0.00, -0.00, -1.00, 824.8, 194.6)"> </text><text xml:space="preserve" font-family="Menlo-Regular,Menlo" font-size="30.0" fill="#08FA95" transform="matrix(1.00, 0.00, -0.00, -1.00, 842.9, 194.6)">J</text><text xml:space="preserve" font-family="Menlo-Regular,Menlo" font-size="30.0" fill="#08FA95" transform="matrix(1.00, 0.00, -0.00, -1.00, 860.9, 194.6)">s</text><text xml:space="preserve" font-family="Menlo-Regular,Menlo" font-size="30.0" fill="#08FA95" transform="matrix(1.00, 0.00, -0.00, -1.00, 879.0, 194.6)">o</text><text xml:space="preserve" font-family="Menlo-Regular,Menlo" font-size="30.0" fill="#08FA95" transform="matrix(1.00, 0.00, -0.00, -1.00, 897.1, 194.6)">n</text><text xml:space="preserve" font-family="Menlo-Regular,Menlo" font-size="30.0" fill="#08FA95" transform="matrix(1.00, 0.00, -0.00, -1.00, 915.1, 194.6)">S</text><text xml:space="preserve" font-family="Menlo-Regular,Menlo" font-size="30.0" fill="#08FA95" transform="matrix(1.00, 0.00, -0.00, -1.00, 933.2, 194.6)">Z</text><text xml:space="preserve" font-family="Menlo-Regular,Menlo" font-size="30.0" fill="#FFFFFF" transform="matrix(1.00, 0.00, -0.00, -1.00, 951.3, 194.6)">)</text><text xml:space="preserve" font-family="Menlo-Regular,Menlo" font-size="30.0" fill="#FFFFFF" transform="matrix(1.00, 0.00, -0.00, -1.00, 969.3, 194.6)"> </text><text xml:space="preserve" font-family="Menlo-Regular,Menlo" font-size="30.0" fill="#FFFFFF" transform="matrix(1.00, 0.00, -0.00, -1.00, 987.4, 194.6)">{</text><text xml:space="preserve" font-family="Menlo-Regular,Menlo" font-size="30.0" fill="#FFFFFF" transform="matrix(1.00, 0.00, -0.00, -1.00, 1005.4, 194.6)"> </text><text xml:space="preserve" font-family="Menlo-Regular,Menlo" font-size="30.0" fill="#08FA95" transform="matrix(1.00, 0.00, -0.00, -1.00, 12.1, 159.6)"> </text><text xml:space="preserve" font-family="Menlo-Regular,Menlo" font-size="30.0" fill="#08FA95" transform="matrix(1.00, 0.00, -0.00, -1.00, 30.1, 159.6)"> </text><text xml:space="preserve" font-family="Menlo-Regular,Menlo" font-size="30.0" fill="#08FA95" transform="matrix(1.00, 0.00, -0.00, -1.00, 48.2, 159.6)"> </text><text xml:space="preserve" font-family="Menlo-Regular,Menlo" font-size="30.0" fill="#08FA95" transform="matrix(1.00, 0.00, -0.00, -1.00, 66.2, 159.6)"> </text><text xml:space="preserve" font-family="Menlo-Regular,Menlo" font-size="30.0" fill="#08FA95" transform="matrix(1.00, 0.00, -0.00, -1.00, 84.3, 159.6)"> </text><text xml:space="preserve" font-family="Menlo-Regular,Menlo" font-size="30.0" fill="#DD38A5" transform="matrix(1.00, 0.00, -0.00, -1.00, 102.4, 159.6)">i</text><text xml:space="preserve" font-family="Menlo-Regular,Menlo" font-size="30.0" fill="#DD38A5" transform="matrix(1.00, 0.00, -0.00, -1.00, 120.4, 159.6)">f</text><text xml:space="preserve" font-family="Menlo-Regular,Menlo" font-size="30.0" fill="#08FA95" transform="matrix(1.00, 0.00, -0.00, -1.00, 138.5, 159.6)"> </text><text xml:space="preserve" font-family="Menlo-Regular,Menlo" font-size="30.0" fill="#DD38A5" transform="matrix(1.00, 0.00, -0.00, -1.00, 156.5, 159.6)">l</text><text xml:space="preserve" font-family="Menlo-Regular,Menlo" font-size="30.0" fill="#DD38A5" transform="matrix(1.00, 0.00, -0.00, -1.00, 174.6, 159.6)">e</text><text xml:space="preserve" font-family="Menlo-Regular,Menlo" font-size="30.0" fill="#DD38A5" transform="matrix(1.00, 0.00, -0.00, -1.00, 192.7, 159.6)">t</text><text xml:space="preserve" font-family="Menlo-Regular,Menlo" font-size="30.0" fill="#08FA95" transform="matrix(1.00, 0.00, -0.00, -1.00, 210.7, 159.6)"> </text><text xml:space="preserve" font-family="Menlo-Regular,Menlo" font-size="30.0" fill="#08FA95" transform="matrix(1.00, 0.00, -0.00, -1.00, 228.8, 159.6)">v</text><text xml:space="preserve" font-family="Menlo-Regular,Menlo" font-size="30.0" fill="#08FA95" transform="matrix(1.00, 0.00, -0.00, -1.00, 246.9, 159.6)">a</text><text xml:space="preserve" font-family="Menlo-Regular,Menlo" font-size="30.0" fill="#08FA95" transform="matrix(1.00, 0.00, -0.00, -1.00, 264.9, 159.6)">l</text><text xml:space="preserve" font-family="Menlo-Regular,Menlo" font-size="30.0" fill="#08FA95" transform="matrix(1.00, 0.00, -0.00, -1.00, 283.0, 159.6)">u</text><text xml:space="preserve" font-family="Menlo-Regular,Menlo" font-size="30.0" fill="#08FA95" transform="matrix(1.00, 0.00, -0.00, -1.00, 301.1, 159.6)">e</text><text xml:space="preserve" font-family="Menlo-Regular,Menlo" font-size="30.0" fill="#08FA95" transform="matrix(1.00, 0.00, -0.00, -1.00, 319.1, 159.6)"> </text><text xml:space="preserve" font-family="Menlo-Regular,Menlo" font-size="30.0" fill="#08FA95" transform="matrix(1.00, 0.00, -0.00, -1.00, 337.2, 159.6)">=</text><text xml:space="preserve" font-family="Menlo-Regular,Menlo" font-size="30.0" fill="#08FA95" transform="matrix(1.00, 0.00, -0.00, -1.00, 355.2, 159.6)"> </text><text xml:space="preserve" font-family="Menlo-Regular,Menlo" font-size="30.0" fill="#08FA95" transform="matrix(1.00, 0.00, -0.00, -1.00, 373.3, 159.6)">r</text><text xml:space="preserve" font-family="Menlo-Regular,Menlo" font-size="30.0" fill="#08FA95" transform="matrix(1.00, 0.00, -0.00, -1.00, 391.4, 159.6)">i</text><text xml:space="preserve" font-family="Menlo-Regular,Menlo" font-size="30.0" fill="#08FA95" transform="matrix(1.00, 0.00, -0.00, -1.00, 409.4, 159.6)">g</text><text xml:space="preserve" font-family="Menlo-Regular,Menlo" font-size="30.0" fill="#08FA95" transform="matrix(1.00, 0.00, -0.00, -1.00, 427.5, 159.6)">h</text><text xml:space="preserve" font-family="Menlo-Regular,Menlo" font-size="30.0" fill="#08FA95" transform="matrix(1.00, 0.00, -0.00, -1.00, 445.6, 159.6)">t</text><text xml:space="preserve" font-family="Menlo-Regular,Menlo" font-size="30.0" fill="#08FA95" transform="matrix(1.00, 0.00, -0.00, -1.00, 463.6, 159.6)">.</text><text xml:space="preserve" font-family="Menlo-Regular,Menlo" font-size="30.0" fill="#08FA95" transform="matrix(1.00, 0.00, -0.00, -1.00, 481.7, 159.6)">v</text><text xml:space="preserve" font-family="Menlo-Regular,Menlo" font-size="30.0" fill="#08FA95" transform="matrix(1.00, 0.00, -0.00, -1.00, 499.7, 159.6)">a</text><text xml:space="preserve" font-family="Menlo-Regular,Menlo" font-size="30.0" fill="#08FA95" transform="matrix(1.00, 0.00, -0.00, -1.00, 517.8, 159.6)">l</text><text xml:space="preserve" font-family="Menlo-Regular,Menlo" font-size="30.0" fill="#08FA95" transform="matrix(1.00, 0.00, -0.00, -1.00, 535.8, 159.6)">u</text><text xml:space="preserve" font-family="Menlo-Regular,Menlo" font-size="30.0" fill="#08FA95" transform="matrix(1.00, 0.00, -0.00, -1.00, 553.9, 159.6)">e</text><text xml:space="preserve" font-family="Menlo-Regular,Menlo" font-size="30.0" fill="#08FA95" transform="matrix(1.00, 0.00, -0.00, -1.00, 572.0, 159.6)"> </text><text xml:space="preserve" font-family="Menlo-Regular,Menlo" font-size="30.0" fill="#08FA95" transform="matrix(1.00, 0.00, -0.00, -1.00, 590.0, 159.6)">{</text><text xml:space="preserve" font-family="Menlo-Regular,Menlo" font-size="30.0" fill="#08FA95" transform="matrix(1.00, 0.00, -0.00, -1.00, 608.1, 159.6)"> </text><text xml:space="preserve" font-family="Menlo-Regular,Menlo" font-size="30.0" fill="#FFFFFF" transform="matrix(1.00, 0.00, -0.00, -1.00, 12.1, 124.6)"> </text><text xml:space="preserve" font-family="Menlo-Regular,Menlo" font-size="30.0" fill="#FFFFFF" transform="matrix(1.00, 0.00, -0.00, -1.00, 30.1, 124.6)"> </text><text xml:space="preserve" font-family="Menlo-Regular,Menlo" font-size="30.0" fill="#FFFFFF" transform="matrix(1.00, 0.00, -0.00, -1.00, 48.2, 124.6)"> </text><text xml:space="preserve" font-family="Menlo-Regular,Menlo" font-size="30.0" fill="#FFFFFF" transform="matrix(1.00, 0.00, -0.00, -1.00, 66.2, 124.6)"> </text><text xml:space="preserve" font-family="Menlo-Regular,Menlo" font-size="30.0" fill="#FFFFFF" transform="matrix(1.00, 0.00, -0.00, -1.00, 84.3, 124.6)"> </text><text xml:space="preserve" font-family="Menlo-Regular,Menlo" font-size="30.0" fill="#FFFFFF" transform="matrix(1.00, 0.00, -0.00, -1.00, 102.4, 124.6)"> </text><text xml:space="preserve" font-family="Menlo-Regular,Menlo" font-size="30.0" fill="#FFFFFF" transform="matrix(1.00, 0.00, -0.00, -1.00, 120.4, 124.6)"> </text><text xml:space="preserve" font-family="Menlo-Regular,Menlo" font-size="30.0" fill="#FFFFFF" transform="matrix(1.00, 0.00, -0.00, -1.00, 138.5, 124.6)"> </text><text xml:space="preserve" font-family="Menlo-Regular,Menlo" font-size="30.0" fill="#FFFFFF" transform="matrix(1.00, 0.00, -0.00, -1.00, 156.6, 124.6)">f</text><text xml:space="preserve" font-family="Menlo-Regular,Menlo" font-size="30.0" fill="#FFFFFF" transform="matrix(1.00, 0.00, -0.00, -1.00, 174.6, 124.6)">i</text><text xml:space="preserve" font-family="Menlo-Regular,Menlo" font-size="30.0" fill="#FFFFFF" transform="matrix(1.00, 0.00, -0.00, -1.00, 192.7, 124.6)">e</text><text xml:space="preserve" font-family="Menlo-Regular,Menlo" font-size="30.0" fill="#FFFFFF" transform="matrix(1.00, 0.00, -0.00, -1.00, 210.8, 124.6)">l</text><text xml:space="preserve" font-family="Menlo-Regular,Menlo" font-size="30.0" fill="#FFFFFF" transform="matrix(1.00, 0.00, -0.00, -1.00, 228.8, 124.6)">d</text><text xml:space="preserve" font-family="Menlo-Regular,Menlo" font-size="30.0" fill="#FFFFFF" transform="matrix(1.00, 0.00, -0.00, -1.00, 246.9, 124.6)"> </text><text xml:space="preserve" font-family="Menlo-Regular,Menlo" font-size="30.0" fill="#FFFFFF" transform="matrix(1.00, 0.00, -0.00, -1.00, 265.0, 124.6)">=</text><text xml:space="preserve" font-family="Menlo-Regular,Menlo" font-size="30.0" fill="#FFFFFF" transform="matrix(1.00, 0.00, -0.00, -1.00, 283.0, 124.6)"> </text><text xml:space="preserve" font-family="Menlo-Regular,Menlo" font-size="30.0" fill="#FFFFFF" transform="matrix(1.00, 0.00, -0.00, -1.00, 301.1, 124.6)">v</text><text xml:space="preserve" font-family="Menlo-Regular,Menlo" font-size="30.0" fill="#FFFFFF" transform="matrix(1.00, 0.00, -0.00, -1.00, 319.2, 124.6)">a</text><text xml:space="preserve" font-family="Menlo-Regular,Menlo" font-size="30.0" fill="#FFFFFF" transform="matrix(1.00, 0.00, -0.00, -1.00, 337.2, 124.6)">l</text><text xml:space="preserve" font-family="Menlo-Regular,Menlo" font-size="30.0" fill="#FFFFFF" transform="matrix(1.00, 0.00, -0.00, -1.00, 355.3, 124.6)">u</text><text xml:space="preserve" font-family="Menlo-Regular,Menlo" font-size="30.0" fill="#FFFFFF" transform="matrix(1.00, 0.00, -0.00, -1.00, 373.3, 124.6)">e</text><text xml:space="preserve" font-family="Menlo-Regular,Menlo" font-size="30.0" fill="#FFFFFF" transform="matrix(1.00, 0.00, -0.00, -1.00, 391.4, 124.6)"> </text><text xml:space="preserve" font-family="Menlo-Regular,Menlo" font-size="30.0" fill="#DD38A5" transform="matrix(1.00, 0.00, -0.00, -1.00, 409.4, 124.6)">a</text><text xml:space="preserve" font-family="Menlo-Regular,Menlo" font-size="30.0" fill="#DD38A5" transform="matrix(1.00, 0.00, -0.00, -1.00, 427.5, 124.6)">s</text><text xml:space="preserve" font-family="Menlo-Regular,Menlo" font-size="30.0" fill="#FFFFFF" transform="matrix(1.00, 0.00, -0.00, -1.00, 445.5, 124.6)">?</text><text xml:space="preserve" font-family="Menlo-Regular,Menlo" font-size="30.0" fill="#FFFFFF" transform="matrix(1.00, 0.00, -0.00, -1.00, 463.6, 124.6)"> </text><text xml:space="preserve" font-family="Menlo-Regular,Menlo" font-size="30.0" fill="#00B1FF" transform="matrix(1.00, 0.00, -0.00, -1.00, 481.7, 124.6)">S</text><text xml:space="preserve" font-family="Menlo-Regular,Menlo" font-size="30.0" fill="#00B1FF" transform="matrix(1.00, 0.00, -0.00, -1.00, 499.7, 124.6)">t</text><text xml:space="preserve" font-family="Menlo-Regular,Menlo" font-size="30.0" fill="#00B1FF" transform="matrix(1.00, 0.00, -0.00, -1.00, 517.8, 124.6)">r</text><text xml:space="preserve" font-family="Menlo-Regular,Menlo" font-size="30.0" fill="#00B1FF" transform="matrix(1.00, 0.00, -0.00, -1.00, 535.8, 124.6)">i</text><text xml:space="preserve" font-family="Menlo-Regular,Menlo" font-size="30.0" fill="#00B1FF" transform="matrix(1.00, 0.00, -0.00, -1.00, 553.9, 124.6)">n</text><text xml:space="preserve" font-family="Menlo-Regular,Menlo" font-size="30.0" fill="#00B1FF" transform="matrix(1.00, 0.00, -0.00, -1.00, 572.0, 124.6)">g</text><text xml:space="preserve" font-family="Menlo-Regular,Menlo" font-size="30.0" fill="#FFFFFF" transform="matrix(1.00, 0.00, -0.00, -1.00, 590.0, 124.6)"> </text><text xml:space="preserve" font-family="Menlo-Regular,Menlo" font-size="30.0" fill="#08FA95" transform="matrix(1.00, 0.00, -0.00, -1.00, 66.1, 89.6)"> </text><text xml:space="preserve" font-family="Menlo-Regular,Menlo" font-size="30.0" fill="#08FA95" transform="matrix(1.00, 0.00, -0.00, -1.00, 84.1, 89.6)"> </text><text xml:space="preserve" font-family="Menlo-Regular,Menlo" font-size="30.0" fill="#08FA95" transform="matrix(1.00, 0.00, -0.00, -1.00, 102.2, 89.6)">}</text><text xml:space="preserve" font-family="Menlo-Regular,Menlo" font-size="30.0" fill="#08FA95" transform="matrix(1.00, 0.00, -0.00, -1.00, 120.2, 89.6)"> </text><text xml:space="preserve" font-family="Menlo-Regular,Menlo" font-size="30.0" fill="#FFFFFF" transform="matrix(1.00, 0.00, -0.00, -1.00, 12.1, 54.6)"> </text><text xml:space="preserve" font-family="Menlo-Regular,Menlo" font-size="30.0" fill="#FFFFFF" transform="matrix(1.00, 0.00, -0.00, -1.00, 30.1, 54.6)"> </text><text xml:space="preserve" font-family="Menlo-Regular,Menlo" font-size="30.0" fill="#FFFFFF" transform="matrix(1.00, 0.00, -0.00, -1.00, 48.2, 54.6)">}</text><text xml:space="preserve" font-family="Menlo-Regular,Menlo" font-size="30.0" fill="#FFFFFF" transform="matrix(1.00, 0.00, -0.00, -1.00, 66.2, 54.6)"> </text></g></g></g></svg>