<?xml version="1.0" encoding="UTF-8" standalone="no"?><svg xmlns="http://www.w3.org/2000/svg" xmlns:xlink="http://www.w3.org/1999/xlink" clip-rule="evenodd" stroke-miterlimit="10" viewBox="0 0 1920 1080"><desc>SVG generated by Keynote</desc><defs></defs><g transform="matrix(1.00, 0.00, -0.00, -1.00, 0.0, 1080.0)"><path d="M 0.0 1080.0 L 1920.0 1080.0 L 1920.0 0.0 L 0.0 0.0 Z M 0.0 1080.0 " fill="#52575F"></path><path d="M -0.4 0.3 L 1280.6 0.3 L 1280.6 175.3 L -0.4 175.3 Z M 0.0 0.0 " fill="none" stroke="#961817" stroke-width="4.00" transform="matrix(1.00, 0.00, 0.00, -1.00, 246.4, 898.3)"></path><g><clipPath id="clip0x7f88a5718690"><path d="M 243.8 720.5 L 2779.9 720.5 L 2779.9 900.9 L 243.8 900.9 Z M 243.8 720.5 "></path></clipPath><g clip-path="url(#clip0x7f88a5718690)"><text xml:space="preserve" font-family="Menlo-Regular,Menlo" font-size="35.0" fill="#DD38A5" transform="matrix(1.00, 0.00, -0.00, -1.00, 254.0, 858.9)">f</text><text xml:space="preserve" font-family="Menlo-Regular,Menlo" font-size="35.0" fill="#DD38A5" transform="matrix(1.00, 0.00, -0.00, -1.00, 275.1, 858.9)">u</text><text xml:space="preserve" font-family="Menlo-Regular,Menlo" font-size="35.0" fill="#DD38A5" transform="matrix(1.00, 0.00, -0.00, -1.00, 296.1, 858.9)">n</text><text xml:space="preserve" font-family="Menlo-Regular,Menlo" font-size="35.0" fill="#DD38A5" transform="matrix(1.00, 0.00, -0.00, -1.00, 317.2, 858.9)">c</text><text xml:space="preserve" font-family="Menlo-Regular,Menlo" font-size="35.0" fill="#FFFFFF" transform="matrix(1.00, 0.00, -0.00, -1.00, 338.3, 858.9)"> </text><text xml:space="preserve" font-family="Menlo-Regular,Menlo" font-size="35.0" fill="#FFFFFF" transform="matrix(1.00, 0.00, -0.00, -1.00, 359.4, 858.9)">h</text><text xml:space="preserve" font-family="Menlo-Regular,Menlo" font-size="35.0" fill="#FFFFFF" transform="matrix(1.00, 0.00, -0.00, -1.00, 380.4, 858.9)">e</text><text xml:space="preserve" font-family="Menlo-Regular,Menlo" font-size="35.0" fill="#FFFFFF" transform="matrix(1.00, 0.00, -0.00, -1.00, 401.5, 858.9)">l</text><text xml:space="preserve" font-family="Menlo-Regular,Menlo" font-size="35.0" fill="#FFFFFF" transform="matrix(1.00, 0.00, -0.00, -1.00, 422.6, 858.9)">l</text><text xml:space="preserve" font-family="Menlo-Regular,Menlo" font-size="35.0" fill="#FFFFFF" transform="matrix(1.00, 0.00, -0.00, -1.00, 443.7, 858.9)">o</text><text xml:space="preserve" font-family="Menlo-Regular,Menlo" font-size="35.0" fill="#FFFFFF" transform="matrix(1.00, 0.00, -0.00, -1.00, 464.7, 858.9)">(</text><text xml:space="preserve" font-family="Menlo-Regular,Menlo" font-size="35.0" fill="#FFFFFF" transform="matrix(1.00, 0.00, -0.00, -1.00, 485.8, 858.9)">f</text><text xml:space="preserve" font-family="Menlo-Regular,Menlo" font-size="35.0" fill="#FFFFFF" transform="matrix(1.00, 0.00, -0.00, -1.00, 506.9, 858.9)">i</text><text xml:space="preserve" font-family="Menlo-Regular,Menlo" font-size="35.0" fill="#FFFFFF" transform="matrix(1.00, 0.00, -0.00, -1.00, 528.0, 858.9)">r</text><text xml:space="preserve" font-family="Menlo-Regular,Menlo" font-size="35.0" fill="#FFFFFF" transform="matrix(1.00, 0.00, -0.00, -1.00, 549.0, 858.9)">s</text><text xml:space="preserve" font-family="Menlo-Regular,Menlo" font-size="35.0" fill="#FFFFFF" transform="matrix(1.00, 0.00, -0.00, -1.00, 570.1, 858.9)">t</text><text xml:space="preserve" font-family="Menlo-Regular,Menlo" font-size="35.0" fill="#FFFFFF" transform="matrix(1.00, 0.00, -0.00, -1.00, 591.2, 858.9)">n</text><text xml:space="preserve" font-family="Menlo-Regular,Menlo" font-size="35.0" fill="#FFFFFF" transform="matrix(1.00, 0.00, -0.00, -1.00, 612.3, 858.9)">a</text><text xml:space="preserve" font-family="Menlo-Regular,Menlo" font-size="35.0" fill="#FFFFFF" transform="matrix(1.00, 0.00, -0.00, -1.00, 633.3, 858.9)">m</text><text xml:space="preserve" font-family="Menlo-Regular,Menlo" font-size="35.0" fill="#FFFFFF" transform="matrix(1.00, 0.00, -0.00, -1.00, 654.4, 858.9)">e</text><text xml:space="preserve" font-family="Menlo-Regular,Menlo" font-size="35.0" fill="#FFFFFF" transform="matrix(1.00, 0.00, -0.00, -1.00, 675.5, 858.9)">:</text><text xml:space="preserve" font-family="Menlo-Regular,Menlo" font-size="35.0" fill="#FFFFFF" transform="matrix(1.00, 0.00, -0.00, -1.00, 696.6, 858.9)"> </text><text xml:space="preserve" font-family="Menlo-Regular,Menlo" font-size="35.0" fill="#00B1FF" transform="matrix(1.00, 0.00, -0.00, -1.00, 717.6, 858.9)">S</text><text xml:space="preserve" font-family="Menlo-Regular,Menlo" font-size="35.0" fill="#00B1FF" transform="matrix(1.00, 0.00, -0.00, -1.00, 738.7, 858.9)">t</text><text xml:space="preserve" font-family="Menlo-Regular,Menlo" font-size="35.0" fill="#00B1FF" transform="matrix(1.00, 0.00, -0.00, -1.00, 759.7, 858.9)">r</text><text xml:space="preserve" font-family="Menlo-Regular,Menlo" font-size="35.0" fill="#00B1FF" transform="matrix(1.00, 0.00, -0.00, -1.00, 780.8, 858.9)">i</text><text xml:space="preserve" font-family="Menlo-Regular,Menlo" font-size="35.0" fill="#00B1FF" transform="matrix(1.00, 0.00, -0.00, -1.00, 801.9, 858.9)">n</text><text xml:space="preserve" font-family="Menlo-Regular,Menlo" font-size="35.0" fill="#00B1FF" transform="matrix(1.00, 0.00, -0.00, -1.00, 823.0, 858.9)">g</text><text xml:space="preserve" font-family="Menlo-Regular,Menlo" font-size="35.0" fill="#FFFFFF" transform="matrix(1.00, 0.00, -0.00, -1.00, 844.0, 858.9)">,</text><text xml:space="preserve" font-family="Menlo-Regular,Menlo" font-size="35.0" fill="#FFFFFF" transform="matrix(1.00, 0.00, -0.00, -1.00, 865.1, 858.9)"> </text><text xml:space="preserve" font-family="Menlo-Regular,Menlo" font-size="35.0" fill="#FFFFFF" transform="matrix(1.00, 0.00, -0.00, -1.00, 886.2, 858.9)">l</text><text xml:space="preserve" font-family="Menlo-Regular,Menlo" font-size="35.0" fill="#FFFFFF" transform="matrix(1.00, 0.00, -0.00, -1.00, 907.2, 858.9)">a</text><text xml:space="preserve" font-family="Menlo-Regular,Menlo" font-size="35.0" fill="#FFFFFF" transform="matrix(1.00, 0.00, -0.00, -1.00, 928.3, 858.9)">s</text><text xml:space="preserve" font-family="Menlo-Regular,Menlo" font-size="35.0" fill="#FFFFFF" transform="matrix(1.00, 0.00, -0.00, -1.00, 949.4, 858.9)">t</text><text xml:space="preserve" font-family="Menlo-Regular,Menlo" font-size="35.0" fill="#FFFFFF" transform="matrix(1.00, 0.00, -0.00, -1.00, 970.5, 858.9)">n</text><text xml:space="preserve" font-family="Menlo-Regular,Menlo" font-size="35.0" fill="#FFFFFF" transform="matrix(1.00, 0.00, -0.00, -1.00, 991.5, 858.9)">a</text><text xml:space="preserve" font-family="Menlo-Regular,Menlo" font-size="35.0" fill="#FFFFFF" transform="matrix(1.00, 0.00, -0.00, -1.00, 1012.6, 858.9)">m</text><text xml:space="preserve" font-family="Menlo-Regular,Menlo" font-size="35.0" fill="#FFFFFF" transform="matrix(1.00, 0.00, -0.00, -1.00, 1033.7, 858.9)">e</text><text xml:space="preserve" font-family="Menlo-Regular,Menlo" font-size="35.0" fill="#FFFFFF" transform="matrix(1.00, 0.00, -0.00, -1.00, 1054.8, 858.9)">:</text><text xml:space="preserve" font-family="Menlo-Regular,Menlo" font-size="35.0" fill="#FFFFFF" transform="matrix(1.00, 0.00, -0.00, -1.00, 1075.8, 858.9)"> </text><text xml:space="preserve" font-family="Menlo-Regular,Menlo" font-size="35.0" fill="#00B1FF" transform="matrix(1.00, 0.00, -0.00, -1.00, 1096.9, 858.9)">S</text><text xml:space="preserve" font-family="Menlo-Regular,Menlo" font-size="35.0" fill="#00B1FF" transform="matrix(1.00, 0.00, -0.00, -1.00, 1117.9, 858.9)">t</text><text xml:space="preserve" font-family="Menlo-Regular,Menlo" font-size="35.0" fill="#00B1FF" transform="matrix(1.00, 0.00, -0.00, -1.00, 1139.0, 858.9)">r</text><text xml:space="preserve" font-family="Menlo-Regular,Menlo" font-size="35.0" fill="#00B1FF" transform="matrix(1.00, 0.00, -0.00, -1.00, 1160.1, 858.9)">i</text><text xml:space="preserve" font-family="Menlo-Regular,Menlo" font-size="35.0" fill="#00B1FF" transform="matrix(1.00, 0.00, -0.00, -1.00, 1181.2, 858.9)">n</text><text xml:space="preserve" font-family="Menlo-Regular,Menlo" font-size="35.0" fill="#00B1FF" transform="matrix(1.00, 0.00, -0.00, -1.00, 1202.2, 858.9)">g</text><text xml:space="preserve" font-family="Menlo-Regular,Menlo" font-size="35.0" fill="#FFFFFF" transform="matrix(1.00, 0.00, -0.00, -1.00, 1223.3, 858.9)">)</text><text xml:space="preserve" font-family="Menlo-Regular,Menlo" font-size="35.0" fill="#FFFFFF" transform="matrix(1.00, 0.00, -0.00, -1.00, 1244.4, 858.9)"> </text><text xml:space="preserve" font-family="Menlo-Regular,Menlo" font-size="35.0" fill="#FFFFFF" transform="matrix(1.00, 0.00, -0.00, -1.00, 1265.4, 858.9)">-</text><text xml:space="preserve" font-family="Menlo-Regular,Menlo" font-size="35.0" fill="#FFFFFF" transform="matrix(1.00, 0.00, -0.00, -1.00, 1286.5, 858.9)">&gt;</text><text xml:space="preserve" font-family="Menlo-Regular,Menlo" font-size="35.0" fill="#FFFFFF" transform="matrix(1.00, 0.00, -0.00, -1.00, 1307.6, 858.9)"> </text><text xml:space="preserve" font-family="Menlo-Regular,Menlo" font-size="35.0" fill="#00B1FF" transform="matrix(1.00, 0.00, -0.00, -1.00, 1328.7, 858.9)">S</text><text xml:space="preserve" font-family="Menlo-Regular,Menlo" font-size="35.0" fill="#00B1FF" transform="matrix(1.00, 0.00, -0.00, -1.00, 1349.7, 858.9)">t</text><text xml:space="preserve" font-family="Menlo-Regular,Menlo" font-size="35.0" fill="#00B1FF" transform="matrix(1.00, 0.00, -0.00, -1.00, 1370.8, 858.9)">r</text><text xml:space="preserve" font-family="Menlo-Regular,Menlo" font-size="35.0" fill="#00B1FF" transform="matrix(1.00, 0.00, -0.00, -1.00, 1391.9, 858.9)">i</text><text xml:space="preserve" font-family="Menlo-Regular,Menlo" font-size="35.0" fill="#00B1FF" transform="matrix(1.00, 0.00, -0.00, -1.00, 1413.0, 858.9)">n</text><text xml:space="preserve" font-family="Menlo-Regular,Menlo" font-size="35.0" fill="#00B1FF" transform="matrix(1.00, 0.00, -0.00, -1.00, 1434.0, 858.9)">g</text><text xml:space="preserve" font-family="Menlo-Regular,Menlo" font-size="35.0" fill="#FFFFFF" transform="matrix(1.00, 0.00, -0.00, -1.00, 1455.1, 858.9)"> </text><text xml:space="preserve" font-family="Menlo-Regular,Menlo" font-size="35.0" fill="#FFFFFF" transform="matrix(1.00, 0.00, -0.00, -1.00, 1476.2, 858.9)">{</text><text xml:space="preserve" font-family="Menlo-Regular,Menlo" font-size="35.0" fill="#FFFFFF" transform="matrix(1.00, 0.00, -0.00, -1.00, 1497.2, 858.9)"> </text><text xml:space="preserve" font-family="Menlo-Regular,Menlo" font-size="35.0" fill="#FFFFFF" transform="matrix(1.00, 0.00, -0.00, -1.00, 254.0, 818.9)"> </text><text xml:space="preserve" font-family="Menlo-Regular,Menlo" font-size="35.0" fill="#FFFFFF" transform="matrix(1.00, 0.00, -0.00, -1.00, 275.1, 818.9)"> </text><text xml:space="preserve" font-family="Menlo-Regular,Menlo" font-size="35.0" fill="#FFFFFF" transform="matrix(1.00, 0.00, -0.00, -1.00, 296.1, 818.9)"> </text><text xml:space="preserve" font-family="Menlo-Regular,Menlo" font-size="35.0" fill="#FFFFFF" transform="matrix(1.00, 0.00, -0.00, -1.00, 317.2, 818.9)"> </text><text xml:space="preserve" font-family="Menlo-Regular,Menlo" font-size="35.0" fill="#DD38A5" transform="matrix(1.00, 0.00, -0.00, -1.00, 338.3, 818.9)">r</text><text xml:space="preserve" font-family="Menlo-Regular,Menlo" font-size="35.0" fill="#DD38A5" transform="matrix(1.00, 0.00, -0.00, -1.00, 359.4, 818.9)">e</text><text xml:space="preserve" font-family="Menlo-Regular,Menlo" font-size="35.0" fill="#DD38A5" transform="matrix(1.00, 0.00, -0.00, -1.00, 380.4, 818.9)">t</text><text xml:space="preserve" font-family="Menlo-Regular,Menlo" font-size="35.0" fill="#DD38A5" transform="matrix(1.00, 0.00, -0.00, -1.00, 401.5, 818.9)">u</text><text xml:space="preserve" font-family="Menlo-Regular,Menlo" font-size="35.0" fill="#DD38A5" transform="matrix(1.00, 0.00, -0.00, -1.00, 422.6, 818.9)">r</text><text xml:space="preserve" font-family="Menlo-Regular,Menlo" font-size="35.0" fill="#DD38A5" transform="matrix(1.00, 0.00, -0.00, -1.00, 443.7, 818.9)">n</text><text xml:space="preserve" font-family="Menlo-Regular,Menlo" font-size="35.0" fill="#FFFFFF" transform="matrix(1.00, 0.00, -0.00, -1.00, 464.7, 818.9)"> </text><text xml:space="preserve" font-family="Menlo-Regular,Menlo" font-size="35.0" fill="#FF4647" transform="matrix(1.00, 0.00, -0.00, -1.00, 485.8, 818.9)">"</text><text xml:space="preserve" font-family="Menlo-Regular,Menlo" font-size="35.0" fill="#FF4647" transform="matrix(1.00, 0.00, -0.00, -1.00, 506.9, 818.9)">h</text><text xml:space="preserve" font-family="Menlo-Regular,Menlo" font-size="35.0" fill="#FF4647" transform="matrix(1.00, 0.00, -0.00, -1.00, 527.9, 818.9)">e</text><text xml:space="preserve" font-family="Menlo-Regular,Menlo" font-size="35.0" fill="#FF4647" transform="matrix(1.00, 0.00, -0.00, -1.00, 549.0, 818.9)">l</text><text xml:space="preserve" font-family="Menlo-Regular,Menlo" font-size="35.0" fill="#FF4647" transform="matrix(1.00, 0.00, -0.00, -1.00, 570.1, 818.9)">l</text><text xml:space="preserve" font-family="Menlo-Regular,Menlo" font-size="35.0" fill="#FF4647" transform="matrix(1.00, 0.00, -0.00, -1.00, 591.2, 818.9)">o</text><text xml:space="preserve" font-family="Menlo-Regular,Menlo" font-size="35.0" fill="#FF4647" transform="matrix(1.00, 0.00, -0.00, -1.00, 612.2, 818.9)">,</text><text xml:space="preserve" font-family="Menlo-Regular,Menlo" font-size="35.0" fill="#FF4647" transform="matrix(1.00, 0.00, -0.00, -1.00, 633.3, 818.9)"> </text><text xml:space="preserve" font-family="Menlo-Regular,Menlo" font-size="35.0" fill="#FFFFFF" transform="matrix(1.00, 0.00, -0.00, -1.00, 654.4, 818.9)">\</text><text xml:space="preserve" font-family="Menlo-Regular,Menlo" font-size="35.0" fill="#FF4647" transform="matrix(1.00, 0.00, -0.00, -1.00, 675.4, 818.9)">(</text><text xml:space="preserve" font-family="Menlo-Regular,Menlo" font-size="35.0" fill="#FFFFFF" transform="matrix(1.00, 0.00, -0.00, -1.00, 696.5, 818.9)">f</text><text xml:space="preserve" font-family="Menlo-Regular,Menlo" font-size="35.0" fill="#FFFFFF" transform="matrix(1.00, 0.00, -0.00, -1.00, 717.6, 818.9)">i</text><text xml:space="preserve" font-family="Menlo-Regular,Menlo" font-size="35.0" fill="#FFFFFF" transform="matrix(1.00, 0.00, -0.00, -1.00, 738.7, 818.9)">r</text><text xml:space="preserve" font-family="Menlo-Regular,Menlo" font-size="35.0" fill="#FFFFFF" transform="matrix(1.00, 0.00, -0.00, -1.00, 759.7, 818.9)">s</text><text xml:space="preserve" font-family="Menlo-Regular,Menlo" font-size="35.0" fill="#FFFFFF" transform="matrix(1.00, 0.00, -0.00, -1.00, 780.8, 818.9)">t</text><text xml:space="preserve" font-family="Menlo-Regular,Menlo" font-size="35.0" fill="#FFFFFF" transform="matrix(1.00, 0.00, -0.00, -1.00, 801.9, 818.9)">n</text><text xml:space="preserve" font-family="Menlo-Regular,Menlo" font-size="35.0" fill="#FFFFFF" transform="matrix(1.00, 0.00, -0.00, -1.00, 823.0, 818.9)">a</text><text xml:space="preserve" font-family="Menlo-Regular,Menlo" font-size="35.0" fill="#FFFFFF" transform="matrix(1.00, 0.00, -0.00, -1.00, 844.0, 818.9)">m</text><text xml:space="preserve" font-family="Menlo-Regular,Menlo" font-size="35.0" fill="#FFFFFF" transform="matrix(1.00, 0.00, -0.00, -1.00, 865.1, 818.9)">e</text><text xml:space="preserve" font-family="Menlo-Regular,Menlo" font-size="35.0" fill="#FF4647" transform="matrix(1.00, 0.00, -0.00, -1.00, 886.2, 818.9)">)</text><text xml:space="preserve" font-family="Menlo-Regular,Menlo" font-size="35.0" fill="#FF4647" transform="matrix(1.00, 0.00, -0.00, -1.00, 907.2, 818.9)"> </text><text xml:space="preserve" font-family="Menlo-Regular,Menlo" font-size="35.0" fill="#FFFFFF" transform="matrix(1.00, 0.00, -0.00, -1.00, 928.3, 818.9)">\</text><text xml:space="preserve" font-family="Menlo-Regular,Menlo" font-size="35.0" fill="#FF4647" transform="matrix(1.00, 0.00, -0.00, -1.00, 949.4, 818.9)">(</text><text xml:space="preserve" font-family="Menlo-Regular,Menlo" font-size="35.0" fill="#FFFFFF" transform="matrix(1.00, 0.00, -0.00, -1.00, 970.4, 818.9)">l</text><text xml:space="preserve" font-family="Menlo-Regular,Menlo" font-size="35.0" fill="#FFFFFF" transform="matrix(1.00, 0.00, -0.00, -1.00, 991.5, 818.9)">a</text><text xml:space="preserve" font-family="Menlo-Regular,Menlo" font-size="35.0" fill="#FFFFFF" transform="matrix(1.00, 0.00, -0.00, -1.00, 1012.6, 818.9)">s</text><text xml:space="preserve" font-family="Menlo-Regular,Menlo" font-size="35.0" fill="#FFFFFF" transform="matrix(1.00, 0.00, -0.00, -1.00, 1033.7, 818.9)">t</text><text xml:space="preserve" font-family="Menlo-Regular,Menlo" font-size="35.0" fill="#FFFFFF" transform="matrix(1.00, 0.00, -0.00, -1.00, 1054.7, 818.9)">n</text><text xml:space="preserve" font-family="Menlo-Regular,Menlo" font-size="35.0" fill="#FFFFFF" transform="matrix(1.00, 0.00, -0.00, -1.00, 1075.8, 818.9)">a</text><text xml:space="preserve" font-family="Menlo-Regular,Menlo" font-size="35.0" fill="#FFFFFF" transform="matrix(1.00, 0.00, -0.00, -1.00, 1096.9, 818.9)">m</text><text xml:space="preserve" font-family="Menlo-Regular,Menlo" font-size="35.0" fill="#FFFFFF" transform="matrix(1.00, 0.00, -0.00, -1.00, 1118.0, 818.9)">e</text><text xml:space="preserve" font-family="Menlo-Regular,Menlo" font-size="35.0" fill="#FF4647" transform="matrix(1.00, 0.00, -0.00, -1.00, 1139.0, 818.9)">)</text><text xml:space="preserve" font-family="Menlo-Regular,Menlo" font-size="35.0" fill="#FF4647" transform="matrix(1.00, 0.00, -0.00, -1.00, 1160.1, 818.9)">"</text><text xml:space="preserve" font-family="Menlo-Regular,Menlo" font-size="35.0" fill="#FFFFFF" transform="matrix(1.00, 0.00, -0.00, -1.00, 1181.2, 818.9)"> </text><text xml:space="preserve" font-family="Menlo-Regular,Menlo" font-size="35.0" fill="#FFFFFF" transform="matrix(1.00, 0.00, -0.00, -1.00, 254.0, 778.9)">}</text><text xml:space="preserve" font-family="Menlo-Regular,Menlo" font-size="35.0" fill="#FFFFFF" transform="matrix(1.00, 0.00, -0.00, -1.00, 275.1, 778.9)"> </text><text xml:space="preserve" font-family="Menlo-Regular,Menlo" font-size="35.0" fill="#08FA95" transform="matrix(1.00, 0.00, -0.00, -1.00, 254.0, 738.9)">h</text><text xml:space="preserve" font-family="Menlo-Regular,Menlo" font-size="35.0" fill="#08FA95" transform="matrix(1.00, 0.00, -0.00, -1.00, 275.1, 738.9)">e</text><text xml:space="preserve" font-family="Menlo-Regular,Menlo" font-size="35.0" fill="#08FA95" transform="matrix(1.00, 0.00, -0.00, -1.00, 296.1, 738.9)">l</text><text xml:space="preserve" font-family="Menlo-Regular,Menlo" font-size="35.0" fill="#08FA95" transform="matrix(1.00, 0.00, -0.00, -1.00, 317.2, 738.9)">l</text><text xml:space="preserve" font-family="Menlo-Regular,Menlo" font-size="35.0" fill="#08FA95" transform="matrix(1.00, 0.00, -0.00, -1.00, 338.3, 738.9)">o</text><text xml:space="preserve" font-family="Menlo-Regular,Menlo" font-size="35.0" fill="#FFFFFF" transform="matrix(1.00, 0.00, -0.00, -1.00, 359.4, 738.9)">(</text><text xml:space="preserve" font-family="Menlo-Regular,Menlo" font-size="35.0" fill="#FF4647" transform="matrix(1.00, 0.00, -0.00, -1.00, 380.4, 738.9)">"</text><text xml:space="preserve" font-family="Menlo-Regular,Menlo" font-size="35.0" fill="#FF4647" transform="matrix(1.00, 0.00, -0.00, -1.00, 401.5, 738.9)">I</text><text xml:space="preserve" font-family="Menlo-Regular,Menlo" font-size="35.0" fill="#FF4647" transform="matrix(1.00, 0.00, -0.00, -1.00, 422.6, 738.9)">s</text><text xml:space="preserve" font-family="Menlo-Regular,Menlo" font-size="35.0" fill="#FF4647" transform="matrix(1.00, 0.00, -0.00, -1.00, 443.7, 738.9)">a</text><text xml:space="preserve" font-family="Menlo-Regular,Menlo" font-size="35.0" fill="#FF4647" transform="matrix(1.00, 0.00, -0.00, -1.00, 464.7, 738.9)">b</text><text xml:space="preserve" font-family="Menlo-Regular,Menlo" font-size="35.0" fill="#FF4647" transform="matrix(1.00, 0.00, -0.00, -1.00, 485.8, 738.9)">e</text><text xml:space="preserve" font-family="Menlo-Regular,Menlo" font-size="35.0" fill="#FF4647" transform="matrix(1.00, 0.00, -0.00, -1.00, 506.9, 738.9)">l</text><text xml:space="preserve" font-family="Menlo-Regular,Menlo" font-size="35.0" fill="#FF4647" transform="matrix(1.00, 0.00, -0.00, -1.00, 528.0, 738.9)">"</text><text xml:space="preserve" font-family="Menlo-Regular,Menlo" font-size="35.0" fill="#FFFFFF" transform="matrix(1.00, 0.00, -0.00, -1.00, 549.0, 738.9)">,</text><text xml:space="preserve" font-family="Menlo-Regular,Menlo" font-size="35.0" fill="#FFFFFF" transform="matrix(1.00, 0.00, -0.00, -1.00, 570.1, 738.9)"> </text><text xml:space="preserve" font-family="Menlo-Regular,Menlo" font-size="35.0" fill="#FF4647" transform="matrix(1.00, 0.00, -0.00, -1.00, 591.1, 738.9)">"</text><text xml:space="preserve" font-family="Menlo-Regular,Menlo" font-size="35.0" fill="#FF4647" transform="matrix(1.00, 0.00, -0.00, -1.00, 612.2, 738.9)">D</text><text xml:space="preserve" font-family="Menlo-Regular,Menlo" font-size="35.0" fill="#FF4647" transform="matrix(1.00, 0.00, -0.00, -1.00, 633.3, 738.9)">u</text><text xml:space="preserve" font-family="Menlo-Regular,Menlo" font-size="35.0" fill="#FF4647" transform="matrix(1.00, 0.00, -0.00, -1.00, 654.4, 738.9)">p</text><text xml:space="preserve" font-family="Menlo-Regular,Menlo" font-size="35.0" fill="#FF4647" transform="matrix(1.00, 0.00, -0.00, -1.00, 675.4, 738.9)">o</text><text xml:space="preserve" font-family="Menlo-Regular,Menlo" font-size="35.0" fill="#FF4647" transform="matrix(1.00, 0.00, -0.00, -1.00, 696.5, 738.9)">n</text><text xml:space="preserve" font-family="Menlo-Regular,Menlo" font-size="35.0" fill="#FF4647" transform="matrix(1.00, 0.00, -0.00, -1.00, 717.6, 738.9)">t</text><text xml:space="preserve" font-family="Menlo-Regular,Menlo" font-size="35.0" fill="#FF4647" transform="matrix(1.00, 0.00, -0.00, -1.00, 738.7, 738.9)">"</text><text xml:space="preserve" font-family="Menlo-Regular,Menlo" font-size="35.0" fill="#FFFFFF" transform="matrix(1.00, 0.00, -0.00, -1.00, 759.7, 738.9)">)</text></g></g><text xml:space="preserve" font-family="Courier,Courier" font-size="94.0" fill="#FEFFFF" transform="matrix(1.00, 0.00, -0.00, -1.00, 256.8, 978.6)">F</text><text xml:space="preserve" font-family="Courier,Courier" font-size="94.0" fill="#FEFFFF" transform="matrix(1.00, 0.00, -0.00, -1.00, 313.2, 978.6)">u</text><text xml:space="preserve" font-family="Courier,Courier" font-size="94.0" fill="#FEFFFF" transform="matrix(1.00, 0.00, -0.00, -1.00, 369.7, 978.6)">n</text><text xml:space="preserve" font-family="Courier,Courier" font-size="94.0" fill="#FEFFFF" transform="matrix(1.00, 0.00, -0.00, -1.00, 426.1, 978.6)">c</text><text xml:space="preserve" font-family="Courier,Courier" font-size="94.0" fill="#FEFFFF" transform="matrix(1.00, 0.00, -0.00, -1.00, 482.5, 978.6)">t</text><text xml:space="preserve" font-family="Courier,Courier" font-size="94.0" fill="#FEFFFF" transform="matrix(1.00, 0.00, -0.00, -1.00, 538.9, 978.6)">i</text><text xml:space="preserve" font-family="Courier,Courier" font-size="94.0" fill="#FEFFFF" transform="matrix(1.00, 0.00, -0.00, -1.00, 595.3, 978.6)">o</text><text xml:space="preserve" font-family="Courier,Courier" font-size="94.0" fill="#FEFFFF" transform="matrix(1.00, 0.00, -0.00, -1.00, 651.8, 978.6)">n</text><text xml:space="preserve" font-family="Courier,Courier" font-size="94.0" fill="#FEFFFF" transform="matrix(1.00, 0.00, -0.00, -1.00, 708.2, 978.6)">s</text></g></svg>