<?xml version="1.0" encoding="UTF-8" standalone="no"?><svg xmlns="http://www.w3.org/2000/svg" xmlns:xlink="http://www.w3.org/1999/xlink" clip-rule="evenodd" stroke-miterlimit="10" viewBox="0 0 796 359"><desc>SVG generated by Keynote</desc><defs></defs><g transform="matrix(1.00, 0.00, -0.00, -1.00, 0.0, 359.0)"><text xml:space="preserve" font-family="Menlo-Regular,Menlo" font-size="35.0" fill="#DD38A5" transform="matrix(1.00, 0.00, -0.00, -1.00, 0.4, 328.0)">l</text><text xml:space="preserve" font-family="Menlo-Regular,Menlo" font-size="35.0" fill="#DD38A5" transform="matrix(1.00, 0.00, -0.00, -1.00, 21.4, 328.0)">e</text><text xml:space="preserve" font-family="Menlo-Regular,Menlo" font-size="35.0" fill="#DD38A5" transform="matrix(1.00, 0.00, -0.00, -1.00, 42.5, 328.0)">t</text><text xml:space="preserve" font-family="Menlo-Regular,Menlo" font-size="35.0" fill="#FFFFFF" transform="matrix(1.00, 0.00, -0.00, -1.00, 63.6, 328.0)"> </text><text xml:space="preserve" font-family="Menlo-Regular,Menlo" font-size="35.0" fill="#FFFFFF" transform="matrix(1.00, 0.00, -0.00, -1.00, 84.6, 328.0)">s</text><text xml:space="preserve" font-family="Menlo-Regular,Menlo" font-size="35.0" fill="#FFFFFF" transform="matrix(1.00, 0.00, -0.00, -1.00, 105.7, 328.0)">u</text><text xml:space="preserve" font-family="Menlo-Regular,Menlo" font-size="35.0" fill="#FFFFFF" transform="matrix(1.00, 0.00, -0.00, -1.00, 126.8, 328.0)">c</text><text xml:space="preserve" font-family="Menlo-Regular,Menlo" font-size="35.0" fill="#FFFFFF" transform="matrix(1.00, 0.00, -0.00, -1.00, 147.9, 328.0)">c</text><text xml:space="preserve" font-family="Menlo-Regular,Menlo" font-size="35.0" fill="#FFFFFF" transform="matrix(1.00, 0.00, -0.00, -1.00, 168.9, 328.0)">e</text><text xml:space="preserve" font-family="Menlo-Regular,Menlo" font-size="35.0" fill="#FFFFFF" transform="matrix(1.00, 0.00, -0.00, -1.00, 190.0, 328.0)">s</text><text xml:space="preserve" font-family="Menlo-Regular,Menlo" font-size="35.0" fill="#FFFFFF" transform="matrix(1.00, 0.00, -0.00, -1.00, 211.1, 328.0)">s</text><text xml:space="preserve" font-family="Menlo-Regular,Menlo" font-size="35.0" fill="#FFFFFF" transform="matrix(1.00, 0.00, -0.00, -1.00, 232.2, 328.0)"> </text><text xml:space="preserve" font-family="Menlo-Regular,Menlo" font-size="35.0" fill="#FFFFFF" transform="matrix(1.00, 0.00, -0.00, -1.00, 253.2, 328.0)">=</text><text xml:space="preserve" font-family="Menlo-Regular,Menlo" font-size="35.0" fill="#FFFFFF" transform="matrix(1.00, 0.00, -0.00, -1.00, 274.3, 328.0)"> </text><text xml:space="preserve" font-family="Menlo-Regular,Menlo" font-size="35.0" fill="#FFFFFF" transform="matrix(1.00, 0.00, -0.00, -1.00, 295.4, 328.0)">{</text><text xml:space="preserve" font-family="Menlo-Regular,Menlo" font-size="35.0" fill="#FFFFFF" transform="matrix(1.00, 0.00, -0.00, -1.00, 316.5, 328.0)"> </text><text xml:space="preserve" font-family="Menlo-Regular,Menlo" font-size="35.0" fill="#FFFFFF" transform="matrix(1.00, 0.00, -0.00, -1.00, 337.6, 328.0)">(</text><text xml:space="preserve" font-family="Menlo-Regular,Menlo" font-size="35.0" fill="#FFFFFF" transform="matrix(1.00, 0.00, -0.00, -1.00, 358.6, 328.0)">r</text><text xml:space="preserve" font-family="Menlo-Regular,Menlo" font-size="35.0" fill="#FFFFFF" transform="matrix(1.00, 0.00, -0.00, -1.00, 379.7, 328.0)">e</text><text xml:space="preserve" font-family="Menlo-Regular,Menlo" font-size="35.0" fill="#FFFFFF" transform="matrix(1.00, 0.00, -0.00, -1.00, 400.8, 328.0)">s</text><text xml:space="preserve" font-family="Menlo-Regular,Menlo" font-size="35.0" fill="#FFFFFF" transform="matrix(1.00, 0.00, -0.00, -1.00, 421.9, 328.0)">:</text><text xml:space="preserve" font-family="Menlo-Regular,Menlo" font-size="35.0" fill="#FFFFFF" transform="matrix(1.00, 0.00, -0.00, -1.00, 442.9, 328.0)"> </text><text xml:space="preserve" font-family="Menlo-Regular,Menlo" font-size="35.0" fill="#08FA95" transform="matrix(1.00, 0.00, -0.00, -1.00, 463.9, 328.0)">A</text><text xml:space="preserve" font-family="Menlo-Regular,Menlo" font-size="35.0" fill="#FFFFFF" transform="matrix(1.00, 0.00, -0.00, -1.00, 485.0, 328.0)">)</text><text xml:space="preserve" font-family="Menlo-Regular,Menlo" font-size="35.0" fill="#FFFFFF" transform="matrix(1.00, 0.00, -0.00, -1.00, 506.1, 328.0)"> </text><text xml:space="preserve" font-family="Menlo-Regular,Menlo" font-size="35.0" fill="#FFFFFF" transform="matrix(1.00, 0.00, -0.00, -1.00, 527.2, 328.0)">-</text><text xml:space="preserve" font-family="Menlo-Regular,Menlo" font-size="35.0" fill="#FFFFFF" transform="matrix(1.00, 0.00, -0.00, -1.00, 548.2, 328.0)">&gt;</text><text xml:space="preserve" font-family="Menlo-Regular,Menlo" font-size="35.0" fill="#FFFFFF" transform="matrix(1.00, 0.00, -0.00, -1.00, 569.3, 328.0)"> </text><text xml:space="preserve" font-family="Menlo-Regular,Menlo" font-size="35.0" fill="#FFFFFF" transform="matrix(1.00, 0.00, -0.00, -1.00, 590.4, 328.0)">(</text><text xml:space="preserve" font-family="Menlo-Regular,Menlo" font-size="35.0" fill="#FFFFFF" transform="matrix(1.00, 0.00, -0.00, -1.00, 611.5, 328.0)">)</text><text xml:space="preserve" font-family="Menlo-Regular,Menlo" font-size="35.0" fill="#FFFFFF" transform="matrix(1.00, 0.00, -0.00, -1.00, 632.5, 328.0)"> </text><text xml:space="preserve" font-family="Menlo-Regular,Menlo" font-size="35.0" fill="#DD38A5" transform="matrix(1.00, 0.00, -0.00, -1.00, 653.6, 328.0)">i</text><text xml:space="preserve" font-family="Menlo-Regular,Menlo" font-size="35.0" fill="#DD38A5" transform="matrix(1.00, 0.00, -0.00, -1.00, 674.7, 328.0)">n</text><text xml:space="preserve" font-family="Menlo-Regular,Menlo" font-size="35.0" fill="#FFFFFF" transform="matrix(1.00, 0.00, -0.00, -1.00, 695.7, 328.0)"> </text><text xml:space="preserve" font-family="Menlo-Regular,Menlo" font-size="35.0" fill="#FFFFFF" transform="matrix(1.00, 0.00, -0.00, -1.00, 0.4, 288.0)"> </text><text xml:space="preserve" font-family="Menlo-Regular,Menlo" font-size="35.0" fill="#FFFFFF" transform="matrix(1.00, 0.00, -0.00, -1.00, 21.4, 288.0)"> </text><text xml:space="preserve" font-family="Menlo-Regular,Menlo" font-size="35.0" fill="#FFFFFF" transform="matrix(1.00, 0.00, -0.00, -1.00, 42.5, 288.0)"> </text><text xml:space="preserve" font-family="Menlo-Regular,Menlo" font-size="35.0" fill="#FFFFFF" transform="matrix(1.00, 0.00, -0.00, -1.00, 63.6, 288.0)"> </text><text xml:space="preserve" font-family="Menlo-Regular,Menlo" font-size="35.0" fill="#00B1FF" transform="matrix(1.00, 0.00, -0.00, -1.00, 84.6, 288.0)">p</text><text xml:space="preserve" font-family="Menlo-Regular,Menlo" font-size="35.0" fill="#00B1FF" transform="matrix(1.00, 0.00, -0.00, -1.00, 105.7, 288.0)">r</text><text xml:space="preserve" font-family="Menlo-Regular,Menlo" font-size="35.0" fill="#00B1FF" transform="matrix(1.00, 0.00, -0.00, -1.00, 126.8, 288.0)">i</text><text xml:space="preserve" font-family="Menlo-Regular,Menlo" font-size="35.0" fill="#00B1FF" transform="matrix(1.00, 0.00, -0.00, -1.00, 147.9, 288.0)">n</text><text xml:space="preserve" font-family="Menlo-Regular,Menlo" font-size="35.0" fill="#00B1FF" transform="matrix(1.00, 0.00, -0.00, -1.00, 168.9, 288.0)">t</text><text xml:space="preserve" font-family="Menlo-Regular,Menlo" font-size="35.0" fill="#00B1FF" transform="matrix(1.00, 0.00, -0.00, -1.00, 190.0, 288.0)">l</text><text xml:space="preserve" font-family="Menlo-Regular,Menlo" font-size="35.0" fill="#00B1FF" transform="matrix(1.00, 0.00, -0.00, -1.00, 211.1, 288.0)">n</text><text xml:space="preserve" font-family="Menlo-Regular,Menlo" font-size="35.0" fill="#FFFFFF" transform="matrix(1.00, 0.00, -0.00, -1.00, 232.1, 288.0)">(</text><text xml:space="preserve" font-family="Menlo-Regular,Menlo" font-size="35.0" fill="#FF4647" transform="matrix(1.00, 0.00, -0.00, -1.00, 253.2, 288.0)">"</text><text xml:space="preserve" font-family="Menlo-Regular,Menlo" font-size="35.0" fill="#FF4647" transform="matrix(1.00, 0.00, -0.00, -1.00, 274.3, 288.0)">s</text><text xml:space="preserve" font-family="Menlo-Regular,Menlo" font-size="35.0" fill="#FF4647" transform="matrix(1.00, 0.00, -0.00, -1.00, 295.4, 288.0)">u</text><text xml:space="preserve" font-family="Menlo-Regular,Menlo" font-size="35.0" fill="#FF4647" transform="matrix(1.00, 0.00, -0.00, -1.00, 316.4, 288.0)">c</text><text xml:space="preserve" font-family="Menlo-Regular,Menlo" font-size="35.0" fill="#FF4647" transform="matrix(1.00, 0.00, -0.00, -1.00, 337.5, 288.0)">c</text><text xml:space="preserve" font-family="Menlo-Regular,Menlo" font-size="35.0" fill="#FF4647" transform="matrix(1.00, 0.00, -0.00, -1.00, 358.6, 288.0)">e</text><text xml:space="preserve" font-family="Menlo-Regular,Menlo" font-size="35.0" fill="#FF4647" transform="matrix(1.00, 0.00, -0.00, -1.00, 379.7, 288.0)">e</text><text xml:space="preserve" font-family="Menlo-Regular,Menlo" font-size="35.0" fill="#FF4647" transform="matrix(1.00, 0.00, -0.00, -1.00, 400.7, 288.0)">d</text><text xml:space="preserve" font-family="Menlo-Regular,Menlo" font-size="35.0" fill="#FF4647" transform="matrix(1.00, 0.00, -0.00, -1.00, 421.8, 288.0)">e</text><text xml:space="preserve" font-family="Menlo-Regular,Menlo" font-size="35.0" fill="#FF4647" transform="matrix(1.00, 0.00, -0.00, -1.00, 442.9, 288.0)">d</text><text xml:space="preserve" font-family="Menlo-Regular,Menlo" font-size="35.0" fill="#FF4647" transform="matrix(1.00, 0.00, -0.00, -1.00, 464.0, 288.0)">"</text><text xml:space="preserve" font-family="Menlo-Regular,Menlo" font-size="35.0" fill="#FFFFFF" transform="matrix(1.00, 0.00, -0.00, -1.00, 485.0, 288.0)">)</text><text xml:space="preserve" font-family="Menlo-Regular,Menlo" font-size="35.0" fill="#FFFFFF" transform="matrix(1.00, 0.00, -0.00, -1.00, 506.1, 288.0)"> </text><text xml:space="preserve" font-family="Menlo-Regular,Menlo" font-size="35.0" fill="#FFFFFF" transform="matrix(1.00, 0.00, -0.00, -1.00, 0.4, 248.0)">}</text><text xml:space="preserve" font-family="Menlo-Regular,Menlo" font-size="35.0" fill="#FFFFFF" transform="matrix(1.00, 0.00, -0.00, -1.00, 21.4, 248.0)"> </text><text xml:space="preserve" font-family="Menlo-Regular,Menlo" font-size="35.0" fill="#DD38A5" transform="matrix(1.00, 0.00, -0.00, -1.00, 0.4, 208.0)">l</text><text xml:space="preserve" font-family="Menlo-Regular,Menlo" font-size="35.0" fill="#DD38A5" transform="matrix(1.00, 0.00, -0.00, -1.00, 21.4, 208.0)">e</text><text xml:space="preserve" font-family="Menlo-Regular,Menlo" font-size="35.0" fill="#DD38A5" transform="matrix(1.00, 0.00, -0.00, -1.00, 42.5, 208.0)">t</text><text xml:space="preserve" font-family="Menlo-Regular,Menlo" font-size="35.0" fill="#FFFFFF" transform="matrix(1.00, 0.00, -0.00, -1.00, 63.6, 208.0)"> </text><text xml:space="preserve" font-family="Menlo-Regular,Menlo" font-size="35.0" fill="#FFFFFF" transform="matrix(1.00, 0.00, -0.00, -1.00, 84.6, 208.0)">f</text><text xml:space="preserve" font-family="Menlo-Regular,Menlo" font-size="35.0" fill="#FFFFFF" transform="matrix(1.00, 0.00, -0.00, -1.00, 105.7, 208.0)">a</text><text xml:space="preserve" font-family="Menlo-Regular,Menlo" font-size="35.0" fill="#FFFFFF" transform="matrix(1.00, 0.00, -0.00, -1.00, 126.8, 208.0)">i</text><text xml:space="preserve" font-family="Menlo-Regular,Menlo" font-size="35.0" fill="#FFFFFF" transform="matrix(1.00, 0.00, -0.00, -1.00, 147.9, 208.0)">l</text><text xml:space="preserve" font-family="Menlo-Regular,Menlo" font-size="35.0" fill="#FFFFFF" transform="matrix(1.00, 0.00, -0.00, -1.00, 168.9, 208.0)">u</text><text xml:space="preserve" font-family="Menlo-Regular,Menlo" font-size="35.0" fill="#FFFFFF" transform="matrix(1.00, 0.00, -0.00, -1.00, 190.0, 208.0)">r</text><text xml:space="preserve" font-family="Menlo-Regular,Menlo" font-size="35.0" fill="#FFFFFF" transform="matrix(1.00, 0.00, -0.00, -1.00, 211.1, 208.0)">e</text><text xml:space="preserve" font-family="Menlo-Regular,Menlo" font-size="35.0" fill="#FFFFFF" transform="matrix(1.00, 0.00, -0.00, -1.00, 232.2, 208.0)"> </text><text xml:space="preserve" font-family="Menlo-Regular,Menlo" font-size="35.0" fill="#FFFFFF" transform="matrix(1.00, 0.00, -0.00, -1.00, 253.2, 208.0)">=</text><text xml:space="preserve" font-family="Menlo-Regular,Menlo" font-size="35.0" fill="#FFFFFF" transform="matrix(1.00, 0.00, -0.00, -1.00, 274.3, 208.0)"> </text><text xml:space="preserve" font-family="Menlo-Regular,Menlo" font-size="35.0" fill="#FFFFFF" transform="matrix(1.00, 0.00, -0.00, -1.00, 295.4, 208.0)">{</text><text xml:space="preserve" font-family="Menlo-Regular,Menlo" font-size="35.0" fill="#FFFFFF" transform="matrix(1.00, 0.00, -0.00, -1.00, 316.5, 208.0)"> </text><text xml:space="preserve" font-family="Menlo-Regular,Menlo" font-size="35.0" fill="#FFFFFF" transform="matrix(1.00, 0.00, -0.00, -1.00, 337.6, 208.0)">(</text><text xml:space="preserve" font-family="Menlo-Regular,Menlo" font-size="35.0" fill="#FFFFFF" transform="matrix(1.00, 0.00, -0.00, -1.00, 358.6, 208.0)">r</text><text xml:space="preserve" font-family="Menlo-Regular,Menlo" font-size="35.0" fill="#FFFFFF" transform="matrix(1.00, 0.00, -0.00, -1.00, 379.7, 208.0)">e</text><text xml:space="preserve" font-family="Menlo-Regular,Menlo" font-size="35.0" fill="#FFFFFF" transform="matrix(1.00, 0.00, -0.00, -1.00, 400.8, 208.0)">s</text><text xml:space="preserve" font-family="Menlo-Regular,Menlo" font-size="35.0" fill="#FFFFFF" transform="matrix(1.00, 0.00, -0.00, -1.00, 421.9, 208.0)">:</text><text xml:space="preserve" font-family="Menlo-Regular,Menlo" font-size="35.0" fill="#FFFFFF" transform="matrix(1.00, 0.00, -0.00, -1.00, 442.9, 208.0)"> </text><text xml:space="preserve" font-family="Menlo-Regular,Menlo" font-size="35.0" fill="#08FA95" transform="matrix(1.00, 0.00, -0.00, -1.00, 463.9, 208.0)">A</text><text xml:space="preserve" font-family="Menlo-Regular,Menlo" font-size="35.0" fill="#FFFFFF" transform="matrix(1.00, 0.00, -0.00, -1.00, 485.0, 208.0)">)</text><text xml:space="preserve" font-family="Menlo-Regular,Menlo" font-size="35.0" fill="#FFFFFF" transform="matrix(1.00, 0.00, -0.00, -1.00, 506.1, 208.0)"> </text><text xml:space="preserve" font-family="Menlo-Regular,Menlo" font-size="35.0" fill="#FFFFFF" transform="matrix(1.00, 0.00, -0.00, -1.00, 527.2, 208.0)">-</text><text xml:space="preserve" font-family="Menlo-Regular,Menlo" font-size="35.0" fill="#FFFFFF" transform="matrix(1.00, 0.00, -0.00, -1.00, 548.2, 208.0)">&gt;</text><text xml:space="preserve" font-family="Menlo-Regular,Menlo" font-size="35.0" fill="#FFFFFF" transform="matrix(1.00, 0.00, -0.00, -1.00, 569.3, 208.0)"> </text><text xml:space="preserve" font-family="Menlo-Regular,Menlo" font-size="35.0" fill="#FFFFFF" transform="matrix(1.00, 0.00, -0.00, -1.00, 590.4, 208.0)">(</text><text xml:space="preserve" font-family="Menlo-Regular,Menlo" font-size="35.0" fill="#FFFFFF" transform="matrix(1.00, 0.00, -0.00, -1.00, 611.5, 208.0)">)</text><text xml:space="preserve" font-family="Menlo-Regular,Menlo" font-size="35.0" fill="#FFFFFF" transform="matrix(1.00, 0.00, -0.00, -1.00, 632.5, 208.0)"> </text><text xml:space="preserve" font-family="Menlo-Regular,Menlo" font-size="35.0" fill="#DD38A5" transform="matrix(1.00, 0.00, -0.00, -1.00, 653.6, 208.0)">i</text><text xml:space="preserve" font-family="Menlo-Regular,Menlo" font-size="35.0" fill="#DD38A5" transform="matrix(1.00, 0.00, -0.00, -1.00, 674.7, 208.0)">n</text><text xml:space="preserve" font-family="Menlo-Regular,Menlo" font-size="35.0" fill="#FFFFFF" transform="matrix(1.00, 0.00, -0.00, -1.00, 695.7, 208.0)"> </text><text xml:space="preserve" font-family="Menlo-Regular,Menlo" font-size="35.0" fill="#FFFFFF" transform="matrix(1.00, 0.00, -0.00, -1.00, 0.4, 168.0)"> </text><text xml:space="preserve" font-family="Menlo-Regular,Menlo" font-size="35.0" fill="#FFFFFF" transform="matrix(1.00, 0.00, -0.00, -1.00, 21.4, 168.0)"> </text><text xml:space="preserve" font-family="Menlo-Regular,Menlo" font-size="35.0" fill="#FFFFFF" transform="matrix(1.00, 0.00, -0.00, -1.00, 42.5, 168.0)"> </text><text xml:space="preserve" font-family="Menlo-Regular,Menlo" font-size="35.0" fill="#FFFFFF" transform="matrix(1.00, 0.00, -0.00, -1.00, 63.6, 168.0)"> </text><text xml:space="preserve" font-family="Menlo-Regular,Menlo" font-size="35.0" fill="#00B1FF" transform="matrix(1.00, 0.00, -0.00, -1.00, 84.6, 168.0)">p</text><text xml:space="preserve" font-family="Menlo-Regular,Menlo" font-size="35.0" fill="#00B1FF" transform="matrix(1.00, 0.00, -0.00, -1.00, 105.7, 168.0)">r</text><text xml:space="preserve" font-family="Menlo-Regular,Menlo" font-size="35.0" fill="#00B1FF" transform="matrix(1.00, 0.00, -0.00, -1.00, 126.8, 168.0)">i</text><text xml:space="preserve" font-family="Menlo-Regular,Menlo" font-size="35.0" fill="#00B1FF" transform="matrix(1.00, 0.00, -0.00, -1.00, 147.9, 168.0)">n</text><text xml:space="preserve" font-family="Menlo-Regular,Menlo" font-size="35.0" fill="#00B1FF" transform="matrix(1.00, 0.00, -0.00, -1.00, 168.9, 168.0)">t</text><text xml:space="preserve" font-family="Menlo-Regular,Menlo" font-size="35.0" fill="#00B1FF" transform="matrix(1.00, 0.00, -0.00, -1.00, 190.0, 168.0)">l</text><text xml:space="preserve" font-family="Menlo-Regular,Menlo" font-size="35.0" fill="#00B1FF" transform="matrix(1.00, 0.00, -0.00, -1.00, 211.1, 168.0)">n</text><text xml:space="preserve" font-family="Menlo-Regular,Menlo" font-size="35.0" fill="#FFFFFF" transform="matrix(1.00, 0.00, -0.00, -1.00, 232.1, 168.0)">(</text><text xml:space="preserve" font-family="Menlo-Regular,Menlo" font-size="35.0" fill="#FF4647" transform="matrix(1.00, 0.00, -0.00, -1.00, 253.2, 168.0)">"</text><text xml:space="preserve" font-family="Menlo-Regular,Menlo" font-size="35.0" fill="#FF4647" transform="matrix(1.00, 0.00, -0.00, -1.00, 274.3, 168.0)">F</text><text xml:space="preserve" font-family="Menlo-Regular,Menlo" font-size="35.0" fill="#FF4647" transform="matrix(1.00, 0.00, -0.00, -1.00, 295.4, 168.0)">H</text><text xml:space="preserve" font-family="Menlo-Regular,Menlo" font-size="35.0" fill="#FF4647" transform="matrix(1.00, 0.00, -0.00, -1.00, 316.4, 168.0)"> </text><text xml:space="preserve" font-family="Menlo-Regular,Menlo" font-size="35.0" fill="#FF4647" transform="matrix(1.00, 0.00, -0.00, -1.00, 337.5, 168.0)">i</text><text xml:space="preserve" font-family="Menlo-Regular,Menlo" font-size="35.0" fill="#FF4647" transform="matrix(1.00, 0.00, -0.00, -1.00, 358.6, 168.0)">n</text><text xml:space="preserve" font-family="Menlo-Regular,Menlo" font-size="35.0" fill="#FF4647" transform="matrix(1.00, 0.00, -0.00, -1.00, 379.7, 168.0)">i</text><text xml:space="preserve" font-family="Menlo-Regular,Menlo" font-size="35.0" fill="#FF4647" transform="matrix(1.00, 0.00, -0.00, -1.00, 400.7, 168.0)">t</text><text xml:space="preserve" font-family="Menlo-Regular,Menlo" font-size="35.0" fill="#FF4647" transform="matrix(1.00, 0.00, -0.00, -1.00, 421.8, 168.0)"> </text><text xml:space="preserve" font-family="Menlo-Regular,Menlo" font-size="35.0" fill="#FF4647" transform="matrix(1.00, 0.00, -0.00, -1.00, 442.9, 168.0)">f</text><text xml:space="preserve" font-family="Menlo-Regular,Menlo" font-size="35.0" fill="#FF4647" transform="matrix(1.00, 0.00, -0.00, -1.00, 464.0, 168.0)">a</text><text xml:space="preserve" font-family="Menlo-Regular,Menlo" font-size="35.0" fill="#FF4647" transform="matrix(1.00, 0.00, -0.00, -1.00, 485.0, 168.0)">i</text><text xml:space="preserve" font-family="Menlo-Regular,Menlo" font-size="35.0" fill="#FF4647" transform="matrix(1.00, 0.00, -0.00, -1.00, 506.1, 168.0)">l</text><text xml:space="preserve" font-family="Menlo-Regular,Menlo" font-size="35.0" fill="#FF4647" transform="matrix(1.00, 0.00, -0.00, -1.00, 527.2, 168.0)">e</text><text xml:space="preserve" font-family="Menlo-Regular,Menlo" font-size="35.0" fill="#FF4647" transform="matrix(1.00, 0.00, -0.00, -1.00, 548.3, 168.0)">d</text><text xml:space="preserve" font-family="Menlo-Regular,Menlo" font-size="35.0" fill="#FF4647" transform="matrix(1.00, 0.00, -0.00, -1.00, 569.3, 168.0)">"</text><text xml:space="preserve" font-family="Menlo-Regular,Menlo" font-size="35.0" fill="#FFFFFF" transform="matrix(1.00, 0.00, -0.00, -1.00, 590.4, 168.0)">)</text><text xml:space="preserve" font-family="Menlo-Regular,Menlo" font-size="35.0" fill="#FFFFFF" transform="matrix(1.00, 0.00, -0.00, -1.00, 611.4, 168.0)"> </text><text xml:space="preserve" font-family="Menlo-Regular,Menlo" font-size="35.0" fill="#FFFFFF" transform="matrix(1.00, 0.00, -0.00, -1.00, 632.5, 168.0)"> </text><text xml:space="preserve" font-family="Menlo-Regular,Menlo" font-size="35.0" fill="#FFFFFF" transform="matrix(1.00, 0.00, -0.00, -1.00, 653.6, 168.0)"> </text><text xml:space="preserve" font-family="Menlo-Regular,Menlo" font-size="35.0" fill="#FFFFFF" transform="matrix(1.00, 0.00, -0.00, -1.00, 0.4, 128.0)">}</text><text xml:space="preserve" font-family="Menlo-Regular,Menlo" font-size="35.0" fill="#FFFFFF" transform="matrix(1.00, 0.00, -0.00, -1.00, 21.4, 128.0)"> </text><text xml:space="preserve" font-family="Menlo-Regular,Menlo" font-size="35.0" fill="#FFFFFF" transform="matrix(1.00, 0.00, -0.00, -1.00, 0.4, 8.0)">F</text><text xml:space="preserve" font-family="Menlo-Regular,Menlo" font-size="35.0" fill="#FFFFFF" transform="matrix(1.00, 0.00, -0.00, -1.00, 21.4, 8.0)">H</text><text xml:space="preserve" font-family="Menlo-Regular,Menlo" font-size="35.0" fill="#FFFFFF" transform="matrix(1.00, 0.00, -0.00, -1.00, 42.5, 8.0)">(</text><text xml:space="preserve" font-family="Menlo-Regular,Menlo" font-size="35.0" fill="#FFFFFF" transform="matrix(1.00, 0.00, -0.00, -1.00, 63.6, 8.0)">s</text><text xml:space="preserve" font-family="Menlo-Regular,Menlo" font-size="35.0" fill="#FFFFFF" transform="matrix(1.00, 0.00, -0.00, -1.00, 84.7, 8.0)">u</text><text xml:space="preserve" font-family="Menlo-Regular,Menlo" font-size="35.0" fill="#FFFFFF" transform="matrix(1.00, 0.00, -0.00, -1.00, 105.7, 8.0)">c</text><text xml:space="preserve" font-family="Menlo-Regular,Menlo" font-size="35.0" fill="#FFFFFF" transform="matrix(1.00, 0.00, -0.00, -1.00, 126.8, 8.0)">c</text><text xml:space="preserve" font-family="Menlo-Regular,Menlo" font-size="35.0" fill="#FFFFFF" transform="matrix(1.00, 0.00, -0.00, -1.00, 147.9, 8.0)">e</text><text xml:space="preserve" font-family="Menlo-Regular,Menlo" font-size="35.0" fill="#FFFFFF" transform="matrix(1.00, 0.00, -0.00, -1.00, 169.0, 8.0)">s</text><text xml:space="preserve" font-family="Menlo-Regular,Menlo" font-size="35.0" fill="#FFFFFF" transform="matrix(1.00, 0.00, -0.00, -1.00, 190.0, 8.0)">s</text><text xml:space="preserve" font-family="Menlo-Regular,Menlo" font-size="35.0" fill="#FFFFFF" transform="matrix(1.00, 0.00, -0.00, -1.00, 211.1, 8.0)">:</text><text xml:space="preserve" font-family="Menlo-Regular,Menlo" font-size="35.0" fill="#FFFFFF" transform="matrix(1.00, 0.00, -0.00, -1.00, 232.2, 8.0)"> </text><text xml:space="preserve" font-family="Menlo-Regular,Menlo" font-size="35.0" fill="#08FA95" transform="matrix(1.00, 0.00, -0.00, -1.00, 253.2, 8.0)">s</text><text xml:space="preserve" font-family="Menlo-Regular,Menlo" font-size="35.0" fill="#08FA95" transform="matrix(1.00, 0.00, -0.00, -1.00, 274.3, 8.0)">u</text><text xml:space="preserve" font-family="Menlo-Regular,Menlo" font-size="35.0" fill="#08FA95" transform="matrix(1.00, 0.00, -0.00, -1.00, 295.4, 8.0)">c</text><text xml:space="preserve" font-family="Menlo-Regular,Menlo" font-size="35.0" fill="#08FA95" transform="matrix(1.00, 0.00, -0.00, -1.00, 316.4, 8.0)">c</text><text xml:space="preserve" font-family="Menlo-Regular,Menlo" font-size="35.0" fill="#08FA95" transform="matrix(1.00, 0.00, -0.00, -1.00, 337.5, 8.0)">e</text><text xml:space="preserve" font-family="Menlo-Regular,Menlo" font-size="35.0" fill="#08FA95" transform="matrix(1.00, 0.00, -0.00, -1.00, 358.6, 8.0)">s</text><text xml:space="preserve" font-family="Menlo-Regular,Menlo" font-size="35.0" fill="#08FA95" transform="matrix(1.00, 0.00, -0.00, -1.00, 379.7, 8.0)">s</text><text xml:space="preserve" font-family="Menlo-Regular,Menlo" font-size="35.0" fill="#FFFFFF" transform="matrix(1.00, 0.00, -0.00, -1.00, 400.7, 8.0)">,</text><text xml:space="preserve" font-family="Menlo-Regular,Menlo" font-size="35.0" fill="#FFFFFF" transform="matrix(1.00, 0.00, -0.00, -1.00, 421.8, 8.0)"> </text><text xml:space="preserve" font-family="Menlo-Regular,Menlo" font-size="35.0" fill="#FFFFFF" transform="matrix(1.00, 0.00, -0.00, -1.00, 442.9, 8.0)">f</text><text xml:space="preserve" font-family="Menlo-Regular,Menlo" font-size="35.0" fill="#FFFFFF" transform="matrix(1.00, 0.00, -0.00, -1.00, 463.9, 8.0)">a</text><text xml:space="preserve" font-family="Menlo-Regular,Menlo" font-size="35.0" fill="#FFFFFF" transform="matrix(1.00, 0.00, -0.00, -1.00, 485.0, 8.0)">i</text><text xml:space="preserve" font-family="Menlo-Regular,Menlo" font-size="35.0" fill="#FFFFFF" transform="matrix(1.00, 0.00, -0.00, -1.00, 506.1, 8.0)">l</text><text xml:space="preserve" font-family="Menlo-Regular,Menlo" font-size="35.0" fill="#FFFFFF" transform="matrix(1.00, 0.00, -0.00, -1.00, 527.2, 8.0)">u</text><text xml:space="preserve" font-family="Menlo-Regular,Menlo" font-size="35.0" fill="#FFFFFF" transform="matrix(1.00, 0.00, -0.00, -1.00, 548.2, 8.0)">r</text><text xml:space="preserve" font-family="Menlo-Regular,Menlo" font-size="35.0" fill="#FFFFFF" transform="matrix(1.00, 0.00, -0.00, -1.00, 569.3, 8.0)">e</text><text xml:space="preserve" font-family="Menlo-Regular,Menlo" font-size="35.0" fill="#FFFFFF" transform="matrix(1.00, 0.00, -0.00, -1.00, 590.4, 8.0)">:</text><text xml:space="preserve" font-family="Menlo-Regular,Menlo" font-size="35.0" fill="#FFFFFF" transform="matrix(1.00, 0.00, -0.00, -1.00, 611.5, 8.0)"> </text><text xml:space="preserve" font-family="Menlo-Regular,Menlo" font-size="35.0" fill="#08FA95" transform="matrix(1.00, 0.00, -0.00, -1.00, 632.5, 8.0)">f</text><text xml:space="preserve" font-family="Menlo-Regular,Menlo" font-size="35.0" fill="#08FA95" transform="matrix(1.00, 0.00, -0.00, -1.00, 653.6, 8.0)">a</text><text xml:space="preserve" font-family="Menlo-Regular,Menlo" font-size="35.0" fill="#08FA95" transform="matrix(1.00, 0.00, -0.00, -1.00, 674.7, 8.0)">i</text><text xml:space="preserve" font-family="Menlo-Regular,Menlo" font-size="35.0" fill="#08FA95" transform="matrix(1.00, 0.00, -0.00, -1.00, 695.7, 8.0)">l</text><text xml:space="preserve" font-family="Menlo-Regular,Menlo" font-size="35.0" fill="#08FA95" transform="matrix(1.00, 0.00, -0.00, -1.00, 716.8, 8.0)">u</text><text xml:space="preserve" font-family="Menlo-Regular,Menlo" font-size="35.0" fill="#08FA95" transform="matrix(1.00, 0.00, -0.00, -1.00, 737.9, 8.0)">r</text><text xml:space="preserve" font-family="Menlo-Regular,Menlo" font-size="35.0" fill="#08FA95" transform="matrix(1.00, 0.00, -0.00, -1.00, 759.0, 8.0)">e</text><text xml:space="preserve" font-family="Menlo-Regular,Menlo" font-size="35.0" fill="#FFFFFF" transform="matrix(1.00, 0.00, -0.00, -1.00, 780.0, 8.0)">)</text></g></svg>