<?xml version="1.0" encoding="UTF-8" standalone="no"?><svg xmlns="http://www.w3.org/2000/svg" xmlns:xlink="http://www.w3.org/1999/xlink" clip-rule="evenodd" stroke-miterlimit="10" viewBox="0 0 746 49"><desc>SVG generated by Keynote</desc><defs></defs><g transform="matrix(1.00, 0.00, -0.00, -1.00, 0.0, 49.0)"><text xml:space="preserve" font-family="Courier,Courier" font-size="40.0" fill="#FEFFFF" transform="matrix(1.00, 0.00, -0.00, -1.00, 0.9, 10.0)">h</text><text xml:space="preserve" font-family="Courier,Courier" font-size="40.0" fill="#FEFFFF" transform="matrix(1.00, 0.00, -0.00, -1.00, 24.9, 10.0)">t</text><text xml:space="preserve" font-family="Courier,Courier" font-size="40.0" fill="#FEFFFF" transform="matrix(1.00, 0.00, -0.00, -1.00, 48.9, 10.0)">t</text><text xml:space="preserve" font-family="Courier,Courier" font-size="40.0" fill="#FEFFFF" transform="matrix(1.00, 0.00, -0.00, -1.00, 72.9, 10.0)">p</text><text xml:space="preserve" font-family="Courier,Courier" font-size="40.0" fill="#FEFFFF" transform="matrix(1.00, 0.00, -0.00, -1.00, 96.9, 10.0)">:</text><text xml:space="preserve" font-family="Courier,Courier" font-size="40.0" fill="#FEFFFF" transform="matrix(1.00, 0.00, -0.00, -1.00, 120.9, 10.0)">/</text><text xml:space="preserve" font-family="Courier,Courier" font-size="40.0" fill="#FEFFFF" transform="matrix(1.00, 0.00, -0.00, -1.00, 144.9, 10.0)">/</text><text xml:space="preserve" font-family="Courier,Courier" font-size="40.0" fill="#FEFFFF" transform="matrix(1.00, 0.00, -0.00, -1.00, 168.9, 10.0)">g</text><text xml:space="preserve" font-family="Courier,Courier" font-size="40.0" fill="#FEFFFF" transform="matrix(1.00, 0.00, -0.00, -1.00, 192.9, 10.0)">o</text><text xml:space="preserve" font-family="Courier,Courier" font-size="40.0" fill="#FEFFFF" transform="matrix(1.00, 0.00, -0.00, -1.00, 217.0, 10.0)">s</text><text xml:space="preserve" font-family="Courier,Courier" font-size="40.0" fill="#FEFFFF" transform="matrix(1.00, 0.00, -0.00, -1.00, 241.0, 10.0)">h</text><text xml:space="preserve" font-family="Courier,Courier" font-size="40.0" fill="#FEFFFF" transform="matrix(1.00, 0.00, -0.00, -1.00, 265.0, 10.0)">d</text><text xml:space="preserve" font-family="Courier,Courier" font-size="40.0" fill="#FEFFFF" transform="matrix(1.00, 0.00, -0.00, -1.00, 289.0, 10.0)">a</text><text xml:space="preserve" font-family="Courier,Courier" font-size="40.0" fill="#FEFFFF" transform="matrix(1.00, 0.00, -0.00, -1.00, 313.0, 10.0)">r</text><text xml:space="preserve" font-family="Courier,Courier" font-size="40.0" fill="#FEFFFF" transform="matrix(1.00, 0.00, -0.00, -1.00, 337.0, 10.0)">n</text><text xml:space="preserve" font-family="Courier,Courier" font-size="40.0" fill="#FEFFFF" transform="matrix(1.00, 0.00, -0.00, -1.00, 361.0, 10.0)">b</text><text xml:space="preserve" font-family="Courier,Courier" font-size="40.0" fill="#FEFFFF" transform="matrix(1.00, 0.00, -0.00, -1.00, 385.0, 10.0)">l</text><text xml:space="preserve" font-family="Courier,Courier" font-size="40.0" fill="#FEFFFF" transform="matrix(1.00, 0.00, -0.00, -1.00, 409.0, 10.0)">o</text><text xml:space="preserve" font-family="Courier,Courier" font-size="40.0" fill="#FEFFFF" transform="matrix(1.00, 0.00, -0.00, -1.00, 433.0, 10.0)">c</text><text xml:space="preserve" font-family="Courier,Courier" font-size="40.0" fill="#FEFFFF" transform="matrix(1.00, 0.00, -0.00, -1.00, 457.0, 10.0)">k</text><text xml:space="preserve" font-family="Courier,Courier" font-size="40.0" fill="#FEFFFF" transform="matrix(1.00, 0.00, -0.00, -1.00, 481.0, 10.0)">s</text><text xml:space="preserve" font-family="Courier,Courier" font-size="40.0" fill="#FEFFFF" transform="matrix(1.00, 0.00, -0.00, -1.00, 505.1, 10.0)">y</text><text xml:space="preserve" font-family="Courier,Courier" font-size="40.0" fill="#FEFFFF" transform="matrix(1.00, 0.00, -0.00, -1.00, 529.1, 10.0)">n</text><text xml:space="preserve" font-family="Courier,Courier" font-size="40.0" fill="#FEFFFF" transform="matrix(1.00, 0.00, -0.00, -1.00, 553.1, 10.0)">t</text><text xml:space="preserve" font-family="Courier,Courier" font-size="40.0" fill="#FEFFFF" transform="matrix(1.00, 0.00, -0.00, -1.00, 577.1, 10.0)">a</text><text xml:space="preserve" font-family="Courier,Courier" font-size="40.0" fill="#FEFFFF" transform="matrix(1.00, 0.00, -0.00, -1.00, 601.1, 10.0)">x</text><text xml:space="preserve" font-family="Courier,Courier" font-size="40.0" fill="#FEFFFF" transform="matrix(1.00, 0.00, -0.00, -1.00, 625.1, 10.0)">.</text><text xml:space="preserve" font-family="Courier,Courier" font-size="40.0" fill="#FEFFFF" transform="matrix(1.00, 0.00, -0.00, -1.00, 649.1, 10.0)">c</text><text xml:space="preserve" font-family="Courier,Courier" font-size="40.0" fill="#FEFFFF" transform="matrix(1.00, 0.00, -0.00, -1.00, 673.1, 10.0)">o</text><text xml:space="preserve" font-family="Courier,Courier" font-size="40.0" fill="#FEFFFF" transform="matrix(1.00, 0.00, -0.00, -1.00, 697.1, 10.0)">m</text><text xml:space="preserve" font-family="Courier,Courier" font-size="40.0" fill="#FEFFFF" transform="matrix(1.00, 0.00, -0.00, -1.00, 721.1, 10.0)">/</text><g><clipPath id="clip0x7f88bdae3590"><path d="M -0.1 0.7 L 745.0 0.7 L 745.0 5.0 L -0.1 5.0 Z M -0.1 0.7 "></path></clipPath><g clip-path="url(#clip0x7f88bdae3590)"><path d="M 6.1 50.9 L 750.2 50.9 " fill="none" stroke="#FEFFFF" stroke-width="2.30" transform="matrix(1.00, 0.00, 0.00, -1.00, -5.2, 53.7)"></path></g></g></g></svg>