<?xml version="1.0" encoding="UTF-8" standalone="no"?><svg xmlns="http://www.w3.org/2000/svg" xmlns:xlink="http://www.w3.org/1999/xlink" clip-rule="evenodd" stroke-miterlimit="10" viewBox="0 0 1920 1080"><desc>SVG generated by Keynote</desc><defs></defs><g transform="matrix(1.00, 0.00, -0.00, -1.00, 0.0, 1080.0)"><path d="M 0.0 1080.0 L 1920.0 1080.0 L 1920.0 0.0 L 0.0 0.0 Z M 0.0 1080.0 " fill="#52575F"></path><g><clipPath id="clip0x7f88a303aad0"><path d="M 1581.2 21.9 L 1650.2 21.9 L 1650.2 90.9 L 1581.2 90.9 Z M 1581.2 21.9 "></path></clipPath><g clip-path="url(#clip0x7f88a303aad0)"><image xlink:href="../../EE8D7FD7-F828-4463-8A34-9043A96BD708/assets/D93F090722A5269D0B30C3E05CCA40BA.png" width="225.00" height="225.00" transform="matrix(0.31, 0.00, -0.00, -0.31, 1581.0, 91.0)"></image></g></g><g><clipPath id="clip0x7f88a279ffb0"><path d="M 1604.6 25.2 L 1954.7 25.2 L 1954.7 87.7 L 1604.6 87.7 Z M 1604.6 25.2 "></path></clipPath><g clip-path="url(#clip0x7f88a279ffb0)"><text xml:space="preserve" font-family="Helvetica-Light,Helvetica" font-size="37.0" fill="#FEFFFF" transform="matrix(1.00, 0.00, -0.00, -1.00, 1677.9, 42.9)">S</text><text xml:space="preserve" font-family="Helvetica-Light,Helvetica" font-size="37.0" fill="#FEFFFF" transform="matrix(1.00, 0.00, -0.00, -1.00, 1700.5, 42.9)">w</text><text xml:space="preserve" font-family="Helvetica-Light,Helvetica" font-size="37.0" fill="#FEFFFF" transform="matrix(1.00, 0.00, -0.00, -1.00, 1727.2, 42.9)">i</text><text xml:space="preserve" font-family="Helvetica-Light,Helvetica" font-size="37.0" fill="#FEFFFF" transform="matrix(1.00, 0.00, -0.00, -1.00, 1735.4, 42.9)">t</text><text xml:space="preserve" font-family="Helvetica-Light,Helvetica" font-size="37.0" fill="#FEFFFF" transform="matrix(1.00, 0.00, -0.00, -1.00, 1745.7, 42.9)">f</text><text xml:space="preserve" font-family="Helvetica-Light,Helvetica" font-size="37.0" fill="#FEFFFF" transform="matrix(1.00, 0.00, -0.00, -1.00, 1756.0, 42.9)">t</text><text xml:space="preserve" font-family="Helvetica-Light,Helvetica" font-size="37.0" fill="#FEFFFF" transform="matrix(1.00, 0.00, -0.00, -1.00, 1766.3, 42.9)">y</text><text xml:space="preserve" font-family="Helvetica-Light,Helvetica" font-size="37.0" fill="#FEFFFF" transform="matrix(1.00, 0.00, -0.00, -1.00, 1784.8, 42.9)">J</text><text xml:space="preserve" font-family="Helvetica-Light,Helvetica" font-size="37.0" fill="#FEFFFF" transform="matrix(1.00, 0.00, -0.00, -1.00, 1803.3, 42.9)">S</text><text xml:space="preserve" font-family="Helvetica-Light,Helvetica" font-size="37.0" fill="#FEFFFF" transform="matrix(1.00, 0.00, -0.00, -1.00, 1825.9, 42.9)">O</text><text xml:space="preserve" font-family="Helvetica-Light,Helvetica" font-size="37.0" fill="#FEFFFF" transform="matrix(1.00, 0.00, -0.00, -1.00, 1854.7, 42.9)">N</text><text xml:space="preserve" font-family="Helvetica-Light,Helvetica" font-size="37.0" fill="#FEFFFF" transform="matrix(1.00, 0.00, -0.00, -1.00, 1881.4, 42.9)"> </text><text xml:space="preserve" font-family="Helvetica-Light,Helvetica" font-size="37.0" fill="#FEFFFF" transform="matrix(1.00, 0.00, -0.00, -1.00, 1891.7, 42.9)"> </text><text xml:space="preserve" font-family="Helvetica-Light,Helvetica" font-size="37.0" fill="#FEFFFF" transform="matrix(1.00, 0.00, -0.00, -1.00, 1902.0, 42.9)"> </text><path d="M 69.7 43.9 L 273.2 43.9 " fill="none" stroke="#FEFFFF" stroke-width="1.85" transform="matrix(1.00, 0.00, 0.00, -1.00, 1608.2, 84.0)"></path></g></g><text xml:space="preserve" font-family="Courier,Courier" font-size="94.0" fill="#FEFFFF" transform="matrix(1.00, 0.00, -0.00, -1.00, 122.0, 962.7)">S</text><text xml:space="preserve" font-family="Courier,Courier" font-size="94.0" fill="#FEFFFF" transform="matrix(1.00, 0.00, -0.00, -1.00, 178.4, 962.7)">u</text><text xml:space="preserve" font-family="Courier,Courier" font-size="94.0" fill="#FEFFFF" transform="matrix(1.00, 0.00, -0.00, -1.00, 234.8, 962.7)">b</text><text xml:space="preserve" font-family="Courier,Courier" font-size="94.0" fill="#FEFFFF" transform="matrix(1.00, 0.00, -0.00, -1.00, 291.3, 962.7)">s</text><text xml:space="preserve" font-family="Courier,Courier" font-size="94.0" fill="#FEFFFF" transform="matrix(1.00, 0.00, -0.00, -1.00, 347.7, 962.7)">c</text><text xml:space="preserve" font-family="Courier,Courier" font-size="94.0" fill="#FEFFFF" transform="matrix(1.00, 0.00, -0.00, -1.00, 404.1, 962.7)">r</text><text xml:space="preserve" font-family="Courier,Courier" font-size="94.0" fill="#FEFFFF" transform="matrix(1.00, 0.00, -0.00, -1.00, 460.5, 962.7)">i</text><text xml:space="preserve" font-family="Courier,Courier" font-size="94.0" fill="#FEFFFF" transform="matrix(1.00, 0.00, -0.00, -1.00, 516.9, 962.7)">p</text><text xml:space="preserve" font-family="Courier,Courier" font-size="94.0" fill="#FEFFFF" transform="matrix(1.00, 0.00, -0.00, -1.00, 573.3, 962.7)">t</text><path d="M -0.4 0.2 L 1085.6 0.2 L 1085.6 230.2 L -0.4 230.2 Z M 0.0 0.0 " fill="none" stroke="#961817" stroke-width="4.00" transform="matrix(1.00, 0.00, 0.00, -1.00, 126.4, 925.2)"></path><g><clipPath id="clip0x7f88a333be20"><path d="M 123.3 691.8 L 2269.2 691.8 L 2269.2 928.4 L 123.3 928.4 Z M 123.3 691.8 "></path></clipPath><g clip-path="url(#clip0x7f88a333be20)"><text xml:space="preserve" font-family="Menlo-Regular,Menlo" font-size="37.0" fill="#2F8B16" transform="matrix(1.00, 0.00, -0.00, -1.00, 134.1, 883.3)">/</text><text xml:space="preserve" font-family="Menlo-Regular,Menlo" font-size="37.0" fill="#2F8B16" transform="matrix(1.00, 0.00, -0.00, -1.00, 156.3, 883.3)">/</text><text xml:space="preserve" font-family="Menlo-Regular,Menlo" font-size="37.0" fill="#2F8B16" transform="matrix(1.00, 0.00, -0.00, -1.00, 178.6, 883.3)"> </text><text xml:space="preserve" font-family="Menlo-Regular,Menlo" font-size="37.0" fill="#2F8B16" transform="matrix(1.00, 0.00, -0.00, -1.00, 200.9, 883.3)">U</text><text xml:space="preserve" font-family="Menlo-Regular,Menlo" font-size="37.0" fill="#2F8B16" transform="matrix(1.00, 0.00, -0.00, -1.00, 223.2, 883.3)">s</text><text xml:space="preserve" font-family="Menlo-Regular,Menlo" font-size="37.0" fill="#2F8B16" transform="matrix(1.00, 0.00, -0.00, -1.00, 245.5, 883.3)">i</text><text xml:space="preserve" font-family="Menlo-Regular,Menlo" font-size="37.0" fill="#2F8B16" transform="matrix(1.00, 0.00, -0.00, -1.00, 267.7, 883.3)">n</text><text xml:space="preserve" font-family="Menlo-Regular,Menlo" font-size="37.0" fill="#2F8B16" transform="matrix(1.00, 0.00, -0.00, -1.00, 290.0, 883.3)">g</text><text xml:space="preserve" font-family="Menlo-Regular,Menlo" font-size="37.0" fill="#2F8B16" transform="matrix(1.00, 0.00, -0.00, -1.00, 312.3, 883.3)"> </text><text xml:space="preserve" font-family="Menlo-Regular,Menlo" font-size="37.0" fill="#2F8B16" transform="matrix(1.00, 0.00, -0.00, -1.00, 334.6, 883.3)">S</text><text xml:space="preserve" font-family="Menlo-Regular,Menlo" font-size="37.0" fill="#2F8B16" transform="matrix(1.00, 0.00, -0.00, -1.00, 356.9, 883.3)">w</text><text xml:space="preserve" font-family="Menlo-Regular,Menlo" font-size="37.0" fill="#2F8B16" transform="matrix(1.00, 0.00, -0.00, -1.00, 379.1, 883.3)">i</text><text xml:space="preserve" font-family="Menlo-Regular,Menlo" font-size="37.0" fill="#2F8B16" transform="matrix(1.00, 0.00, -0.00, -1.00, 401.4, 883.3)">f</text><text xml:space="preserve" font-family="Menlo-Regular,Menlo" font-size="37.0" fill="#2F8B16" transform="matrix(1.00, 0.00, -0.00, -1.00, 423.7, 883.3)">t</text><text xml:space="preserve" font-family="Menlo-Regular,Menlo" font-size="37.0" fill="#2F8B16" transform="matrix(1.00, 0.00, -0.00, -1.00, 446.0, 883.3)">y</text><text xml:space="preserve" font-family="Menlo-Regular,Menlo" font-size="37.0" fill="#2F8B16" transform="matrix(1.00, 0.00, -0.00, -1.00, 468.3, 883.3)">J</text><text xml:space="preserve" font-family="Menlo-Regular,Menlo" font-size="37.0" fill="#2F8B16" transform="matrix(1.00, 0.00, -0.00, -1.00, 490.5, 883.3)">S</text><text xml:space="preserve" font-family="Menlo-Regular,Menlo" font-size="37.0" fill="#2F8B16" transform="matrix(1.00, 0.00, -0.00, -1.00, 512.8, 883.3)">O</text><text xml:space="preserve" font-family="Menlo-Regular,Menlo" font-size="37.0" fill="#2F8B16" transform="matrix(1.00, 0.00, -0.00, -1.00, 535.1, 883.3)">N</text><text xml:space="preserve" font-family="Menlo-Regular,Menlo" font-size="37.0" fill="#2F8B16" transform="matrix(1.00, 0.00, -0.00, -1.00, 557.4, 883.3)"> </text><text xml:space="preserve" font-family="Menlo-Regular,Menlo" font-size="37.0" fill="#DD38A5" transform="matrix(1.00, 0.00, -0.00, -1.00, 134.1, 840.3)">l</text><text xml:space="preserve" font-family="Menlo-Regular,Menlo" font-size="37.0" fill="#DD38A5" transform="matrix(1.00, 0.00, -0.00, -1.00, 156.3, 840.3)">e</text><text xml:space="preserve" font-family="Menlo-Regular,Menlo" font-size="37.0" fill="#DD38A5" transform="matrix(1.00, 0.00, -0.00, -1.00, 178.6, 840.3)">t</text><text xml:space="preserve" font-family="Menlo-Regular,Menlo" font-size="37.0" fill="#FFFFFF" transform="matrix(1.00, 0.00, -0.00, -1.00, 200.9, 840.3)"> </text><text xml:space="preserve" font-family="Menlo-Regular,Menlo" font-size="37.0" fill="#FFFFFF" transform="matrix(1.00, 0.00, -0.00, -1.00, 223.2, 840.3)">j</text><text xml:space="preserve" font-family="Menlo-Regular,Menlo" font-size="37.0" fill="#FFFFFF" transform="matrix(1.00, 0.00, -0.00, -1.00, 245.5, 840.3)">s</text><text xml:space="preserve" font-family="Menlo-Regular,Menlo" font-size="37.0" fill="#FFFFFF" transform="matrix(1.00, 0.00, -0.00, -1.00, 267.7, 840.3)">o</text><text xml:space="preserve" font-family="Menlo-Regular,Menlo" font-size="37.0" fill="#FFFFFF" transform="matrix(1.00, 0.00, -0.00, -1.00, 290.0, 840.3)">n</text><text xml:space="preserve" font-family="Menlo-Regular,Menlo" font-size="37.0" fill="#FFFFFF" transform="matrix(1.00, 0.00, -0.00, -1.00, 312.3, 840.3)"> </text><text xml:space="preserve" font-family="Menlo-Regular,Menlo" font-size="37.0" fill="#FFFFFF" transform="matrix(1.00, 0.00, -0.00, -1.00, 334.6, 840.3)">=</text><text xml:space="preserve" font-family="Menlo-Regular,Menlo" font-size="37.0" fill="#FFFFFF" transform="matrix(1.00, 0.00, -0.00, -1.00, 356.9, 840.3)"> </text><text xml:space="preserve" font-family="Menlo-Regular,Menlo" font-size="37.0" fill="#08FA95" transform="matrix(1.00, 0.00, -0.00, -1.00, 379.1, 840.3)">J</text><text xml:space="preserve" font-family="Menlo-Regular,Menlo" font-size="37.0" fill="#08FA95" transform="matrix(1.00, 0.00, -0.00, -1.00, 401.4, 840.3)">S</text><text xml:space="preserve" font-family="Menlo-Regular,Menlo" font-size="37.0" fill="#08FA95" transform="matrix(1.00, 0.00, -0.00, -1.00, 423.7, 840.3)">O</text><text xml:space="preserve" font-family="Menlo-Regular,Menlo" font-size="37.0" fill="#08FA95" transform="matrix(1.00, 0.00, -0.00, -1.00, 445.9, 840.3)">N</text><text xml:space="preserve" font-family="Menlo-Regular,Menlo" font-size="37.0" fill="#FFFFFF" transform="matrix(1.00, 0.00, -0.00, -1.00, 468.2, 840.3)">(</text><text xml:space="preserve" font-family="Menlo-Regular,Menlo" font-size="37.0" fill="#FFFFFF" transform="matrix(1.00, 0.00, -0.00, -1.00, 490.5, 840.3)">d</text><text xml:space="preserve" font-family="Menlo-Regular,Menlo" font-size="37.0" fill="#FFFFFF" transform="matrix(1.00, 0.00, -0.00, -1.00, 512.8, 840.3)">a</text><text xml:space="preserve" font-family="Menlo-Regular,Menlo" font-size="37.0" fill="#FFFFFF" transform="matrix(1.00, 0.00, -0.00, -1.00, 535.0, 840.3)">t</text><text xml:space="preserve" font-family="Menlo-Regular,Menlo" font-size="37.0" fill="#FFFFFF" transform="matrix(1.00, 0.00, -0.00, -1.00, 557.3, 840.3)">a</text><text xml:space="preserve" font-family="Menlo-Regular,Menlo" font-size="37.0" fill="#FFFFFF" transform="matrix(1.00, 0.00, -0.00, -1.00, 579.6, 840.3)">:</text><text xml:space="preserve" font-family="Menlo-Regular,Menlo" font-size="37.0" fill="#FFFFFF" transform="matrix(1.00, 0.00, -0.00, -1.00, 601.9, 840.3)"> </text><text xml:space="preserve" font-family="Menlo-Regular,Menlo" font-size="37.0" fill="#08FA95" transform="matrix(1.00, 0.00, -0.00, -1.00, 624.1, 840.3)">d</text><text xml:space="preserve" font-family="Menlo-Regular,Menlo" font-size="37.0" fill="#08FA95" transform="matrix(1.00, 0.00, -0.00, -1.00, 646.4, 840.3)">a</text><text xml:space="preserve" font-family="Menlo-Regular,Menlo" font-size="37.0" fill="#08FA95" transform="matrix(1.00, 0.00, -0.00, -1.00, 668.7, 840.3)">t</text><text xml:space="preserve" font-family="Menlo-Regular,Menlo" font-size="37.0" fill="#08FA95" transform="matrix(1.00, 0.00, -0.00, -1.00, 691.0, 840.3)">a</text><text xml:space="preserve" font-family="Menlo-Regular,Menlo" font-size="37.0" fill="#FFFFFF" transform="matrix(1.00, 0.00, -0.00, -1.00, 713.2, 840.3)">!</text><text xml:space="preserve" font-family="Menlo-Regular,Menlo" font-size="37.0" fill="#FFFFFF" transform="matrix(1.00, 0.00, -0.00, -1.00, 735.5, 840.3)">)</text><text xml:space="preserve" font-family="Menlo-Regular,Menlo" font-size="37.0" fill="#FFFFFF" transform="matrix(1.00, 0.00, -0.00, -1.00, 757.8, 840.3)"> </text><text xml:space="preserve" font-family="Menlo-Regular,Menlo" font-size="37.0" fill="#DD38A5" transform="matrix(1.00, 0.00, -0.00, -1.00, 134.1, 797.3)">i</text><text xml:space="preserve" font-family="Menlo-Regular,Menlo" font-size="37.0" fill="#DD38A5" transform="matrix(1.00, 0.00, -0.00, -1.00, 156.3, 797.3)">f</text><text xml:space="preserve" font-family="Menlo-Regular,Menlo" font-size="37.0" fill="#FFFFFF" transform="matrix(1.00, 0.00, -0.00, -1.00, 178.6, 797.3)"> </text><text xml:space="preserve" font-family="Menlo-Regular,Menlo" font-size="37.0" fill="#DD38A5" transform="matrix(1.00, 0.00, -0.00, -1.00, 200.9, 797.3)">l</text><text xml:space="preserve" font-family="Menlo-Regular,Menlo" font-size="37.0" fill="#DD38A5" transform="matrix(1.00, 0.00, -0.00, -1.00, 223.2, 797.3)">e</text><text xml:space="preserve" font-family="Menlo-Regular,Menlo" font-size="37.0" fill="#DD38A5" transform="matrix(1.00, 0.00, -0.00, -1.00, 245.5, 797.3)">t</text><text xml:space="preserve" font-family="Menlo-Regular,Menlo" font-size="37.0" fill="#FFFFFF" transform="matrix(1.00, 0.00, -0.00, -1.00, 267.7, 797.3)"> </text><text xml:space="preserve" font-family="Menlo-Regular,Menlo" font-size="37.0" fill="#FFFFFF" transform="matrix(1.00, 0.00, -0.00, -1.00, 290.0, 797.3)">u</text><text xml:space="preserve" font-family="Menlo-Regular,Menlo" font-size="37.0" fill="#FFFFFF" transform="matrix(1.00, 0.00, -0.00, -1.00, 312.3, 797.3)">s</text><text xml:space="preserve" font-family="Menlo-Regular,Menlo" font-size="37.0" fill="#FFFFFF" transform="matrix(1.00, 0.00, -0.00, -1.00, 334.6, 797.3)">e</text><text xml:space="preserve" font-family="Menlo-Regular,Menlo" font-size="37.0" fill="#FFFFFF" transform="matrix(1.00, 0.00, -0.00, -1.00, 356.8, 797.3)">r</text><text xml:space="preserve" font-family="Menlo-Regular,Menlo" font-size="37.0" fill="#FFFFFF" transform="matrix(1.00, 0.00, -0.00, -1.00, 379.1, 797.3)">N</text><text xml:space="preserve" font-family="Menlo-Regular,Menlo" font-size="37.0" fill="#FFFFFF" transform="matrix(1.00, 0.00, -0.00, -1.00, 401.4, 797.3)">a</text><text xml:space="preserve" font-family="Menlo-Regular,Menlo" font-size="37.0" fill="#FFFFFF" transform="matrix(1.00, 0.00, -0.00, -1.00, 423.7, 797.3)">m</text><text xml:space="preserve" font-family="Menlo-Regular,Menlo" font-size="37.0" fill="#FFFFFF" transform="matrix(1.00, 0.00, -0.00, -1.00, 446.0, 797.3)">e</text><text xml:space="preserve" font-family="Menlo-Regular,Menlo" font-size="37.0" fill="#FFFFFF" transform="matrix(1.00, 0.00, -0.00, -1.00, 468.2, 797.3)"> </text><text xml:space="preserve" font-family="Menlo-Regular,Menlo" font-size="37.0" fill="#FFFFFF" transform="matrix(1.00, 0.00, -0.00, -1.00, 490.5, 797.3)">=</text><text xml:space="preserve" font-family="Menlo-Regular,Menlo" font-size="37.0" fill="#FFFFFF" transform="matrix(1.00, 0.00, -0.00, -1.00, 512.8, 797.3)"> </text><text xml:space="preserve" font-family="Menlo-Regular,Menlo" font-size="37.0" fill="#08FA95" transform="matrix(1.00, 0.00, -0.00, -1.00, 535.0, 797.3)">j</text><text xml:space="preserve" font-family="Menlo-Regular,Menlo" font-size="37.0" fill="#08FA95" transform="matrix(1.00, 0.00, -0.00, -1.00, 557.3, 797.3)">s</text><text xml:space="preserve" font-family="Menlo-Regular,Menlo" font-size="37.0" fill="#08FA95" transform="matrix(1.00, 0.00, -0.00, -1.00, 579.6, 797.3)">o</text><text xml:space="preserve" font-family="Menlo-Regular,Menlo" font-size="37.0" fill="#08FA95" transform="matrix(1.00, 0.00, -0.00, -1.00, 601.9, 797.3)">n</text><text xml:space="preserve" font-family="Menlo-Regular,Menlo" font-size="37.0" fill="#FFFFFF" transform="matrix(1.00, 0.00, -0.00, -1.00, 624.1, 797.3)">[</text><text xml:space="preserve" font-family="Menlo-Regular,Menlo" font-size="37.0" fill="#8B87FF" transform="matrix(1.00, 0.00, -0.00, -1.00, 646.4, 797.3)">0</text><text xml:space="preserve" font-family="Menlo-Regular,Menlo" font-size="37.0" fill="#FFFFFF" transform="matrix(1.00, 0.00, -0.00, -1.00, 668.7, 797.3)">]</text><text xml:space="preserve" font-family="Menlo-Regular,Menlo" font-size="37.0" fill="#FFFFFF" transform="matrix(1.00, 0.00, -0.00, -1.00, 691.0, 797.3)">[</text><text xml:space="preserve" font-family="Menlo-Regular,Menlo" font-size="37.0" fill="#FF4647" transform="matrix(1.00, 0.00, -0.00, -1.00, 713.2, 797.3)">"</text><text xml:space="preserve" font-family="Menlo-Regular,Menlo" font-size="37.0" fill="#FF4647" transform="matrix(1.00, 0.00, -0.00, -1.00, 735.5, 797.3)">n</text><text xml:space="preserve" font-family="Menlo-Regular,Menlo" font-size="37.0" fill="#FF4647" transform="matrix(1.00, 0.00, -0.00, -1.00, 757.8, 797.3)">a</text><text xml:space="preserve" font-family="Menlo-Regular,Menlo" font-size="37.0" fill="#FF4647" transform="matrix(1.00, 0.00, -0.00, -1.00, 780.1, 797.3)">m</text><text xml:space="preserve" font-family="Menlo-Regular,Menlo" font-size="37.0" fill="#FF4647" transform="matrix(1.00, 0.00, -0.00, -1.00, 802.4, 797.3)">e</text><text xml:space="preserve" font-family="Menlo-Regular,Menlo" font-size="37.0" fill="#FF4647" transform="matrix(1.00, 0.00, -0.00, -1.00, 824.6, 797.3)">"</text><text xml:space="preserve" font-family="Menlo-Regular,Menlo" font-size="37.0" fill="#FFFFFF" transform="matrix(1.00, 0.00, -0.00, -1.00, 846.9, 797.3)">]</text><text xml:space="preserve" font-family="Menlo-Regular,Menlo" font-size="37.0" fill="#FFFFFF" transform="matrix(1.00, 0.00, -0.00, -1.00, 869.2, 797.3)">.</text><text xml:space="preserve" font-family="Menlo-Regular,Menlo" font-size="37.0" fill="#08FA95" transform="matrix(1.00, 0.00, -0.00, -1.00, 891.4, 797.3)">s</text><text xml:space="preserve" font-family="Menlo-Regular,Menlo" font-size="37.0" fill="#08FA95" transform="matrix(1.00, 0.00, -0.00, -1.00, 913.7, 797.3)">t</text><text xml:space="preserve" font-family="Menlo-Regular,Menlo" font-size="37.0" fill="#08FA95" transform="matrix(1.00, 0.00, -0.00, -1.00, 936.0, 797.3)">r</text><text xml:space="preserve" font-family="Menlo-Regular,Menlo" font-size="37.0" fill="#08FA95" transform="matrix(1.00, 0.00, -0.00, -1.00, 958.3, 797.3)">i</text><text xml:space="preserve" font-family="Menlo-Regular,Menlo" font-size="37.0" fill="#08FA95" transform="matrix(1.00, 0.00, -0.00, -1.00, 980.6, 797.3)">n</text><text xml:space="preserve" font-family="Menlo-Regular,Menlo" font-size="37.0" fill="#08FA95" transform="matrix(1.00, 0.00, -0.00, -1.00, 1002.8, 797.3)">g</text><text xml:space="preserve" font-family="Menlo-Regular,Menlo" font-size="37.0" fill="#FFFFFF" transform="matrix(1.00, 0.00, -0.00, -1.00, 1025.1, 797.3)"> </text><text xml:space="preserve" font-family="Menlo-Regular,Menlo" font-size="37.0" fill="#FFFFFF" transform="matrix(1.00, 0.00, -0.00, -1.00, 1047.4, 797.3)">{</text><text xml:space="preserve" font-family="Menlo-Regular,Menlo" font-size="37.0" fill="#FFFFFF" transform="matrix(1.00, 0.00, -0.00, -1.00, 1069.7, 797.3)"> </text><text xml:space="preserve" font-family="Menlo-Regular,Menlo" font-size="37.0" fill="#FFFFFF" transform="matrix(1.00, 0.00, -0.00, -1.00, 134.1, 754.3)"> </text><text xml:space="preserve" font-family="Menlo-Regular,Menlo" font-size="37.0" fill="#FFFFFF" transform="matrix(1.00, 0.00, -0.00, -1.00, 156.3, 754.3)"> </text><text xml:space="preserve" font-family="Menlo-Regular,Menlo" font-size="37.0" fill="#FFFFFF" transform="matrix(1.00, 0.00, -0.00, -1.00, 178.6, 754.3)"> </text><text xml:space="preserve" font-family="Menlo-Regular,Menlo" font-size="37.0" fill="#FFFFFF" transform="matrix(1.00, 0.00, -0.00, -1.00, 200.9, 754.3)"> </text><text xml:space="preserve" font-family="Menlo-Regular,Menlo" font-size="37.0" fill="#00B1FF" transform="matrix(1.00, 0.00, -0.00, -1.00, 223.2, 754.3)">p</text><text xml:space="preserve" font-family="Menlo-Regular,Menlo" font-size="37.0" fill="#00B1FF" transform="matrix(1.00, 0.00, -0.00, -1.00, 245.4, 754.3)">r</text><text xml:space="preserve" font-family="Menlo-Regular,Menlo" font-size="37.0" fill="#00B1FF" transform="matrix(1.00, 0.00, -0.00, -1.00, 267.7, 754.3)">i</text><text xml:space="preserve" font-family="Menlo-Regular,Menlo" font-size="37.0" fill="#00B1FF" transform="matrix(1.00, 0.00, -0.00, -1.00, 290.0, 754.3)">n</text><text xml:space="preserve" font-family="Menlo-Regular,Menlo" font-size="37.0" fill="#00B1FF" transform="matrix(1.00, 0.00, -0.00, -1.00, 312.3, 754.3)">t</text><text xml:space="preserve" font-family="Menlo-Regular,Menlo" font-size="37.0" fill="#00B1FF" transform="matrix(1.00, 0.00, -0.00, -1.00, 334.6, 754.3)">l</text><text xml:space="preserve" font-family="Menlo-Regular,Menlo" font-size="37.0" fill="#00B1FF" transform="matrix(1.00, 0.00, -0.00, -1.00, 356.8, 754.3)">n</text><text xml:space="preserve" font-family="Menlo-Regular,Menlo" font-size="37.0" fill="#FFFFFF" transform="matrix(1.00, 0.00, -0.00, -1.00, 379.1, 754.3)">(</text><text xml:space="preserve" font-family="Menlo-Regular,Menlo" font-size="37.0" fill="#FF4647" transform="matrix(1.00, 0.00, -0.00, -1.00, 401.4, 754.3)">"</text><text xml:space="preserve" font-family="Menlo-Regular,Menlo" font-size="37.0" fill="#FF4647" transform="matrix(1.00, 0.00, -0.00, -1.00, 423.7, 754.3)">F</text><text xml:space="preserve" font-family="Menlo-Regular,Menlo" font-size="37.0" fill="#FF4647" transform="matrix(1.00, 0.00, -0.00, -1.00, 445.9, 754.3)">i</text><text xml:space="preserve" font-family="Menlo-Regular,Menlo" font-size="37.0" fill="#FF4647" transform="matrix(1.00, 0.00, -0.00, -1.00, 468.2, 754.3)">r</text><text xml:space="preserve" font-family="Menlo-Regular,Menlo" font-size="37.0" fill="#FF4647" transform="matrix(1.00, 0.00, -0.00, -1.00, 490.5, 754.3)">s</text><text xml:space="preserve" font-family="Menlo-Regular,Menlo" font-size="37.0" fill="#FF4647" transform="matrix(1.00, 0.00, -0.00, -1.00, 512.8, 754.3)">t</text><text xml:space="preserve" font-family="Menlo-Regular,Menlo" font-size="37.0" fill="#FF4647" transform="matrix(1.00, 0.00, -0.00, -1.00, 535.1, 754.3)"> </text><text xml:space="preserve" font-family="Menlo-Regular,Menlo" font-size="37.0" fill="#FF4647" transform="matrix(1.00, 0.00, -0.00, -1.00, 557.3, 754.3)">p</text><text xml:space="preserve" font-family="Menlo-Regular,Menlo" font-size="37.0" fill="#FF4647" transform="matrix(1.00, 0.00, -0.00, -1.00, 579.6, 754.3)">e</text><text xml:space="preserve" font-family="Menlo-Regular,Menlo" font-size="37.0" fill="#FF4647" transform="matrix(1.00, 0.00, -0.00, -1.00, 601.9, 754.3)">r</text><text xml:space="preserve" font-family="Menlo-Regular,Menlo" font-size="37.0" fill="#FF4647" transform="matrix(1.00, 0.00, -0.00, -1.00, 624.2, 754.3)">s</text><text xml:space="preserve" font-family="Menlo-Regular,Menlo" font-size="37.0" fill="#FF4647" transform="matrix(1.00, 0.00, -0.00, -1.00, 646.5, 754.3)">o</text><text xml:space="preserve" font-family="Menlo-Regular,Menlo" font-size="37.0" fill="#FF4647" transform="matrix(1.00, 0.00, -0.00, -1.00, 668.7, 754.3)">n</text><text xml:space="preserve" font-family="Menlo-Regular,Menlo" font-size="37.0" fill="#FF4647" transform="matrix(1.00, 0.00, -0.00, -1.00, 691.0, 754.3)"> </text><text xml:space="preserve" font-family="Menlo-Regular,Menlo" font-size="37.0" fill="#FF4647" transform="matrix(1.00, 0.00, -0.00, -1.00, 713.3, 754.3)">n</text><text xml:space="preserve" font-family="Menlo-Regular,Menlo" font-size="37.0" fill="#FF4647" transform="matrix(1.00, 0.00, -0.00, -1.00, 735.6, 754.3)">a</text><text xml:space="preserve" font-family="Menlo-Regular,Menlo" font-size="37.0" fill="#FF4647" transform="matrix(1.00, 0.00, -0.00, -1.00, 757.8, 754.3)">m</text><text xml:space="preserve" font-family="Menlo-Regular,Menlo" font-size="37.0" fill="#FF4647" transform="matrix(1.00, 0.00, -0.00, -1.00, 780.1, 754.3)">e</text><text xml:space="preserve" font-family="Menlo-Regular,Menlo" font-size="37.0" fill="#FF4647" transform="matrix(1.00, 0.00, -0.00, -1.00, 802.4, 754.3)"> </text><text xml:space="preserve" font-family="Menlo-Regular,Menlo" font-size="37.0" fill="#FF4647" transform="matrix(1.00, 0.00, -0.00, -1.00, 824.7, 754.3)">i</text><text xml:space="preserve" font-family="Menlo-Regular,Menlo" font-size="37.0" fill="#FF4647" transform="matrix(1.00, 0.00, -0.00, -1.00, 847.0, 754.3)">s</text><text xml:space="preserve" font-family="Menlo-Regular,Menlo" font-size="37.0" fill="#FF4647" transform="matrix(1.00, 0.00, -0.00, -1.00, 869.2, 754.3)"> </text><text xml:space="preserve" font-family="Menlo-Regular,Menlo" font-size="37.0" fill="#FFFFFF" transform="matrix(1.00, 0.00, -0.00, -1.00, 891.4, 754.3)">\</text><text xml:space="preserve" font-family="Menlo-Regular,Menlo" font-size="37.0" fill="#FFFFFF" transform="matrix(1.00, 0.00, -0.00, -1.00, 913.7, 754.3)">(</text><text xml:space="preserve" font-family="Menlo-Regular,Menlo" font-size="37.0" fill="#FFFFFF" transform="matrix(1.00, 0.00, -0.00, -1.00, 936.0, 754.3)">u</text><text xml:space="preserve" font-family="Menlo-Regular,Menlo" font-size="37.0" fill="#FFFFFF" transform="matrix(1.00, 0.00, -0.00, -1.00, 958.3, 754.3)">s</text><text xml:space="preserve" font-family="Menlo-Regular,Menlo" font-size="37.0" fill="#FFFFFF" transform="matrix(1.00, 0.00, -0.00, -1.00, 980.6, 754.3)">e</text><text xml:space="preserve" font-family="Menlo-Regular,Menlo" font-size="37.0" fill="#FFFFFF" transform="matrix(1.00, 0.00, -0.00, -1.00, 1002.8, 754.3)">r</text><text xml:space="preserve" font-family="Menlo-Regular,Menlo" font-size="37.0" fill="#FFFFFF" transform="matrix(1.00, 0.00, -0.00, -1.00, 1025.1, 754.3)">N</text><text xml:space="preserve" font-family="Menlo-Regular,Menlo" font-size="37.0" fill="#FFFFFF" transform="matrix(1.00, 0.00, -0.00, -1.00, 1047.4, 754.3)">a</text><text xml:space="preserve" font-family="Menlo-Regular,Menlo" font-size="37.0" fill="#FFFFFF" transform="matrix(1.00, 0.00, -0.00, -1.00, 1069.7, 754.3)">m</text><text xml:space="preserve" font-family="Menlo-Regular,Menlo" font-size="37.0" fill="#FFFFFF" transform="matrix(1.00, 0.00, -0.00, -1.00, 1092.0, 754.3)">e</text><text xml:space="preserve" font-family="Menlo-Regular,Menlo" font-size="37.0" fill="#FFFFFF" transform="matrix(1.00, 0.00, -0.00, -1.00, 1114.2, 754.3)">)</text><text xml:space="preserve" font-family="Menlo-Regular,Menlo" font-size="37.0" fill="#FF4647" transform="matrix(1.00, 0.00, -0.00, -1.00, 1136.5, 754.3)">"</text><text xml:space="preserve" font-family="Menlo-Regular,Menlo" font-size="37.0" fill="#FFFFFF" transform="matrix(1.00, 0.00, -0.00, -1.00, 1158.8, 754.3)">)</text><text xml:space="preserve" font-family="Menlo-Regular,Menlo" font-size="37.0" fill="#FFFFFF" transform="matrix(1.00, 0.00, -0.00, -1.00, 1181.0, 754.3)"> </text><text xml:space="preserve" font-family="Menlo-Regular,Menlo" font-size="37.0" fill="#FFFFFF" transform="matrix(1.00, 0.00, -0.00, -1.00, 134.1, 711.3)">}</text></g></g></g></svg>