<?xml version="1.0" encoding="UTF-8" standalone="no"?><svg xmlns="http://www.w3.org/2000/svg" xmlns:xlink="http://www.w3.org/1999/xlink" clip-rule="evenodd" stroke-miterlimit="10" viewBox="0 0 784 432"><desc>SVG generated by Keynote</desc><defs></defs><g transform="matrix(1.00, 0.00, -0.00, -1.00, 0.0, 432.0)"><text xml:space="preserve" font-family="Menlo-Regular,Menlo" font-size="35.0" fill="#8881F0" transform="matrix(1.00, 0.00, -0.00, -1.00, 2.3, 400.9)">v</text><text xml:space="preserve" font-family="Menlo-Regular,Menlo" font-size="35.0" fill="#8881F0" transform="matrix(1.00, 0.00, -0.00, -1.00, 23.4, 400.9)">o</text><text xml:space="preserve" font-family="Menlo-Regular,Menlo" font-size="35.0" fill="#8881F0" transform="matrix(1.00, 0.00, -0.00, -1.00, 44.4, 400.9)">i</text><text xml:space="preserve" font-family="Menlo-Regular,Menlo" font-size="35.0" fill="#8881F0" transform="matrix(1.00, 0.00, -0.00, -1.00, 65.5, 400.9)">d</text><text xml:space="preserve" font-family="Menlo-Regular,Menlo" font-size="35.0" fill="#8881F0" transform="matrix(1.00, 0.00, -0.00, -1.00, 86.6, 400.9)"> </text><text xml:space="preserve" font-family="Menlo-Regular,Menlo" font-size="35.0" fill="#8881F0" transform="matrix(1.00, 0.00, -0.00, -1.00, 107.7, 400.9)">h</text><text xml:space="preserve" font-family="Menlo-Regular,Menlo" font-size="35.0" fill="#8881F0" transform="matrix(1.00, 0.00, -0.00, -1.00, 128.7, 400.9)">e</text><text xml:space="preserve" font-family="Menlo-Regular,Menlo" font-size="35.0" fill="#8881F0" transform="matrix(1.00, 0.00, -0.00, -1.00, 149.8, 400.9)">l</text><text xml:space="preserve" font-family="Menlo-Regular,Menlo" font-size="35.0" fill="#8881F0" transform="matrix(1.00, 0.00, -0.00, -1.00, 170.9, 400.9)">l</text><text xml:space="preserve" font-family="Menlo-Regular,Menlo" font-size="35.0" fill="#8881F0" transform="matrix(1.00, 0.00, -0.00, -1.00, 192.0, 400.9)">o</text><text xml:space="preserve" font-family="Menlo-Regular,Menlo" font-size="35.0" fill="#FFFFFF" transform="matrix(1.00, 0.00, -0.00, -1.00, 213.0, 400.9)">(</text><text xml:space="preserve" font-family="Menlo-Regular,Menlo" font-size="35.0" fill="#00B1FF" transform="matrix(1.00, 0.00, -0.00, -1.00, 234.1, 400.9)">S</text><text xml:space="preserve" font-family="Menlo-Regular,Menlo" font-size="35.0" fill="#00B1FF" transform="matrix(1.00, 0.00, -0.00, -1.00, 255.2, 400.9)">t</text><text xml:space="preserve" font-family="Menlo-Regular,Menlo" font-size="35.0" fill="#00B1FF" transform="matrix(1.00, 0.00, -0.00, -1.00, 276.2, 400.9)">r</text><text xml:space="preserve" font-family="Menlo-Regular,Menlo" font-size="35.0" fill="#00B1FF" transform="matrix(1.00, 0.00, -0.00, -1.00, 297.3, 400.9)">i</text><text xml:space="preserve" font-family="Menlo-Regular,Menlo" font-size="35.0" fill="#00B1FF" transform="matrix(1.00, 0.00, -0.00, -1.00, 318.4, 400.9)">n</text><text xml:space="preserve" font-family="Menlo-Regular,Menlo" font-size="35.0" fill="#00B1FF" transform="matrix(1.00, 0.00, -0.00, -1.00, 339.5, 400.9)">g</text><text xml:space="preserve" font-family="Menlo-Regular,Menlo" font-size="35.0" fill="#FFFFFF" transform="matrix(1.00, 0.00, -0.00, -1.00, 360.5, 400.9)">?</text><text xml:space="preserve" font-family="Menlo-Regular,Menlo" font-size="35.0" fill="#000000" transform="matrix(1.00, 0.00, -0.00, -1.00, 381.6, 400.9)"> </text><text xml:space="preserve" font-family="Menlo-Regular,Menlo" font-size="35.0" fill="#FFFFFF" transform="matrix(1.00, 0.00, -0.00, -1.00, 402.7, 400.9)">n</text><text xml:space="preserve" font-family="Menlo-Regular,Menlo" font-size="35.0" fill="#FFFFFF" transform="matrix(1.00, 0.00, -0.00, -1.00, 423.7, 400.9)">a</text><text xml:space="preserve" font-family="Menlo-Regular,Menlo" font-size="35.0" fill="#FFFFFF" transform="matrix(1.00, 0.00, -0.00, -1.00, 444.8, 400.9)">m</text><text xml:space="preserve" font-family="Menlo-Regular,Menlo" font-size="35.0" fill="#FFFFFF" transform="matrix(1.00, 0.00, -0.00, -1.00, 465.9, 400.9)">e</text><text xml:space="preserve" font-family="Menlo-Regular,Menlo" font-size="35.0" fill="#FFFFFF" transform="matrix(1.00, 0.00, -0.00, -1.00, 487.0, 400.9)">)</text><text xml:space="preserve" font-family="Menlo-Regular,Menlo" font-size="35.0" fill="#FFFFFF" transform="matrix(1.00, 0.00, -0.00, -1.00, 508.0, 400.9)"> </text><text xml:space="preserve" font-family="Menlo-Regular,Menlo" font-size="35.0" fill="#FFFFFF" transform="matrix(1.00, 0.00, -0.00, -1.00, 529.1, 400.9)">{</text><text xml:space="preserve" font-family="Menlo-Regular,Menlo" font-size="35.0" fill="#FFFFFF" transform="matrix(1.00, 0.00, -0.00, -1.00, 550.2, 400.9)"> </text><text xml:space="preserve" font-family="Menlo-Regular,Menlo" font-size="35.0" fill="#000000" transform="matrix(1.00, 0.00, -0.00, -1.00, 2.3, 360.9)"> </text><text xml:space="preserve" font-family="Menlo-Regular,Menlo" font-size="35.0" fill="#000000" transform="matrix(1.00, 0.00, -0.00, -1.00, 23.4, 360.9)"> </text><text xml:space="preserve" font-family="Menlo-Regular,Menlo" font-size="35.0" fill="#000000" transform="matrix(1.00, 0.00, -0.00, -1.00, 44.4, 360.9)"> </text><text xml:space="preserve" font-family="Menlo-Regular,Menlo" font-size="35.0" fill="#000000" transform="matrix(1.00, 0.00, -0.00, -1.00, 65.5, 360.9)"> </text><text xml:space="preserve" font-family="Menlo-Regular,Menlo" font-size="35.0" fill="#8881F0" transform="matrix(1.00, 0.00, -0.00, -1.00, 86.6, 360.9)">i</text><text xml:space="preserve" font-family="Menlo-Regular,Menlo" font-size="35.0" fill="#8881F0" transform="matrix(1.00, 0.00, -0.00, -1.00, 107.7, 360.9)">f</text><text xml:space="preserve" font-family="Menlo-Regular,Menlo" font-size="35.0" fill="#FFFFFF" transform="matrix(1.00, 0.00, -0.00, -1.00, 128.7, 360.9)"> </text><text xml:space="preserve" font-family="Menlo-Regular,Menlo" font-size="35.0" fill="#FFFFFF" transform="matrix(1.00, 0.00, -0.00, -1.00, 149.8, 360.9)">(</text><text xml:space="preserve" font-family="Menlo-Regular,Menlo" font-size="35.0" fill="#1497FC" transform="matrix(1.00, 0.00, -0.00, -1.00, 170.9, 360.9)">e</text><text xml:space="preserve" font-family="Menlo-Regular,Menlo" font-size="35.0" fill="#1497FC" transform="matrix(1.00, 0.00, -0.00, -1.00, 191.9, 360.9)">x</text><text xml:space="preserve" font-family="Menlo-Regular,Menlo" font-size="35.0" fill="#1497FC" transform="matrix(1.00, 0.00, -0.00, -1.00, 213.0, 360.9)">i</text><text xml:space="preserve" font-family="Menlo-Regular,Menlo" font-size="35.0" fill="#1497FC" transform="matrix(1.00, 0.00, -0.00, -1.00, 234.1, 360.9)">s</text><text xml:space="preserve" font-family="Menlo-Regular,Menlo" font-size="35.0" fill="#1497FC" transform="matrix(1.00, 0.00, -0.00, -1.00, 255.2, 360.9)">t</text><text xml:space="preserve" font-family="Menlo-Regular,Menlo" font-size="35.0" fill="#1497FC" transform="matrix(1.00, 0.00, -0.00, -1.00, 276.2, 360.9)">s</text><text xml:space="preserve" font-family="Menlo-Regular,Menlo" font-size="35.0" fill="#000000" transform="matrix(1.00, 0.00, -0.00, -1.00, 297.3, 360.9)"> </text><text xml:space="preserve" font-family="Menlo-Regular,Menlo" font-size="35.0" fill="#FFFFFF" transform="matrix(1.00, 0.00, -0.00, -1.00, 318.4, 360.9)">n</text><text xml:space="preserve" font-family="Menlo-Regular,Menlo" font-size="35.0" fill="#FFFFFF" transform="matrix(1.00, 0.00, -0.00, -1.00, 339.4, 360.9)">a</text><text xml:space="preserve" font-family="Menlo-Regular,Menlo" font-size="35.0" fill="#FFFFFF" transform="matrix(1.00, 0.00, -0.00, -1.00, 360.5, 360.9)">m</text><text xml:space="preserve" font-family="Menlo-Regular,Menlo" font-size="35.0" fill="#FFFFFF" transform="matrix(1.00, 0.00, -0.00, -1.00, 381.6, 360.9)">e</text><text xml:space="preserve" font-family="Menlo-Regular,Menlo" font-size="35.0" fill="#FFFFFF" transform="matrix(1.00, 0.00, -0.00, -1.00, 402.7, 360.9)">)</text><text xml:space="preserve" font-family="Menlo-Regular,Menlo" font-size="35.0" fill="#FFFFFF" transform="matrix(1.00, 0.00, -0.00, -1.00, 423.7, 360.9)"> </text><text xml:space="preserve" font-family="Menlo-Regular,Menlo" font-size="35.0" fill="#FFFFFF" transform="matrix(1.00, 0.00, -0.00, -1.00, 444.8, 360.9)">{</text><text xml:space="preserve" font-family="Menlo-Regular,Menlo" font-size="35.0" fill="#000000" transform="matrix(1.00, 0.00, -0.00, -1.00, 465.9, 360.9)"> </text><text xml:space="preserve" font-family="Menlo-Regular,Menlo" font-size="35.0" fill="#000000" transform="matrix(1.00, 0.00, -0.00, -1.00, 2.3, 320.9)"> </text><text xml:space="preserve" font-family="Menlo-Regular,Menlo" font-size="35.0" fill="#000000" transform="matrix(1.00, 0.00, -0.00, -1.00, 23.4, 320.9)"> </text><text xml:space="preserve" font-family="Menlo-Regular,Menlo" font-size="35.0" fill="#000000" transform="matrix(1.00, 0.00, -0.00, -1.00, 44.4, 320.9)"> </text><text xml:space="preserve" font-family="Menlo-Regular,Menlo" font-size="35.0" fill="#000000" transform="matrix(1.00, 0.00, -0.00, -1.00, 65.5, 320.9)"> </text><text xml:space="preserve" font-family="Menlo-Regular,Menlo" font-size="35.0" fill="#000000" transform="matrix(1.00, 0.00, -0.00, -1.00, 86.6, 320.9)"> </text><text xml:space="preserve" font-family="Menlo-Regular,Menlo" font-size="35.0" fill="#000000" transform="matrix(1.00, 0.00, -0.00, -1.00, 107.7, 320.9)"> </text><text xml:space="preserve" font-family="Menlo-Regular,Menlo" font-size="35.0" fill="#000000" transform="matrix(1.00, 0.00, -0.00, -1.00, 128.7, 320.9)"> </text><text xml:space="preserve" font-family="Menlo-Regular,Menlo" font-size="35.0" fill="#000000" transform="matrix(1.00, 0.00, -0.00, -1.00, 149.8, 320.9)"> </text><text xml:space="preserve" font-family="Menlo-Regular,Menlo" font-size="35.0" fill="#2F8B16" transform="matrix(1.00, 0.00, -0.00, -1.00, 170.9, 320.9)">/</text><text xml:space="preserve" font-family="Menlo-Regular,Menlo" font-size="35.0" fill="#2F8B16" transform="matrix(1.00, 0.00, -0.00, -1.00, 191.9, 320.9)">/</text><text xml:space="preserve" font-family="Menlo-Regular,Menlo" font-size="35.0" fill="#2F8B16" transform="matrix(1.00, 0.00, -0.00, -1.00, 213.0, 320.9)">n</text><text xml:space="preserve" font-family="Menlo-Regular,Menlo" font-size="35.0" fill="#2F8B16" transform="matrix(1.00, 0.00, -0.00, -1.00, 234.1, 320.9)">a</text><text xml:space="preserve" font-family="Menlo-Regular,Menlo" font-size="35.0" fill="#2F8B16" transform="matrix(1.00, 0.00, -0.00, -1.00, 255.2, 320.9)">m</text><text xml:space="preserve" font-family="Menlo-Regular,Menlo" font-size="35.0" fill="#2F8B16" transform="matrix(1.00, 0.00, -0.00, -1.00, 276.2, 320.9)">e</text><text xml:space="preserve" font-family="Menlo-Regular,Menlo" font-size="35.0" fill="#2F8B16" transform="matrix(1.00, 0.00, -0.00, -1.00, 297.3, 320.9)"> </text><text xml:space="preserve" font-family="Menlo-Regular,Menlo" font-size="35.0" fill="#2F8B16" transform="matrix(1.00, 0.00, -0.00, -1.00, 318.4, 320.9)">i</text><text xml:space="preserve" font-family="Menlo-Regular,Menlo" font-size="35.0" fill="#2F8B16" transform="matrix(1.00, 0.00, -0.00, -1.00, 339.5, 320.9)">s</text><text xml:space="preserve" font-family="Menlo-Regular,Menlo" font-size="35.0" fill="#2F8B16" transform="matrix(1.00, 0.00, -0.00, -1.00, 360.5, 320.9)"> </text><text xml:space="preserve" font-family="Menlo-Regular,Menlo" font-size="35.0" fill="#2F8B16" transform="matrix(1.00, 0.00, -0.00, -1.00, 381.6, 320.9)">o</text><text xml:space="preserve" font-family="Menlo-Regular,Menlo" font-size="35.0" fill="#2F8B16" transform="matrix(1.00, 0.00, -0.00, -1.00, 402.7, 320.9)">f</text><text xml:space="preserve" font-family="Menlo-Regular,Menlo" font-size="35.0" fill="#2F8B16" transform="matrix(1.00, 0.00, -0.00, -1.00, 423.8, 320.9)"> </text><text xml:space="preserve" font-family="Menlo-Regular,Menlo" font-size="35.0" fill="#2F8B16" transform="matrix(1.00, 0.00, -0.00, -1.00, 444.8, 320.9)">t</text><text xml:space="preserve" font-family="Menlo-Regular,Menlo" font-size="35.0" fill="#2F8B16" transform="matrix(1.00, 0.00, -0.00, -1.00, 465.9, 320.9)">y</text><text xml:space="preserve" font-family="Menlo-Regular,Menlo" font-size="35.0" fill="#2F8B16" transform="matrix(1.00, 0.00, -0.00, -1.00, 487.0, 320.9)">p</text><text xml:space="preserve" font-family="Menlo-Regular,Menlo" font-size="35.0" fill="#2F8B16" transform="matrix(1.00, 0.00, -0.00, -1.00, 508.1, 320.9)">e</text><text xml:space="preserve" font-family="Menlo-Regular,Menlo" font-size="35.0" fill="#2F8B16" transform="matrix(1.00, 0.00, -0.00, -1.00, 529.1, 320.9)"> </text><text xml:space="preserve" font-family="Menlo-Regular,Menlo" font-size="35.0" fill="#2F8B16" transform="matrix(1.00, 0.00, -0.00, -1.00, 550.2, 320.9)">S</text><text xml:space="preserve" font-family="Menlo-Regular,Menlo" font-size="35.0" fill="#2F8B16" transform="matrix(1.00, 0.00, -0.00, -1.00, 571.3, 320.9)">t</text><text xml:space="preserve" font-family="Menlo-Regular,Menlo" font-size="35.0" fill="#2F8B16" transform="matrix(1.00, 0.00, -0.00, -1.00, 592.4, 320.9)">r</text><text xml:space="preserve" font-family="Menlo-Regular,Menlo" font-size="35.0" fill="#2F8B16" transform="matrix(1.00, 0.00, -0.00, -1.00, 613.4, 320.9)">i</text><text xml:space="preserve" font-family="Menlo-Regular,Menlo" font-size="35.0" fill="#2F8B16" transform="matrix(1.00, 0.00, -0.00, -1.00, 634.5, 320.9)">n</text><text xml:space="preserve" font-family="Menlo-Regular,Menlo" font-size="35.0" fill="#2F8B16" transform="matrix(1.00, 0.00, -0.00, -1.00, 655.6, 320.9)">g</text><text xml:space="preserve" font-family="Menlo-Regular,Menlo" font-size="35.0" fill="#2F8B16" transform="matrix(1.00, 0.00, -0.00, -1.00, 676.7, 320.9)"> </text><text xml:space="preserve" font-family="Menlo-Regular,Menlo" font-size="35.0" fill="#2F8B16" transform="matrix(1.00, 0.00, -0.00, -1.00, 697.8, 320.9)">h</text><text xml:space="preserve" font-family="Menlo-Regular,Menlo" font-size="35.0" fill="#2F8B16" transform="matrix(1.00, 0.00, -0.00, -1.00, 718.8, 320.9)">e</text><text xml:space="preserve" font-family="Menlo-Regular,Menlo" font-size="35.0" fill="#2F8B16" transform="matrix(1.00, 0.00, -0.00, -1.00, 739.9, 320.9)">r</text><text xml:space="preserve" font-family="Menlo-Regular,Menlo" font-size="35.0" fill="#2F8B16" transform="matrix(1.00, 0.00, -0.00, -1.00, 761.0, 320.9)">e</text><text xml:space="preserve" font-family="Menlo-Regular,Menlo" font-size="35.0" fill="#2F8B16" transform="matrix(1.00, 0.00, -0.00, -1.00, 782.1, 320.9)"> </text><text xml:space="preserve" font-family="Menlo-Regular,Menlo" font-size="35.0" fill="#000000" transform="matrix(1.00, 0.00, -0.00, -1.00, 2.3, 280.9)"> </text><text xml:space="preserve" font-family="Menlo-Regular,Menlo" font-size="35.0" fill="#000000" transform="matrix(1.00, 0.00, -0.00, -1.00, 23.4, 280.9)"> </text><text xml:space="preserve" font-family="Menlo-Regular,Menlo" font-size="35.0" fill="#000000" transform="matrix(1.00, 0.00, -0.00, -1.00, 44.4, 280.9)"> </text><text xml:space="preserve" font-family="Menlo-Regular,Menlo" font-size="35.0" fill="#000000" transform="matrix(1.00, 0.00, -0.00, -1.00, 65.5, 280.9)"> </text><text xml:space="preserve" font-family="Menlo-Regular,Menlo" font-size="35.0" fill="#000000" transform="matrix(1.00, 0.00, -0.00, -1.00, 86.6, 280.9)"> </text><text xml:space="preserve" font-family="Menlo-Regular,Menlo" font-size="35.0" fill="#000000" transform="matrix(1.00, 0.00, -0.00, -1.00, 107.7, 280.9)"> </text><text xml:space="preserve" font-family="Menlo-Regular,Menlo" font-size="35.0" fill="#000000" transform="matrix(1.00, 0.00, -0.00, -1.00, 128.7, 280.9)"> </text><text xml:space="preserve" font-family="Menlo-Regular,Menlo" font-size="35.0" fill="#000000" transform="matrix(1.00, 0.00, -0.00, -1.00, 149.8, 280.9)"> </text><text xml:space="preserve" font-family="Menlo-Regular,Menlo" font-size="35.0" fill="#1497FC" transform="matrix(1.00, 0.00, -0.00, -1.00, 170.9, 280.9)">p</text><text xml:space="preserve" font-family="Menlo-Regular,Menlo" font-size="35.0" fill="#1497FC" transform="matrix(1.00, 0.00, -0.00, -1.00, 191.9, 280.9)">r</text><text xml:space="preserve" font-family="Menlo-Regular,Menlo" font-size="35.0" fill="#1497FC" transform="matrix(1.00, 0.00, -0.00, -1.00, 213.0, 280.9)">i</text><text xml:space="preserve" font-family="Menlo-Regular,Menlo" font-size="35.0" fill="#1497FC" transform="matrix(1.00, 0.00, -0.00, -1.00, 234.1, 280.9)">n</text><text xml:space="preserve" font-family="Menlo-Regular,Menlo" font-size="35.0" fill="#1497FC" transform="matrix(1.00, 0.00, -0.00, -1.00, 255.2, 280.9)">t</text><text xml:space="preserve" font-family="Menlo-Regular,Menlo" font-size="35.0" fill="#FFFFFF" transform="matrix(1.00, 0.00, -0.00, -1.00, 276.2, 280.9)">(</text><text xml:space="preserve" font-family="Menlo-Regular,Menlo" font-size="35.0" fill="#D35854" transform="matrix(1.00, 0.00, -0.00, -1.00, 297.3, 280.9)">"</text><text xml:space="preserve" font-family="Menlo-Regular,Menlo" font-size="35.0" fill="#D35854" transform="matrix(1.00, 0.00, -0.00, -1.00, 318.4, 280.9)">H</text><text xml:space="preserve" font-family="Menlo-Regular,Menlo" font-size="35.0" fill="#D35854" transform="matrix(1.00, 0.00, -0.00, -1.00, 339.5, 280.9)">e</text><text xml:space="preserve" font-family="Menlo-Regular,Menlo" font-size="35.0" fill="#D35854" transform="matrix(1.00, 0.00, -0.00, -1.00, 360.5, 280.9)">l</text><text xml:space="preserve" font-family="Menlo-Regular,Menlo" font-size="35.0" fill="#D35854" transform="matrix(1.00, 0.00, -0.00, -1.00, 381.6, 280.9)">l</text><text xml:space="preserve" font-family="Menlo-Regular,Menlo" font-size="35.0" fill="#D35854" transform="matrix(1.00, 0.00, -0.00, -1.00, 402.7, 280.9)">o</text><text xml:space="preserve" font-family="Menlo-Regular,Menlo" font-size="35.0" fill="#D35854" transform="matrix(1.00, 0.00, -0.00, -1.00, 423.8, 280.9)">,</text><text xml:space="preserve" font-family="Menlo-Regular,Menlo" font-size="35.0" fill="#D35854" transform="matrix(1.00, 0.00, -0.00, -1.00, 444.8, 280.9)"> </text><text xml:space="preserve" font-family="Menlo-Regular,Menlo" font-size="35.0" fill="#D35854" transform="matrix(1.00, 0.00, -0.00, -1.00, 465.9, 280.9)">`</text><text xml:space="preserve" font-family="Menlo-Regular,Menlo" font-size="35.0" fill="#D35854" transform="matrix(1.00, 0.00, -0.00, -1.00, 487.0, 280.9)">`</text><text xml:space="preserve" font-family="Menlo-Regular,Menlo" font-size="35.0" fill="#D35854" transform="matrix(1.00, 0.00, -0.00, -1.00, 508.1, 280.9)">n</text><text xml:space="preserve" font-family="Menlo-Regular,Menlo" font-size="35.0" fill="#D35854" transform="matrix(1.00, 0.00, -0.00, -1.00, 529.1, 280.9)">a</text><text xml:space="preserve" font-family="Menlo-Regular,Menlo" font-size="35.0" fill="#D35854" transform="matrix(1.00, 0.00, -0.00, -1.00, 550.2, 280.9)">m</text><text xml:space="preserve" font-family="Menlo-Regular,Menlo" font-size="35.0" fill="#D35854" transform="matrix(1.00, 0.00, -0.00, -1.00, 571.3, 280.9)">e</text><text xml:space="preserve" font-family="Menlo-Regular,Menlo" font-size="35.0" fill="#D35854" transform="matrix(1.00, 0.00, -0.00, -1.00, 592.4, 280.9)">`</text><text xml:space="preserve" font-family="Menlo-Regular,Menlo" font-size="35.0" fill="#D35854" transform="matrix(1.00, 0.00, -0.00, -1.00, 613.4, 280.9)">`</text><text xml:space="preserve" font-family="Menlo-Regular,Menlo" font-size="35.0" fill="#D35854" transform="matrix(1.00, 0.00, -0.00, -1.00, 634.5, 280.9)">!</text><text xml:space="preserve" font-family="Menlo-Regular,Menlo" font-size="35.0" fill="#D35854" transform="matrix(1.00, 0.00, -0.00, -1.00, 655.6, 280.9)">"</text><text xml:space="preserve" font-family="Menlo-Regular,Menlo" font-size="35.0" fill="#FFFFFF" transform="matrix(1.00, 0.00, -0.00, -1.00, 676.6, 280.9)">)</text><text xml:space="preserve" font-family="Menlo-Regular,Menlo" font-size="35.0" fill="#FFFFFF" transform="matrix(1.00, 0.00, -0.00, -1.00, 697.7, 280.9)">;</text><text xml:space="preserve" font-family="Menlo-Regular,Menlo" font-size="35.0" fill="#000000" transform="matrix(1.00, 0.00, -0.00, -1.00, 718.7, 280.9)"> </text><text xml:space="preserve" font-family="Menlo-Regular,Menlo" font-size="35.0" fill="#000000" transform="matrix(1.00, 0.00, -0.00, -1.00, 2.3, 240.9)"> </text><text xml:space="preserve" font-family="Menlo-Regular,Menlo" font-size="35.0" fill="#000000" transform="matrix(1.00, 0.00, -0.00, -1.00, 23.4, 240.9)"> </text><text xml:space="preserve" font-family="Menlo-Regular,Menlo" font-size="35.0" fill="#000000" transform="matrix(1.00, 0.00, -0.00, -1.00, 44.4, 240.9)"> </text><text xml:space="preserve" font-family="Menlo-Regular,Menlo" font-size="35.0" fill="#000000" transform="matrix(1.00, 0.00, -0.00, -1.00, 65.5, 240.9)"> </text><text xml:space="preserve" font-family="Menlo-Regular,Menlo" font-size="35.0" fill="#FFFFFF" transform="matrix(1.00, 0.00, -0.00, -1.00, 86.6, 240.9)">}</text><text xml:space="preserve" font-family="Menlo-Regular,Menlo" font-size="35.0" fill="#FFFFFF" transform="matrix(1.00, 0.00, -0.00, -1.00, 107.7, 240.9)"> </text><text xml:space="preserve" font-family="Menlo-Regular,Menlo" font-size="35.0" fill="#FFFFFF" transform="matrix(1.00, 0.00, -0.00, -1.00, 2.3, 200.9)"> </text><text xml:space="preserve" font-family="Menlo-Regular,Menlo" font-size="35.0" fill="#FFFFFF" transform="matrix(1.00, 0.00, -0.00, -1.00, 23.4, 200.9)"> </text><text xml:space="preserve" font-family="Menlo-Regular,Menlo" font-size="35.0" fill="#FFFFFF" transform="matrix(1.00, 0.00, -0.00, -1.00, 44.4, 200.9)"> </text><text xml:space="preserve" font-family="Menlo-Regular,Menlo" font-size="35.0" fill="#FFFFFF" transform="matrix(1.00, 0.00, -0.00, -1.00, 65.5, 200.9)"> </text><text xml:space="preserve" font-family="Menlo-Regular,Menlo" font-size="35.0" fill="#8881F0" transform="matrix(1.00, 0.00, -0.00, -1.00, 86.6, 200.9)">e</text><text xml:space="preserve" font-family="Menlo-Regular,Menlo" font-size="35.0" fill="#8881F0" transform="matrix(1.00, 0.00, -0.00, -1.00, 107.7, 200.9)">l</text><text xml:space="preserve" font-family="Menlo-Regular,Menlo" font-size="35.0" fill="#8881F0" transform="matrix(1.00, 0.00, -0.00, -1.00, 128.7, 200.9)">s</text><text xml:space="preserve" font-family="Menlo-Regular,Menlo" font-size="35.0" fill="#8881F0" transform="matrix(1.00, 0.00, -0.00, -1.00, 149.8, 200.9)">e</text><text xml:space="preserve" font-family="Menlo-Regular,Menlo" font-size="35.0" fill="#FFFFFF" transform="matrix(1.00, 0.00, -0.00, -1.00, 170.9, 200.9)"> </text><text xml:space="preserve" font-family="Menlo-Regular,Menlo" font-size="35.0" fill="#FFFFFF" transform="matrix(1.00, 0.00, -0.00, -1.00, 191.9, 200.9)">{</text><text xml:space="preserve" font-family="Menlo-Regular,Menlo" font-size="35.0" fill="#FFFFFF" transform="matrix(1.00, 0.00, -0.00, -1.00, 213.0, 200.9)"> </text><text xml:space="preserve" font-family="Menlo-Regular,Menlo" font-size="35.0" fill="#FFFFFF" transform="matrix(1.00, 0.00, -0.00, -1.00, 2.3, 160.9)"> </text><text xml:space="preserve" font-family="Menlo-Regular,Menlo" font-size="35.0" fill="#FFFFFF" transform="matrix(1.00, 0.00, -0.00, -1.00, 23.4, 160.9)"> </text><text xml:space="preserve" font-family="Menlo-Regular,Menlo" font-size="35.0" fill="#FFFFFF" transform="matrix(1.00, 0.00, -0.00, -1.00, 44.4, 160.9)"> </text><text xml:space="preserve" font-family="Menlo-Regular,Menlo" font-size="35.0" fill="#FFFFFF" transform="matrix(1.00, 0.00, -0.00, -1.00, 65.5, 160.9)"> </text><text xml:space="preserve" font-family="Menlo-Regular,Menlo" font-size="35.0" fill="#FFFFFF" transform="matrix(1.00, 0.00, -0.00, -1.00, 86.6, 160.9)"> </text><text xml:space="preserve" font-family="Menlo-Regular,Menlo" font-size="35.0" fill="#FFFFFF" transform="matrix(1.00, 0.00, -0.00, -1.00, 107.7, 160.9)"> </text><text xml:space="preserve" font-family="Menlo-Regular,Menlo" font-size="35.0" fill="#FFFFFF" transform="matrix(1.00, 0.00, -0.00, -1.00, 128.7, 160.9)"> </text><text xml:space="preserve" font-family="Menlo-Regular,Menlo" font-size="35.0" fill="#FFFFFF" transform="matrix(1.00, 0.00, -0.00, -1.00, 149.8, 160.9)"> </text><text xml:space="preserve" font-family="Menlo-Regular,Menlo" font-size="35.0" fill="#1497FC" transform="matrix(1.00, 0.00, -0.00, -1.00, 170.9, 160.9)">p</text><text xml:space="preserve" font-family="Menlo-Regular,Menlo" font-size="35.0" fill="#1497FC" transform="matrix(1.00, 0.00, -0.00, -1.00, 191.9, 160.9)">r</text><text xml:space="preserve" font-family="Menlo-Regular,Menlo" font-size="35.0" fill="#1497FC" transform="matrix(1.00, 0.00, -0.00, -1.00, 213.0, 160.9)">i</text><text xml:space="preserve" font-family="Menlo-Regular,Menlo" font-size="35.0" fill="#1497FC" transform="matrix(1.00, 0.00, -0.00, -1.00, 234.1, 160.9)">n</text><text xml:space="preserve" font-family="Menlo-Regular,Menlo" font-size="35.0" fill="#1497FC" transform="matrix(1.00, 0.00, -0.00, -1.00, 255.2, 160.9)">t</text><text xml:space="preserve" font-family="Menlo-Regular,Menlo" font-size="35.0" fill="#FFFFFF" transform="matrix(1.00, 0.00, -0.00, -1.00, 276.2, 160.9)">(</text><text xml:space="preserve" font-family="Menlo-Regular,Menlo" font-size="35.0" fill="#D35854" transform="matrix(1.00, 0.00, -0.00, -1.00, 297.3, 160.9)">"</text><text xml:space="preserve" font-family="Menlo-Regular,Menlo" font-size="35.0" fill="#D35854" transform="matrix(1.00, 0.00, -0.00, -1.00, 318.4, 160.9)">H</text><text xml:space="preserve" font-family="Menlo-Regular,Menlo" font-size="35.0" fill="#D35854" transform="matrix(1.00, 0.00, -0.00, -1.00, 339.5, 160.9)">e</text><text xml:space="preserve" font-family="Menlo-Regular,Menlo" font-size="35.0" fill="#D35854" transform="matrix(1.00, 0.00, -0.00, -1.00, 360.5, 160.9)">l</text><text xml:space="preserve" font-family="Menlo-Regular,Menlo" font-size="35.0" fill="#D35854" transform="matrix(1.00, 0.00, -0.00, -1.00, 381.6, 160.9)">l</text><text xml:space="preserve" font-family="Menlo-Regular,Menlo" font-size="35.0" fill="#D35854" transform="matrix(1.00, 0.00, -0.00, -1.00, 402.7, 160.9)">o</text><text xml:space="preserve" font-family="Menlo-Regular,Menlo" font-size="35.0" fill="#D35854" transform="matrix(1.00, 0.00, -0.00, -1.00, 423.8, 160.9)">,</text><text xml:space="preserve" font-family="Menlo-Regular,Menlo" font-size="35.0" fill="#D35854" transform="matrix(1.00, 0.00, -0.00, -1.00, 444.8, 160.9)"> </text><text xml:space="preserve" font-family="Menlo-Regular,Menlo" font-size="35.0" fill="#D35854" transform="matrix(1.00, 0.00, -0.00, -1.00, 465.9, 160.9)">w</text><text xml:space="preserve" font-family="Menlo-Regular,Menlo" font-size="35.0" fill="#D35854" transform="matrix(1.00, 0.00, -0.00, -1.00, 487.0, 160.9)">o</text><text xml:space="preserve" font-family="Menlo-Regular,Menlo" font-size="35.0" fill="#D35854" transform="matrix(1.00, 0.00, -0.00, -1.00, 508.1, 160.9)">r</text><text xml:space="preserve" font-family="Menlo-Regular,Menlo" font-size="35.0" fill="#D35854" transform="matrix(1.00, 0.00, -0.00, -1.00, 529.1, 160.9)">l</text><text xml:space="preserve" font-family="Menlo-Regular,Menlo" font-size="35.0" fill="#D35854" transform="matrix(1.00, 0.00, -0.00, -1.00, 550.2, 160.9)">d</text><text xml:space="preserve" font-family="Menlo-Regular,Menlo" font-size="35.0" fill="#D35854" transform="matrix(1.00, 0.00, -0.00, -1.00, 571.3, 160.9)">!</text><text xml:space="preserve" font-family="Menlo-Regular,Menlo" font-size="35.0" fill="#D35854" transform="matrix(1.00, 0.00, -0.00, -1.00, 592.4, 160.9)">"</text><text xml:space="preserve" font-family="Menlo-Regular,Menlo" font-size="35.0" fill="#FFFFFF" transform="matrix(1.00, 0.00, -0.00, -1.00, 613.4, 160.9)">)</text><text xml:space="preserve" font-family="Menlo-Regular,Menlo" font-size="35.0" fill="#FFFFFF" transform="matrix(1.00, 0.00, -0.00, -1.00, 634.5, 160.9)">;</text><text xml:space="preserve" font-family="Menlo-Regular,Menlo" font-size="35.0" fill="#FFFFFF" transform="matrix(1.00, 0.00, -0.00, -1.00, 655.5, 160.9)"> </text><text xml:space="preserve" font-family="Menlo-Regular,Menlo" font-size="35.0" fill="#FFFFFF" transform="matrix(1.00, 0.00, -0.00, -1.00, 2.3, 120.9)"> </text><text xml:space="preserve" font-family="Menlo-Regular,Menlo" font-size="35.0" fill="#FFFFFF" transform="matrix(1.00, 0.00, -0.00, -1.00, 23.4, 120.9)"> </text><text xml:space="preserve" font-family="Menlo-Regular,Menlo" font-size="35.0" fill="#FFFFFF" transform="matrix(1.00, 0.00, -0.00, -1.00, 44.4, 120.9)"> </text><text xml:space="preserve" font-family="Menlo-Regular,Menlo" font-size="35.0" fill="#FFFFFF" transform="matrix(1.00, 0.00, -0.00, -1.00, 65.5, 120.9)"> </text><text xml:space="preserve" font-family="Menlo-Regular,Menlo" font-size="35.0" fill="#FFFFFF" transform="matrix(1.00, 0.00, -0.00, -1.00, 86.6, 120.9)">}</text><text xml:space="preserve" font-family="Menlo-Regular,Menlo" font-size="35.0" fill="#FFFFFF" transform="matrix(1.00, 0.00, -0.00, -1.00, 107.7, 120.9)"> </text><text xml:space="preserve" font-family="Menlo-Regular,Menlo" font-size="35.0" fill="#FFFFFF" transform="matrix(1.00, 0.00, -0.00, -1.00, 2.3, 80.9)">}</text><text xml:space="preserve" font-family="Menlo-Regular,Menlo" font-size="35.0" fill="#FFFFFF" transform="matrix(1.00, 0.00, -0.00, -1.00, 23.4, 80.9)"> </text></g></svg>