<?xml version="1.0" encoding="UTF-8" standalone="no"?><svg xmlns="http://www.w3.org/2000/svg" xmlns:xlink="http://www.w3.org/1999/xlink" clip-rule="evenodd" stroke-miterlimit="10" viewBox="0 0 865 399"><desc>SVG generated by Keynote</desc><defs></defs><g transform="matrix(1.00, 0.00, -0.00, -1.00, 0.0, 399.0)"><text xml:space="preserve" font-family="Menlo-Regular,Menlo" font-size="35.0" fill="#FFFFFF" transform="matrix(1.00, 0.00, -0.00, -1.00, 0.2, 369.4)">d</text><text xml:space="preserve" font-family="Menlo-Regular,Menlo" font-size="35.0" fill="#FFFFFF" transform="matrix(1.00, 0.00, -0.00, -1.00, 21.3, 369.4)">e</text><text xml:space="preserve" font-family="Menlo-Regular,Menlo" font-size="35.0" fill="#FFFFFF" transform="matrix(1.00, 0.00, -0.00, -1.00, 42.4, 369.4)">f</text><text xml:space="preserve" font-family="Menlo-Regular,Menlo" font-size="35.0" fill="#FFFFFF" transform="matrix(1.00, 0.00, -0.00, -1.00, 63.5, 369.4)"> </text><text xml:space="preserve" font-family="Menlo-Regular,Menlo" font-size="35.0" fill="#08FA95" transform="matrix(1.00, 0.00, -0.00, -1.00, 84.5, 369.4)">s</text><text xml:space="preserve" font-family="Menlo-Regular,Menlo" font-size="35.0" fill="#08FA95" transform="matrix(1.00, 0.00, -0.00, -1.00, 105.6, 369.4)">h</text><text xml:space="preserve" font-family="Menlo-Regular,Menlo" font-size="35.0" fill="#08FA95" transform="matrix(1.00, 0.00, -0.00, -1.00, 126.7, 369.4)">o</text><text xml:space="preserve" font-family="Menlo-Regular,Menlo" font-size="35.0" fill="#08FA95" transform="matrix(1.00, 0.00, -0.00, -1.00, 147.8, 369.4)">p</text><text xml:space="preserve" font-family="Menlo-Regular,Menlo" font-size="35.0" fill="#08FA95" transform="matrix(1.00, 0.00, -0.00, -1.00, 168.8, 369.4)">p</text><text xml:space="preserve" font-family="Menlo-Regular,Menlo" font-size="35.0" fill="#08FA95" transform="matrix(1.00, 0.00, -0.00, -1.00, 189.9, 369.4)">i</text><text xml:space="preserve" font-family="Menlo-Regular,Menlo" font-size="35.0" fill="#08FA95" transform="matrix(1.00, 0.00, -0.00, -1.00, 211.0, 369.4)">n</text><text xml:space="preserve" font-family="Menlo-Regular,Menlo" font-size="35.0" fill="#08FA95" transform="matrix(1.00, 0.00, -0.00, -1.00, 232.1, 369.4)">g</text><text xml:space="preserve" font-family="Menlo-Regular,Menlo" font-size="35.0" fill="#08FA95" transform="matrix(1.00, 0.00, -0.00, -1.00, 253.1, 369.4)">L</text><text xml:space="preserve" font-family="Menlo-Regular,Menlo" font-size="35.0" fill="#08FA95" transform="matrix(1.00, 0.00, -0.00, -1.00, 274.2, 369.4)">i</text><text xml:space="preserve" font-family="Menlo-Regular,Menlo" font-size="35.0" fill="#08FA95" transform="matrix(1.00, 0.00, -0.00, -1.00, 295.3, 369.4)">s</text><text xml:space="preserve" font-family="Menlo-Regular,Menlo" font-size="35.0" fill="#08FA95" transform="matrix(1.00, 0.00, -0.00, -1.00, 316.4, 369.4)">t</text><text xml:space="preserve" font-family="Menlo-Regular,Menlo" font-size="35.0" fill="#FFFFFF" transform="matrix(1.00, 0.00, -0.00, -1.00, 337.4, 369.4)"> </text><text xml:space="preserve" font-family="Menlo-Regular,Menlo" font-size="35.0" fill="#FFFFFF" transform="matrix(1.00, 0.00, -0.00, -1.00, 358.5, 369.4)">=</text><text xml:space="preserve" font-family="Menlo-Regular,Menlo" font-size="35.0" fill="#FFFFFF" transform="matrix(1.00, 0.00, -0.00, -1.00, 379.5, 369.4)"> </text><text xml:space="preserve" font-family="Menlo-Regular,Menlo" font-size="35.0" fill="#FFFFFF" transform="matrix(1.00, 0.00, -0.00, -1.00, 400.6, 369.4)">[</text><text xml:space="preserve" font-family="Menlo-Regular,Menlo" font-size="35.0" fill="#FF4647" transform="matrix(1.00, 0.00, -0.00, -1.00, 421.7, 369.4)">"</text><text xml:space="preserve" font-family="Menlo-Regular,Menlo" font-size="35.0" fill="#FF4647" transform="matrix(1.00, 0.00, -0.00, -1.00, 442.8, 369.4)">c</text><text xml:space="preserve" font-family="Menlo-Regular,Menlo" font-size="35.0" fill="#FF4647" transform="matrix(1.00, 0.00, -0.00, -1.00, 463.8, 369.4)">a</text><text xml:space="preserve" font-family="Menlo-Regular,Menlo" font-size="35.0" fill="#FF4647" transform="matrix(1.00, 0.00, -0.00, -1.00, 484.9, 369.4)">t</text><text xml:space="preserve" font-family="Menlo-Regular,Menlo" font-size="35.0" fill="#FF4647" transform="matrix(1.00, 0.00, -0.00, -1.00, 506.0, 369.4)">f</text><text xml:space="preserve" font-family="Menlo-Regular,Menlo" font-size="35.0" fill="#FF4647" transform="matrix(1.00, 0.00, -0.00, -1.00, 527.1, 369.4)">i</text><text xml:space="preserve" font-family="Menlo-Regular,Menlo" font-size="35.0" fill="#FF4647" transform="matrix(1.00, 0.00, -0.00, -1.00, 548.1, 369.4)">s</text><text xml:space="preserve" font-family="Menlo-Regular,Menlo" font-size="35.0" fill="#FF4647" transform="matrix(1.00, 0.00, -0.00, -1.00, 569.2, 369.4)">h</text><text xml:space="preserve" font-family="Menlo-Regular,Menlo" font-size="35.0" fill="#FF4647" transform="matrix(1.00, 0.00, -0.00, -1.00, 590.3, 369.4)">"</text><text xml:space="preserve" font-family="Menlo-Regular,Menlo" font-size="35.0" fill="#FFFFFF" transform="matrix(1.00, 0.00, -0.00, -1.00, 611.3, 369.4)">,</text><text xml:space="preserve" font-family="Menlo-Regular,Menlo" font-size="35.0" fill="#FFFFFF" transform="matrix(1.00, 0.00, -0.00, -1.00, 632.4, 369.4)"> </text><text xml:space="preserve" font-family="Menlo-Regular,Menlo" font-size="35.0" fill="#FF4647" transform="matrix(1.00, 0.00, -0.00, -1.00, 653.5, 369.4)">"</text><text xml:space="preserve" font-family="Menlo-Regular,Menlo" font-size="35.0" fill="#FF4647" transform="matrix(1.00, 0.00, -0.00, -1.00, 674.5, 369.4)">w</text><text xml:space="preserve" font-family="Menlo-Regular,Menlo" font-size="35.0" fill="#FF4647" transform="matrix(1.00, 0.00, -0.00, -1.00, 695.6, 369.4)">a</text><text xml:space="preserve" font-family="Menlo-Regular,Menlo" font-size="35.0" fill="#FF4647" transform="matrix(1.00, 0.00, -0.00, -1.00, 716.7, 369.4)">t</text><text xml:space="preserve" font-family="Menlo-Regular,Menlo" font-size="35.0" fill="#FF4647" transform="matrix(1.00, 0.00, -0.00, -1.00, 737.8, 369.4)">e</text><text xml:space="preserve" font-family="Menlo-Regular,Menlo" font-size="35.0" fill="#FF4647" transform="matrix(1.00, 0.00, -0.00, -1.00, 758.8, 369.4)">r</text><text xml:space="preserve" font-family="Menlo-Regular,Menlo" font-size="35.0" fill="#FF4647" transform="matrix(1.00, 0.00, -0.00, -1.00, 779.9, 369.4)">"</text><text xml:space="preserve" font-family="Menlo-Regular,Menlo" font-size="35.0" fill="#FFFFFF" transform="matrix(1.00, 0.00, -0.00, -1.00, 801.0, 369.4)">]</text><text xml:space="preserve" font-family="Menlo-Regular,Menlo" font-size="35.0" fill="#FFFFFF" transform="matrix(1.00, 0.00, -0.00, -1.00, 822.1, 369.4)"> </text><text xml:space="preserve" font-family="Menlo-Regular,Menlo" font-size="35.0" fill="#08FA95" transform="matrix(1.00, 0.00, -0.00, -1.00, 0.2, 329.4)">s</text><text xml:space="preserve" font-family="Menlo-Regular,Menlo" font-size="35.0" fill="#08FA95" transform="matrix(1.00, 0.00, -0.00, -1.00, 21.3, 329.4)">h</text><text xml:space="preserve" font-family="Menlo-Regular,Menlo" font-size="35.0" fill="#08FA95" transform="matrix(1.00, 0.00, -0.00, -1.00, 42.4, 329.4)">o</text><text xml:space="preserve" font-family="Menlo-Regular,Menlo" font-size="35.0" fill="#08FA95" transform="matrix(1.00, 0.00, -0.00, -1.00, 63.5, 329.4)">p</text><text xml:space="preserve" font-family="Menlo-Regular,Menlo" font-size="35.0" fill="#08FA95" transform="matrix(1.00, 0.00, -0.00, -1.00, 84.5, 329.4)">p</text><text xml:space="preserve" font-family="Menlo-Regular,Menlo" font-size="35.0" fill="#08FA95" transform="matrix(1.00, 0.00, -0.00, -1.00, 105.6, 329.4)">i</text><text xml:space="preserve" font-family="Menlo-Regular,Menlo" font-size="35.0" fill="#08FA95" transform="matrix(1.00, 0.00, -0.00, -1.00, 126.7, 329.4)">n</text><text xml:space="preserve" font-family="Menlo-Regular,Menlo" font-size="35.0" fill="#08FA95" transform="matrix(1.00, 0.00, -0.00, -1.00, 147.8, 329.4)">g</text><text xml:space="preserve" font-family="Menlo-Regular,Menlo" font-size="35.0" fill="#08FA95" transform="matrix(1.00, 0.00, -0.00, -1.00, 168.9, 329.4)">L</text><text xml:space="preserve" font-family="Menlo-Regular,Menlo" font-size="35.0" fill="#08FA95" transform="matrix(1.00, 0.00, -0.00, -1.00, 189.9, 329.4)">i</text><text xml:space="preserve" font-family="Menlo-Regular,Menlo" font-size="35.0" fill="#08FA95" transform="matrix(1.00, 0.00, -0.00, -1.00, 211.0, 329.4)">s</text><text xml:space="preserve" font-family="Menlo-Regular,Menlo" font-size="35.0" fill="#08FA95" transform="matrix(1.00, 0.00, -0.00, -1.00, 232.1, 329.4)">t</text><text xml:space="preserve" font-family="Menlo-Regular,Menlo" font-size="35.0" fill="#FFFFFF" transform="matrix(1.00, 0.00, -0.00, -1.00, 253.1, 329.4)">[</text><text xml:space="preserve" font-family="Menlo-Regular,Menlo" font-size="35.0" fill="#8B87FF" transform="matrix(1.00, 0.00, -0.00, -1.00, 274.2, 329.4)">1</text><text xml:space="preserve" font-family="Menlo-Regular,Menlo" font-size="35.0" fill="#FFFFFF" transform="matrix(1.00, 0.00, -0.00, -1.00, 295.3, 329.4)">]</text><text xml:space="preserve" font-family="Menlo-Regular,Menlo" font-size="35.0" fill="#FFFFFF" transform="matrix(1.00, 0.00, -0.00, -1.00, 316.3, 329.4)"> </text><text xml:space="preserve" font-family="Menlo-Regular,Menlo" font-size="35.0" fill="#FFFFFF" transform="matrix(1.00, 0.00, -0.00, -1.00, 337.4, 329.4)">=</text><text xml:space="preserve" font-family="Menlo-Regular,Menlo" font-size="35.0" fill="#FFFFFF" transform="matrix(1.00, 0.00, -0.00, -1.00, 358.5, 329.4)"> </text><text xml:space="preserve" font-family="Menlo-Regular,Menlo" font-size="35.0" fill="#FF4647" transform="matrix(1.00, 0.00, -0.00, -1.00, 379.5, 329.4)">"</text><text xml:space="preserve" font-family="Menlo-Regular,Menlo" font-size="35.0" fill="#FF4647" transform="matrix(1.00, 0.00, -0.00, -1.00, 400.6, 329.4)">b</text><text xml:space="preserve" font-family="Menlo-Regular,Menlo" font-size="35.0" fill="#FF4647" transform="matrix(1.00, 0.00, -0.00, -1.00, 421.7, 329.4)">o</text><text xml:space="preserve" font-family="Menlo-Regular,Menlo" font-size="35.0" fill="#FF4647" transform="matrix(1.00, 0.00, -0.00, -1.00, 442.8, 329.4)">t</text><text xml:space="preserve" font-family="Menlo-Regular,Menlo" font-size="35.0" fill="#FF4647" transform="matrix(1.00, 0.00, -0.00, -1.00, 463.8, 329.4)">t</text><text xml:space="preserve" font-family="Menlo-Regular,Menlo" font-size="35.0" fill="#FF4647" transform="matrix(1.00, 0.00, -0.00, -1.00, 484.9, 329.4)">l</text><text xml:space="preserve" font-family="Menlo-Regular,Menlo" font-size="35.0" fill="#FF4647" transform="matrix(1.00, 0.00, -0.00, -1.00, 506.0, 329.4)">e</text><text xml:space="preserve" font-family="Menlo-Regular,Menlo" font-size="35.0" fill="#FF4647" transform="matrix(1.00, 0.00, -0.00, -1.00, 527.1, 329.4)"> </text><text xml:space="preserve" font-family="Menlo-Regular,Menlo" font-size="35.0" fill="#FF4647" transform="matrix(1.00, 0.00, -0.00, -1.00, 548.1, 329.4)">o</text><text xml:space="preserve" font-family="Menlo-Regular,Menlo" font-size="35.0" fill="#FF4647" transform="matrix(1.00, 0.00, -0.00, -1.00, 569.2, 329.4)">f</text><text xml:space="preserve" font-family="Menlo-Regular,Menlo" font-size="35.0" fill="#FF4647" transform="matrix(1.00, 0.00, -0.00, -1.00, 590.3, 329.4)"> </text><text xml:space="preserve" font-family="Menlo-Regular,Menlo" font-size="35.0" fill="#FF4647" transform="matrix(1.00, 0.00, -0.00, -1.00, 611.4, 329.4)">w</text><text xml:space="preserve" font-family="Menlo-Regular,Menlo" font-size="35.0" fill="#FF4647" transform="matrix(1.00, 0.00, -0.00, -1.00, 632.4, 329.4)">a</text><text xml:space="preserve" font-family="Menlo-Regular,Menlo" font-size="35.0" fill="#FF4647" transform="matrix(1.00, 0.00, -0.00, -1.00, 653.5, 329.4)">t</text><text xml:space="preserve" font-family="Menlo-Regular,Menlo" font-size="35.0" fill="#FF4647" transform="matrix(1.00, 0.00, -0.00, -1.00, 674.6, 329.4)">e</text><text xml:space="preserve" font-family="Menlo-Regular,Menlo" font-size="35.0" fill="#FF4647" transform="matrix(1.00, 0.00, -0.00, -1.00, 695.7, 329.4)">r</text><text xml:space="preserve" font-family="Menlo-Regular,Menlo" font-size="35.0" fill="#FF4647" transform="matrix(1.00, 0.00, -0.00, -1.00, 716.7, 329.4)">"</text><text xml:space="preserve" font-family="Menlo-Regular,Menlo" font-size="35.0" fill="#FFFFFF" transform="matrix(1.00, 0.00, -0.00, -1.00, 737.8, 329.4)"> </text><text xml:space="preserve" font-family="Menlo-Regular,Menlo" font-size="35.0" fill="#FFFFFF" transform="matrix(1.00, 0.00, -0.00, -1.00, 0.2, 249.4)">d</text><text xml:space="preserve" font-family="Menlo-Regular,Menlo" font-size="35.0" fill="#FFFFFF" transform="matrix(1.00, 0.00, -0.00, -1.00, 21.3, 249.4)">e</text><text xml:space="preserve" font-family="Menlo-Regular,Menlo" font-size="35.0" fill="#FFFFFF" transform="matrix(1.00, 0.00, -0.00, -1.00, 42.4, 249.4)">f</text><text xml:space="preserve" font-family="Menlo-Regular,Menlo" font-size="35.0" fill="#FFFFFF" transform="matrix(1.00, 0.00, -0.00, -1.00, 63.5, 249.4)"> </text><text xml:space="preserve" font-family="Menlo-Regular,Menlo" font-size="35.0" fill="#08FA95" transform="matrix(1.00, 0.00, -0.00, -1.00, 84.5, 249.4)">o</text><text xml:space="preserve" font-family="Menlo-Regular,Menlo" font-size="35.0" fill="#08FA95" transform="matrix(1.00, 0.00, -0.00, -1.00, 105.6, 249.4)">c</text><text xml:space="preserve" font-family="Menlo-Regular,Menlo" font-size="35.0" fill="#08FA95" transform="matrix(1.00, 0.00, -0.00, -1.00, 126.7, 249.4)">c</text><text xml:space="preserve" font-family="Menlo-Regular,Menlo" font-size="35.0" fill="#08FA95" transform="matrix(1.00, 0.00, -0.00, -1.00, 147.8, 249.4)">u</text><text xml:space="preserve" font-family="Menlo-Regular,Menlo" font-size="35.0" fill="#08FA95" transform="matrix(1.00, 0.00, -0.00, -1.00, 168.8, 249.4)">p</text><text xml:space="preserve" font-family="Menlo-Regular,Menlo" font-size="35.0" fill="#08FA95" transform="matrix(1.00, 0.00, -0.00, -1.00, 189.9, 249.4)">a</text><text xml:space="preserve" font-family="Menlo-Regular,Menlo" font-size="35.0" fill="#08FA95" transform="matrix(1.00, 0.00, -0.00, -1.00, 211.0, 249.4)">t</text><text xml:space="preserve" font-family="Menlo-Regular,Menlo" font-size="35.0" fill="#08FA95" transform="matrix(1.00, 0.00, -0.00, -1.00, 232.1, 249.4)">i</text><text xml:space="preserve" font-family="Menlo-Regular,Menlo" font-size="35.0" fill="#08FA95" transform="matrix(1.00, 0.00, -0.00, -1.00, 253.1, 249.4)">o</text><text xml:space="preserve" font-family="Menlo-Regular,Menlo" font-size="35.0" fill="#08FA95" transform="matrix(1.00, 0.00, -0.00, -1.00, 274.2, 249.4)">n</text><text xml:space="preserve" font-family="Menlo-Regular,Menlo" font-size="35.0" fill="#08FA95" transform="matrix(1.00, 0.00, -0.00, -1.00, 295.3, 249.4)">s</text><text xml:space="preserve" font-family="Menlo-Regular,Menlo" font-size="35.0" fill="#FFFFFF" transform="matrix(1.00, 0.00, -0.00, -1.00, 316.3, 249.4)"> </text><text xml:space="preserve" font-family="Menlo-Regular,Menlo" font-size="35.0" fill="#FFFFFF" transform="matrix(1.00, 0.00, -0.00, -1.00, 337.4, 249.4)">=</text><text xml:space="preserve" font-family="Menlo-Regular,Menlo" font-size="35.0" fill="#FFFFFF" transform="matrix(1.00, 0.00, -0.00, -1.00, 358.5, 249.4)"> </text><text xml:space="preserve" font-family="Menlo-Regular,Menlo" font-size="35.0" fill="#FFFFFF" transform="matrix(1.00, 0.00, -0.00, -1.00, 379.6, 249.4)">[</text><text xml:space="preserve" font-family="Menlo-Regular,Menlo" font-size="35.0" fill="#FFFFFF" transform="matrix(1.00, 0.00, -0.00, -1.00, 400.6, 249.4)"> </text><text xml:space="preserve" font-family="Menlo-Regular,Menlo" font-size="35.0" fill="#FFFFFF" transform="matrix(1.00, 0.00, -0.00, -1.00, 0.2, 209.4)"> </text><text xml:space="preserve" font-family="Menlo-Regular,Menlo" font-size="35.0" fill="#FFFFFF" transform="matrix(1.00, 0.00, -0.00, -1.00, 21.3, 209.4)"> </text><text xml:space="preserve" font-family="Menlo-Regular,Menlo" font-size="35.0" fill="#FFFFFF" transform="matrix(1.00, 0.00, -0.00, -1.00, 42.4, 209.4)"> </text><text xml:space="preserve" font-family="Menlo-Regular,Menlo" font-size="35.0" fill="#FFFFFF" transform="matrix(1.00, 0.00, -0.00, -1.00, 63.5, 209.4)"> </text><text xml:space="preserve" font-family="Menlo-Regular,Menlo" font-size="35.0" fill="#FF4647" transform="matrix(1.00, 0.00, -0.00, -1.00, 84.5, 209.4)">"</text><text xml:space="preserve" font-family="Menlo-Regular,Menlo" font-size="35.0" fill="#FF4647" transform="matrix(1.00, 0.00, -0.00, -1.00, 105.6, 209.4)">M</text><text xml:space="preserve" font-family="Menlo-Regular,Menlo" font-size="35.0" fill="#FF4647" transform="matrix(1.00, 0.00, -0.00, -1.00, 126.7, 209.4)">a</text><text xml:space="preserve" font-family="Menlo-Regular,Menlo" font-size="35.0" fill="#FF4647" transform="matrix(1.00, 0.00, -0.00, -1.00, 147.8, 209.4)">l</text><text xml:space="preserve" font-family="Menlo-Regular,Menlo" font-size="35.0" fill="#FF4647" transform="matrix(1.00, 0.00, -0.00, -1.00, 168.8, 209.4)">c</text><text xml:space="preserve" font-family="Menlo-Regular,Menlo" font-size="35.0" fill="#FF4647" transform="matrix(1.00, 0.00, -0.00, -1.00, 189.9, 209.4)">o</text><text xml:space="preserve" font-family="Menlo-Regular,Menlo" font-size="35.0" fill="#FF4647" transform="matrix(1.00, 0.00, -0.00, -1.00, 211.0, 209.4)">l</text><text xml:space="preserve" font-family="Menlo-Regular,Menlo" font-size="35.0" fill="#FF4647" transform="matrix(1.00, 0.00, -0.00, -1.00, 232.1, 209.4)">m</text><text xml:space="preserve" font-family="Menlo-Regular,Menlo" font-size="35.0" fill="#FF4647" transform="matrix(1.00, 0.00, -0.00, -1.00, 253.1, 209.4)">"</text><text xml:space="preserve" font-family="Menlo-Regular,Menlo" font-size="35.0" fill="#FFFFFF" transform="matrix(1.00, 0.00, -0.00, -1.00, 274.2, 209.4)">:</text><text xml:space="preserve" font-family="Menlo-Regular,Menlo" font-size="35.0" fill="#FFFFFF" transform="matrix(1.00, 0.00, -0.00, -1.00, 295.3, 209.4)"> </text><text xml:space="preserve" font-family="Menlo-Regular,Menlo" font-size="35.0" fill="#FF4647" transform="matrix(1.00, 0.00, -0.00, -1.00, 316.3, 209.4)">"</text><text xml:space="preserve" font-family="Menlo-Regular,Menlo" font-size="35.0" fill="#FF4647" transform="matrix(1.00, 0.00, -0.00, -1.00, 337.4, 209.4)">C</text><text xml:space="preserve" font-family="Menlo-Regular,Menlo" font-size="35.0" fill="#FF4647" transform="matrix(1.00, 0.00, -0.00, -1.00, 358.5, 209.4)">a</text><text xml:space="preserve" font-family="Menlo-Regular,Menlo" font-size="35.0" fill="#FF4647" transform="matrix(1.00, 0.00, -0.00, -1.00, 379.6, 209.4)">p</text><text xml:space="preserve" font-family="Menlo-Regular,Menlo" font-size="35.0" fill="#FF4647" transform="matrix(1.00, 0.00, -0.00, -1.00, 400.6, 209.4)">t</text><text xml:space="preserve" font-family="Menlo-Regular,Menlo" font-size="35.0" fill="#FF4647" transform="matrix(1.00, 0.00, -0.00, -1.00, 421.7, 209.4)">a</text><text xml:space="preserve" font-family="Menlo-Regular,Menlo" font-size="35.0" fill="#FF4647" transform="matrix(1.00, 0.00, -0.00, -1.00, 442.8, 209.4)">i</text><text xml:space="preserve" font-family="Menlo-Regular,Menlo" font-size="35.0" fill="#FF4647" transform="matrix(1.00, 0.00, -0.00, -1.00, 463.9, 209.4)">n</text><text xml:space="preserve" font-family="Menlo-Regular,Menlo" font-size="35.0" fill="#FF4647" transform="matrix(1.00, 0.00, -0.00, -1.00, 484.9, 209.4)">"</text><text xml:space="preserve" font-family="Menlo-Regular,Menlo" font-size="35.0" fill="#FFFFFF" transform="matrix(1.00, 0.00, -0.00, -1.00, 506.0, 209.4)">,</text><text xml:space="preserve" font-family="Menlo-Regular,Menlo" font-size="35.0" fill="#FFFFFF" transform="matrix(1.00, 0.00, -0.00, -1.00, 527.0, 209.4)"> </text><text xml:space="preserve" font-family="Menlo-Regular,Menlo" font-size="35.0" fill="#FFFFFF" transform="matrix(1.00, 0.00, -0.00, -1.00, 0.2, 169.4)"> </text><text xml:space="preserve" font-family="Menlo-Regular,Menlo" font-size="35.0" fill="#FFFFFF" transform="matrix(1.00, 0.00, -0.00, -1.00, 21.3, 169.4)"> </text><text xml:space="preserve" font-family="Menlo-Regular,Menlo" font-size="35.0" fill="#FFFFFF" transform="matrix(1.00, 0.00, -0.00, -1.00, 42.4, 169.4)"> </text><text xml:space="preserve" font-family="Menlo-Regular,Menlo" font-size="35.0" fill="#FFFFFF" transform="matrix(1.00, 0.00, -0.00, -1.00, 63.5, 169.4)"> </text><text xml:space="preserve" font-family="Menlo-Regular,Menlo" font-size="35.0" fill="#FF4647" transform="matrix(1.00, 0.00, -0.00, -1.00, 84.5, 169.4)">"</text><text xml:space="preserve" font-family="Menlo-Regular,Menlo" font-size="35.0" fill="#FF4647" transform="matrix(1.00, 0.00, -0.00, -1.00, 105.6, 169.4)">K</text><text xml:space="preserve" font-family="Menlo-Regular,Menlo" font-size="35.0" fill="#FF4647" transform="matrix(1.00, 0.00, -0.00, -1.00, 126.7, 169.4)">a</text><text xml:space="preserve" font-family="Menlo-Regular,Menlo" font-size="35.0" fill="#FF4647" transform="matrix(1.00, 0.00, -0.00, -1.00, 147.8, 169.4)">y</text><text xml:space="preserve" font-family="Menlo-Regular,Menlo" font-size="35.0" fill="#FF4647" transform="matrix(1.00, 0.00, -0.00, -1.00, 168.8, 169.4)">l</text><text xml:space="preserve" font-family="Menlo-Regular,Menlo" font-size="35.0" fill="#FF4647" transform="matrix(1.00, 0.00, -0.00, -1.00, 189.9, 169.4)">e</text><text xml:space="preserve" font-family="Menlo-Regular,Menlo" font-size="35.0" fill="#FF4647" transform="matrix(1.00, 0.00, -0.00, -1.00, 211.0, 169.4)">e</text><text xml:space="preserve" font-family="Menlo-Regular,Menlo" font-size="35.0" fill="#FF4647" transform="matrix(1.00, 0.00, -0.00, -1.00, 232.1, 169.4)">"</text><text xml:space="preserve" font-family="Menlo-Regular,Menlo" font-size="35.0" fill="#FFFFFF" transform="matrix(1.00, 0.00, -0.00, -1.00, 253.1, 169.4)">:</text><text xml:space="preserve" font-family="Menlo-Regular,Menlo" font-size="35.0" fill="#FFFFFF" transform="matrix(1.00, 0.00, -0.00, -1.00, 274.2, 169.4)"> </text><text xml:space="preserve" font-family="Menlo-Regular,Menlo" font-size="35.0" fill="#FF4647" transform="matrix(1.00, 0.00, -0.00, -1.00, 295.3, 169.4)">"</text><text xml:space="preserve" font-family="Menlo-Regular,Menlo" font-size="35.0" fill="#FF4647" transform="matrix(1.00, 0.00, -0.00, -1.00, 316.3, 169.4)">M</text><text xml:space="preserve" font-family="Menlo-Regular,Menlo" font-size="35.0" fill="#FF4647" transform="matrix(1.00, 0.00, -0.00, -1.00, 337.4, 169.4)">e</text><text xml:space="preserve" font-family="Menlo-Regular,Menlo" font-size="35.0" fill="#FF4647" transform="matrix(1.00, 0.00, -0.00, -1.00, 358.5, 169.4)">c</text><text xml:space="preserve" font-family="Menlo-Regular,Menlo" font-size="35.0" fill="#FF4647" transform="matrix(1.00, 0.00, -0.00, -1.00, 379.6, 169.4)">h</text><text xml:space="preserve" font-family="Menlo-Regular,Menlo" font-size="35.0" fill="#FF4647" transform="matrix(1.00, 0.00, -0.00, -1.00, 400.6, 169.4)">a</text><text xml:space="preserve" font-family="Menlo-Regular,Menlo" font-size="35.0" fill="#FF4647" transform="matrix(1.00, 0.00, -0.00, -1.00, 421.7, 169.4)">n</text><text xml:space="preserve" font-family="Menlo-Regular,Menlo" font-size="35.0" fill="#FF4647" transform="matrix(1.00, 0.00, -0.00, -1.00, 442.8, 169.4)">i</text><text xml:space="preserve" font-family="Menlo-Regular,Menlo" font-size="35.0" fill="#FF4647" transform="matrix(1.00, 0.00, -0.00, -1.00, 463.9, 169.4)">c</text><text xml:space="preserve" font-family="Menlo-Regular,Menlo" font-size="35.0" fill="#FF4647" transform="matrix(1.00, 0.00, -0.00, -1.00, 484.9, 169.4)">"</text><text xml:space="preserve" font-family="Menlo-Regular,Menlo" font-size="35.0" fill="#FFFFFF" transform="matrix(1.00, 0.00, -0.00, -1.00, 506.0, 169.4)">,</text><text xml:space="preserve" font-family="Menlo-Regular,Menlo" font-size="35.0" fill="#FFFFFF" transform="matrix(1.00, 0.00, -0.00, -1.00, 527.0, 169.4)"> </text><text xml:space="preserve" font-family="Menlo-Regular,Menlo" font-size="35.0" fill="#FFFFFF" transform="matrix(1.00, 0.00, -0.00, -1.00, 0.2, 129.4)">]</text><text xml:space="preserve" font-family="Menlo-Regular,Menlo" font-size="35.0" fill="#FFFFFF" transform="matrix(1.00, 0.00, -0.00, -1.00, 21.3, 129.4)"> </text><text xml:space="preserve" font-family="Menlo-Regular,Menlo" font-size="35.0" fill="#08FA95" transform="matrix(1.00, 0.00, -0.00, -1.00, 0.2, 89.4)">o</text><text xml:space="preserve" font-family="Menlo-Regular,Menlo" font-size="35.0" fill="#08FA95" transform="matrix(1.00, 0.00, -0.00, -1.00, 21.3, 89.4)">c</text><text xml:space="preserve" font-family="Menlo-Regular,Menlo" font-size="35.0" fill="#08FA95" transform="matrix(1.00, 0.00, -0.00, -1.00, 42.4, 89.4)">c</text><text xml:space="preserve" font-family="Menlo-Regular,Menlo" font-size="35.0" fill="#08FA95" transform="matrix(1.00, 0.00, -0.00, -1.00, 63.5, 89.4)">u</text><text xml:space="preserve" font-family="Menlo-Regular,Menlo" font-size="35.0" fill="#08FA95" transform="matrix(1.00, 0.00, -0.00, -1.00, 84.5, 89.4)">p</text><text xml:space="preserve" font-family="Menlo-Regular,Menlo" font-size="35.0" fill="#08FA95" transform="matrix(1.00, 0.00, -0.00, -1.00, 105.6, 89.4)">a</text><text xml:space="preserve" font-family="Menlo-Regular,Menlo" font-size="35.0" fill="#08FA95" transform="matrix(1.00, 0.00, -0.00, -1.00, 126.7, 89.4)">t</text><text xml:space="preserve" font-family="Menlo-Regular,Menlo" font-size="35.0" fill="#08FA95" transform="matrix(1.00, 0.00, -0.00, -1.00, 147.8, 89.4)">i</text><text xml:space="preserve" font-family="Menlo-Regular,Menlo" font-size="35.0" fill="#08FA95" transform="matrix(1.00, 0.00, -0.00, -1.00, 168.9, 89.4)">o</text><text xml:space="preserve" font-family="Menlo-Regular,Menlo" font-size="35.0" fill="#08FA95" transform="matrix(1.00, 0.00, -0.00, -1.00, 189.9, 89.4)">n</text><text xml:space="preserve" font-family="Menlo-Regular,Menlo" font-size="35.0" fill="#08FA95" transform="matrix(1.00, 0.00, -0.00, -1.00, 211.0, 89.4)">s</text><text xml:space="preserve" font-family="Menlo-Regular,Menlo" font-size="35.0" fill="#FFFFFF" transform="matrix(1.00, 0.00, -0.00, -1.00, 232.0, 89.4)">[</text><text xml:space="preserve" font-family="Menlo-Regular,Menlo" font-size="35.0" fill="#FF4647" transform="matrix(1.00, 0.00, -0.00, -1.00, 253.1, 89.4)">"</text><text xml:space="preserve" font-family="Menlo-Regular,Menlo" font-size="35.0" fill="#FF4647" transform="matrix(1.00, 0.00, -0.00, -1.00, 274.2, 89.4)">J</text><text xml:space="preserve" font-family="Menlo-Regular,Menlo" font-size="35.0" fill="#FF4647" transform="matrix(1.00, 0.00, -0.00, -1.00, 295.3, 89.4)">a</text><text xml:space="preserve" font-family="Menlo-Regular,Menlo" font-size="35.0" fill="#FF4647" transform="matrix(1.00, 0.00, -0.00, -1.00, 316.3, 89.4)">y</text><text xml:space="preserve" font-family="Menlo-Regular,Menlo" font-size="35.0" fill="#FF4647" transform="matrix(1.00, 0.00, -0.00, -1.00, 337.4, 89.4)">n</text><text xml:space="preserve" font-family="Menlo-Regular,Menlo" font-size="35.0" fill="#FF4647" transform="matrix(1.00, 0.00, -0.00, -1.00, 358.5, 89.4)">e</text><text xml:space="preserve" font-family="Menlo-Regular,Menlo" font-size="35.0" fill="#FF4647" transform="matrix(1.00, 0.00, -0.00, -1.00, 379.6, 89.4)">"</text><text xml:space="preserve" font-family="Menlo-Regular,Menlo" font-size="35.0" fill="#FFFFFF" transform="matrix(1.00, 0.00, -0.00, -1.00, 400.6, 89.4)">]</text><text xml:space="preserve" font-family="Menlo-Regular,Menlo" font-size="35.0" fill="#FFFFFF" transform="matrix(1.00, 0.00, -0.00, -1.00, 421.7, 89.4)"> </text><text xml:space="preserve" font-family="Menlo-Regular,Menlo" font-size="35.0" fill="#FFFFFF" transform="matrix(1.00, 0.00, -0.00, -1.00, 442.8, 89.4)">=</text><text xml:space="preserve" font-family="Menlo-Regular,Menlo" font-size="35.0" fill="#FFFFFF" transform="matrix(1.00, 0.00, -0.00, -1.00, 463.8, 89.4)"> </text><text xml:space="preserve" font-family="Menlo-Regular,Menlo" font-size="35.0" fill="#FF4647" transform="matrix(1.00, 0.00, -0.00, -1.00, 484.9, 89.4)">"</text><text xml:space="preserve" font-family="Menlo-Regular,Menlo" font-size="35.0" fill="#FF4647" transform="matrix(1.00, 0.00, -0.00, -1.00, 506.0, 89.4)">P</text><text xml:space="preserve" font-family="Menlo-Regular,Menlo" font-size="35.0" fill="#FF4647" transform="matrix(1.00, 0.00, -0.00, -1.00, 527.0, 89.4)">u</text><text xml:space="preserve" font-family="Menlo-Regular,Menlo" font-size="35.0" fill="#FF4647" transform="matrix(1.00, 0.00, -0.00, -1.00, 548.1, 89.4)">b</text><text xml:space="preserve" font-family="Menlo-Regular,Menlo" font-size="35.0" fill="#FF4647" transform="matrix(1.00, 0.00, -0.00, -1.00, 569.2, 89.4)">l</text><text xml:space="preserve" font-family="Menlo-Regular,Menlo" font-size="35.0" fill="#FF4647" transform="matrix(1.00, 0.00, -0.00, -1.00, 590.3, 89.4)">i</text><text xml:space="preserve" font-family="Menlo-Regular,Menlo" font-size="35.0" fill="#FF4647" transform="matrix(1.00, 0.00, -0.00, -1.00, 611.4, 89.4)">c</text><text xml:space="preserve" font-family="Menlo-Regular,Menlo" font-size="35.0" fill="#FF4647" transform="matrix(1.00, 0.00, -0.00, -1.00, 632.4, 89.4)"> </text><text xml:space="preserve" font-family="Menlo-Regular,Menlo" font-size="35.0" fill="#FF4647" transform="matrix(1.00, 0.00, -0.00, -1.00, 653.5, 89.4)">R</text><text xml:space="preserve" font-family="Menlo-Regular,Menlo" font-size="35.0" fill="#FF4647" transform="matrix(1.00, 0.00, -0.00, -1.00, 674.6, 89.4)">e</text><text xml:space="preserve" font-family="Menlo-Regular,Menlo" font-size="35.0" fill="#FF4647" transform="matrix(1.00, 0.00, -0.00, -1.00, 695.7, 89.4)">l</text><text xml:space="preserve" font-family="Menlo-Regular,Menlo" font-size="35.0" fill="#FF4647" transform="matrix(1.00, 0.00, -0.00, -1.00, 716.7, 89.4)">a</text><text xml:space="preserve" font-family="Menlo-Regular,Menlo" font-size="35.0" fill="#FF4647" transform="matrix(1.00, 0.00, -0.00, -1.00, 737.8, 89.4)">t</text><text xml:space="preserve" font-family="Menlo-Regular,Menlo" font-size="35.0" fill="#FF4647" transform="matrix(1.00, 0.00, -0.00, -1.00, 758.9, 89.4)">i</text><text xml:space="preserve" font-family="Menlo-Regular,Menlo" font-size="35.0" fill="#FF4647" transform="matrix(1.00, 0.00, -0.00, -1.00, 780.0, 89.4)">o</text><text xml:space="preserve" font-family="Menlo-Regular,Menlo" font-size="35.0" fill="#FF4647" transform="matrix(1.00, 0.00, -0.00, -1.00, 801.0, 89.4)">n</text><text xml:space="preserve" font-family="Menlo-Regular,Menlo" font-size="35.0" fill="#FF4647" transform="matrix(1.00, 0.00, -0.00, -1.00, 822.1, 89.4)">s</text><text xml:space="preserve" font-family="Menlo-Regular,Menlo" font-size="35.0" fill="#FF4647" transform="matrix(1.00, 0.00, -0.00, -1.00, 843.2, 89.4)">"</text><text xml:space="preserve" font-family="Menlo-Regular,Menlo" font-size="35.0" fill="#FFFFFF" transform="matrix(1.00, 0.00, -0.00, -1.00, 864.2, 89.4)"> </text><text xml:space="preserve" font-family="Menlo-Regular,Menlo" font-size="35.0" fill="#FFFFFF" transform="matrix(1.00, 0.00, -0.00, -1.00, 0.2, 49.4)">d</text><text xml:space="preserve" font-family="Menlo-Regular,Menlo" font-size="35.0" fill="#FFFFFF" transform="matrix(1.00, 0.00, -0.00, -1.00, 21.3, 49.4)">e</text><text xml:space="preserve" font-family="Menlo-Regular,Menlo" font-size="35.0" fill="#FFFFFF" transform="matrix(1.00, 0.00, -0.00, -1.00, 42.4, 49.4)">f</text><text xml:space="preserve" font-family="Menlo-Regular,Menlo" font-size="35.0" fill="#FFFFFF" transform="matrix(1.00, 0.00, -0.00, -1.00, 63.5, 49.4)"> </text><text xml:space="preserve" font-family="Menlo-Regular,Menlo" font-size="35.0" fill="#08FA95" transform="matrix(1.00, 0.00, -0.00, -1.00, 84.5, 49.4)">e</text><text xml:space="preserve" font-family="Menlo-Regular,Menlo" font-size="35.0" fill="#08FA95" transform="matrix(1.00, 0.00, -0.00, -1.00, 105.6, 49.4)">m</text><text xml:space="preserve" font-family="Menlo-Regular,Menlo" font-size="35.0" fill="#08FA95" transform="matrix(1.00, 0.00, -0.00, -1.00, 126.7, 49.4)">p</text><text xml:space="preserve" font-family="Menlo-Regular,Menlo" font-size="35.0" fill="#08FA95" transform="matrix(1.00, 0.00, -0.00, -1.00, 147.8, 49.4)">t</text><text xml:space="preserve" font-family="Menlo-Regular,Menlo" font-size="35.0" fill="#08FA95" transform="matrix(1.00, 0.00, -0.00, -1.00, 168.8, 49.4)">y</text><text xml:space="preserve" font-family="Menlo-Regular,Menlo" font-size="35.0" fill="#08FA95" transform="matrix(1.00, 0.00, -0.00, -1.00, 189.9, 49.4)">M</text><text xml:space="preserve" font-family="Menlo-Regular,Menlo" font-size="35.0" fill="#08FA95" transform="matrix(1.00, 0.00, -0.00, -1.00, 211.0, 49.4)">a</text><text xml:space="preserve" font-family="Menlo-Regular,Menlo" font-size="35.0" fill="#08FA95" transform="matrix(1.00, 0.00, -0.00, -1.00, 232.1, 49.4)">p</text><text xml:space="preserve" font-family="Menlo-Regular,Menlo" font-size="35.0" fill="#FFFFFF" transform="matrix(1.00, 0.00, -0.00, -1.00, 253.1, 49.4)"> </text><text xml:space="preserve" font-family="Menlo-Regular,Menlo" font-size="35.0" fill="#FFFFFF" transform="matrix(1.00, 0.00, -0.00, -1.00, 274.2, 49.4)">=</text><text xml:space="preserve" font-family="Menlo-Regular,Menlo" font-size="35.0" fill="#FFFFFF" transform="matrix(1.00, 0.00, -0.00, -1.00, 295.3, 49.4)"> </text><text xml:space="preserve" font-family="Menlo-Regular,Menlo" font-size="35.0" fill="#FFFFFF" transform="matrix(1.00, 0.00, -0.00, -1.00, 316.3, 49.4)">[</text><text xml:space="preserve" font-family="Menlo-Regular,Menlo" font-size="35.0" fill="#FFFFFF" transform="matrix(1.00, 0.00, -0.00, -1.00, 337.4, 49.4)">:</text><text xml:space="preserve" font-family="Menlo-Regular,Menlo" font-size="35.0" fill="#FFFFFF" transform="matrix(1.00, 0.00, -0.00, -1.00, 358.5, 49.4)">]</text><text xml:space="preserve" font-family="Menlo-Regular,Menlo" font-size="35.0" fill="#FFFFFF" transform="matrix(1.00, 0.00, -0.00, -1.00, 379.6, 49.4)"> </text><text xml:space="preserve" font-family="Menlo-Regular,Menlo" font-size="35.0" fill="#FFFFFF" transform="matrix(1.00, 0.00, -0.00, -1.00, 0.2, 9.4)">d</text><text xml:space="preserve" font-family="Menlo-Regular,Menlo" font-size="35.0" fill="#FFFFFF" transform="matrix(1.00, 0.00, -0.00, -1.00, 21.3, 9.4)">e</text><text xml:space="preserve" font-family="Menlo-Regular,Menlo" font-size="35.0" fill="#FFFFFF" transform="matrix(1.00, 0.00, -0.00, -1.00, 42.4, 9.4)">f</text><text xml:space="preserve" font-family="Menlo-Regular,Menlo" font-size="35.0" fill="#FFFFFF" transform="matrix(1.00, 0.00, -0.00, -1.00, 63.5, 9.4)"> </text><text xml:space="preserve" font-family="Menlo-Regular,Menlo" font-size="35.0" fill="#08FA95" transform="matrix(1.00, 0.00, -0.00, -1.00, 84.5, 9.4)">e</text><text xml:space="preserve" font-family="Menlo-Regular,Menlo" font-size="35.0" fill="#08FA95" transform="matrix(1.00, 0.00, -0.00, -1.00, 105.6, 9.4)">m</text><text xml:space="preserve" font-family="Menlo-Regular,Menlo" font-size="35.0" fill="#08FA95" transform="matrix(1.00, 0.00, -0.00, -1.00, 126.7, 9.4)">p</text><text xml:space="preserve" font-family="Menlo-Regular,Menlo" font-size="35.0" fill="#08FA95" transform="matrix(1.00, 0.00, -0.00, -1.00, 147.8, 9.4)">t</text><text xml:space="preserve" font-family="Menlo-Regular,Menlo" font-size="35.0" fill="#08FA95" transform="matrix(1.00, 0.00, -0.00, -1.00, 168.8, 9.4)">y</text><text xml:space="preserve" font-family="Menlo-Regular,Menlo" font-size="35.0" fill="#08FA95" transform="matrix(1.00, 0.00, -0.00, -1.00, 189.9, 9.4)">L</text><text xml:space="preserve" font-family="Menlo-Regular,Menlo" font-size="35.0" fill="#08FA95" transform="matrix(1.00, 0.00, -0.00, -1.00, 211.0, 9.4)">i</text><text xml:space="preserve" font-family="Menlo-Regular,Menlo" font-size="35.0" fill="#08FA95" transform="matrix(1.00, 0.00, -0.00, -1.00, 232.1, 9.4)">s</text><text xml:space="preserve" font-family="Menlo-Regular,Menlo" font-size="35.0" fill="#08FA95" transform="matrix(1.00, 0.00, -0.00, -1.00, 253.1, 9.4)">t</text><text xml:space="preserve" font-family="Menlo-Regular,Menlo" font-size="35.0" fill="#FFFFFF" transform="matrix(1.00, 0.00, -0.00, -1.00, 274.2, 9.4)"> </text><text xml:space="preserve" font-family="Menlo-Regular,Menlo" font-size="35.0" fill="#FFFFFF" transform="matrix(1.00, 0.00, -0.00, -1.00, 295.3, 9.4)">=</text><text xml:space="preserve" font-family="Menlo-Regular,Menlo" font-size="35.0" fill="#FFFFFF" transform="matrix(1.00, 0.00, -0.00, -1.00, 316.3, 9.4)"> </text><text xml:space="preserve" font-family="Menlo-Regular,Menlo" font-size="35.0" fill="#FFFFFF" transform="matrix(1.00, 0.00, -0.00, -1.00, 337.4, 9.4)">[</text><text xml:space="preserve" font-family="Menlo-Regular,Menlo" font-size="35.0" fill="#FFFFFF" transform="matrix(1.00, 0.00, -0.00, -1.00, 358.5, 9.4)">]</text></g></svg>