<?xml version="1.0" encoding="UTF-8" standalone="no"?><svg xmlns="http://www.w3.org/2000/svg" xmlns:xlink="http://www.w3.org/1999/xlink" clip-rule="evenodd" stroke-miterlimit="10" viewBox="0 0 1615 199"><desc>SVG generated by Keynote</desc><defs></defs><g transform="matrix(1.00, 0.00, -0.00, -1.00, 0.0, 199.0)"><path d="M 0.0 -0.1 L 1607.0 -0.1 L 1607.0 190.9 L 0.0 190.9 Z M 0.0 0.0 " fill="none" stroke="#961817" stroke-width="5.00" transform="matrix(1.00, 0.00, 0.00, -1.00, 4.5, 195.4)"></path><g><clipPath id="clip0x7f88a8990f00"><path d="M 3.9 3.5 L 3190.3 3.5 L 3190.3 196.0 L 3.9 196.0 Z M 3.9 3.5 "></path></clipPath><g clip-path="url(#clip0x7f88a8990f00)"><text xml:space="preserve" font-family="Menlo-Regular,Menlo" font-size="30.0" fill="#DD38A5" transform="matrix(1.00, 0.00, -0.00, -1.00, 12.6, 159.3)">p</text><text xml:space="preserve" font-family="Menlo-Regular,Menlo" font-size="30.0" fill="#DD38A5" transform="matrix(1.00, 0.00, -0.00, -1.00, 30.7, 159.3)">u</text><text xml:space="preserve" font-family="Menlo-Regular,Menlo" font-size="30.0" fill="#DD38A5" transform="matrix(1.00, 0.00, -0.00, -1.00, 48.7, 159.3)">b</text><text xml:space="preserve" font-family="Menlo-Regular,Menlo" font-size="30.0" fill="#DD38A5" transform="matrix(1.00, 0.00, -0.00, -1.00, 66.8, 159.3)">l</text><text xml:space="preserve" font-family="Menlo-Regular,Menlo" font-size="30.0" fill="#DD38A5" transform="matrix(1.00, 0.00, -0.00, -1.00, 84.9, 159.3)">i</text><text xml:space="preserve" font-family="Menlo-Regular,Menlo" font-size="30.0" fill="#DD38A5" transform="matrix(1.00, 0.00, -0.00, -1.00, 102.9, 159.3)">c</text><text xml:space="preserve" font-family="Menlo-Regular,Menlo" font-size="30.0" fill="#FFFFFF" transform="matrix(1.00, 0.00, -0.00, -1.00, 121.0, 159.3)"> </text><text xml:space="preserve" font-family="Menlo-Regular,Menlo" font-size="30.0" fill="#DD38A5" transform="matrix(1.00, 0.00, -0.00, -1.00, 139.0, 159.3)">f</text><text xml:space="preserve" font-family="Menlo-Regular,Menlo" font-size="30.0" fill="#DD38A5" transform="matrix(1.00, 0.00, -0.00, -1.00, 157.1, 159.3)">u</text><text xml:space="preserve" font-family="Menlo-Regular,Menlo" font-size="30.0" fill="#DD38A5" transform="matrix(1.00, 0.00, -0.00, -1.00, 175.2, 159.3)">n</text><text xml:space="preserve" font-family="Menlo-Regular,Menlo" font-size="30.0" fill="#DD38A5" transform="matrix(1.00, 0.00, -0.00, -1.00, 193.2, 159.3)">c</text><text xml:space="preserve" font-family="Menlo-Regular,Menlo" font-size="30.0" fill="#FFFFFF" transform="matrix(1.00, 0.00, -0.00, -1.00, 211.3, 159.3)"> </text><text xml:space="preserve" font-family="Menlo-Regular,Menlo" font-size="30.0" fill="#FFFFFF" transform="matrix(1.00, 0.00, -0.00, -1.00, 229.3, 159.3)">&lt;</text><text xml:space="preserve" font-family="Menlo-Regular,Menlo" font-size="30.0" fill="#FFFFFF" transform="matrix(1.00, 0.00, -0.00, -1.00, 247.4, 159.3)">=</text><text xml:space="preserve" font-family="Menlo-Regular,Menlo" font-size="30.0" fill="#FFFFFF" transform="matrix(1.00, 0.00, -0.00, -1.00, 265.5, 159.3)">&lt;</text><text xml:space="preserve" font-family="Menlo-Regular,Menlo" font-size="30.0" fill="#FFFFFF" transform="matrix(1.00, 0.00, -0.00, -1.00, 283.5, 159.3)">T</text><text xml:space="preserve" font-family="Menlo-Regular,Menlo" font-size="30.0" fill="#FFFFFF" transform="matrix(1.00, 0.00, -0.00, -1.00, 301.6, 159.3)">:</text><text xml:space="preserve" font-family="Menlo-Regular,Menlo" font-size="30.0" fill="#FFFFFF" transform="matrix(1.00, 0.00, -0.00, -1.00, 319.7, 159.3)"> </text><text xml:space="preserve" font-family="Menlo-Regular,Menlo" font-size="30.0" fill="#FFFFFF" transform="matrix(1.00, 0.00, -0.00, -1.00, 337.7, 159.3)">J</text><text xml:space="preserve" font-family="Menlo-Regular,Menlo" font-size="30.0" fill="#FFFFFF" transform="matrix(1.00, 0.00, -0.00, -1.00, 355.8, 159.3)">S</text><text xml:space="preserve" font-family="Menlo-Regular,Menlo" font-size="30.0" fill="#FFFFFF" transform="matrix(1.00, 0.00, -0.00, -1.00, 373.9, 159.3)">O</text><text xml:space="preserve" font-family="Menlo-Regular,Menlo" font-size="30.0" fill="#FFFFFF" transform="matrix(1.00, 0.00, -0.00, -1.00, 391.9, 159.3)">N</text><text xml:space="preserve" font-family="Menlo-Regular,Menlo" font-size="30.0" fill="#FFFFFF" transform="matrix(1.00, 0.00, -0.00, -1.00, 410.0, 159.3)">S</text><text xml:space="preserve" font-family="Menlo-Regular,Menlo" font-size="30.0" fill="#FFFFFF" transform="matrix(1.00, 0.00, -0.00, -1.00, 428.1, 159.3)">e</text><text xml:space="preserve" font-family="Menlo-Regular,Menlo" font-size="30.0" fill="#FFFFFF" transform="matrix(1.00, 0.00, -0.00, -1.00, 446.1, 159.3)">r</text><text xml:space="preserve" font-family="Menlo-Regular,Menlo" font-size="30.0" fill="#FFFFFF" transform="matrix(1.00, 0.00, -0.00, -1.00, 464.2, 159.3)">i</text><text xml:space="preserve" font-family="Menlo-Regular,Menlo" font-size="30.0" fill="#FFFFFF" transform="matrix(1.00, 0.00, -0.00, -1.00, 482.3, 159.3)">a</text><text xml:space="preserve" font-family="Menlo-Regular,Menlo" font-size="30.0" fill="#FFFFFF" transform="matrix(1.00, 0.00, -0.00, -1.00, 500.3, 159.3)">l</text><text xml:space="preserve" font-family="Menlo-Regular,Menlo" font-size="30.0" fill="#FFFFFF" transform="matrix(1.00, 0.00, -0.00, -1.00, 518.4, 159.3)">i</text><text xml:space="preserve" font-family="Menlo-Regular,Menlo" font-size="30.0" fill="#FFFFFF" transform="matrix(1.00, 0.00, -0.00, -1.00, 536.4, 159.3)">z</text><text xml:space="preserve" font-family="Menlo-Regular,Menlo" font-size="30.0" fill="#FFFFFF" transform="matrix(1.00, 0.00, -0.00, -1.00, 554.5, 159.3)">a</text><text xml:space="preserve" font-family="Menlo-Regular,Menlo" font-size="30.0" fill="#FFFFFF" transform="matrix(1.00, 0.00, -0.00, -1.00, 572.6, 159.3)">b</text><text xml:space="preserve" font-family="Menlo-Regular,Menlo" font-size="30.0" fill="#FFFFFF" transform="matrix(1.00, 0.00, -0.00, -1.00, 590.6, 159.3)">l</text><text xml:space="preserve" font-family="Menlo-Regular,Menlo" font-size="30.0" fill="#FFFFFF" transform="matrix(1.00, 0.00, -0.00, -1.00, 608.7, 159.3)">e</text><text xml:space="preserve" font-family="Menlo-Regular,Menlo" font-size="30.0" fill="#FFFFFF" transform="matrix(1.00, 0.00, -0.00, -1.00, 626.8, 159.3)">&gt;</text><text xml:space="preserve" font-family="Menlo-Regular,Menlo" font-size="30.0" fill="#FFFFFF" transform="matrix(1.00, 0.00, -0.00, -1.00, 644.8, 159.3)">(</text><text xml:space="preserve" font-family="Menlo-Regular,Menlo" font-size="30.0" fill="#DD38A5" transform="matrix(1.00, 0.00, -0.00, -1.00, 662.8, 159.3)">i</text><text xml:space="preserve" font-family="Menlo-Regular,Menlo" font-size="30.0" fill="#DD38A5" transform="matrix(1.00, 0.00, -0.00, -1.00, 680.9, 159.3)">n</text><text xml:space="preserve" font-family="Menlo-Regular,Menlo" font-size="30.0" fill="#DD38A5" transform="matrix(1.00, 0.00, -0.00, -1.00, 698.9, 159.3)">o</text><text xml:space="preserve" font-family="Menlo-Regular,Menlo" font-size="30.0" fill="#DD38A5" transform="matrix(1.00, 0.00, -0.00, -1.00, 717.0, 159.3)">u</text><text xml:space="preserve" font-family="Menlo-Regular,Menlo" font-size="30.0" fill="#DD38A5" transform="matrix(1.00, 0.00, -0.00, -1.00, 735.1, 159.3)">t</text><text xml:space="preserve" font-family="Menlo-Regular,Menlo" font-size="30.0" fill="#FFFFFF" transform="matrix(1.00, 0.00, -0.00, -1.00, 753.1, 159.3)"> </text><text xml:space="preserve" font-family="Menlo-Regular,Menlo" font-size="30.0" fill="#FFFFFF" transform="matrix(1.00, 0.00, -0.00, -1.00, 771.2, 159.3)">f</text><text xml:space="preserve" font-family="Menlo-Regular,Menlo" font-size="30.0" fill="#FFFFFF" transform="matrix(1.00, 0.00, -0.00, -1.00, 789.3, 159.3)">i</text><text xml:space="preserve" font-family="Menlo-Regular,Menlo" font-size="30.0" fill="#FFFFFF" transform="matrix(1.00, 0.00, -0.00, -1.00, 807.3, 159.3)">e</text><text xml:space="preserve" font-family="Menlo-Regular,Menlo" font-size="30.0" fill="#FFFFFF" transform="matrix(1.00, 0.00, -0.00, -1.00, 825.4, 159.3)">l</text><text xml:space="preserve" font-family="Menlo-Regular,Menlo" font-size="30.0" fill="#FFFFFF" transform="matrix(1.00, 0.00, -0.00, -1.00, 843.5, 159.3)">d</text><text xml:space="preserve" font-family="Menlo-Regular,Menlo" font-size="30.0" fill="#FFFFFF" transform="matrix(1.00, 0.00, -0.00, -1.00, 861.5, 159.3)">:</text><text xml:space="preserve" font-family="Menlo-Regular,Menlo" font-size="30.0" fill="#FFFFFF" transform="matrix(1.00, 0.00, -0.00, -1.00, 879.6, 159.3)"> </text><text xml:space="preserve" font-family="Menlo-Regular,Menlo" font-size="30.0" fill="#00B1FF" transform="matrix(1.00, 0.00, -0.00, -1.00, 897.6, 159.3)">T</text><text xml:space="preserve" font-family="Menlo-Regular,Menlo" font-size="30.0" fill="#FFFFFF" transform="matrix(1.00, 0.00, -0.00, -1.00, 915.7, 159.3)">?</text><text xml:space="preserve" font-family="Menlo-Regular,Menlo" font-size="30.0" fill="#FFFFFF" transform="matrix(1.00, 0.00, -0.00, -1.00, 933.7, 159.3)">,</text><text xml:space="preserve" font-family="Menlo-Regular,Menlo" font-size="30.0" fill="#FFFFFF" transform="matrix(1.00, 0.00, -0.00, -1.00, 951.8, 159.3)"> </text><text xml:space="preserve" font-family="Menlo-Regular,Menlo" font-size="30.0" fill="#FFFFFF" transform="matrix(1.00, 0.00, -0.00, -1.00, 969.9, 159.3)">r</text><text xml:space="preserve" font-family="Menlo-Regular,Menlo" font-size="30.0" fill="#FFFFFF" transform="matrix(1.00, 0.00, -0.00, -1.00, 987.9, 159.3)">i</text><text xml:space="preserve" font-family="Menlo-Regular,Menlo" font-size="30.0" fill="#FFFFFF" transform="matrix(1.00, 0.00, -0.00, -1.00, 1006.0, 159.3)">g</text><text xml:space="preserve" font-family="Menlo-Regular,Menlo" font-size="30.0" fill="#FFFFFF" transform="matrix(1.00, 0.00, -0.00, -1.00, 1024.1, 159.3)">h</text><text xml:space="preserve" font-family="Menlo-Regular,Menlo" font-size="30.0" fill="#FFFFFF" transform="matrix(1.00, 0.00, -0.00, -1.00, 1042.1, 159.3)">t</text><text xml:space="preserve" font-family="Menlo-Regular,Menlo" font-size="30.0" fill="#FFFFFF" transform="matrix(1.00, 0.00, -0.00, -1.00, 1060.2, 159.3)">:</text><text xml:space="preserve" font-family="Menlo-Regular,Menlo" font-size="30.0" fill="#FFFFFF" transform="matrix(1.00, 0.00, -0.00, -1.00, 1078.3, 159.3)"> </text><text xml:space="preserve" font-family="Menlo-Regular,Menlo" font-size="30.0" fill="#08FA95" transform="matrix(1.00, 0.00, -0.00, -1.00, 1096.3, 159.3)">J</text><text xml:space="preserve" font-family="Menlo-Regular,Menlo" font-size="30.0" fill="#08FA95" transform="matrix(1.00, 0.00, -0.00, -1.00, 1114.4, 159.3)">s</text><text xml:space="preserve" font-family="Menlo-Regular,Menlo" font-size="30.0" fill="#08FA95" transform="matrix(1.00, 0.00, -0.00, -1.00, 1132.4, 159.3)">o</text><text xml:space="preserve" font-family="Menlo-Regular,Menlo" font-size="30.0" fill="#08FA95" transform="matrix(1.00, 0.00, -0.00, -1.00, 1150.5, 159.3)">n</text><text xml:space="preserve" font-family="Menlo-Regular,Menlo" font-size="30.0" fill="#08FA95" transform="matrix(1.00, 0.00, -0.00, -1.00, 1168.6, 159.3)">S</text><text xml:space="preserve" font-family="Menlo-Regular,Menlo" font-size="30.0" fill="#08FA95" transform="matrix(1.00, 0.00, -0.00, -1.00, 1186.6, 159.3)">Z</text><text xml:space="preserve" font-family="Menlo-Regular,Menlo" font-size="30.0" fill="#FFFFFF" transform="matrix(1.00, 0.00, -0.00, -1.00, 1204.7, 159.3)">)</text><text xml:space="preserve" font-family="Menlo-Regular,Menlo" font-size="30.0" fill="#FFFFFF" transform="matrix(1.00, 0.00, -0.00, -1.00, 1222.7, 159.3)"> </text><text xml:space="preserve" font-family="Menlo-Regular,Menlo" font-size="30.0" fill="#FFFFFF" transform="matrix(1.00, 0.00, -0.00, -1.00, 1240.8, 159.3)">{</text><text xml:space="preserve" font-family="Menlo-Regular,Menlo" font-size="30.0" fill="#FFFFFF" transform="matrix(1.00, 0.00, -0.00, -1.00, 1258.9, 159.3)"> </text><text xml:space="preserve" font-family="Menlo-Regular,Menlo" font-size="30.0" fill="#FFFFFF" transform="matrix(1.00, 0.00, -0.00, -1.00, 1276.9, 159.3)"> </text><text xml:space="preserve" font-family="Menlo-Regular,Menlo" font-size="30.0" fill="#FFFFFF" transform="matrix(1.00, 0.00, -0.00, -1.00, 1295.0, 159.3)"> </text><text xml:space="preserve" font-family="Menlo-Regular,Menlo" font-size="30.0" fill="#FFFFFF" transform="matrix(1.00, 0.00, -0.00, -1.00, 1313.1, 159.3)"> </text><text xml:space="preserve" font-family="Menlo-Regular,Menlo" font-size="30.0" fill="#FFFFFF" transform="matrix(1.00, 0.00, -0.00, -1.00, 1331.1, 159.3)"> </text><text xml:space="preserve" font-family="Menlo-Regular,Menlo" font-size="30.0" fill="#FFFFFF" transform="matrix(1.00, 0.00, -0.00, -1.00, 1349.2, 159.3)"> </text><text xml:space="preserve" font-family="Menlo-Regular,Menlo" font-size="30.0" fill="#FFFFFF" transform="matrix(1.00, 0.00, -0.00, -1.00, 1367.2, 159.3)"> </text><text xml:space="preserve" font-family="Menlo-Regular,Menlo" font-size="30.0" fill="#FFFFFF" transform="matrix(1.00, 0.00, -0.00, -1.00, 1385.3, 159.3)"> </text><text xml:space="preserve" font-family="Menlo-Regular,Menlo" font-size="30.0" fill="#FFFFFF" transform="matrix(1.00, 0.00, -0.00, -1.00, 1403.4, 159.3)"> </text><text xml:space="preserve" font-family="Menlo-Regular,Menlo" font-size="30.0" fill="#FFFFFF" transform="matrix(1.00, 0.00, -0.00, -1.00, 1421.4, 159.3)"> </text><text xml:space="preserve" font-family="Menlo-Regular,Menlo" font-size="30.0" fill="#FFFFFF" transform="matrix(1.00, 0.00, -0.00, -1.00, 1439.5, 159.3)"> </text><text xml:space="preserve" font-family="Menlo-Regular,Menlo" font-size="30.0" fill="#FFFFFF" transform="matrix(1.00, 0.00, -0.00, -1.00, 1457.6, 159.3)"> </text><text xml:space="preserve" font-family="Menlo-Regular,Menlo" font-size="30.0" fill="#FFFFFF" transform="matrix(1.00, 0.00, -0.00, -1.00, 1475.6, 159.3)"> </text><text xml:space="preserve" font-family="Menlo-Regular,Menlo" font-size="30.0" fill="#FFFFFF" transform="matrix(1.00, 0.00, -0.00, -1.00, 1493.7, 159.3)"> </text><text xml:space="preserve" font-family="Menlo-Regular,Menlo" font-size="30.0" fill="#FFFFFF" transform="matrix(1.00, 0.00, -0.00, -1.00, 1511.8, 159.3)"> </text><text xml:space="preserve" font-family="Menlo-Regular,Menlo" font-size="30.0" fill="#FFFFFF" transform="matrix(1.00, 0.00, -0.00, -1.00, 1529.8, 159.3)"> </text><text xml:space="preserve" font-family="Menlo-Regular,Menlo" font-size="30.0" fill="#FFFFFF" transform="matrix(1.00, 0.00, -0.00, -1.00, 1547.9, 159.3)"> </text><text xml:space="preserve" font-family="Menlo-Regular,Menlo" font-size="30.0" fill="#FFFFFF" transform="matrix(1.00, 0.00, -0.00, -1.00, 1566.0, 159.3)"> </text><text xml:space="preserve" font-family="Menlo-Regular,Menlo" font-size="30.0" fill="#FFFFFF" transform="matrix(1.00, 0.00, -0.00, -1.00, 1584.0, 159.3)"> </text><text xml:space="preserve" font-family="Menlo-Regular,Menlo" font-size="30.0" fill="#FFFFFF" transform="matrix(1.00, 0.00, -0.00, -1.00, 12.6, 124.3)"> </text><text xml:space="preserve" font-family="Menlo-Regular,Menlo" font-size="30.0" fill="#FFFFFF" transform="matrix(1.00, 0.00, -0.00, -1.00, 30.7, 124.3)"> </text><text xml:space="preserve" font-family="Menlo-Regular,Menlo" font-size="30.0" fill="#FFFFFF" transform="matrix(1.00, 0.00, -0.00, -1.00, 48.7, 124.3)"> </text><text xml:space="preserve" font-family="Menlo-Regular,Menlo" font-size="30.0" fill="#FFFFFF" transform="matrix(1.00, 0.00, -0.00, -1.00, 66.8, 124.3)"> </text><text xml:space="preserve" font-family="Menlo-Regular,Menlo" font-size="30.0" fill="#DD38A5" transform="matrix(1.00, 0.00, -0.00, -1.00, 84.9, 124.3)">i</text><text xml:space="preserve" font-family="Menlo-Regular,Menlo" font-size="30.0" fill="#DD38A5" transform="matrix(1.00, 0.00, -0.00, -1.00, 102.9, 124.3)">f</text><text xml:space="preserve" font-family="Menlo-Regular,Menlo" font-size="30.0" fill="#08FA95" transform="matrix(1.00, 0.00, -0.00, -1.00, 121.0, 124.3)"> </text><text xml:space="preserve" font-family="Menlo-Regular,Menlo" font-size="30.0" fill="#DD38A5" transform="matrix(1.00, 0.00, -0.00, -1.00, 139.0, 124.3)">l</text><text xml:space="preserve" font-family="Menlo-Regular,Menlo" font-size="30.0" fill="#DD38A5" transform="matrix(1.00, 0.00, -0.00, -1.00, 157.1, 124.3)">e</text><text xml:space="preserve" font-family="Menlo-Regular,Menlo" font-size="30.0" fill="#DD38A5" transform="matrix(1.00, 0.00, -0.00, -1.00, 175.2, 124.3)">t</text><text xml:space="preserve" font-family="Menlo-Regular,Menlo" font-size="30.0" fill="#08FA95" transform="matrix(1.00, 0.00, -0.00, -1.00, 193.2, 124.3)"> </text><text xml:space="preserve" font-family="Menlo-Regular,Menlo" font-size="30.0" fill="#08FA95" transform="matrix(1.00, 0.00, -0.00, -1.00, 211.3, 124.3)">v</text><text xml:space="preserve" font-family="Menlo-Regular,Menlo" font-size="30.0" fill="#08FA95" transform="matrix(1.00, 0.00, -0.00, -1.00, 229.3, 124.3)">a</text><text xml:space="preserve" font-family="Menlo-Regular,Menlo" font-size="30.0" fill="#08FA95" transform="matrix(1.00, 0.00, -0.00, -1.00, 247.4, 124.3)">l</text><text xml:space="preserve" font-family="Menlo-Regular,Menlo" font-size="30.0" fill="#08FA95" transform="matrix(1.00, 0.00, -0.00, -1.00, 265.5, 124.3)">u</text><text xml:space="preserve" font-family="Menlo-Regular,Menlo" font-size="30.0" fill="#08FA95" transform="matrix(1.00, 0.00, -0.00, -1.00, 283.5, 124.3)">e</text><text xml:space="preserve" font-family="Menlo-Regular,Menlo" font-size="30.0" fill="#08FA95" transform="matrix(1.00, 0.00, -0.00, -1.00, 301.6, 124.3)"> </text><text xml:space="preserve" font-family="Menlo-Regular,Menlo" font-size="30.0" fill="#08FA95" transform="matrix(1.00, 0.00, -0.00, -1.00, 319.7, 124.3)">=</text><text xml:space="preserve" font-family="Menlo-Regular,Menlo" font-size="30.0" fill="#08FA95" transform="matrix(1.00, 0.00, -0.00, -1.00, 337.7, 124.3)"> </text><text xml:space="preserve" font-family="Menlo-Regular,Menlo" font-size="30.0" fill="#FFFFFF" transform="matrix(1.00, 0.00, -0.00, -1.00, 355.8, 124.3)">r</text><text xml:space="preserve" font-family="Menlo-Regular,Menlo" font-size="30.0" fill="#FFFFFF" transform="matrix(1.00, 0.00, -0.00, -1.00, 373.8, 124.3)">i</text><text xml:space="preserve" font-family="Menlo-Regular,Menlo" font-size="30.0" fill="#FFFFFF" transform="matrix(1.00, 0.00, -0.00, -1.00, 391.9, 124.3)">g</text><text xml:space="preserve" font-family="Menlo-Regular,Menlo" font-size="30.0" fill="#FFFFFF" transform="matrix(1.00, 0.00, -0.00, -1.00, 410.0, 124.3)">h</text><text xml:space="preserve" font-family="Menlo-Regular,Menlo" font-size="30.0" fill="#FFFFFF" transform="matrix(1.00, 0.00, -0.00, -1.00, 428.0, 124.3)">t</text><text xml:space="preserve" font-family="Menlo-Regular,Menlo" font-size="30.0" fill="#08FA95" transform="matrix(1.00, 0.00, -0.00, -1.00, 446.1, 124.3)">.</text><text xml:space="preserve" font-family="Menlo-Regular,Menlo" font-size="30.0" fill="#08FA95" transform="matrix(1.00, 0.00, -0.00, -1.00, 464.1, 124.3)">v</text><text xml:space="preserve" font-family="Menlo-Regular,Menlo" font-size="30.0" fill="#08FA95" transform="matrix(1.00, 0.00, -0.00, -1.00, 482.2, 124.3)">a</text><text xml:space="preserve" font-family="Menlo-Regular,Menlo" font-size="30.0" fill="#08FA95" transform="matrix(1.00, 0.00, -0.00, -1.00, 500.3, 124.3)">l</text><text xml:space="preserve" font-family="Menlo-Regular,Menlo" font-size="30.0" fill="#08FA95" transform="matrix(1.00, 0.00, -0.00, -1.00, 518.3, 124.3)">u</text><text xml:space="preserve" font-family="Menlo-Regular,Menlo" font-size="30.0" fill="#08FA95" transform="matrix(1.00, 0.00, -0.00, -1.00, 536.4, 124.3)">e</text><text xml:space="preserve" font-family="Menlo-Regular,Menlo" font-size="30.0" fill="#08FA95" transform="matrix(1.00, 0.00, -0.00, -1.00, 554.5, 124.3)"> </text><text xml:space="preserve" font-family="Menlo-Regular,Menlo" font-size="30.0" fill="#DD38A5" transform="matrix(1.00, 0.00, -0.00, -1.00, 572.5, 124.3)">a</text><text xml:space="preserve" font-family="Menlo-Regular,Menlo" font-size="30.0" fill="#DD38A5" transform="matrix(1.00, 0.00, -0.00, -1.00, 590.6, 124.3)">s</text><text xml:space="preserve" font-family="Menlo-Regular,Menlo" font-size="30.0" fill="#08FA95" transform="matrix(1.00, 0.00, -0.00, -1.00, 608.6, 124.3)">?</text><text xml:space="preserve" font-family="Menlo-Regular,Menlo" font-size="30.0" fill="#08FA95" transform="matrix(1.00, 0.00, -0.00, -1.00, 626.7, 124.3)"> </text><text xml:space="preserve" font-family="Menlo-Regular,Menlo" font-size="30.0" fill="#08FA95" transform="matrix(1.00, 0.00, -0.00, -1.00, 644.8, 124.3)">[</text><text xml:space="preserve" font-family="Menlo-Regular,Menlo" font-size="30.0" fill="#00B1FF" transform="matrix(1.00, 0.00, -0.00, -1.00, 662.8, 124.3)">S</text><text xml:space="preserve" font-family="Menlo-Regular,Menlo" font-size="30.0" fill="#00B1FF" transform="matrix(1.00, 0.00, -0.00, -1.00, 680.9, 124.3)">t</text><text xml:space="preserve" font-family="Menlo-Regular,Menlo" font-size="30.0" fill="#00B1FF" transform="matrix(1.00, 0.00, -0.00, -1.00, 698.9, 124.3)">r</text><text xml:space="preserve" font-family="Menlo-Regular,Menlo" font-size="30.0" fill="#00B1FF" transform="matrix(1.00, 0.00, -0.00, -1.00, 717.0, 124.3)">i</text><text xml:space="preserve" font-family="Menlo-Regular,Menlo" font-size="30.0" fill="#00B1FF" transform="matrix(1.00, 0.00, -0.00, -1.00, 735.1, 124.3)">n</text><text xml:space="preserve" font-family="Menlo-Regular,Menlo" font-size="30.0" fill="#00B1FF" transform="matrix(1.00, 0.00, -0.00, -1.00, 753.1, 124.3)">g</text><text xml:space="preserve" font-family="Menlo-Regular,Menlo" font-size="30.0" fill="#08FA95" transform="matrix(1.00, 0.00, -0.00, -1.00, 771.2, 124.3)">:</text><text xml:space="preserve" font-family="Menlo-Regular,Menlo" font-size="30.0" fill="#08FA95" transform="matrix(1.00, 0.00, -0.00, -1.00, 789.3, 124.3)"> </text><text xml:space="preserve" font-family="Menlo-Regular,Menlo" font-size="30.0" fill="#08FA95" transform="matrix(1.00, 0.00, -0.00, -1.00, 807.3, 124.3)"> </text><text xml:space="preserve" font-family="Menlo-Regular,Menlo" font-size="30.0" fill="#00B1FF" transform="matrix(1.00, 0.00, -0.00, -1.00, 825.4, 124.3)">A</text><text xml:space="preserve" font-family="Menlo-Regular,Menlo" font-size="30.0" fill="#00B1FF" transform="matrix(1.00, 0.00, -0.00, -1.00, 843.4, 124.3)">n</text><text xml:space="preserve" font-family="Menlo-Regular,Menlo" font-size="30.0" fill="#00B1FF" transform="matrix(1.00, 0.00, -0.00, -1.00, 861.5, 124.3)">y</text><text xml:space="preserve" font-family="Menlo-Regular,Menlo" font-size="30.0" fill="#00B1FF" transform="matrix(1.00, 0.00, -0.00, -1.00, 879.6, 124.3)">O</text><text xml:space="preserve" font-family="Menlo-Regular,Menlo" font-size="30.0" fill="#00B1FF" transform="matrix(1.00, 0.00, -0.00, -1.00, 897.6, 124.3)">b</text><text xml:space="preserve" font-family="Menlo-Regular,Menlo" font-size="30.0" fill="#00B1FF" transform="matrix(1.00, 0.00, -0.00, -1.00, 915.7, 124.3)">j</text><text xml:space="preserve" font-family="Menlo-Regular,Menlo" font-size="30.0" fill="#00B1FF" transform="matrix(1.00, 0.00, -0.00, -1.00, 933.8, 124.3)">e</text><text xml:space="preserve" font-family="Menlo-Regular,Menlo" font-size="30.0" fill="#00B1FF" transform="matrix(1.00, 0.00, -0.00, -1.00, 951.8, 124.3)">c</text><text xml:space="preserve" font-family="Menlo-Regular,Menlo" font-size="30.0" fill="#00B1FF" transform="matrix(1.00, 0.00, -0.00, -1.00, 969.9, 124.3)">t</text><text xml:space="preserve" font-family="Menlo-Regular,Menlo" font-size="30.0" fill="#08FA95" transform="matrix(1.00, 0.00, -0.00, -1.00, 987.9, 124.3)">]</text><text xml:space="preserve" font-family="Menlo-Regular,Menlo" font-size="30.0" fill="#08FA95" transform="matrix(1.00, 0.00, -0.00, -1.00, 1006.0, 124.3)"> </text><text xml:space="preserve" font-family="Menlo-Regular,Menlo" font-size="30.0" fill="#08FA95" transform="matrix(1.00, 0.00, -0.00, -1.00, 1024.1, 124.3)">{</text><text xml:space="preserve" font-family="Menlo-Regular,Menlo" font-size="30.0" fill="#08FA95" transform="matrix(1.00, 0.00, -0.00, -1.00, 1042.1, 124.3)"> </text><text xml:space="preserve" font-family="Menlo-Regular,Menlo" font-size="30.0" fill="#FFFFFF" transform="matrix(1.00, 0.00, -0.00, -1.00, 12.6, 89.3)"> </text><text xml:space="preserve" font-family="Menlo-Regular,Menlo" font-size="30.0" fill="#FFFFFF" transform="matrix(1.00, 0.00, -0.00, -1.00, 30.7, 89.3)"> </text><text xml:space="preserve" font-family="Menlo-Regular,Menlo" font-size="30.0" fill="#FFFFFF" transform="matrix(1.00, 0.00, -0.00, -1.00, 48.7, 89.3)"> </text><text xml:space="preserve" font-family="Menlo-Regular,Menlo" font-size="30.0" fill="#FFFFFF" transform="matrix(1.00, 0.00, -0.00, -1.00, 66.8, 89.3)"> </text><text xml:space="preserve" font-family="Menlo-Regular,Menlo" font-size="30.0" fill="#FFFFFF" transform="matrix(1.00, 0.00, -0.00, -1.00, 84.9, 89.3)"> </text><text xml:space="preserve" font-family="Menlo-Regular,Menlo" font-size="30.0" fill="#FFFFFF" transform="matrix(1.00, 0.00, -0.00, -1.00, 102.9, 89.3)"> </text><text xml:space="preserve" font-family="Menlo-Regular,Menlo" font-size="30.0" fill="#FFFFFF" transform="matrix(1.00, 0.00, -0.00, -1.00, 121.0, 89.3)"> </text><text xml:space="preserve" font-family="Menlo-Regular,Menlo" font-size="30.0" fill="#FFFFFF" transform="matrix(1.00, 0.00, -0.00, -1.00, 139.1, 89.3)"> </text><text xml:space="preserve" font-family="Menlo-Regular,Menlo" font-size="30.0" fill="#FFFFFF" transform="matrix(1.00, 0.00, -0.00, -1.00, 157.1, 89.3)">f</text><text xml:space="preserve" font-family="Menlo-Regular,Menlo" font-size="30.0" fill="#FFFFFF" transform="matrix(1.00, 0.00, -0.00, -1.00, 175.2, 89.3)">i</text><text xml:space="preserve" font-family="Menlo-Regular,Menlo" font-size="30.0" fill="#FFFFFF" transform="matrix(1.00, 0.00, -0.00, -1.00, 193.3, 89.3)">e</text><text xml:space="preserve" font-family="Menlo-Regular,Menlo" font-size="30.0" fill="#FFFFFF" transform="matrix(1.00, 0.00, -0.00, -1.00, 211.3, 89.3)">l</text><text xml:space="preserve" font-family="Menlo-Regular,Menlo" font-size="30.0" fill="#FFFFFF" transform="matrix(1.00, 0.00, -0.00, -1.00, 229.4, 89.3)">d</text><text xml:space="preserve" font-family="Menlo-Regular,Menlo" font-size="30.0" fill="#FFFFFF" transform="matrix(1.00, 0.00, -0.00, -1.00, 247.4, 89.3)"> </text><text xml:space="preserve" font-family="Menlo-Regular,Menlo" font-size="30.0" fill="#FFFFFF" transform="matrix(1.00, 0.00, -0.00, -1.00, 265.5, 89.3)">=</text><text xml:space="preserve" font-family="Menlo-Regular,Menlo" font-size="30.0" fill="#FFFFFF" transform="matrix(1.00, 0.00, -0.00, -1.00, 283.6, 89.3)"> </text><text xml:space="preserve" font-family="Menlo-Regular,Menlo" font-size="30.0" fill="#08FA95" transform="matrix(1.00, 0.00, -0.00, -1.00, 301.6, 89.3)">J</text><text xml:space="preserve" font-family="Menlo-Regular,Menlo" font-size="30.0" fill="#08FA95" transform="matrix(1.00, 0.00, -0.00, -1.00, 319.7, 89.3)">s</text><text xml:space="preserve" font-family="Menlo-Regular,Menlo" font-size="30.0" fill="#08FA95" transform="matrix(1.00, 0.00, -0.00, -1.00, 337.7, 89.3)">o</text><text xml:space="preserve" font-family="Menlo-Regular,Menlo" font-size="30.0" fill="#08FA95" transform="matrix(1.00, 0.00, -0.00, -1.00, 355.8, 89.3)">n</text><text xml:space="preserve" font-family="Menlo-Regular,Menlo" font-size="30.0" fill="#08FA95" transform="matrix(1.00, 0.00, -0.00, -1.00, 373.8, 89.3)">S</text><text xml:space="preserve" font-family="Menlo-Regular,Menlo" font-size="30.0" fill="#08FA95" transform="matrix(1.00, 0.00, -0.00, -1.00, 391.9, 89.3)">Z</text><text xml:space="preserve" font-family="Menlo-Regular,Menlo" font-size="30.0" fill="#FFFFFF" transform="matrix(1.00, 0.00, -0.00, -1.00, 410.0, 89.3)">(</text><text xml:space="preserve" font-family="Menlo-Regular,Menlo" font-size="30.0" fill="#FFFFFF" transform="matrix(1.00, 0.00, -0.00, -1.00, 428.0, 89.3)">)</text><text xml:space="preserve" font-family="Menlo-Regular,Menlo" font-size="30.0" fill="#FFFFFF" transform="matrix(1.00, 0.00, -0.00, -1.00, 446.1, 89.3)">.</text><text xml:space="preserve" font-family="Menlo-Regular,Menlo" font-size="30.0" fill="#08FA95" transform="matrix(1.00, 0.00, -0.00, -1.00, 464.1, 89.3)">f</text><text xml:space="preserve" font-family="Menlo-Regular,Menlo" font-size="30.0" fill="#08FA95" transform="matrix(1.00, 0.00, -0.00, -1.00, 482.2, 89.3)">r</text><text xml:space="preserve" font-family="Menlo-Regular,Menlo" font-size="30.0" fill="#08FA95" transform="matrix(1.00, 0.00, -0.00, -1.00, 500.3, 89.3)">o</text><text xml:space="preserve" font-family="Menlo-Regular,Menlo" font-size="30.0" fill="#08FA95" transform="matrix(1.00, 0.00, -0.00, -1.00, 518.3, 89.3)">m</text><text xml:space="preserve" font-family="Menlo-Regular,Menlo" font-size="30.0" fill="#08FA95" transform="matrix(1.00, 0.00, -0.00, -1.00, 536.4, 89.3)">J</text><text xml:space="preserve" font-family="Menlo-Regular,Menlo" font-size="30.0" fill="#08FA95" transform="matrix(1.00, 0.00, -0.00, -1.00, 554.5, 89.3)">S</text><text xml:space="preserve" font-family="Menlo-Regular,Menlo" font-size="30.0" fill="#08FA95" transform="matrix(1.00, 0.00, -0.00, -1.00, 572.5, 89.3)">O</text><text xml:space="preserve" font-family="Menlo-Regular,Menlo" font-size="30.0" fill="#08FA95" transform="matrix(1.00, 0.00, -0.00, -1.00, 590.6, 89.3)">N</text><text xml:space="preserve" font-family="Menlo-Regular,Menlo" font-size="30.0" fill="#FFFFFF" transform="matrix(1.00, 0.00, -0.00, -1.00, 608.6, 89.3)">(</text><text xml:space="preserve" font-family="Menlo-Regular,Menlo" font-size="30.0" fill="#FFFFFF" transform="matrix(1.00, 0.00, -0.00, -1.00, 626.7, 89.3)">v</text><text xml:space="preserve" font-family="Menlo-Regular,Menlo" font-size="30.0" fill="#FFFFFF" transform="matrix(1.00, 0.00, -0.00, -1.00, 644.8, 89.3)">a</text><text xml:space="preserve" font-family="Menlo-Regular,Menlo" font-size="30.0" fill="#FFFFFF" transform="matrix(1.00, 0.00, -0.00, -1.00, 662.8, 89.3)">l</text><text xml:space="preserve" font-family="Menlo-Regular,Menlo" font-size="30.0" fill="#FFFFFF" transform="matrix(1.00, 0.00, -0.00, -1.00, 680.9, 89.3)">u</text><text xml:space="preserve" font-family="Menlo-Regular,Menlo" font-size="30.0" fill="#FFFFFF" transform="matrix(1.00, 0.00, -0.00, -1.00, 699.0, 89.3)">e</text><text xml:space="preserve" font-family="Menlo-Regular,Menlo" font-size="30.0" fill="#FFFFFF" transform="matrix(1.00, 0.00, -0.00, -1.00, 717.0, 89.3)">,</text><text xml:space="preserve" font-family="Menlo-Regular,Menlo" font-size="30.0" fill="#FFFFFF" transform="matrix(1.00, 0.00, -0.00, -1.00, 735.1, 89.3)"> </text><text xml:space="preserve" font-family="Menlo-Regular,Menlo" font-size="30.0" fill="#FFFFFF" transform="matrix(1.00, 0.00, -0.00, -1.00, 753.2, 89.3)">t</text><text xml:space="preserve" font-family="Menlo-Regular,Menlo" font-size="30.0" fill="#FFFFFF" transform="matrix(1.00, 0.00, -0.00, -1.00, 771.2, 89.3)">o</text><text xml:space="preserve" font-family="Menlo-Regular,Menlo" font-size="30.0" fill="#FFFFFF" transform="matrix(1.00, 0.00, -0.00, -1.00, 789.3, 89.3)">:</text><text xml:space="preserve" font-family="Menlo-Regular,Menlo" font-size="30.0" fill="#FFFFFF" transform="matrix(1.00, 0.00, -0.00, -1.00, 807.3, 89.3)"> </text><text xml:space="preserve" font-family="Menlo-Regular,Menlo" font-size="30.0" fill="#00B1FF" transform="matrix(1.00, 0.00, -0.00, -1.00, 825.4, 89.3)">T</text><text xml:space="preserve" font-family="Menlo-Regular,Menlo" font-size="30.0" fill="#FFFFFF" transform="matrix(1.00, 0.00, -0.00, -1.00, 843.4, 89.3)">.</text><text xml:space="preserve" font-family="Menlo-Regular,Menlo" font-size="30.0" fill="#DD38A5" transform="matrix(1.00, 0.00, -0.00, -1.00, 861.5, 89.3)">s</text><text xml:space="preserve" font-family="Menlo-Regular,Menlo" font-size="30.0" fill="#DD38A5" transform="matrix(1.00, 0.00, -0.00, -1.00, 879.6, 89.3)">e</text><text xml:space="preserve" font-family="Menlo-Regular,Menlo" font-size="30.0" fill="#DD38A5" transform="matrix(1.00, 0.00, -0.00, -1.00, 897.6, 89.3)">l</text><text xml:space="preserve" font-family="Menlo-Regular,Menlo" font-size="30.0" fill="#DD38A5" transform="matrix(1.00, 0.00, -0.00, -1.00, 915.7, 89.3)">f</text><text xml:space="preserve" font-family="Menlo-Regular,Menlo" font-size="30.0" fill="#FFFFFF" transform="matrix(1.00, 0.00, -0.00, -1.00, 933.7, 89.3)">)</text><text xml:space="preserve" font-family="Menlo-Regular,Menlo" font-size="30.0" fill="#FFFFFF" transform="matrix(1.00, 0.00, -0.00, -1.00, 951.8, 89.3)"> </text><text xml:space="preserve" font-family="Menlo-Regular,Menlo" font-size="30.0" fill="#FFFFFF" transform="matrix(1.00, 0.00, -0.00, -1.00, 12.6, 54.3)"> </text><text xml:space="preserve" font-family="Menlo-Regular,Menlo" font-size="30.0" fill="#FFFFFF" transform="matrix(1.00, 0.00, -0.00, -1.00, 30.7, 54.3)"> </text><text xml:space="preserve" font-family="Menlo-Regular,Menlo" font-size="30.0" fill="#FFFFFF" transform="matrix(1.00, 0.00, -0.00, -1.00, 48.7, 54.3)"> </text><text xml:space="preserve" font-family="Menlo-Regular,Menlo" font-size="30.0" fill="#FFFFFF" transform="matrix(1.00, 0.00, -0.00, -1.00, 66.8, 54.3)"> </text><text xml:space="preserve" font-family="Menlo-Regular,Menlo" font-size="30.0" fill="#FFFFFF" transform="matrix(1.00, 0.00, -0.00, -1.00, 84.9, 54.3)">}</text><text xml:space="preserve" font-family="Menlo-Regular,Menlo" font-size="30.0" fill="#FFFFFF" transform="matrix(1.00, 0.00, -0.00, -1.00, 102.9, 54.3)"> </text><text xml:space="preserve" font-family="Menlo-Regular,Menlo" font-size="30.0" fill="#FFFFFF" transform="matrix(1.00, 0.00, -0.00, -1.00, 12.6, 19.3)">}</text></g></g></g></svg>